<svg width="17" height="9" xmlns="http://www.w3.org/2000/svg"><title>EuroAszfalt_logo</title><g fill="none" fill-rule="evenodd"><path fill="#151616" d="M5.05 6.504h6.883V0H5.05z"/><path fill="#000" d="M5.487.303L5.34.69l.263.772.67-.166.176-.744zm5.163 4.879l-.233 1.048 1.313-.359-.38-.827zm-.875-3.418l-.67.22.7.497.903-.441zM6.041 4.786l.037.54.693-.074.612-.644-.875-.556zm1.751-2.057l-.117.8h.613l.495-.194-.233-.606-.262-.386zm-1.109-.717l-.467.138.03.303.437.33.758.056-.145-.551-.117-.331zM7.091.634l.35.716.905-.165-.03-.468L7.734.44zm1.955 3.611l-.437.358.495.717 1.167-.248-.204-.8zm1.742-.977l-.633.408.201.297.942.233.32-.494-.21-.216zM9.863.607l-.584.22.292.33.933.386.555-.44-.41-.442-.466-.303zM7.412 5.43l-.612.524.904.248.758-.166zm2.013.028l-.496.495.817.36.32-.607zM5.4 3.142l-.176.413.409.331.788-.413-.526-.579zm-.059 2.371l-.146.606.409.249.7-.304zm4.237-1.575l-.588-.851.358-.275.445.961zm1.743-1.595l-.875.496-.204.248h.35l.991-.413zM11.35.662l-.204.881.262.359.205-.276.058-1.02zM7.732 1.923l.848-.41.38.086-.03.137-.878.437zm-2.274.007l-.117.275.409.33.32-.44zm.029 2.535l-.263.166.088.248.32.165.205-.248-.058-.193zM7.25 3.25l-.361.048.087.42.3.13.258-.197z"/><path fill="#151616" d="M0 7.75v1.229h.675V8.85h-.53v-.48h.514v-.127H.145v-.366h.53V7.75zm1.684.732c0 .091-.004.195.057.273a.345.345 0 0 0 .262.118.35.35 0 0 0 .256-.11c.068-.078.063-.185.063-.281v-.733h.145v.77c0 .133-.012.238-.114.34a.502.502 0 0 1-.35.14.501.501 0 0 1-.336-.125c-.114-.102-.128-.215-.128-.355v-.77h.145v.733zm1.806.497h-.145v-1.23h.189c.247 0 .476.062.476.34 0 .189-.126.322-.326.339l.414.55H3.92l-.393-.54H3.49v.54zm0-.66h.045c.164 0 .33-.03.33-.22 0-.203-.157-.223-.331-.223H3.49v.442zm2.702.047c0 .354-.307.634-.678.634-.37 0-.678-.28-.678-.634 0-.352.307-.638.678-.638.371 0 .678.286.678.638zm-1.211-.002c0 .277.238.509.533.509a.523.523 0 0 0 .533-.509.52.52 0 0 0-.533-.508.52.52 0 0 0-.533.508zm2.224.266l-.157.349H6.89l.6-1.289.585 1.288h-.16l-.154-.35h-.556zm.282-.62l-.223.493h.44l-.217-.493zm1.941-.021c-.052-.085-.114-.133-.225-.133-.115 0-.215.078-.215.19 0 .106.115.155.203.192l.086.036c.17.07.312.15.312.346 0 .216-.182.38-.408.38a.397.397 0 0 1-.406-.318l.142-.038c.019.126.12.229.26.229s.268-.101.268-.24c0-.144-.118-.194-.24-.244l-.08-.033c-.153-.063-.282-.139-.282-.315 0-.19.17-.313.364-.313.145 0 .267.07.337.191l-.116.07zm1.82.862v.128h-.932l.71-1.102h-.62v-.128h.86l-.71 1.102zm.952-.975v.366h.433v.127H12.2v.61h-.144v-1.23h.59v.127zm1.358.754l-.157.349h-.159l.601-1.288.585 1.288h-.16l-.155-.35h-.555zm.281-.62l-.222.493h.44l-.218-.493zm1.494.841h.353v.128h-.496v-1.23h.143zm.873-1.101v.126h.314V8.98h.145V7.876h.317V7.75z"/></g></svg>