<svg width="395" height="75" xmlns="http://www.w3.org/2000/svg" xmlns:xlink="http://www.w3.org/1999/xlink"><title>budapest_16,5mm_blue</title><defs><path id="a" d="M.036.334h42.262V42.63H.036z"/></defs><g fill="none" fill-rule="evenodd"><mask id="b" fill="#fff"><use xlink:href="#a"/></mask><path d="M42.298 21.525c0 11.716-9.433 21.106-21.192 21.106C9.475 42.631 0 33.2 0 21.566 0 9.682 9.475.334 21.53.334c11.378 0 20.768 9.6 20.768 21.191zm-40.395-.043c0 10.66 8.587 19.245 19.203 19.245 10.66 0 19.288-8.543 19.288-19.16 0-10.828-8.502-19.33-19.414-19.33-10.448 0-19.077 8.713-19.077 19.245zm13.662-.507l-.169.38c-1.184-.38-1.903-.592-2.58-.888-.465-.211-1.015-.423-2.623-1.142l-.126.296.677.38 1.776.931c1.777.973 2.96 1.354 4.314 1.354 2.961 0 5.626-2.115 7.276-5.837a36.489 36.489 0 0 1 5.372-.381c2.58 0 5.286.254 9.432.889l-.931.972c-3.13-.507-5.752-.72-8.164-.72-.422 0-.803 0-1.776.043l-.338.55c.76-.042 1.015-.042 1.777-.042 2.41 0 5.202.254 7.993.72l-.93.93a43.89 43.89 0 0 0-7.106-.55c-.761 0-1.396 0-2.411.084l-.38.592c.93-.084 1.395-.084 2.114-.084 2.834 0 5.626.17 7.318.423l-.889.93c-2.537-.295-3.51-.338-5.414-.338-1.438 0-2.326.043-3.807.169l-.38.635c1.269-.17 2.665-.254 4.441-.254 1.523 0 2.623.042 4.695.254l-.93.93c-1.227-.084-1.904-.127-2.877-.127-3.891 0-6.556.635-9.728 2.327 2.664 2.707 7.148 4.568 10.828 4.399l-1.184 1.48c-7.655-2.03-11.505-3.68-17.427-7.4-4.822-2.92-6.64-3.85-10.236-5.076l.296-.846c1.523.55 1.82.634 2.58.972l.339-.888 9.178 3.934z" fill="#101B48" mask="url(#b)"/><path d="M77.537 7.397v22.63h11.928v5.582h-18.99V7.397h7.062zm26.69 28.212l-.212-1.987c-1.649 1.734-3.51 2.538-5.836 2.538-2.877 0-5.203-1.185-6.387-3.215-.888-1.523-1.016-2.284-1.016-5.626V15.307h6.641v11.758c0 2.961.846 4.188 2.919 4.188 2.2 0 3.299-1.438 3.299-4.188V15.307h6.64v20.302h-6.048zm21.106-23.728h-1.099c-2.453 0-3.088.592-3.088 2.833v.593h3.934v4.483h-3.934v15.82h-6.64V19.79h-2.877v-4.483h2.876v-.593c0-5.329 1.989-7.317 7.191-7.317h3.637v4.484zm10.194-2.919v6.345h3.765v4.483h-3.765v8.037c.042 2.96.212 3.13 2.75 3.13h1.31v4.652h-4.99c-3.934 0-5.71-1.818-5.71-5.963V19.79h-2.792v-4.483h2.792V8.962h6.64zm12.182-1.565v10.194c1.227-1.988 2.96-2.877 5.541-2.877 2.791 0 5.033 1.185 6.26 3.342.888 1.565 1.015 2.41 1.015 5.795V35.61h-6.599V24.104c0-2.918-.888-4.229-2.918-4.229-2.2 0-3.299 1.438-3.299 4.23v11.504h-6.64V7.397h6.64zm15.65 14.382c0-4.611 3.595-7.318 9.601-7.318 6.303 0 9.433 2.622 9.433 7.952v10.363c0 1.776 0 1.776.55 2.833h-6.133l-.381-1.692c-2.115 1.862-3.934 2.539-6.598 2.539-4.484 0-7.741-2.665-7.741-6.345 0-3.046 1.988-5.202 5.88-6.302.592-.17 2.537-.55 5.879-1.185 1.438-.296 1.988-.762 1.988-1.734 0-1.142-1.185-1.904-2.961-1.904-2.157 0-3.426 1.016-3.468 2.793h-6.049zm12.647 4.103c-.846.253-1.1.337-1.777.55-.803.21-1.523.379-2.41.55-2.158.549-3.215 1.394-3.215 2.706 0 1.311 1.015 2.072 2.664 2.072 3.215 0 4.738-1.438 4.738-4.44v-1.438zm14.762-10.575l.21 2.284c1.566-1.988 3.427-2.877 5.88-2.877 2.834 0 5.118 1.227 6.303 3.342.846 1.565 1.015 2.454 1.015 5.795V35.61h-6.641V24.104c0-3.003-.846-4.229-2.918-4.229-2.157 0-3.257 1.438-3.257 4.23v11.504h-6.641V15.307h6.049zm28.001 6.345c-.17-1.904-.973-2.623-3.004-2.623-1.649 0-2.665.634-2.665 1.692 0 .973.974 1.565 3.173 1.903l2.284.423c4.822.804 7.064 2.835 7.064 6.345 0 4.314-3.68 7.064-9.433 7.064-6.81 0-10.532-2.707-10.532-7.615h6.472v.255c0 1.691 1.396 2.749 3.637 2.749 1.946 0 3.13-.719 3.13-1.86 0-1.185-1.1-1.862-3.68-2.327l-2.115-.339c-4.821-.845-6.894-2.58-6.894-5.794 0-4.4 3.68-7.064 9.728-7.064 4.23 0 6.853 1.142 8.206 3.595.592 1.016.677 1.354.846 3.596h-6.217zm9.262.127c.043-4.57 3.638-7.318 9.687-7.318 6.302 0 9.39 2.622 9.39 7.952v10.363c0 1.734 0 1.734.55 2.833h-6.176l-.338-1.692c-2.453 1.989-3.892 2.539-6.599 2.539-4.525 0-7.783-2.665-7.783-6.345 0-3.046 1.989-5.202 5.88-6.302.592-.17 2.538-.593 5.88-1.185 1.395-.296 1.987-.762 1.987-1.734 0-1.142-1.184-1.904-2.918-1.904-2.158 0-3.468 1.058-3.468 2.793h-6.092zm12.69 4.103c-.846.253-1.142.337-1.82.55-.718.126-1.522.295-2.41.55-2.157.549-3.215 1.394-3.215 2.706 0 1.311 1.016 2.072 2.708 2.072 3.214 0 4.737-1.438 4.737-4.44v-1.438zm38.503-18.485v5.499h-8.502v22.713h-7.063V12.896h-8.502V7.397h24.067" fill="#101B48"/><path d="M296.146 29.181c-.381 4.145-4.737 7.275-10.152 7.275-6.683 0-11.124-4.357-11.124-10.997 0-6.473 4.569-11.04 11.082-11.04 4.526 0 8.037 2.241 9.601 6.133.593 1.48 1.016 3.849 1.016 5.583 0 .169 0 .507-.043.888h-14.888c.38 2.961 1.903 4.568 4.23 4.568 1.733 0 3.13-.888 3.722-2.41h6.556zm-6.599-6.472c-.084-2.242-1.565-3.637-3.722-3.637-2.242 0-3.764 1.395-3.934 3.637h7.656zm29.568 5.372c-.718 5.625-4.102 8.375-10.405 8.375-6.683 0-10.659-3.934-10.659-10.618 0-7.063 4.188-11.377 11.124-11.377 3.892 0 6.642 1.269 8.333 3.849.973 1.48 1.396 2.919 1.523 4.822h-6.556c-.127-2.284-1.397-3.51-3.596-3.51-2.538 0-4.018 2.199-4.018 5.879 0 3.807 1.48 5.836 4.272 5.836 2.03 0 3.088-1.015 3.342-3.256h6.64m8.207-20.684v10.194c1.184-1.945 2.918-2.834 5.456-2.834 2.834 0 5.118 1.184 6.345 3.341.846 1.523 1.015 2.412 1.015 5.753V35.61h-6.641V24.104c0-2.96-.846-4.187-2.876-4.187-1.185 0-2.326.635-2.834 1.565-.296.635-.465 1.439-.465 2.622V35.61h-6.641V7.397h6.64m21.36 7.91l.212 2.284c1.522-1.903 3.426-2.834 5.837-2.834 2.833 0 5.118 1.184 6.344 3.341.847 1.523 1.015 2.412 1.015 5.753V35.61h-6.64V24.104c0-2.96-.847-4.187-2.876-4.187-1.185 0-2.327.635-2.834 1.565-.297.635-.465 1.439-.465 2.622V35.61h-6.642V15.307h6.049m15.903 20.302h6.64V15.307h-6.64v20.302zm0-22.966h6.64V7.397h-6.64v5.246zm15.735-5.246v14.34l5.964-6.43h7.402l-7.36 7.614 8.417 12.688h-7.656l-5.371-8.417-1.396 1.312v7.105h-6.64V7.397h6.64" fill="#101B48"/><text font-family="LucidaGrande, Lucida Grande" font-size="36" letter-spacing="-.024" fill="#101B48"><tspan x="68.015" y="67.77">Bu</tspan> <tspan x="111.016" y="67.77" letter-spacing=".696">d</tspan> <tspan x="134.37" y="67.77" letter-spacing=".336">a</tspan> <tspan x="154.587" y="67.77" letter-spacing=".696">pe</tspan> <tspan x="198.694" y="67.77" letter-spacing="1.056">s</tspan> <tspan x="218.101" y="67.77">t</tspan></text></g></svg>