<svg width="38" height="17" xmlns="http://www.w3.org/2000/svg" xmlns:xlink="http://www.w3.org/1999/xlink"><title>Leax_Hungary_Logo</title><defs><path id="a" d="M.006.09h16.196v16.904H.006z"/></defs><g fill="none" fill-rule="evenodd"><g transform="translate(-1)"><mask id="b" fill="#fff"><use xlink:href="#a"/></mask><path d="M7.34 17v-5.548H1.594c.069 3.037 2.605 5.485 5.746 5.547m0-5.823V5.654c-3.133.06-5.663 2.496-5.745 5.52l5.745.002M7.57.09v5.563c3.138.056 5.691 2.494 5.774 5.522h1.57v.277h-1.57v-.278l-6.002.002v.276h6.002c-.068 3.046-2.62 5.501-5.775 5.548 4.788-.047 8.633-3.81 8.633-8.452 0-4.636-3.853-8.4-8.633-8.457" fill="#BC3331" mask="url(#b)"/></g><path fill="#1A1919" d="M20.562 10.314h-3.71V4.01h1.323v5.173h2.387v1.131m1.088 0V4.01h4.219v1.112h-2.896v1.475h2.32V7.69h-2.32V9.2h2.896v1.113H21.65m7.617-5.246l-.662 2.994h1.783l-.661-2.994h-.46zm-2.493 5.247l1.467-6.304h2.512l1.467 6.304h-1.324l-.258-1.14h-2.282l-.259 1.14h-1.323zm7.392-6.304l1.208 2.318 1.237-2.318h1.37l-1.878 3.217 1.879 3.087h-1.467l-1.208-2.179-1.237 2.18H32.7l1.88-3.023L32.7 4.01h1.467M23.668 14.606v-1.01h-1.173v1.01h-.257v-2.231h.257v1h1.173v-1h.254v2.231h-.254m1.327-.671c0 .323.18.484.54.484.187 0 .328-.038.422-.114.095-.077.142-.2.142-.37v-1.56h.253v1.554c0 .25-.068.43-.205.542-.136.111-.338.167-.605.167-.267 0-.467-.056-.602-.167-.134-.112-.201-.293-.201-.542v-1.554h.256v1.56m2.175.671v-2.231h.48l.883 2.012h.07v-2.012h.253v2.231h-.47l-.897-2.012h-.063v2.012h-.257m3.434-.919v-.222h.637v1.096c-.28.052-.53.077-.75.077-.336 0-.569-.093-.699-.28-.13-.187-.195-.476-.195-.866s.065-.68.195-.867c.13-.188.361-.282.692-.282.207 0 .421.021.644.064l.113.02-.01.206a4.518 4.518 0 0 0-.717-.068c-.255 0-.428.072-.517.215-.088.143-.133.38-.133.712 0 .332.044.57.133.713.09.143.26.214.514.214.155 0 .314-.015.477-.045v-.687h-.384m2.031-1.099l-.35 1.222h.873l-.35-1.222h-.173zm-.827 2.018l.633-2.231H33l.634 2.231h-.253l-.167-.574h-.987l-.167.574h-.253zm3.314-1.074c.313 0 .47-.156.47-.469 0-.312-.158-.469-.473-.469h-.597v.938h.6zm-.6.22v.854h-.257v-2.231h.854c.244 0 .428.055.552.164.123.11.185.28.185.513 0 .344-.142.56-.424.648l.444.906h-.284l-.416-.854h-.654zm2.737.854h-.256v-.938l-.737-1.293h.29l.573 1.045.574-1.045h.29l-.734 1.293v.938"/></g></svg>