<svg width="66" height="13" xmlns="http://www.w3.org/2000/svg" xmlns:xlink="http://www.w3.org/1999/xlink"><title>budapest_16,5mm_yel</title><defs><path id="a" d="M.006.056H7.05v7.05H.006z"/></defs><g fill="none" fill-rule="evenodd"><mask id="b" fill="#fff"><use xlink:href="#a"/></mask><path d="M7.05 3.587a3.513 3.513 0 0 1-3.532 3.518A3.517 3.517 0 0 1 0 3.595C0 1.613 1.58.054 3.588.054c1.897 0 3.462 1.6 3.462 3.532zM.317 3.58a3.2 3.2 0 0 0 3.2 3.208 3.2 3.2 0 0 0 3.215-3.194C6.732 1.79 5.315.373 3.497.373 1.755.373.317 1.825.317 3.58zm2.277-.084l-.028.063c-.197-.063-.317-.099-.43-.148-.078-.035-.17-.07-.437-.19l-.021.05.113.063.296.155c.296.162.493.225.719.225.493 0 .937-.352 1.212-.973.29-.042.578-.063.896-.063.43 0 .88.042 1.572.148l-.155.162a8.404 8.404 0 0 0-1.361-.12c-.07 0-.134 0-.296.007l-.057.092c.127-.007.17-.007.297-.007.401 0 .867.042 1.332.12l-.155.155a7.315 7.315 0 0 0-1.184-.092c-.127 0-.233 0-.402.014l-.064.099c.155-.014.233-.014.353-.014.472 0 .937.028 1.22.07l-.149.156a6.352 6.352 0 0 0-.902-.057c-.24 0-.388.007-.635.028l-.063.106c.212-.028.444-.042.74-.042.254 0 .437.007.783.042l-.155.155a6.257 6.257 0 0 0-.48-.021c-.648 0-1.092.106-1.621.388.444.451 1.191.761 1.804.733l-.197.247c-1.276-.339-1.917-.614-2.904-1.234-.804-.486-1.107-.642-1.706-.846l.049-.14c.254.09.303.105.43.161l.056-.148 1.53.656z" fill="#F2B229" mask="url(#b)"/><path d="M12.923 1.233v3.771h1.988v.93h-3.165v-4.7h1.177zm4.448 4.702l-.035-.331a1.268 1.268 0 0 1-.973.423c-.48 0-.867-.198-1.064-.536-.148-.254-.17-.38-.17-.938V2.551h1.107v1.96c0 .493.141.698.487.698.366 0 .55-.24.55-.698V2.55h1.106v3.384h-1.008zM20.89 1.98h-.183c-.41 0-.515.099-.515.472v.1h.656v.746h-.656v2.637h-1.107V3.298h-.48v-.747h.48v-.099c0-.888.332-1.22 1.199-1.22h.606v.748zm1.699-.486V2.55h.627v.747h-.627v1.34c.007.493.035.522.458.522h.219v.775h-.832c-.656 0-.952-.303-.952-.994V3.298h-.465v-.747h.465V1.494h1.107zm2.03-.261v1.699c.205-.332.494-.48.924-.48.465 0 .838.198 1.043.557.148.261.17.402.17.966v1.96h-1.1V4.017c0-.486-.149-.705-.487-.705-.367 0-.55.24-.55.705v1.918h-1.107V1.233h1.107zm2.609 2.397c0-.769.599-1.22 1.6-1.22 1.05 0 1.572.437 1.572 1.325v1.728c0 .296 0 .296.091.472h-1.022l-.063-.282c-.353.31-.656.423-1.1.423-.747 0-1.29-.444-1.29-1.057 0-.508.331-.867.98-1.05.099-.03.423-.092.98-.198.24-.05.331-.127.331-.29 0-.19-.197-.317-.493-.317-.36 0-.571.17-.578.466h-1.008zm2.107.684l-.296.091a5.796 5.796 0 0 1-.402.092c-.36.091-.535.232-.535.451 0 .218.169.345.444.345.535 0 .79-.24.79-.74v-.24zm2.46-1.763l.036.38c.26-.33.57-.479.98-.479.472 0 .853.205 1.05.557.141.261.17.41.17.966v1.96h-1.108V4.017c0-.5-.14-.705-.486-.705-.36 0-.543.24-.543.705v1.918h-1.107V2.55h1.009zm4.668 1.058c-.029-.318-.163-.438-.501-.438-.275 0-.444.106-.444.283 0 .162.162.26.528.317l.381.07c.804.134 1.177.473 1.177 1.058 0 .719-.613 1.177-1.572 1.177-1.135 0-1.755-.451-1.755-1.27h1.079v.043c0 .282.232.458.606.458.324 0 .522-.12.522-.31 0-.197-.184-.31-.614-.387l-.352-.057c-.804-.14-1.15-.43-1.15-.966 0-.733.614-1.177 1.622-1.177.705 0 1.142.19 1.368.6.098.169.112.225.14.599h-1.035zm1.543.02c.007-.76.606-1.219 1.615-1.219 1.05 0 1.565.437 1.565 1.325v1.728c0 .289 0 .289.091.472h-1.029l-.056-.282c-.41.331-.649.423-1.1.423-.754 0-1.297-.444-1.297-1.057 0-.508.331-.867.98-1.05.098-.03.423-.1.98-.198.232-.05.33-.127.33-.29 0-.19-.197-.317-.486-.317-.36 0-.578.177-.578.466h-1.015zm2.115.685c-.14.042-.19.056-.303.091-.12.021-.254.05-.402.092-.36.091-.536.232-.536.451 0 .218.17.345.452.345.535 0 .79-.24.79-.74v-.24zm6.416-3.081v.916H45.12v3.786h-1.177V2.149h-1.417v-.916h4.011" fill="#F2B229"/><path d="M49.358 4.864c-.064.69-.79 1.212-1.692 1.212-1.114 0-1.854-.726-1.854-1.833 0-1.079.761-1.84 1.847-1.84.754 0 1.34.374 1.6 1.022.099.247.17.642.17.93 0 .029 0 .085-.008.149H46.94c.063.493.317.761.705.761.288 0 .521-.148.62-.401h1.093zm-1.1-1.08c-.014-.373-.261-.605-.62-.605-.374 0-.628.232-.656.606h1.276zm4.928.896c-.12.938-.684 1.396-1.734 1.396-1.114 0-1.777-.656-1.777-1.77 0-1.177.698-1.896 1.854-1.896.649 0 1.107.212 1.389.642.162.246.233.486.254.803h-1.093c-.021-.38-.233-.585-.6-.585-.422 0-.669.367-.669.98 0 .635.247.973.712.973.339 0 .515-.17.557-.543h1.107m1.368-3.447v1.699c.197-.324.486-.473.909-.473.472 0 .853.198 1.057.557.141.254.17.402.17.96v1.959h-1.107V4.017c0-.493-.141-.698-.48-.698a.545.545 0 0 0-.472.261c-.05.106-.077.24-.077.437v1.918h-1.107V1.233h1.107m3.56 1.318l.035.38a1.18 1.18 0 0 1 .973-.472c.472 0 .853.198 1.057.557.141.254.17.402.17.96v1.959h-1.107V4.017c0-.493-.142-.698-.48-.698a.545.545 0 0 0-.472.261 1.01 1.01 0 0 0-.078.437v1.918h-1.107V2.55h1.009m2.65 3.385h1.107V2.55h-1.107v3.384zm0-3.828h1.107v-.874h-1.107v.874zm2.622-.874v2.39l.994-1.072h1.234l-1.227 1.27 1.403 2.114h-1.276l-.895-1.403-.233.219v1.184H62.28V1.233h1.106" fill="#F2B229"/><text font-family="LucidaGrande, Lucida Grande" font-size="6" letter-spacing="-.004" fill="#F2B229"><tspan x="11.336" y="11.462">Bu</tspan> <tspan x="18.503" y="11.462" letter-spacing=".116">d</tspan> <tspan x="22.395" y="11.462" letter-spacing=".056">a</tspan> <tspan x="25.764" y="11.462" letter-spacing=".116">pe</tspan> <tspan x="33.116" y="11.462" letter-spacing=".176">s</tspan> <tspan x="36.35" y="11.462">t</tspan></text></g></svg>