<svg width="79" height="30" xmlns="http://www.w3.org/2000/svg"><title>mut_új_logó_ok</title><g fill="none" fill-rule="evenodd"><path d="M.582 21.713h77.825v1.69h.001c0 1.634-.677 3.12-1.767 4.198a6.032 6.032 0 0 1-4.249 1.748v-.001H6.597a6.032 6.032 0 0 1-4.25-1.747 5.895 5.895 0 0 1-1.766-4.199v-1.69zm8.967 2.355H8.356v1.416h-2.69v-1.416H4.479v3.88h1.187v-1.497h2.69v1.498H9.55v-3.881zm9.68 2.214v-2.214h-1.193v2.202c0 .31-.047.513-.14.612-.094.105-.299.152-.62.152l-.492.006-.532-.006c-.38 0-.614-.058-.708-.175-.093-.122-.14-.373-.14-.758v-2.033h-1.187v2.383c.005.478.087.828.251 1.049.176.227.398.361.673.414.28.053.666.076 1.17.076l.97.006c.667-.006 1.152-.1 1.468-.292.322-.198.48-.594.48-1.195v-.227zm8.135 1.667h1.89v-3.881h-1.118v2.909l-2.35-2.91h-1.89v3.882h1.117v-2.916l2.351 2.916zm11.575-2.191h-2.673v.728h1.503l.006.11c0 .187-.058.31-.175.374-.123.07-.275.099-.468.099l-1.059-.006-.28-.006-.317-.035a.424.424 0 0 1-.315-.215c-.076-.134-.111-.333-.111-.6v-.362c.005-.332.04-.56.11-.688.083-.14.258-.204.533-.204l1.374.006.299.006c.07.006.134.023.204.053.082.034.129.075.152.134a.508.508 0 0 1 .047.244h1.164v-.07c0-.507-.117-.845-.35-1.02-.235-.18-.603-.267-1.118-.267l-.795-.018-.328.006-.889.017c-.696 0-1.135.146-1.322.437-.187.292-.28.816-.28 1.574l.011.49c0 .43.076.745.228.95.158.209.363.337.62.395.264.059.62.089 1.077.089l.614.006.707.005.62-.005c.48-.006.802-.118.965-.345.17-.233.252-.589.252-1.067l-.006-.815zm6.615-2.046l1.392-.39-.228-.641-1.31.64.146.391zm-1.012 4.237l.386-.705h2.52l.37.705h1.31l-2.13-3.881h-1.602l-2.176 3.88h1.322zm.801-1.51l.837-1.534.836 1.534h-1.673zm11.774-2.371h-3.632v3.88h1.187v-.996h1.983c.28 0 .432.058.462.175.035.117.052.262.052.449v.373h1.205v-.746c-.006-.262-.07-.437-.199-.536-.129-.105-.327-.175-.596-.21.257-.087.42-.146.49-.187a.681.681 0 0 0 .206-.204.634.634 0 0 0 .11-.296c.024-.11.03-.185.03-.237.006-.064.006-.139.006-.238-.006-.464-.105-.779-.304-.953-.2-.187-.533-.274-1-.274zm-.498 1.94h-1.947v-.996h1.977l.181.006.199.04c.082.029.128.07.152.133a.69.69 0 0 1 .04.278c-.005.232-.034.377-.099.441-.07.069-.234.098-.503.098zm6.434 1.94h1.187v-3.88h-1.187v3.88zm6.872 0l.386-.704h2.52l.37.705h1.31l-2.13-3.881H70.78l-2.176 3.88h1.322zm.801-1.509l.837-1.534.836 1.534h-1.673z" fill="#3E8937"/><path d="M6.597.055h65.795v.001c1.812 0 3.458.733 4.652 1.913a6.459 6.459 0 0 1 1.935 4.601v16.832a6.459 6.459 0 0 1-1.935 4.602 6.604 6.604 0 0 1-4.652 1.912v.001H6.597a6.603 6.603 0 0 1-4.652-1.913 6.458 6.458 0 0 1-1.934-4.602H.009V6.571h.002c0-1.793.74-3.422 1.934-4.602A6.604 6.604 0 0 1 6.597.056zm65.795.57H6.597V.624c-1.654 0-3.158.67-4.249 1.748A5.895 5.895 0 0 0 .581 6.57v16.831c0 1.635.677 3.12 1.767 4.199a6.032 6.032 0 0 0 4.249 1.748v-.001h65.795a6.03 6.03 0 0 0 4.249-1.747 5.894 5.894 0 0 0 1.767-4.199V6.57a5.89 5.89 0 0 0-1.767-4.198A6.033 6.033 0 0 0 72.392.624v.001zm.294 15.184a1.815 1.815 0 0 1 1.816 1.81 1.815 1.815 0 0 1-1.816 1.81 1.815 1.815 0 0 1-1.816-1.81h-.001a1.814 1.814 0 0 1 1.816-1.81zm0 .268a1.545 1.545 0 0 0-1.548 1.542 1.545 1.545 0 0 0 1.548 1.542 1.545 1.545 0 0 0 1.548-1.541h-.001a1.545 1.545 0 0 0-1.548-1.542zm-.75 2.472v-1.86h.827c.167 0 .293.017.38.05a.417.417 0 0 1 .207.177.528.528 0 0 1 .078.281.465.465 0 0 1-.129.333c-.086.091-.218.149-.397.173a.625.625 0 0 1 .149.093 1.3 1.3 0 0 1 .205.247l.325.506h-.311l-.247-.387a3.386 3.386 0 0 0-.179-.256.546.546 0 0 0-.125-.124.377.377 0 0 0-.112-.05.79.79 0 0 0-.138-.008h-.286v.825h-.247zm.247-1.039h.53a.795.795 0 0 0 .265-.035.282.282 0 0 0 .146-.111.301.301 0 0 0 .05-.167.276.276 0 0 0-.097-.217c-.064-.057-.165-.085-.304-.085h-.59v.615zm-47.116 1.593h4.24V3.433h-7.088l-5.343 10.384-5.409-10.383H4.336v15.67h4.217V7.166l6.425 11.936h3.598l6.491-11.936v11.936zm28.084-6.729v-8.94h-4.504v8.893c0 1.247-.177 2.07-.53 2.47-.353.424-1.126.612-2.34.612l-1.855.024-2.009-.024c-1.435 0-2.318-.235-2.671-.706-.354-.493-.53-1.505-.53-3.058V3.434H34.23v9.623c.022 1.929.331 3.34.95 4.235.662.917 1.5 1.458 2.538 1.67 1.06.216 2.517.31 4.416.31l3.665.023c2.517-.023 4.35-.404 5.541-1.18 1.215-.8 1.81-2.4 1.81-4.823v-.918zm10.178 6.73h4.482V7.362h6.557v-3.93H56.75v3.93h6.579v11.74z" fill="#1A1919"/></g></svg>