<svg width="33" height="30" xmlns="http://www.w3.org/2000/svg" xmlns:xlink="http://www.w3.org/1999/xlink"><title>parmen_logo_fejes_2014_0724</title><defs><path d="M.08 11.648c0 6.378 6.225 11.58 13.857 11.58s13.856-5.202 13.856-11.58C27.793 5.269 21.57.067 13.937.067S.08 5.269.08 11.647" id="a"/><radialGradient cx="50.001%" cy="49.998%" fx="50.001%" fy="49.998%" r="64.582%" gradientTransform="matrix(.83578 0 0 1 .082 0)" id="b"><stop stop-color="#005B2E" offset="0%"/><stop stop-color="#007B40" offset="100%"/></radialGradient><path d="M.08 11.648c0 6.378 6.225 11.58 13.857 11.58s13.856-5.202 13.856-11.58C27.793 5.269 21.57.067 13.937.067S.08 5.269.08 11.647" id="d"/><radialGradient cx="50.001%" cy="49.998%" fx="50.001%" fy="49.998%" r="40.687%" gradientTransform="matrix(.83578 0 0 1 .082 0)" id="e"><stop stop-color="#007B40" offset="0%"/><stop stop-color="#009949" offset="100%"/></radialGradient></defs><g fill="none" fill-rule="evenodd"><path d="M4.789 15.432L.043 6.98C3.917 2.767 9.905.056 16.604.056c6.591 0 12.493 2.624 16.37 6.72l-4.395 9.208c-1.208-4.735-6.123-8.297-11.975-8.297-5.622 0-10.38 3.288-11.815 7.745" fill="#F9C623"/><g transform="translate(2.668 6.768)"><mask id="c" fill="#fff"><use xlink:href="#a"/></mask><path d="M.08 11.648c0 6.378 6.225 11.58 13.857 11.58s13.856-5.202 13.856-11.58C27.793 5.269 21.57.067 13.937.067S.08 5.269.08 11.647" fill="url(#b)" mask="url(#c)"/></g><g transform="translate(2.668 6.768)"><mask id="f" fill="#fff"><use xlink:href="#d"/></mask><path d="M.08 11.648c0 6.378 6.225 11.58 13.857 11.58s13.856-5.202 13.856-11.58C27.793 5.269 21.57.067 13.937.067S.08 5.269.08 11.647" fill="url(#e)" mask="url(#f)"/></g><path d="M16.605 7.502c7.192 0 13.057 4.903 13.057 10.914 0 6.01-5.865 10.913-13.057 10.913S3.547 24.427 3.547 18.416 9.413 7.502 16.605 7.502z" stroke="#003017" stroke-width=".5"/><path d="M16.86 10.463c-3.401-.156-5.815 1.083-7.553 3.276.09 4.913-.46 7.009-1.484 8.833-.46.82-.13 1.08.453.958l2.404-.503c2.1 3.753 7.194 5.487 11.372 1.459 3.222-.527 4.311-4.364 1.405-6.433l1.712-1.233c.331-.238.443-.69.029-.796-2.528-.647-5.132-2.488-8.339-5.561" fill="#003017"/><path d="M16.86 10.463c-3.401-.156-5.815 1.083-7.553 3.276.09 4.913-.46 7.009-1.484 8.833-.46.82-.13 1.08.453.958l2.404-.503c2.1 3.753 7.194 5.487 11.372 1.459 3.222-.527 4.311-4.364 1.405-6.433l1.712-1.233c.331-.238.443-.69.029-.796-2.528-.647-5.132-2.488-8.339-5.561z" stroke="#003017" stroke-width=".5"/><path d="M10.68 23.026c2.1 3.754 7.194 5.488 11.372 1.46 3.222-.528 4.312-4.365 1.405-6.433l-.322.106c-.15-.624-.41-1.14-.78-1.551-3.739.18-6.669 1.213-9.146 2.726l1.08 1.805-.766.56.25.127-.681.74 1.178.684c-.122.696-.491 1.152-1.107 1.528-.828-.36-1.655-.911-2.483-1.752" fill="#FCE3C4"/><path d="M17.03 18.066c.375-.094.821.317.993.917.172.599.006 1.164-.37 1.258-.375.094-.821-.318-.993-.917-.172-.6-.006-1.164.37-1.258" fill="#003017"/><path d="M17.03 18.066c.375-.094.821.317.993.917.172.599.006 1.164-.37 1.258-.375.094-.821-.318-.993-.917-.172-.6-.006-1.164.37-1.258z" stroke="#003017" stroke-width=".5"/><path d="M20.592 17.004c.4-.094.876.318 1.059.916.183.6.006 1.165-.394 1.259-.4.094-.877-.318-1.06-.917-.183-.6-.006-1.165.395-1.258" fill="#003017"/><path d="M20.592 17.004c.4-.094.876.318 1.059.916.183.6.006 1.165-.394 1.259-.4.094-.877-.318-1.06-.917-.183-.6-.006-1.165.395-1.258z" stroke="#003017" stroke-width=".5"/><path d="M9.717 17.802c1.646-1.208 3.174-2.293 4.773-3.027 1.575-.723 3.39-1.092 5.457-1.359l.286.284.288.285c-2.154.319-4.048.758-5.724 1.515-1.694.765-3.325 1.86-5.061 3.13a8.694 8.694 0 0 0-.019-.828" fill="#FFFFFE"/><path d="M9.64 16.997c1.566-1.15 3.003-2.228 4.513-2.934 1.484-.694 3.228-.996 5.22-1.216l.286.285c.096.095.191.19.288.284-2.068.267-3.882.636-5.457 1.36-1.599.733-3.127 1.818-4.773 3.026-.01-.136-.02-.27-.033-.405-.013-.133-.028-.266-.043-.4" fill="#D8232A"/><path d="M9.736 18.63c1.736-1.27 3.367-2.365 5.061-3.13 1.676-.756 3.57-1.196 5.724-1.515l.286.284.287.284c-2.257.38-4.25.898-6.046 1.696-1.81.805-3.561 1.919-5.407 3.257.03-.152.055-.3.07-.447.013-.145.02-.288.025-.43" fill="#009949"/><path fill="#FFFFFE" d="M17.572 18.699l-.645.634.942-.03z"/><path stroke="#FFFFFE" stroke-width=".5" d="M17.572 18.699l-.645.634.942-.03z"/><path fill="#FFFFFE" d="M21.134 17.564l-.645.634.942-.03z"/><path stroke="#FFFFFE" stroke-width=".5" d="M21.134 17.564l-.645.634.942-.03z"/><path d="M14.82 20.652c1.625 2.33 4.177 2.05 4.152-.287a.868.868 0 0 0 .732.396.85.85 0 0 0 .86-.836.818.818 0 0 0-.02-.183c1.073 1.206 2.598.791 2.603-1.629 3.772 2.016 1.564 7.23-2.377 5.996-2.139 3.672-7.837 1.128-5.95-3.457" fill="#FFFFFE"/><path d="M14.82 20.652c1.625 2.33 4.177 2.05 4.152-.287a.868.868 0 0 0 .732.396.85.85 0 0 0 .86-.836.818.818 0 0 0-.02-.183c1.073 1.206 2.598.791 2.603-1.629 3.772 2.016 1.564 7.23-2.377 5.996-2.139 3.672-7.837 1.128-5.95-3.457z" stroke="#003017" stroke-width=".5"/><path d="M12.602 19.892c.049-.027.257.213.464.535.207.321.336.606.287.633-.049.026-.257-.213-.464-.535-.207-.322-.336-.606-.287-.633m-.728.561c.065-.032.343.252.62.632.275.38.447.717.382.75-.065.031-.343-.253-.619-.634-.275-.38-.448-.716-.383-.748m-.44 1.95c.052-.034.216.112.366.327.15.213.23.416.179.45-.052.034-.216-.113-.366-.327-.15-.214-.23-.416-.179-.45" fill="#FFFFFE"/><path d="M19.704 19.088a.85.85 0 0 1 .86.836.85.85 0 0 1-.86.837.85.85 0 0 1-.86-.837.85.85 0 0 1 .86-.836" fill="#003017"/><path d="M19.704 19.088a.85.85 0 0 1 .86.836.85.85 0 0 1-.86.837.85.85 0 0 1-.86-.837.85.85 0 0 1 .86-.836z" stroke="#003017" stroke-width=".5"/><path d="M16.86 10.463c-3.401-.156-5.815 1.083-7.553 3.276.09 4.913-.46 7.009-1.484 8.833-.46.82-.13 1.08.453.958l2.404-.503c2.1 3.753 7.194 5.487 11.372 1.459 3.222-.527 4.311-4.364 1.405-6.433l1.712-1.233c.331-.238.443-.69.029-.796-2.528-.647-5.132-2.488-8.339-5.561z" stroke="#003017" stroke-width=".5"/><path d="M15.478 5.691l1.304-.03a12.62 12.62 0 0 1 .512-2.318c.339.786.595 1.55.782 2.297l.652.02c.397-.781.845-1.542 1.434-2.246A19.49 19.49 0 0 0 20.082 6l1.143.318a96.693 96.693 0 0 1-.124-4.806l-.808-.03c-.509.79-.977 1.595-1.686 2.303a28.47 28.47 0 0 1-1.013-2.636l-.742-.03-1.374 4.573m5.908.635c.763.305 1.518.6 2.397 1.066.123-.373.359-.722.672-1.056-.605-.038-1.162-.136-1.615-.37.076-.298.095-.6.17-.86.476.114.95.444 1.425.871l.502-1.18a6.365 6.365 0 0 1-1.535-.45c-.063-.325-.055-.65.11-.975.625.16 1.25.577 1.876 1.087l-.04-1.517a10.665 10.665 0 0 1-2.658-1.036c-.387 1.506-.803 2.992-1.304 4.42m9.559.953L29.81 6.275l-1.484 1.877c-.157-1.263-.264-2.539-.612-3.684-.354-.257-.809-.469-1.163-.725a31.173 31.173 0 0 1-2.097 4.08c.361.196.722.39 1.084.585l1.183-2.245c.441 1.248.458 2.396.401 3.527l.862.788c.996-1.056 1.964-2.141 2.96-3.198M6.06 9.47c-.282-.222-.515-.444-.644-.667 2.09-2.39-.196-4.104-1.852-3.06-.628.395-1.11 1.014-1.727 1.49a14.832 14.832 0 0 1 3.186 3.218l1.036-.98M4.082 6.65c-.206.006-.34.126-.275.24.225.398.514.736.785 1.002.121.12.334-.036.369-.174.066-.265.299-1.128-.231-1.068-.214.024-.432-.007-.648 0m3.344 1.769a3.128 3.128 0 0 1 1.07-.626l-.1-1.025 1.365-.616.481.698 1.114-.39A82.197 82.197 0 0 1 8.5 2.647c-.69.321-1.163.642-1.852.964.35 1.593.467 3.215.778 4.808m.59-4.42a4.224 4.224 0 0 0 .07 1.548 1.592 1.592 0 0 0 1.083-.512 7.861 7.861 0 0 0-1.154-1.036m2.809-2.071a46.44 46.44 0 0 1 1.234 4.348l1.113-.247-.401-1.548c.593.034.872.743 1.268 1.386.298-.137.681-.244.979-.381-.368-.468-.769-.912-1.104-1.405-.102-.15-.091-.354.03-.451.204-.163.392-.377.632-.656.125-.145.114-.321-.09-.554-.225-.257-.63-.55-1.083-.841-.169-.108-.437-.21-.843-.154-.59.081-1.157.32-1.735.503m1.765.492c-.293-.1-.4.026-.33.307.081.336.095.69.21 1.016.107.303.32.206.451.04.157-.196.286-.416.411-.635.08-.14.04-.32-.14-.441a2.529 2.529 0 0 0-.602-.287" fill="#1A1919"/></g></svg>