<svg width="33" height="10" xmlns="http://www.w3.org/2000/svg"><title>RobotX_logo</title><path d="M21.331 6.863h1.871l.642-1.688h-1.881zM32.424.75c-.079.047-1.156 1.218-2.406 2.58.092-1.156.163-2.125.154-2.348-.023-.584-.073-.828-1.12-.828-1.045 0-5.147 1.234-5.13 3.912.664-.049 1.91-.325 1.943-.568-.2-.049-.847.113-.814-.016.033-.13 1.24-1.402 3.542-1.715V4.88c-1.132 1.23-2.156 2.334-2.48 2.642-.93.324-2.519 2.413-1.677 2.413.84 0 1.655-1.158 2.054-1.634.17-.203 1.096-1.252 2.103-2.388v3.21s.089 1.407 1.395.541 1.86-1.688 1.749-1.796c-.11-.108-1.14.779-1.771.779-.177 0-.299.151-.299-.595 0-.377.135-2.03.266-3.649l1.516-1.707s.096-.145.302-.346c.766-.217.938-.909 1.115-1.32.177-.411-.265-.39-.442-.282M18.675 8.367c-.111.52-.377 1.125 1.04 1.125.51-1.06.598-1.428.598-1.428s-.847.281-.29-1.039c.085-.202.2-.488.334-.827h-.915c-.411 1.109-.73 1.996-.767 2.169M22.416.836h-.952s-.279.73-.66 1.737h-.427l-.53 1.336h.451c-.236.626-.48 1.278-.707 1.885h.925c.223-.568.48-1.23.73-1.885h.658l.465-1.336h-.612c.377-.989.66-1.737.66-1.737M7.209 5.764c.27-.645.548-1.122.833-1.431.285-.309.557-.426.816-.353.26.074.386.305.38.692-.005.298-.089.673-.25 1.122h.97c.476-1.307.833-2.959-.2-3.319-1.677-.584-3.454 2.987-3.454 2.987-.058.097-.114.21-.168.332h1.06l.013-.03m1.613.458c-.27.646-.549 1.124-.834 1.434-.286.311-.558.43-.817.356-.26-.073-.385-.305-.379-.695.006-.298.089-.672.248-1.119H5.98c-.448 1.327-.588 3.337.573 3.337 1.412 0 2.474-1.704 2.685-2.093.067-.124.314-.615.566-1.244h-.972l-.01.024m8.701 0c-.27.646-.549 1.124-.834 1.434-.286.311-.558.43-.817.356-.26-.073-.386-.305-.379-.695.006-.298.089-.672.248-1.119h-1.06c-.448 1.327-.588 3.337.573 3.337 1.411 0 2.474-1.704 2.685-2.093.067-.124.314-.615.566-1.244h-.972l-.01.024m-1.613-.458c.27-.645.548-1.122.833-1.431.285-.309.557-.426.816-.353.26.074.386.305.38.692-.005.298-.089.673-.25 1.122h.97c.476-1.307.833-2.959-.2-3.319-1.677-.584-3.454 2.987-3.454 2.987a3.14 3.14 0 0 0-.168.332h1.06l.013-.03M5.785.144h-2.28L2.498 2.832h.944l.397-1.061h1.308s.89-.148.565 1.061h.959c.157-.408.259-.861.259-1.355 0-.93-.088-1.333-1.145-1.333m-1.874 4.06c-.248 0-.893-.02-.973-.022l.13-.346.223-.6h-.945L.074 9.308h.947l1.314-3.514H3.68c.233.108.499.27.25 1.147-.25.876-.648 1.964-.648 2.256a.673.673 0 0 1-.011.111h1.118s.088-.087.06-.355c-.03-.267.521-2.023.676-2.542.155-.52.377-1.256-.088-1.45a5.156 5.156 0 0 0 1.456-1.725h-.918c-.504 1.2-1.411.968-1.664.968m7.746 1.525s.808-1.872 1.726-1.872c.454 0 .344 1.093 0 1.872h1.041s1.063-3.16-.222-3.398c-.642-.108-1.24.855-1.394.769-.155-.087 1.04-3.008 1.04-3.008h-1.007L10.76 5.729h.897zm-1.063.433h.874s-.542 1.871.133 1.871c.941 0 1.694-1.871 1.694-1.871h.985s-1.406 3.375-2.867 3.375c-.698 0-.631-.79-.764-.79s-.332.606-.332.606h-.919l1.196-3.191z" fill="#D8232A" fill-rule="evenodd"/></svg>