<?xml version="1.0" encoding="UTF-8"?>
<svg width="40px" height="71px" viewBox="0 0 40 71" version="1.1" xmlns="http://www.w3.org/2000/svg" xmlns:xlink="http://www.w3.org/1999/xlink">
    <!-- Generator: Sketch 40.3 (33839) - http://www.bohemiancoding.com/sketch -->
    <title>Group 2</title>
    <desc>Created with Sketch.</desc>
    <defs></defs>
    <g id="Symbols" stroke="none" stroke-width="1" fill="none" fill-rule="evenodd">
        <g id="4---Folyamatabra" transform="translate(-1869.000000, -1786.000000)" fill="#3E4042">
            <g id="Step-by-step">
                <g>
                    <g id="2---hirdetesek-elojegyzese" transform="translate(1802.000000, 1738.000000)">
                        <g id="icon" transform="translate(0.000000, 1.000000)">
                            <g id="Group-2" transform="translate(67.000000, 47.000000)">
                                <path d="M35.2173913,0 L4.7826087,0 C2.14521739,0 0,2.1103253 0,4.70481928 L0,66.2951807 C0,68.8888193 2.14521739,71 4.7826087,71 L35.2173913,71 C37.853913,71 40,68.8888193 40,66.2951807 L40,4.70481928 C40,2.1103253 37.853913,0 35.2173913,0 L35.2173913,0 Z M4.7826087,2.56626506 L35.2173913,2.56626506 C36.4165217,2.56626506 37.3913043,3.52604819 37.3913043,4.70481928 L37.3913043,8.55421687 L2.60869565,8.55421687 L2.60869565,4.70481928 C2.60869565,3.52604819 3.58434783,2.56626506 4.7826087,2.56626506 L4.7826087,2.56626506 Z M37.3913043,11.1204819 L37.3913043,55.6024096 L2.60869565,55.6024096 L2.60869565,11.1204819 L37.3913043,11.1204819 L37.3913043,11.1204819 Z M35.2173913,68.4337349 L4.7826087,68.4337349 C3.58434783,68.4337349 2.60869565,67.4748072 2.60869565,66.2951807 L2.60869565,58.1686747 L37.3913043,58.1686747 L37.3913043,66.2951807 C37.3913043,67.4748072 36.4165217,68.4337349 35.2173913,68.4337349 L35.2173913,68.4337349 Z" id="Shape"></path>
                                <path d="M20.3626087,59.1669518 C18.0852174,59.1669518 16.2321739,60.9898554 16.2321739,63.2302048 C16.2321739,65.4705542 18.0852174,67.2934578 20.3626087,67.2934578 C22.64,67.2934578 24.4930435,65.4705542 24.4930435,63.2302048 C24.4930435,60.9898554 22.64,59.1669518 20.3626087,59.1669518 L20.3626087,59.1669518 Z M20.3626087,64.7271928 C19.5234783,64.7271928 18.8408696,64.0556867 18.8408696,63.2302048 C18.8408696,62.4047229 19.5234783,61.7332169 20.3626087,61.7332169 C21.2017391,61.7332169 21.8843478,62.4047229 21.8843478,63.2302048 C21.8843478,64.0556867 21.2017391,64.7271928 20.3626087,64.7271928 L20.3626087,64.7271928 Z" id="Shape"></path>
                                <path d="M14.7826087,6.84337349 L25.2173913,6.84337349 C25.9373913,6.84337349 26.5217391,6.26938554 26.5217391,5.56024096 C26.5217391,4.85109639 25.9373913,4.27710843 25.2173913,4.27710843 L14.7826087,4.27710843 C14.0617391,4.27710843 13.4782609,4.85109639 13.4782609,5.56024096 C13.4782609,6.26938554 14.0617391,6.84337349 14.7826087,6.84337349 L14.7826087,6.84337349 Z" id="Shape"></path>
                                <ellipse id="Oval" cx="10.8878261" cy="5.57820482" rx="1.29565217" ry="1.27457831"></ellipse>
                            </g>
                        </g>
                    </g>
                </g>
            </g>
        </g>
    </g>
</svg>