<?xml version="1.0" encoding="UTF-8"?>
<svg width="61px" height="70px" viewBox="0 0 61 70" version="1.1" xmlns="http://www.w3.org/2000/svg" xmlns:xlink="http://www.w3.org/1999/xlink">
    <!-- Generator: Sketch 40.3 (33839) - http://www.bohemiancoding.com/sketch -->
    <title>Group 3</title>
    <desc>Created with Sketch.</desc>
    <defs></defs>
    <g id="Symbols" stroke="none" stroke-width="1" fill="none" fill-rule="evenodd">
        <g id="4---Folyamatabra" transform="translate(-1857.000000, -1966.000000)" fill="#3E4042">
            <g id="Step-by-step">
                <g>
                    <g id="3---brainstroming" transform="translate(1800.000000, 1918.000000)">
                        <g id="left-side" transform="translate(0.000000, 1.000000)">
                            <g id="Group-3" transform="translate(57.000000, 47.000000)">
                                <path d="M26.6221429,54.7809231 C26.5949107,54.7798462 26.5742143,54.7798462 26.5513393,54.7787692 C25.2049821,54.7173846 24.8607679,53.4692308 24.4969464,52.1478462 C23.973,50.2449231 23.096125,47.0604615 20.0374107,43.6627692 C14.74675,37.7806154 13.19125,29.4269231 16.165,22.8749231 C18.826125,17.0132308 24.6951964,13.6510769 32.2657321,13.6510769 C39.8362679,13.6510769 45.7053393,17.0132308 48.3664643,22.8749231 C51.3402143,29.4269231 49.7858036,37.7806154 44.4940536,43.6627692 C41.0671607,47.4707692 39.32975,49.7473846 39.32975,50.428 C39.32975,51.0687692 38.8962143,51.6287692 38.269875,51.7967692 C27.2310536,54.754 26.8617857,54.7809231 26.6221429,54.7809231 L26.6221429,54.7809231 Z M32.2668214,16.4855385 C25.7812143,16.4855385 20.991625,19.1670769 18.7814643,24.0358462 C16.2608571,29.5873846 17.6257321,36.7176923 22.1800357,41.7781538 C25.6875357,45.6766154 26.7125536,49.4038462 27.2637321,51.4058462 C27.2920536,51.5124615 27.3236429,51.6255385 27.3552321,51.7375385 C29.2505893,51.2604615 33.4955357,50.1372308 36.661,49.2907692 C37.1217679,47.9661538 38.5356607,46.0223077 42.3536071,41.7781538 C46.9079107,36.7176923 48.273875,29.5873846 45.7521786,24.0358462 C43.5420179,19.1670769 38.7524286,16.4855385 32.2668214,16.4855385 L32.2668214,16.4855385 Z" id="Shape"></path>
                                <path d="M31.9062679,69.6058462 C31.2657679,69.6058462 30.683,69.1793846 30.5185179,68.5375385 C30.3235357,67.7793846 30.7875714,67.0072308 31.5544286,66.8144615 L38.6489464,65.0310769 C39.4125357,64.8415385 40.1968214,65.296 40.3918036,66.0552308 C40.5867857,66.8133846 40.12275,67.5855385 39.3558929,67.7783077 L32.261375,69.5616923 C32.1426429,69.5907692 32.0228214,69.6058462 31.9062679,69.6058462 L31.9062679,69.6058462 Z" id="Shape"></path>
                                <path d="M26.36725,63.0872308 C25.7300179,63.0872308 25.1483393,62.6629231 24.9816786,62.0264615 C24.7823393,61.2683077 25.2420179,60.4950769 26.0077857,60.2990769 L38.6413214,57.0564615 C39.4103571,56.854 40.1902857,57.3149231 40.3885357,58.0709231 C40.587875,58.8290769 40.1281964,59.6023077 39.3624286,59.7983077 L26.7288929,63.0409231 C26.6079821,63.0721538 26.4859821,63.0872308 26.36725,63.0872308 L26.36725,63.0872308 Z" id="Shape"></path>
                                <path d="M26.36725,67.1256923 C25.7300179,67.1256923 25.1483393,66.7013846 24.9816786,66.0649231 C24.7823393,65.3067692 25.2420179,64.5335385 26.0077857,64.3375385 L38.6413214,61.0949231 C39.4103571,60.8935385 40.1902857,61.3533846 40.3885357,62.1093846 C40.587875,62.8675385 40.1281964,63.6407692 39.3624286,63.8367692 L26.7288929,67.0793846 C26.6079821,67.1106154 26.4859821,67.1256923 26.36725,67.1256923 L26.36725,67.1256923 Z" id="Shape"></path>
                                <path d="M26.36725,59.0487692 C25.7300179,59.0487692 25.1483393,58.6244615 24.9816786,57.988 C24.7823393,57.2298462 25.2420179,56.4566154 26.0077857,56.2606154 L38.6413214,53.018 C39.4103571,52.8155385 40.1902857,53.2753846 40.3885357,54.0324615 C40.587875,54.7906154 40.1281964,55.5638462 39.3624286,55.7598462 L26.7288929,59.0024615 C26.6079821,59.0336923 26.4859821,59.0487692 26.36725,59.0487692 L26.36725,59.0487692 Z" id="Shape"></path>
                                <path d="M8.14458929,33.5213846 L2.28967857,33.5213846 C1.49776786,33.5213846 0.856178571,32.8870769 0.856178571,32.1041538 C0.856178571,31.3212308 1.49885714,30.6869231 2.28967857,30.6869231 L8.14458929,30.6869231 C8.9365,30.6869231 9.57808929,31.3212308 9.57808929,32.1041538 C9.57808929,32.8870769 8.93541071,33.5213846 8.14458929,33.5213846 L8.14458929,33.5213846 Z" id="Shape"></path>
                                <path d="M11.4168036,21.4404615 C11.1728036,21.4404615 10.926625,21.3790769 10.7011429,21.2498462 L5.63160714,18.3550769 C4.94644643,17.9641538 4.71116071,17.0972308 5.10766071,16.4187692 C5.50416071,15.7403077 6.382125,15.5109231 7.06619643,15.9007692 L12.1357321,18.7955385 C12.8208929,19.1864615 13.0561786,20.0533846 12.6596786,20.7318462 C12.3938929,21.1863077 11.9124286,21.4404615 11.4168036,21.4404615 L11.4168036,21.4404615 Z" id="Shape"></path>
                                <path d="M20.3652857,12.5956923 C19.87075,12.5956923 19.3892857,12.3415385 19.1224107,11.8870769 L16.1944107,6.87507692 C15.799,6.19769231 16.0342857,5.32969231 16.7183571,4.93876923 C17.4024286,4.54784615 18.2803929,4.77938462 18.6768929,5.45676923 L21.6048929,10.4687692 C22.0003036,11.1461538 21.7650179,12.0141538 21.0809464,12.4050769 C20.8554643,12.5343077 20.6092857,12.5956923 20.3652857,12.5956923 L20.3652857,12.5956923 Z" id="Shape"></path>
                                <path d="M32.5848929,9.35846154 C31.7929821,9.35846154 31.1513929,8.72415385 31.1513929,7.94123077 L31.1513929,2.15384615 C31.1513929,1.37092308 31.7940714,0.736615385 32.5848929,0.736615385 C33.3757143,0.736615385 34.0183929,1.37092308 34.0183929,2.15384615 L34.0183929,7.94123077 C34.0183929,8.72415385 33.3768036,9.35846154 32.5848929,9.35846154 L32.5848929,9.35846154 Z" id="Shape"></path>
                                <path d="M44.8045,12.5967692 C44.5605,12.5967692 44.3143214,12.5353846 44.0888393,12.4061538 C43.4036786,12.0152308 43.1683929,11.1483077 43.5648929,10.4698462 L46.4928929,5.45784615 C46.8893929,4.78046154 47.7673571,4.54892308 48.4514286,4.93984615 C49.1365893,5.33076923 49.371875,6.19769231 48.975375,6.87615385 L46.047375,11.8881538 C45.7805,12.3426154 45.2990357,12.5967692 44.8045,12.5967692 L44.8045,12.5967692 Z" id="Shape"></path>
                                <path d="M53.7529821,21.4415385 C53.2584464,21.4415385 52.7769821,21.1873846 52.5101071,20.7329231 C52.1146964,20.0555385 52.3499821,19.1875385 53.0340536,18.7966154 L58.1035893,15.9018462 C58.7865714,15.5109231 59.665625,15.7424615 60.062125,16.4198462 C60.4575357,17.0972308 60.22225,17.9652308 59.5381786,18.3561538 L54.4686429,21.2509231 C54.2431607,21.3801538 53.9958929,21.4415385 53.7529821,21.4415385 L53.7529821,21.4415385 Z" id="Shape"></path>
                                <path d="M58.8203393,48.4992308 C58.5763393,48.4992308 58.3301607,48.4378462 58.1046786,48.3086154 L53.0351429,45.4138462 C52.3499821,45.0229231 52.1146964,44.156 52.5111964,43.4775385 C52.9076964,42.8001538 53.7856607,42.5664615 54.4697321,42.9595385 L59.5392679,45.8543077 C60.2244286,46.2452308 60.4597143,47.1121538 60.0632143,47.7906154 C59.7974286,48.2450769 59.314875,48.4992308 58.8203393,48.4992308 L58.8203393,48.4992308 Z" id="Shape"></path>
                                <path d="M6.34944643,48.4970769 C5.85491071,48.4970769 5.37344643,48.2429231 5.10657143,47.7884615 C4.71116071,47.11 4.94644643,46.2430769 5.63051786,45.8521538 L10.7000536,42.9573846 C11.384125,42.5653846 12.2620893,42.798 12.6585893,43.4753846 C13.054,44.1538462 12.8187143,45.0207692 12.1346429,45.4116923 L7.06510714,48.3064615 C6.839625,48.4367692 6.59344643,48.4970769 6.34944643,48.4970769 L6.34944643,48.4970769 Z" id="Shape"></path>
                            </g>
                        </g>
                    </g>
                </g>
            </g>
        </g>
    </g>
</svg>