<?xml version="1.0" encoding="UTF-8"?>
<svg width="47px" height="71px" viewBox="0 0 47 71" version="1.1" xmlns="http://www.w3.org/2000/svg" xmlns:xlink="http://www.w3.org/1999/xlink">
    <!-- Generator: Sketch 40.3 (33839) - http://www.bohemiancoding.com/sketch -->
    <title>pencil</title>
    <desc>Created with Sketch.</desc>
    <defs></defs>
    <g id="Symbols" stroke="none" stroke-width="1" fill="none" fill-rule="evenodd">
        <g id="4---Folyamatabra" transform="translate(-1863.000000, -2147.000000)" fill="#3E4042">
            <g id="Step-by-step">
                <g>
                    <g id="4---szovegiras" transform="translate(1802.000000, 2099.000000)">
                        <g id="left-side" transform="translate(0.000000, 1.000000)">
                            <g id="pencil" transform="translate(61.000000, 47.000000)">
                                <path d="M18.9773182,67.8293731 C18.5447045,67.5782239 17.9871136,67.7255224 17.7360909,68.1578806 C17.6677273,68.2755075 17.5181818,68.4026716 17.3088182,68.4026716 C17.1005227,68.4026716 16.9520455,68.2744478 16.8815455,68.1557612 C16.4681591,67.4521194 15.7033409,67.0155224 14.8840455,67.0155224 C14.0668864,67.0155224 13.3020682,67.4521194 12.8876136,68.1547015 C12.8171136,68.2744478 12.6665,68.4026716 12.4582045,68.4026716 C12.2488409,68.4026716 12.0992955,68.2744478 12.0287955,68.1568209 C11.6164773,67.4521194 10.8505909,67.0155224 10.0312955,67.0155224 C9.21306818,67.0155224 8.44931818,67.4521194 8.03486364,68.1536418 C7.96436364,68.2744478 7.81375,68.4026716 7.60545455,68.4026716 C7.39609091,68.4026716 7.24547727,68.2744478 7.17711364,68.16 C6.76693182,67.4531791 6.00104545,67.0155224 5.17747727,67.0155224 C4.36138636,67.0155224 3.59656818,67.4510597 3.18211364,68.1536418 C3.11161364,68.2744478 2.961,68.4026716 2.75270455,68.4026716 C2.57538636,68.4026716 2.41515909,68.3094179 2.32436364,68.1547015 C2.07227273,67.7255224 1.51681818,67.581403 1.08206818,67.8304328 C0.649454545,68.0815821 0.503113636,68.6336866 0.756272727,69.0628657 C1.17072727,69.7665075 1.93554545,70.2031045 2.75270455,70.2031045 C3.56879545,70.2031045 4.33361364,69.7665075 4.74913636,69.0639254 C4.87945455,68.8403284 5.40927273,68.7227015 5.60688636,69.0639254 C6.02134091,69.7665075 6.78722727,70.2031045 7.60545455,70.2031045 C8.42154545,70.2031045 9.18636364,69.7665075 9.60188636,69.0628657 C9.67238636,68.9441791 9.82193182,68.8159552 10.0302273,68.8159552 C10.2075455,68.8159552 10.3667045,68.9081493 10.4575,69.061806 C10.8708864,69.7665075 11.6367727,70.2031045 12.4560682,70.2031045 C13.2742955,70.2031045 14.0391136,69.7665075 14.4535682,69.0628657 C14.5240682,68.9441791 14.6736136,68.8159552 14.8819091,68.8159552 C15.0602955,68.8159552 15.2194545,68.9081493 15.31025,69.061806 C15.7236364,69.7665075 16.4884545,70.2031045 17.3066818,70.2031045 C18.1281136,70.2031045 18.894,69.7654478 19.3063182,69.0596866 C19.5594773,68.6294478 19.411,68.078403 18.9773182,67.8293731 L18.9773182,67.8293731 Z" id="Shape"></path>
                                <path d="M40.5524545,2.11622388 L37.1246591,1.17732836 C35.156,0.636880597 33.0890682,0.891208955 31.3084091,1.89262687 C29.5288182,2.89404478 28.2491364,4.52386567 27.7054318,6.48007463 C27.6733864,6.59452239 27.6573636,6.71002985 27.6520227,6.82447761 C27.5964773,6.92726866 27.5494773,7.03429851 27.5174318,7.15086567 L15.4918409,50.3856269 C15.4918409,50.3866866 15.4918409,50.3877463 15.4907727,50.388806 L15.4886364,50.3951642 C15.4832955,50.4142388 15.4832955,50.4333134 15.4790227,50.4523881 C15.4587273,50.5339851 15.4427045,50.6166418 15.4362955,50.7014179 C15.4320227,50.7554627 15.4373636,50.8084478 15.4384318,50.8603731 C15.4395,50.9112388 15.4373636,50.9610448 15.4427045,51.0119104 C15.4544545,51.1030448 15.4758182,51.191 15.5025227,51.2778955 C15.5067955,51.2906119 15.5067955,51.3033284 15.5110682,51.3160448 L15.5121364,51.3202836 C15.5132045,51.322403 15.5142727,51.3255821 15.5142727,51.3277015 L19.9376136,64.6216567 C20.1053182,65.1271343 20.5165682,65.5149851 21.0325,65.6569851 C21.1724318,65.6951343 21.3166364,65.714209 21.4587045,65.714209 C21.8389773,65.714209 22.2128409,65.5796269 22.5076591,65.3263582 L33.1841364,56.1557015 C33.2813409,56.0730448 33.3614545,55.9787313 33.4330227,55.8801791 C33.4501136,55.8568657 33.4629318,55.8314328 33.4789545,55.8070597 C33.5633409,55.6767164 33.6317045,55.5378955 33.6733636,55.3916567 C33.6755,55.3863582 33.6797727,55.3821194 33.6808409,55.3768209 L45.7085682,12.1325224 C45.7438182,12.0042985 45.7577045,11.8771343 45.7609091,11.7499701 C45.8100455,11.6556567 45.8677273,11.5666418 45.8965682,11.4606716 C47.0202955,7.42002985 44.6211591,3.22891045 40.5524545,2.11622388 L40.5524545,2.11622388 Z M32.8893182,4.65844776 C33.9233182,4.07561194 35.1260909,3.92831343 36.2711818,4.24198507 L39.7000455,5.1808806 C40.8451364,5.49455224 41.8000909,6.23316418 42.3875909,7.25895522 C42.9409091,8.22540299 43.0893864,9.33702985 42.8437045,10.4126269 L30.8693864,7.13497015 C31.2133409,6.08480597 31.9151364,5.20631343 32.8893182,4.65844776 L32.8893182,4.65844776 Z M30.3652045,8.86546269 L42.3790455,12.1537164 L30.8330682,53.6611642 L18.8192273,50.3729104 L30.3652045,8.86546269 L30.3652045,8.86546269 Z M23.9967045,59.842403 L21.4950227,59.1578358 L19.2315455,52.3545522 L29.4561818,55.1542836 L23.9967045,59.842403 L23.9967045,59.842403 Z M22.1786591,61.2136567 L22.3474318,61.2592239 L22.2288636,61.3620149 L22.1786591,61.2136567 L22.1786591,61.2136567 Z" id="Shape"></path>
                            </g>
                        </g>
                    </g>
                </g>
            </g>
        </g>
    </g>
</svg>