<?xml version="1.0" encoding="UTF-8"?>
<svg width="74px" height="59px" viewBox="0 0 74 59" version="1.1" xmlns="http://www.w3.org/2000/svg" xmlns:xlink="http://www.w3.org/1999/xlink">
    <!-- Generator: Sketch 40.3 (33839) - http://www.bohemiancoding.com/sketch -->
    <title>imac</title>
    <desc>Created with Sketch.</desc>
    <defs></defs>
    <g id="Symbols" stroke="none" stroke-width="1" fill="none" fill-rule="evenodd">
        <g id="4---Folyamatabra" transform="translate(-1854.000000, -2517.000000)" fill="#3E4042">
            <g id="Step-by-step">
                <g>
                    <g id="6---utomunka" transform="translate(1802.000000, 2459.000000)">
                        <g id="utomunkalatok" transform="translate(0.000000, 1.000000)">
                            <g id="imac" transform="translate(52.000000, 57.000000)">
                                <path d="M70.0944444,0.931578947 L3.90555556,0.931578947 C1.74722222,0.931578947 0,2.69122807 0,4.86491228 L0,47.6140351 C0,49.7877193 1.74722222,51.5473684 3.90555556,51.5473684 L29.2916667,51.5473684 C29.1888889,51.754386 29.0861111,51.8578947 29.0861111,51.8578947 L29.0861111,51.8578947 C28.675,52.3754386 28.5722222,52.4789474 28.0583333,52.8929825 C27.4416667,53.4105263 26.6194444,54.1350877 24.975,55.7912281 C24.2555556,56.5157895 24.1527778,57.2403509 24.2555556,57.654386 C24.4611111,58.4824561 25.1805556,58.8964912 25.2833333,58.8964912 L25.4888889,59 L48.3055556,59 C48.8194444,59 49.5388889,58.6894737 49.7444444,58.0684211 C49.95,57.5508772 49.95,56.8263158 49.025,55.7912281 C47.2777778,54.0315789 46.4555556,53.3070175 45.9416667,52.8929825 C45.4277778,52.4789474 45.2222222,52.2719298 44.9138889,51.754386 C44.9138889,51.754386 44.8111111,51.6508772 44.7083333,51.4438596 L70.0944444,51.4438596 C72.2527778,51.4438596 74,49.6842105 74,47.5105263 L74,4.86491228 C74,2.69122807 72.2527778,0.931578947 70.0944444,0.931578947 L70.0944444,0.931578947 Z M43.2694444,53.1 C43.7833333,53.8245614 44.0916667,54.0315789 44.6055556,54.5491228 C45.1194444,54.9631579 45.8388889,55.6877193 47.2777778,57.0333333 L26.7222222,57.0333333 C28.1611111,55.5842105 28.8805556,54.9631579 29.3944444,54.5491228 C29.9083333,54.1350877 30.2166667,53.8245614 30.7305556,53.1 C30.8333333,52.9964912 31.0388889,52.6859649 31.5527778,51.5473684 L42.4472222,51.5473684 C42.9611111,52.6859649 43.1666667,52.9964912 43.2694444,53.1 L43.2694444,53.1 Z M71.9444444,47.6140351 C71.9444444,48.6491228 71.1222222,49.477193 70.0944444,49.477193 L43.8861111,49.477193 L30.1138889,49.477193 L3.90555556,49.477193 C2.87777778,49.477193 2.05555556,48.6491228 2.05555556,47.6140351 L2.05555556,4.86491228 C2.05555556,3.82982456 2.87777778,3.00175439 3.90555556,3.00175439 L69.9916667,3.00175439 C71.0194444,3.00175439 71.8416667,3.82982456 71.8416667,4.86491228 L71.8416667,47.6140351 L71.9444444,47.6140351 Z" id="Shape"></path>
                                <path d="M68.7583333,4.76140351 L5.24166667,4.76140351 C4.625,4.76140351 4.21388889,5.1754386 4.21388889,5.79649123 L4.21388889,42.2315789 C4.21388889,42.8526316 4.625,43.2666667 5.24166667,43.2666667 L68.7583333,43.2666667 C69.375,43.2666667 69.7861111,42.8526316 69.7861111,42.2315789 L69.7861111,5.79649123 C69.7861111,5.1754386 69.375,4.76140351 68.7583333,4.76140351 L68.7583333,4.76140351 Z M67.7305556,41.1964912 L6.26944444,41.1964912 L6.26944444,6.83157895 L67.7305556,6.83157895 L67.7305556,41.1964912 L67.7305556,41.1964912 Z" id="Shape"></path>
                                <ellipse id="Oval" cx="37" cy="45.9578947" rx="1.54166667" ry="1.55263158"></ellipse>
                                <path d="M47.5861111,26.9122807 C47.7916667,26.9122807 48.1,26.8087719 48.3055556,26.6017544 L62.6944444,13.7666667 C63.1055556,13.3526316 63.2083333,12.7315789 62.7972222,12.3175439 C62.3861111,11.9035088 61.7694444,11.8 61.3583333,12.2140351 L46.9694444,25.0491228 C46.5583333,25.4631579 46.4555556,26.0842105 46.8666667,26.4982456 C47.0722222,26.8087719 47.2777778,26.9122807 47.5861111,26.9122807 L47.5861111,26.9122807 Z" id="Shape"></path>
                                <path d="M61.3583333,19.5631579 L53.4444444,26.6017544 C53.0333333,27.0157895 52.9305556,27.6368421 53.3416667,28.0508772 C53.5472222,28.2578947 53.8555556,28.3614035 54.0611111,28.3614035 C54.2666667,28.3614035 54.575,28.2578947 54.7805556,28.0508772 L62.6944444,21.0122807 C63.1055556,20.5982456 63.2083333,19.977193 62.7972222,19.5631579 C62.3861111,19.1491228 61.7694444,19.1491228 61.3583333,19.5631579 L61.3583333,19.5631579 Z" id="Shape"></path>
                            </g>
                        </g>
                    </g>
                </g>
            </g>
        </g>
    </g>
</svg>