<?xml version="1.0" encoding="UTF-8"?>
<svg width="44px" height="42px" viewBox="0 0 44 42" version="1.1" xmlns="http://www.w3.org/2000/svg" xmlns:xlink="http://www.w3.org/1999/xlink">
    <!-- Generator: Sketch 40.3 (33839) - http://www.bohemiancoding.com/sketch -->
    <title>cycle</title>
    <desc>Created with Sketch.</desc>
    <defs></defs>
    <g id="Page-1" stroke="none" stroke-width="1" fill="none" fill-rule="evenodd">
        <g id="Landing-page-v4-Copy" transform="translate(-677.000000, -2914.000000)" fill="#F9C21B">
            <g id="reszletek---koncepciok" transform="translate(200.000000, 2751.000000)">
                <g id="cycle" transform="translate(477.000000, 163.000000)">
                    <path d="M22,0.488372093 C12.854513,0.488372093 4.43486756,6.69935651 1.98611111,15.8568314 C1.85399407,16.3523093 2.17757775,16.9306298 2.67361111,17.0625 C3.16964413,17.1943653 3.7486548,16.8560016 3.88055556,16.3604651 C6.09744569,8.07008512 13.7435564,2.44186047 22,2.44186047 C30.6297371,2.44186047 37.4852344,8.35687919 39.6305556,14.5748547 L33.0763889,12.2550872 C32.7461663,12.1405857 32.3798776,12.2107673 32.1155001,12.4391953 C31.8511227,12.6676234 31.7288217,13.0195942 31.7946668,13.3625238 C31.8605119,13.7054534 32.1044997,13.9872426 32.4347222,14.1017442 L40.7458333,17.0319767 C41.0178909,17.1256757 41.3174526,17.0949103 41.5647341,16.9478746 C41.8120156,16.8008388 41.9819094,16.5524617 42.0291667,16.2688953 L43.4958333,6.98982558 C43.5544473,6.67749846 43.4573178,6.35620911 43.235444,6.12849749 C43.0135701,5.90078587 42.6946829,5.79511261 42.3805556,5.84520349 C41.9547898,5.91583956 41.625732,6.25695374 41.5708333,6.68459302 L40.7152778,12.056686 C37.6972596,5.7632483 30.6589971,0.488372093 22,0.488372093 L22,0.488372093 Z M2.78055556,24.9069767 C2.35959759,24.9758604 2.03191018,25.3093777 1.97083333,25.7311047 L0.504166667,35.0101744 C0.416568674,35.3678851 0.537798829,35.7444076 0.817723901,35.9840357 C1.09764897,36.2236638 1.48869046,36.2856683 1.829138,36.1444079 C2.16958554,36.0031475 2.40157371,35.6826322 2.42916667,35.315407 L3.28472222,29.9280523 C6.29949711,36.2304068 13.3354271,41.5116279 22,41.5116279 C31.145486,41.5116279 39.5651329,35.2853721 42.0138889,26.127907 C42.1458732,25.6324535 41.8070752,25.0693605 41.3111111,24.9375 C40.8151465,24.8056395 40.2514288,25.1288198 40.1194444,25.6242733 C37.9025538,33.9146337 30.2564445,39.5581395 22,39.5581395 C13.3639489,39.5581395 6.50943431,33.6349967 4.36944444,27.4098837 L10.9236111,29.7296512 C11.2538337,29.8441527 11.6201224,29.7739711 11.8844999,29.545543 C12.1488773,29.317115 12.2711783,28.9651441 12.2053332,28.6222145 C12.1394881,28.2792849 11.8955003,27.9974957 11.5652778,27.8829942 L3.25416667,24.9527616 C3.10247798,24.8987791 2.93979164,24.8830519 2.78055556,24.9069767 L2.78055556,24.9069767 Z" id="Shape"></path>
                </g>
            </g>
        </g>
    </g>
</svg>