<?xml version="1.0" encoding="UTF-8"?>
<svg width="17px" height="9px" viewBox="0 0 17 9" version="1.1" xmlns="http://www.w3.org/2000/svg" xmlns:xlink="http://www.w3.org/1999/xlink">
    <!-- Generator: Sketch 48.1 (47250) - http://www.bohemiancoding.com/sketch -->
    <title>EuroAszfalt_logo</title>
    <desc>Created with Sketch.</desc>
    <defs></defs>
    <g id="Page-1" stroke="none" stroke-width="1" fill="none" fill-rule="evenodd">
        <g id="EuroAszfalt_logo">
            <polygon id="Fill-1" fill="#151616" points="5.04930723 6.50449355 11.933191 6.50449355 11.933191 -1.42108547e-14 5.04930723 -1.42108547e-14"></polygon>
            <polygon id="Fill-2" fill="#000000" points="5.4869241 0.303367742 5.34119518 0.689090323 5.60385542 1.46067097 6.27414699 1.29547742 6.44977952 0.551216129"></polygon>
            <polygon id="Fill-3" fill="#000000" points="10.6503976 5.18193871 10.417006 6.22959677 11.7296928 5.87144516 11.3500705 5.04431613"></polygon>
            <polygon id="Fill-4" fill="#000000" points="9.77492831 1.76404839 9.10423735 1.98459677 9.80451446 2.48095161 10.7084946 2.03965161"></polygon>
            <polygon id="Fill-5" fill="#000000" points="6.04126747 4.7856 6.07813494 5.32656774 6.77084398 5.25243871 7.38313072 4.60773871 6.50826566 4.0520129"></polygon>
            <polygon id="Fill-6" fill="#000000" points="7.79175542 2.72896452 7.67479337 3.52811613 8.28760241 3.52811613 8.78328554 3.33515806 8.54977108 2.72896452 8.28760241 2.343"></polygon>
            <polygon id="Fill-7" fill="#000000" points="6.68314036 2.01200323 6.21634699 2.14981935 6.24552349 2.45321613 6.68314036 2.78377742 7.44136084 2.83896774 7.29583675 2.28764516 7.17911024 1.95667742"></polygon>
            <polygon id="Fill-8" fill="#000000" points="7.09135542 0.633958065 7.44151446 1.35023226 8.34568916 1.18528065 8.31660482 0.71666129 7.73337169 0.440748387"></polygon>
            <polygon id="Fill-9" fill="#000000" points="9.04577169 4.2446129 8.60855422 4.60334516 9.10362289 5.31987097 10.2707855 5.07196452 10.0666729 4.27218387"></polygon>
            <polygon id="Fill-10" fill="#000000" points="10.7876265 3.26797742 10.1553289 3.67572581 10.3564819 3.9732 11.2984253 4.20624194 11.6180765 3.71160968 11.4076042 3.49646129"></polygon>
            <polygon id="Fill-11" fill="#000000" points="9.86271386 0.606522581 9.27910181 0.8271 9.57055964 1.15763226 10.5042078 1.54329677 11.058756 1.10214194 10.6498548 0.661277419 10.1833789 0.358180645"></polygon>
            <polygon id="Fill-12" fill="#000000" points="7.41219458 5.43011613 6.79989759 5.95387742 7.70416446 6.20205484 8.46241566 6.03630968"></polygon>
            <polygon id="Fill-13" fill="#000000" points="9.42489217 5.4576871 8.92901446 5.9535 9.74552651 6.31222258 10.066591 5.70586452"></polygon>
            <polygon id="Fill-14" fill="#000000" points="5.39951747 3.1422871 5.2244994 3.55532903 5.63271446 3.88624839 6.42063373 3.47286774 5.8953747 2.8941871"></polygon>
            <polygon id="Fill-15" fill="#000000" points="5.34119518 5.51290645 5.19506687 6.1191 5.60379398 6.36763548 6.3035488 6.06404516"></polygon>
            <polygon id="Fill-16" fill="#000000" points="9.57831205 3.93786774 8.98985602 3.08695161 9.34848434 2.81208387 9.79296265 3.77327419"></polygon>
            <polygon id="Fill-18" fill="#000000" points="11.3210681 2.34297097 10.4459777 2.83896774 10.241988 3.08728065 10.5922289 3.08728065 11.5834416 2.67355161"></polygon>
            <polygon id="Fill-19" fill="#000000" points="11.3500705 0.661548387 11.1462855 1.54346129 11.4082494 1.90197097 11.6130482 1.62625161 11.6709301 0.606580645"></polygon>
            <polygon id="Fill-20" fill="#000000" points="7.73232711 1.92282581 8.58019699 1.51394516 8.95949157 1.59900968 8.9293012 1.73622581 8.0516506 2.1725129"></polygon>
            <polygon id="Fill-21" fill="#000000" points="5.45771687 1.9292129 5.34116446 2.20523226 5.74969699 2.5356 6.07044398 2.09522903"></polygon>
            <polygon id="Fill-23" fill="#000000" points="5.4869241 4.4654129 5.22443795 4.63061613 5.31190602 4.87870645 5.63273494 5.0442871 5.83725723 4.79597419 5.77858675 4.60318065"></polygon>
            <polygon id="Fill-26" fill="#000000" points="7.24939398 3.2496871 6.88858434 3.29823871 6.97616506 3.71844194 7.27653253 3.84830323 7.53449217 3.65082581"></polygon>
            <polygon id="Fill-29" fill="#151616" points="0 7.74928065 0 8.97859355 0.674787349 8.97859355 0.674787349 8.85147097 0.145001807 8.85147097 0.145001807 8.36885806 0.659200602 8.36885806 0.659200602 8.24185161 0.145001807 8.24185161 0.145001807 7.87648065 0.674787349 7.87648065 0.674787349 7.74928065"></polygon>
            <path d="M1.68370663,8.48152258 C1.68370663,8.57295484 1.68042952,8.67700645 1.74075904,8.75540323 C1.7978012,8.83010323 1.90799398,8.87276129 2.00323494,8.87276129 C2.0961,8.87276129 2.19799759,8.83216452 2.25852169,8.76335806 C2.32726928,8.68523226 2.32244578,8.57789032 2.32244578,8.48152258 L2.32244578,7.74936774 L2.46724277,7.74936774 L2.46724277,8.51899355 C2.46724277,8.65242581 2.45496386,8.75713548 2.35336325,8.85972581 C2.26200361,8.9495129 2.13401205,8.99993226 2.00323494,8.99993226 C1.88044578,8.99993226 1.75468675,8.95612258 1.66661446,8.87434839 C1.55292952,8.77167097 1.53870482,8.6592 1.53870482,8.51899355 L1.53870482,7.74936774 L1.68370663,7.74936774 L1.68370663,8.48152258 Z" id="Fill-30" fill="#151616"></path>
            <path d="M3.49033554,8.97865161 L3.34533373,8.97865161 L3.34533373,7.7490871 L3.53375723,7.7490871 C3.7805747,7.7490871 4.0098494,7.81124516 4.0098494,8.08839677 C4.0098494,8.27761935 3.88399819,8.41146774 3.68378735,8.42789032 L4.09782952,8.97865161 L3.91994398,8.97865161 L3.52658855,8.43883548 L3.49033554,8.43883548 L3.49033554,8.97865161 Z M3.49033554,8.31824516 L3.53506807,8.31824516 C3.69926145,8.31824516 3.8647247,8.28889355 3.8647247,8.09816129 C3.8647247,7.89609677 3.70793554,7.87648065 3.53375723,7.87648065 L3.49033554,7.87648065 L3.49033554,8.31824516 Z" id="Fill-31" fill="#151616"></path>
            <path d="M6.1921988,8.36567419 C6.1921988,8.71963548 5.88515422,8.99999032 5.51423675,8.99999032 C5.1432988,8.99999032 4.83617229,8.71963548 4.83617229,8.36567419 C4.83617229,8.01366774 5.1432988,7.72794194 5.51423675,7.72794194 C5.88515422,7.72794194 6.1921988,8.01366774 6.1921988,8.36567419 Z M4.98088735,8.3640871 C4.98088735,8.64109355 5.21910241,8.87273226 5.51423675,8.87273226 C5.80938133,8.87273226 6.04716627,8.64109355 6.04716627,8.3640871 C6.04716627,8.08567742 5.81286325,7.85557742 5.51423675,7.85557742 C5.21590723,7.85557742 4.98088735,8.08567742 4.98088735,8.3640871 Z" id="Fill-32" fill="#151616"></path>
            <path d="M7.20509157,8.62968387 L7.04839458,8.97856452 L6.88937289,8.97856452 L7.49010783,7.69068387 L8.07495904,8.97856452 L7.91437048,8.97856452 L7.76086867,8.62968387 L7.20509157,8.62968387 Z M7.48670783,8.01034839 L7.2638747,8.50275484 L7.70414398,8.50275484 L7.48670783,8.01034839 Z" id="Fill-33" fill="#151616"></path>
            <path d="M9.42767771,7.98895161 C9.37606325,7.90430323 9.31370602,7.85552903 9.20330843,7.85552903 C9.08759578,7.85552903 8.98765422,7.93381935 8.98765422,8.04623226 C8.98765422,8.15192903 9.10284458,8.20080968 9.19132651,8.23847419 L9.27716627,8.27413548 C9.44655181,8.34430645 9.58949518,8.42407742 9.58949518,8.61991935 C9.58949518,8.83572581 9.4068988,8.99996129 9.18078855,8.99996129 C8.97246687,8.99996129 8.81681446,8.87281935 8.77512349,8.68207742 L8.91687892,8.6444129 C8.93591687,8.77032581 9.03740482,8.87281935 9.17729639,8.87281935 C9.3170753,8.87281935 9.44489277,8.77186452 9.44489277,8.63310968 C9.44489277,8.48947742 9.32743916,8.43917419 9.2050494,8.38874516 L9.12548735,8.35605484 C8.97246687,8.29254194 8.84282651,8.21724194 8.84282651,8.04110323 C8.84282651,7.8504 9.0132259,7.72799032 9.20659578,7.72799032 C9.35150542,7.72799032 9.47406928,7.79844194 9.54350301,7.91897419 L9.42767771,7.98895161 Z" id="Fill-34" fill="#151616"></path>
            <polygon id="Fill-35" fill="#151616" points="11.2476506 8.85144194 11.2476506 8.97856452 10.3163578 8.97856452 11.0252271 7.87650968 10.405659 7.87650968 10.405659 7.74905806 11.2668114 7.74905806 10.5558837 8.85144194"></polygon>
            <polygon id="Fill-36" fill="#151616" points="12.2001422 7.87648065 12.2001422 8.24162903 12.6333452 8.24162903 12.6333452 8.36905161 12.2001422 8.36905161 12.2001422 8.97867097 12.05555 8.97867097 12.05555 7.74936774 12.646853 7.74936774 12.646853 7.87648065"></polygon>
            <path d="M13.5582886,8.62968387 L13.4008849,8.97856452 L13.2420373,8.97856452 L13.8431,7.69068387 L14.4277464,8.97856452 L14.2672705,8.97856452 L14.1134512,8.62968387 L13.5582886,8.62968387 Z M13.8394952,8.01034839 L13.616662,8.50275484 L14.0566036,8.50275484 L13.8394952,8.01034839 Z" id="Fill-37" fill="#151616"></path>
            <polygon id="Fill-38" fill="#151616" points="15.3328675 8.85144194 15.6862327 8.85144194 15.6862327 8.97856452 15.1902373 8.97856452 15.1902373 7.74905806 15.3328675 7.74905806"></polygon>
            <polygon id="Fill-39" fill="#151616" points="16.2061307 7.74928065 16.2061307 7.87648065 16.5201084 7.87648065 16.5201084 8.97859355 16.6653151 8.97859355 16.6653151 7.87648065 16.9823753 7.87648065 16.9823753 7.74928065"></polygon>
        </g>
    </g>
</svg>