<?xml version="1.0" encoding="UTF-8"?>
<svg width="395px" height="75px" viewBox="0 0 395 75" version="1.1" xmlns="http://www.w3.org/2000/svg" xmlns:xlink="http://www.w3.org/1999/xlink">
    <!-- Generator: Sketch 48.1 (47250) - http://www.bohemiancoding.com/sketch -->
    <title>budapest_16,5mm_blue</title>
    <desc>Created with Sketch.</desc>
    <defs>
        <polygon id="path-1" points="0.0359999979 0.33359998 42.2975975 0.33359998 42.2975975 42.6311975 0.0359999979 42.6311975"></polygon>
    </defs>
    <g id="Page-1" stroke="none" stroke-width="1" fill="none" fill-rule="evenodd">
        <g id="budapest_16,5mm_blue">
            <g id="Group-3">
                <mask id="mask-2" fill="white">
                    <use xlink:href="#path-1"></use>
                </mask>
                <g id="Clip-2"></g>
                <path d="M42.2975975,21.5249987 C42.2975975,33.241198 32.864998,42.6311975 21.1061987,42.6311975 C9.47459944,42.6311975 0,33.198598 0,21.5663987 C0,9.68159942 9.47459944,0.33359998 21.5291987,0.33359998 C32.907598,0.33359998 42.2975975,9.93479941 42.2975975,21.5249987 Z M1.90319989,21.4823987 C1.90319989,32.1413981 10.4897994,40.7273976 21.1061987,40.7273976 C31.7651981,40.7273976 40.3937976,32.1839981 40.3937976,21.5663987 C40.3937976,10.7387994 31.8923981,2.23679987 20.9795987,2.23679987 C10.5323994,2.23679987 1.90319989,10.9499993 1.90319989,21.4823987 Z M15.5651991,20.9747987 L15.3959991,21.3551987 C14.2115992,20.9747987 13.4927992,20.7629988 12.8159992,20.4665988 C12.3509993,20.2559988 11.8007993,20.0435988 10.1933994,19.3247988 L10.0667994,19.6211988 L10.7435994,20.0015988 L12.5201993,20.9321988 C14.2967991,21.9053987 15.4805991,22.2857987 16.834199,22.2857987 C19.7951988,22.2857987 22.4597987,20.1713988 24.1097986,16.448999 C25.8437985,16.195199 27.5777984,16.067999 29.4815982,16.067999 C32.0615981,16.067999 34.7681979,16.321799 38.9135977,16.956599 L37.9829977,17.9291989 C34.8527979,17.421599 32.2307981,17.209799 29.8193982,17.209799 C29.3969982,17.209799 29.0159983,17.209799 28.0427983,17.252399 L27.7049983,17.8025989 C28.4657983,17.7599989 28.7201983,17.7599989 29.4815982,17.7599989 C31.8923981,17.7599989 34.6841979,18.0137989 37.4753978,18.4793989 L36.5447978,19.4099988 C34.175998,19.0289989 31.8923981,18.8597989 29.4389982,18.8597989 C28.6775983,18.8597989 28.0427983,18.8597989 27.0275984,18.9443989 L26.6471984,19.5359988 C27.5777984,19.4519988 28.0427983,19.4519988 28.7621983,19.4519988 C31.5959981,19.4519988 34.387798,19.6211988 36.0797978,19.8749988 L35.1911979,20.8055988 C32.6537981,20.5097988 31.6805981,20.4665988 29.7773982,20.4665988 C28.3391983,20.4665988 27.4505984,20.5097988 25.9703985,20.6357988 L25.5899985,21.2705987 C26.8589984,21.1013987 28.2545983,21.0167987 30.0311982,21.0167987 C31.5539981,21.0167987 32.6537981,21.0593987 34.7261979,21.2705987 L33.795598,22.2011987 C32.5685981,22.1165987 31.8923981,22.0739987 30.9191982,22.0739987 C27.0275984,22.0739987 24.3629985,22.7087986 21.1907987,24.4007985 C23.8553986,27.1079984 28.3391983,28.9685983 32.0189981,28.7999983 L30.8351982,30.2801982 C23.1791986,28.2497983 19.3301988,26.6003984 13.4081992,22.8785986 C8.58599949,19.9595988 6.7673996,19.0289989 3.17219981,17.8025989 L3.46799979,16.956599 C4.9907997,17.506199 5.28719968,17.590799 6.04859964,17.9291989 L6.38699962,17.041199 L15.5651991,20.9747987 Z" id="Fill-1" fill="#101B48" mask="url(#mask-2)"></path>
            </g>
            <path d="M77.5373954,7.39739956 L77.5373954,30.0263982 L89.4653947,30.0263982 L89.4653947,35.6093979 L70.4741958,35.6093979 L70.4741958,7.39739956 L77.5373954,7.39739956 Z M104.227194,35.6093979 L104.015394,33.621598 C102.365994,35.3561979 100.504794,36.1595978 98.1785941,36.1595978 C95.3021943,36.1595978 92.9759945,34.9751979 91.7915945,32.944798 C90.9035946,31.4219981 90.7763946,30.6605982 90.7763946,27.3191984 L90.7763946,15.3065991 L97.4171942,15.3065991 L97.4171942,27.0653984 C97.4171942,30.0263982 98.2631941,31.2533981 100.335594,31.2533981 C102.535194,31.2533981 103.634994,29.8145982 103.634994,27.0653984 L103.634994,15.3065991 L110.275793,15.3065991 L110.275793,35.6093979 L104.227194,35.6093979 Z M125.333393,11.8805993 L124.234193,11.8805993 C121.780793,11.8805993 121.145993,12.4727993 121.145993,14.7143991 L121.145993,15.3065991 L125.079593,15.3065991 L125.079593,19.7903988 L121.145993,19.7903988 L121.145993,35.6093979 L114.505193,35.6093979 L114.505193,19.7903988 L111.629393,19.7903988 L111.629393,15.3065991 L114.505193,15.3065991 L114.505193,14.7143991 C114.505193,9.38519944 116.493593,7.39739956 121.696193,7.39739956 L125.333393,7.39739956 L125.333393,11.8805993 Z M135.527392,8.96219947 L135.527392,15.3065991 L139.291792,15.3065991 L139.291792,19.7903988 L135.527392,19.7903988 L135.527392,27.8267983 C135.569392,30.7871982 135.738592,30.9569982 138.276592,30.9569982 L139.587592,30.9569982 L139.587592,35.6093979 L134.596792,35.6093979 C130.662592,35.6093979 128.886592,33.790798 128.886592,29.6459982 L128.886592,19.7903988 L126.094792,19.7903988 L126.094792,15.3065991 L128.886592,15.3065991 L128.886592,8.96219947 L135.527392,8.96219947 Z M147.709191,7.39739956 L147.709191,17.590799 C148.935591,15.6029991 150.669591,14.7143991 153.250191,14.7143991 C156.041391,14.7143991 158.282991,15.8987991 159.50999,18.0563989 C160.39799,19.6211988 160.52519,20.4665988 160.52519,23.8511986 L160.52519,35.6093979 L153.926391,35.6093979 L153.926391,24.1043986 C153.926391,21.1859987 153.038391,19.8749988 151.007991,19.8749988 C148.808391,19.8749988 147.709191,21.3131987 147.709191,24.1043986 L147.709191,35.6093979 L141.068392,35.6093979 L141.068392,7.39739956 L147.709191,7.39739956 Z M163.35899,21.7787987 C163.35899,17.167799 166.95419,14.4605991 172.96019,14.4605991 C179.262589,14.4605991 182.392789,17.083199 182.392789,22.4129987 L182.392789,32.775598 C182.392789,34.5521979 182.392789,34.5521979 182.942389,35.6093979 L176.809789,35.6093979 L176.428789,33.917398 C174.31379,35.7791979 172.49519,36.4559978 169.83059,36.4559978 C165.34679,36.4559978 162.08999,33.790798 162.08999,30.1109982 C162.08999,27.0653984 164.07779,24.9089985 167.96939,23.8091986 C168.56159,23.6387986 170.50739,23.2589986 173.84879,22.6241987 C175.28699,22.3283987 175.83659,21.8621987 175.83659,20.8895988 C175.83659,19.7483988 174.65219,18.9863989 172.87559,18.9863989 C170.71859,18.9863989 169.44959,20.0015988 169.40759,21.7787987 L163.35899,21.7787987 Z M176.00579,25.8815985 C175.15979,26.1347984 174.90599,26.2193984 174.22919,26.4311984 C173.42579,26.6423984 172.70639,26.8109984 171.81839,26.9813984 C169.66139,27.5309984 168.60359,28.3763983 168.60359,29.6879982 C168.60359,30.9989982 169.61879,31.7597981 171.26819,31.7597981 C174.48299,31.7597981 176.00579,30.3221982 176.00579,27.3191984 L176.00579,25.8815985 Z M190.767589,15.3065991 L190.978789,17.590799 C192.544189,15.6029991 194.405388,14.7143991 196.858188,14.7143991 C199.691988,14.7143991 201.976188,15.941399 203.160588,18.0563989 C204.006588,19.6211988 204.175788,20.5097988 204.175788,23.8511986 L204.175788,35.6093979 L197.534988,35.6093979 L197.534988,24.1043986 C197.534988,21.1013987 196.688988,19.8749988 194.616588,19.8749988 C192.459589,19.8749988 191.359789,21.3131987 191.359789,24.1043986 L191.359789,35.6093979 L184.718989,35.6093979 L184.718989,15.3065991 L190.767589,15.3065991 Z M218.768987,21.6515987 C218.599187,19.7483988 217.795787,19.0289989 215.765387,19.0289989 C214.115987,19.0289989 213.100187,19.6631988 213.100187,20.7209988 C213.100187,21.6935987 214.073987,22.2857987 216.272987,22.6241987 L218.556587,23.0471986 C223.378787,23.8511986 225.620987,25.8815985 225.620987,29.3915982 C225.620987,33.706198 221.941187,36.4559978 216.188387,36.4559978 C209.378388,36.4559978 205.655988,33.748798 205.655988,28.8413983 L212.127587,28.8413983 L212.127587,29.0957983 C212.127587,30.7871982 213.523787,31.8449981 215.765387,31.8449981 C217.711187,31.8449981 218.895587,31.1261981 218.895587,29.9843982 C218.895587,28.7999983 217.795787,28.1225983 215.215787,27.6575984 L213.100187,27.3191984 C208.278588,26.4737984 206.206188,24.7385985 206.206188,21.5249987 C206.206188,17.125799 209.885987,14.4605991 215.933987,14.4605991 C220.163987,14.4605991 222.786587,15.6029991 224.140187,18.0563989 C224.732387,19.0715989 224.816987,19.4099988 224.986187,21.6515987 L218.768987,21.6515987 Z M228.031186,21.7787987 C228.073786,17.209799 231.668986,14.4605991 237.718186,14.4605991 C244.019985,14.4605991 247.107585,17.083199 247.107585,22.4129987 L247.107585,32.775598 C247.107585,34.5095979 247.107585,34.5095979 247.657785,35.6093979 L241.481986,35.6093979 L241.144186,33.917398 C238.690786,35.9057979 237.251986,36.4559978 234.545386,36.4559978 C230.019586,36.4559978 226.762186,33.790798 226.762186,30.1109982 C226.762186,27.0653984 228.750586,24.9089985 232.642186,23.8091986 C233.233786,23.6387986 235.179586,23.2163986 238.521586,22.6241987 C239.917186,22.3283987 240.508786,21.8621987 240.508786,20.8895988 C240.508786,19.7483988 239.324986,18.9863989 237.590986,18.9863989 C235.433386,18.9863989 234.122986,20.0435988 234.122986,21.7787987 L228.031186,21.7787987 Z M240.721186,25.8815985 C239.875186,26.1347984 239.578786,26.2193984 238.901386,26.4311984 C238.183186,26.5583984 237.379186,26.7269984 236.491186,26.9813984 C234.333586,27.5309984 233.275786,28.3763983 233.275786,29.6879982 C233.275786,30.9989982 234.291586,31.7597981 235.983586,31.7597981 C239.198386,31.7597981 240.721186,30.3221982 240.721186,27.3191984 L240.721186,25.8815985 Z" id="Fill-4" fill="#101B48"></path>
            <polyline id="Fill-5" fill="#101B48" points="279.223783 7.39739956 279.223783 12.8957992 270.722384 12.8957992 270.722384 35.6093979 263.658584 35.6093979 263.658584 12.8957992 255.156585 12.8957992 255.156585 7.39739956 279.223783 7.39739956"></polyline>
            <path d="M296.146182,29.1809983 C295.764582,33.325798 291.408583,36.4559978 285.994183,36.4559978 C279.311383,36.4559978 274.870184,32.0987981 274.870184,25.4585985 C274.870184,18.9863989 279.438583,14.4185991 285.951583,14.4185991 C290.477983,14.4185991 293.988582,16.660199 295.553382,20.5517988 C296.146182,22.0319987 296.569182,24.4007985 296.569182,26.1347984 C296.569182,26.3039984 296.569182,26.6423984 296.525982,27.0233984 L281.637583,27.0233984 C282.018583,29.9843982 283.541383,31.5911981 285.867583,31.5911981 C287.600983,31.5911981 288.997183,30.7031982 289.589983,29.1809983 L296.146182,29.1809983 Z M289.547383,22.7087986 C289.462783,20.4665988 287.981983,19.0715989 285.824983,19.0715989 C283.583383,19.0715989 282.060583,20.4665988 281.891383,22.7087986 L289.547383,22.7087986 Z" id="Fill-6" fill="#101B48"></path>
            <path d="M319.115381,28.0811983 C318.396581,33.706198 315.012581,36.4559978 308.710182,36.4559978 C302.026782,36.4559978 298.051182,32.5217981 298.051182,25.8383985 C298.051182,18.7751989 302.238582,14.4605991 309.175182,14.4605991 C313.066781,14.4605991 315.816581,15.7295991 317.507981,18.3095989 C318.481181,19.7903988 318.903581,21.2285987 319.030781,23.1317986 L312.474581,23.1317986 C312.347981,20.8475988 311.078381,19.6211988 308.878782,19.6211988 C306.341382,19.6211988 304.861182,21.8207987 304.861182,25.5005985 C304.861182,29.3075983 306.341382,31.3373981 309.133182,31.3373981 C311.163581,31.3373981 312.221381,30.3221982 312.474581,28.0811983 L319.115381,28.0811983" id="Fill-7" fill="#101B48"></path>
            <path d="M327.32158,7.39739956 L327.32158,17.590799 C328.50598,15.6455991 330.23998,14.7569991 332.77798,14.7569991 C335.61178,14.7569991 337.89598,15.941399 339.12298,18.0983989 C339.96898,19.6211988 340.13758,20.5097988 340.13758,23.8511986 L340.13758,35.6093979 L333.49678,35.6093979 L333.49678,24.1043986 C333.49678,21.1433987 332.65078,19.9169988 330.62098,19.9169988 C329.43598,19.9169988 328.29478,20.5517988 327.78718,21.4823987 C327.49078,22.1165987 327.32158,22.9205986 327.32158,24.1043986 L327.32158,35.6093979 L320.680781,35.6093979 L320.680781,7.39739956 L327.32158,7.39739956" id="Fill-8" fill="#101B48"></path>
            <path d="M348.680979,15.3065991 L348.892779,17.590799 C350.414979,15.6875991 352.318779,14.7569991 354.729579,14.7569991 C357.563379,14.7569991 359.847579,15.941399 361.073978,18.0983989 C361.920578,19.6211988 362.089178,20.5097988 362.089178,23.8511986 L362.089178,35.6093979 L355.448979,35.6093979 L355.448979,24.1043986 C355.448979,21.1433987 354.602379,19.9169988 352.572579,19.9169988 C351.387579,19.9169988 350.246379,20.5517988 349.738779,21.4823987 C349.442379,22.1165987 349.273779,22.9205986 349.273779,24.1043986 L349.273779,35.6093979 L342.63238,35.6093979 L342.63238,15.3065991 L348.680979,15.3065991" id="Fill-9" fill="#101B48"></path>
            <path d="M364.583978,35.6087979 L371.224778,35.6087979 L371.224778,15.3065991 L364.583978,15.3065991 L364.583978,35.6087979 Z M364.583978,12.6425992 L371.224778,12.6425992 L371.224778,7.39739956 L364.583978,7.39739956 L364.583978,12.6425992 Z" id="Fill-10" fill="#101B48"></path>
            <polyline id="Fill-11" fill="#101B48" points="380.318977 7.39739956 380.318977 21.7361987 386.282977 15.3065991 393.685177 15.3065991 386.324977 22.9205986 394.742376 35.6093979 387.086377 35.6093979 381.714577 27.1919984 380.318977 28.5035983 380.318977 35.6093979 373.678178 35.6093979 373.678178 7.39739956 380.318977 7.39739956"></polyline>
            <text id="Budapest" font-family="LucidaGrande, Lucida Grande" font-size="35.9999979" font-weight="normal" letter-spacing="-0.023999998" fill="#101B48">
                <tspan x="68.0147959" y="67.7695605">Bu</tspan>
                <tspan x="111.015622" y="67.7695605" letter-spacing="0.695999938">d</tspan>
                <tspan x="134.369823" y="67.7695605" letter-spacing="0.335999981">a</tspan>
                <tspan x="154.586681" y="67.7695605" letter-spacing="0.695999938">pe</tspan>
                <tspan x="198.693522" y="67.7695605" letter-spacing="1.05599993">s</tspan>
                <tspan x="218.101084" y="67.7695605">t</tspan>
            </text>
        </g>
    </g>
</svg>