<?xml version="1.0" encoding="UTF-8"?>
<svg width="66px" height="13px" viewBox="0 0 66 13" version="1.1" xmlns="http://www.w3.org/2000/svg" xmlns:xlink="http://www.w3.org/1999/xlink">
    <!-- Generator: Sketch 48.1 (47250) - http://www.bohemiancoding.com/sketch -->
    <title>budapest_16,5mm_yel</title>
    <desc>Created with Sketch.</desc>
    <defs>
        <polygon id="path-1" points="0.00600000009 0.0556000008 7.04960011 0.0556000008 7.04960011 7.10520011 0.00600000009 7.10520011"></polygon>
    </defs>
    <g id="Page-1" stroke="none" stroke-width="1" fill="none" fill-rule="evenodd">
        <g id="budapest_16,5mm_yel">
            <g id="Group-3">
                <mask id="mask-2" fill="white">
                    <use xlink:href="#path-1"></use>
                </mask>
                <g id="Clip-2"></g>
                <path d="M7.04960011,3.58750005 C7.04960011,5.54020008 5.47750008,7.10520011 3.51770005,7.10520011 C1.57910002,7.10520011 0,5.53310008 0,3.59440005 C0,1.61360002 1.57910002,0.0556000008 3.58820005,0.0556000008 C5.48460008,0.0556000008 7.04960011,1.65580002 7.04960011,3.58750005 Z M0.317200005,3.58040005 C0.317200005,5.35690008 1.74830003,6.7879001 3.51770005,6.7879001 C5.29420008,6.7879001 6.7323001,5.36400008 6.7323001,3.59440005 C6.7323001,1.78980003 5.31540008,0.372800006 3.49660005,0.372800006 C1.75540003,0.372800006 0.317200005,1.82500003 0.317200005,3.58040005 Z M2.59420004,3.49580005 L2.56600004,3.55920005 C2.36860004,3.49580005 2.24880003,3.46050005 2.13600003,3.41110005 C2.05850003,3.37600005 1.96680003,3.34060005 1.69890003,3.22080005 L1.67780003,3.27020005 L1.79060003,3.33360005 L2.08670003,3.48870005 C2.38280004,3.65090005 2.58010004,3.71430006 2.80570004,3.71430006 C3.29920005,3.71430006 3.74330006,3.36190005 4.01830006,2.74150004 C4.30730006,2.69920004 4.59630007,2.67800004 4.91360007,2.67800004 C5.34360008,2.67800004 5.79470009,2.72030004 6.4856001,2.82610004 L6.33050009,2.98820004 C5.80880009,2.90360004 5.37180008,2.86830004 4.96990007,2.86830004 C4.89950007,2.86830004 4.83600007,2.86830004 4.67380007,2.87540004 L4.61750007,2.96710004 C4.74430007,2.96000004 4.78670007,2.96000004 4.91360007,2.96000004 C5.31540008,2.96000004 5.78070009,3.00230004 6.24590009,3.07990005 L6.09080009,3.23500005 C5.69600008,3.17150005 5.31540008,3.14330005 4.90650007,3.14330005 C4.77960007,3.14330005 4.67380007,3.14330005 4.50460007,3.15740005 L4.44120007,3.25600005 C4.59630007,3.24200005 4.67380007,3.24200005 4.79370007,3.24200005 C5.26600008,3.24200005 5.73130009,3.27020005 6.01330009,3.31250005 L5.86520009,3.46760005 C5.44230008,3.41830005 5.28010008,3.41110005 4.96290007,3.41110005 C4.72320007,3.41110005 4.57510007,3.41830005 4.32840006,3.43930005 L4.26500006,3.54510005 C4.47650007,3.51690005 4.70910007,3.50280005 5.00520007,3.50280005 C5.25900008,3.50280005 5.44230008,3.50990005 5.78770009,3.54510005 L5.63260008,3.70020006 C5.42810008,3.68610005 5.31540008,3.67900005 5.15320008,3.67900005 C4.50460007,3.67900005 4.06050006,3.78480006 3.53180005,4.06680006 C3.97590006,4.51800007 4.72320007,4.82810007 5.33650008,4.80000007 L5.13920008,5.04670008 C3.86320006,4.70830007 3.22170005,4.43340007 2.23470003,3.81310006 C1.43100002,3.32660005 1.12790002,3.17150005 0.528700008,2.96710004 L0.578000009,2.82610004 C0.831800012,2.91770004 0.881200013,2.93180004 1.00810002,2.98820004 L1.06450002,2.84020004 L2.59420004,3.49580005 Z" id="Fill-1" fill="#F2B229" mask="url(#mask-2)"></path>
            </g>
            <path d="M12.9229002,1.23290002 L12.9229002,5.00440007 L14.9109002,5.00440007 L14.9109002,5.93490009 L11.7457002,5.93490009 L11.7457002,1.23290002 L12.9229002,1.23290002 Z M17.3712003,5.93490009 L17.3359003,5.60360008 C17.0610003,5.89270009 16.7508002,6.02660009 16.3631002,6.02660009 C15.8837002,6.02660009 15.4960002,5.82920009 15.2986002,5.49080008 C15.1506002,5.23700008 15.1294002,5.11010008 15.1294002,4.55320007 L15.1294002,2.55110004 L16.2362002,2.55110004 L16.2362002,4.51090007 C16.2362002,5.00440007 16.3772002,5.20890008 16.7226002,5.20890008 C17.0892003,5.20890008 17.2725003,4.96910007 17.2725003,4.51090007 L17.2725003,2.55110004 L18.3793003,2.55110004 L18.3793003,5.93490009 L17.3712003,5.93490009 Z M20.8889003,1.98010003 L20.7057003,1.98010003 C20.2968003,1.98010003 20.1910003,2.07880003 20.1910003,2.45240004 L20.1910003,2.55110004 L20.8466003,2.55110004 L20.8466003,3.29840005 L20.1910003,3.29840005 L20.1910003,5.93490009 L19.0842003,5.93490009 L19.0842003,3.29840005 L18.6049003,3.29840005 L18.6049003,2.55110004 L19.0842003,2.55110004 L19.0842003,2.45240004 C19.0842003,1.56420002 19.4156003,1.23290002 20.2827003,1.23290002 L20.8889003,1.23290002 L20.8889003,1.98010003 Z M22.5879003,1.49370002 L22.5879003,2.55110004 L23.2153003,2.55110004 L23.2153003,3.29840005 L22.5879003,3.29840005 L22.5879003,4.63780007 C22.5949003,5.13120008 22.6231003,5.15950008 23.0461003,5.15950008 L23.2646003,5.15950008 L23.2646003,5.93490009 L22.4328003,5.93490009 C21.7771003,5.93490009 21.4811003,5.63180008 21.4811003,4.94100007 L21.4811003,3.29840005 L21.0158003,3.29840005 L21.0158003,2.55110004 L21.4811003,2.55110004 L21.4811003,1.49370002 L22.5879003,1.49370002 Z M24.6182004,1.23290002 L24.6182004,2.93180004 C24.8226004,2.60050004 25.1116004,2.45240004 25.5417004,2.45240004 C26.0069004,2.45240004 26.3805004,2.64980004 26.5850004,3.00940004 C26.7330004,3.27020005 26.7542004,3.41110005 26.7542004,3.97520006 L26.7542004,5.93490009 L25.6544004,5.93490009 L25.6544004,4.01740006 C25.6544004,3.53100005 25.5064004,3.31250005 25.1680004,3.31250005 C24.8014004,3.31250005 24.6182004,3.55220005 24.6182004,4.01740006 L24.6182004,5.93490009 L23.5114004,5.93490009 L23.5114004,1.23290002 L24.6182004,1.23290002 Z M27.2265004,3.62980005 C27.2265004,2.86130004 27.8257004,2.41010004 28.8267004,2.41010004 C29.8771004,2.41010004 30.3988005,2.84720004 30.3988005,3.73550006 L30.3988005,5.46260008 C30.3988005,5.75870009 30.3988005,5.75870009 30.4904005,5.93490009 L29.4683004,5.93490009 L29.4048004,5.65290008 C29.0523004,5.96320009 28.7492004,6.07600009 28.3051004,6.07600009 C27.5578004,6.07600009 27.0150004,5.63180008 27.0150004,5.01850007 C27.0150004,4.51090007 27.3463004,4.15150006 27.9949004,3.96820006 C28.0936004,3.93980006 28.4179004,3.87650006 28.9748004,3.77070006 C29.2145004,3.72140006 29.3061004,3.64370005 29.3061004,3.48160005 C29.3061004,3.29140005 29.1087004,3.16440005 28.8126004,3.16440005 C28.4531004,3.16440005 28.2416004,3.33360005 28.2346004,3.62980005 L27.2265004,3.62980005 Z M29.3343004,4.31360006 C29.1933004,4.35580006 29.1510004,4.36990007 29.0382004,4.40520007 C28.9043004,4.44040007 28.7844004,4.46850007 28.6364004,4.49690007 C28.2769004,4.58850007 28.1006004,4.72940007 28.1006004,4.94800007 C28.1006004,5.16650008 28.2698004,5.29330008 28.5447004,5.29330008 C29.0805004,5.29330008 29.3343004,5.05370008 29.3343004,4.55320007 L29.3343004,4.31360006 Z M31.7946005,2.55110004 L31.8298005,2.93180004 C32.0907005,2.60050004 32.4009005,2.45240004 32.8097005,2.45240004 C33.2820005,2.45240004 33.6627005,2.65690004 33.8601005,3.00940004 C34.0011005,3.27020005 34.0293005,3.41830005 34.0293005,3.97520006 L34.0293005,5.93490009 L32.9225005,5.93490009 L32.9225005,4.01740006 C32.9225005,3.51690005 32.7815005,3.31250005 32.4361005,3.31250005 C32.0766005,3.31250005 31.8933005,3.55220005 31.8933005,4.01740006 L31.8933005,5.93490009 L30.7865005,5.93490009 L30.7865005,2.55110004 L31.7946005,2.55110004 Z M36.4615005,3.60860005 C36.4332005,3.29140005 36.2993005,3.17150005 35.9609005,3.17150005 C35.6860005,3.17150005 35.5167005,3.27720005 35.5167005,3.45350005 C35.5167005,3.61560005 35.6790005,3.71430006 36.0455005,3.77070006 L36.4261005,3.84120006 C37.2298006,3.97520006 37.6035006,4.31360006 37.6035006,4.89860007 C37.6035006,5.61770008 36.9902006,6.07600009 36.0314005,6.07600009 C34.8964005,6.07600009 34.2760005,5.62480008 34.2760005,4.80690007 L35.3546005,4.80690007 L35.3546005,4.84930007 C35.3546005,5.13120008 35.5873005,5.30750008 35.9609005,5.30750008 C36.2852005,5.30750008 36.4826005,5.18770008 36.4826005,4.99740007 C36.4826005,4.80000007 36.2993005,4.68710007 35.8693005,4.60960007 L35.5167005,4.55320007 C34.7131005,4.41230007 34.3677005,4.12310006 34.3677005,3.58750005 C34.3677005,2.85430004 34.9810005,2.41010004 35.9890005,2.41010004 C36.6940005,2.41010004 37.1311006,2.60050004 37.3567006,3.00940004 C37.4554006,3.17860005 37.4695006,3.23500005 37.4977006,3.60860005 L36.4615005,3.60860005 Z M38.0052006,3.62980005 C38.0123006,2.86830004 38.6115006,2.41010004 39.6197006,2.41010004 C40.6700006,2.41010004 41.1846006,2.84720004 41.1846006,3.73550006 L41.1846006,5.46260008 C41.1846006,5.75160009 41.1846006,5.75160009 41.2763006,5.93490009 L40.2470006,5.93490009 L40.1907006,5.65290008 C39.7818006,5.98430009 39.5420006,6.07600009 39.0909006,6.07600009 C38.3366006,6.07600009 37.7937006,5.63180008 37.7937006,5.01850007 C37.7937006,4.51090007 38.1251006,4.15150006 38.7737006,3.96820006 C38.8723006,3.93980006 39.1966006,3.86940006 39.7536006,3.77070006 C39.9862006,3.72140006 40.0848006,3.64370005 40.0848006,3.48160005 C40.0848006,3.29140005 39.8875006,3.16440005 39.5985006,3.16440005 C39.2389006,3.16440005 39.0205006,3.34060005 39.0205006,3.62980005 L38.0052006,3.62980005 Z M40.1202006,4.31360006 C39.9792006,4.35580006 39.9298006,4.36990007 39.8169006,4.40520007 C39.6972006,4.42640007 39.5632006,4.45450007 39.4152006,4.49690007 C39.0556006,4.58850007 38.8793006,4.72940007 38.8793006,4.94800007 C38.8793006,5.16650008 39.0486006,5.29330008 39.3306006,5.29330008 C39.8664006,5.29330008 40.1202006,5.05370008 40.1202006,4.55320007 L40.1202006,4.31360006 Z" id="Fill-4" fill="#F2B229"></path>
            <polyline id="Fill-5" fill="#F2B229" points="46.5373007 1.23290002 46.5373007 2.14930003 45.1204007 2.14930003 45.1204007 5.93490009 43.9431007 5.93490009 43.9431007 2.14930003 42.5261006 2.14930003 42.5261006 1.23290002 46.5373007 1.23290002"></polyline>
            <path d="M49.3577007,4.86350007 C49.2941007,5.55430008 48.5681007,6.07600009 47.6657007,6.07600009 C46.5519007,6.07600009 45.8117007,5.34980008 45.8117007,4.24310006 C45.8117007,3.16440005 46.5731007,2.40310004 47.6586007,2.40310004 C48.4130007,2.40310004 48.9981007,2.77670004 49.2589007,3.42530005 C49.3577007,3.67200005 49.4282007,4.06680006 49.4282007,4.35580006 C49.4282007,4.38400007 49.4282007,4.44040007 49.4210007,4.50390007 L46.9396007,4.50390007 C47.0031007,4.99740007 47.2569007,5.26520008 47.6446007,5.26520008 C47.9335007,5.26520008 48.1662007,5.11720008 48.2650007,4.86350007 L49.3577007,4.86350007 Z M48.2579007,3.78480006 C48.2438007,3.41110005 47.9970007,3.17860005 47.6375007,3.17860005 C47.2639007,3.17860005 47.0101007,3.41110005 46.9819007,3.78480006 L48.2579007,3.78480006 Z" id="Fill-6" fill="#F2B229"></path>
            <path d="M53.1859008,4.68020007 C53.0661008,5.61770008 52.5021008,6.07600009 51.4517008,6.07600009 C50.3378008,6.07600009 49.6752007,5.42030008 49.6752007,4.30640006 C49.6752007,3.12920005 50.3731008,2.41010004 51.5292008,2.41010004 C52.1778008,2.41010004 52.6361008,2.62160004 52.9180008,3.05160005 C53.0802008,3.29840005 53.1506008,3.53810005 53.1718008,3.85530006 L52.0791008,3.85530006 C52.0580008,3.47460005 51.8464008,3.27020005 51.4798008,3.27020005 C51.0569008,3.27020005 50.8102008,3.63680005 50.8102008,4.25010006 C50.8102008,4.88460007 51.0569008,5.22290008 51.5222008,5.22290008 C51.8606008,5.22290008 52.0369008,5.05370008 52.0791008,4.68020007 L53.1859008,4.68020007" id="Fill-7" fill="#F2B229"></path>
            <path d="M54.5536008,1.23290002 L54.5536008,2.93180004 C54.7510008,2.60760004 55.0400008,2.45950004 55.4630008,2.45950004 C55.9353008,2.45950004 56.3160008,2.65690004 56.5205008,3.01640004 C56.6615008,3.27020005 56.6896008,3.41830005 56.6896008,3.97520006 L56.6896008,5.93490009 L55.5828008,5.93490009 L55.5828008,4.01740006 C55.5828008,3.52390005 55.4418008,3.31950005 55.1035008,3.31950005 C54.9060008,3.31950005 54.7158008,3.42530005 54.6312008,3.58040005 C54.5818008,3.68610005 54.5536008,3.82010006 54.5536008,4.01740006 L54.5536008,5.93490009 L53.4468008,5.93490009 L53.4468008,1.23290002 L54.5536008,1.23290002" id="Fill-8" fill="#F2B229"></path>
            <path d="M58.1135009,2.55110004 L58.1488009,2.93180004 C58.4025009,2.61460004 58.7198009,2.45950004 59.1216009,2.45950004 C59.5939009,2.45950004 59.9746009,2.65690004 60.1790009,3.01640004 C60.3201009,3.27020005 60.3482009,3.41830005 60.3482009,3.97520006 L60.3482009,5.93490009 L59.2415009,5.93490009 L59.2415009,4.01740006 C59.2415009,3.52390005 59.1004009,3.31950005 58.7621009,3.31950005 C58.5646009,3.31950005 58.3744009,3.42530005 58.2898009,3.58040005 C58.2404009,3.68610005 58.2123009,3.82010006 58.2123009,4.01740006 L58.2123009,5.93490009 L57.1054009,5.93490009 L57.1054009,2.55110004 L58.1135009,2.55110004" id="Fill-9" fill="#F2B229"></path>
            <path d="M60.7640009,5.93480009 L61.8708009,5.93480009 L61.8708009,2.55110004 L60.7640009,2.55110004 L60.7640009,5.93480009 Z M60.7640009,2.10710003 L61.8708009,2.10710003 L61.8708009,1.23290002 L60.7640009,1.23290002 L60.7640009,2.10710003 Z" id="Fill-10" fill="#F2B229"></path>
            <polyline id="Fill-11" fill="#F2B229" points="63.3865009 1.23290002 63.3865009 3.62270005 64.380501 2.55110004 65.614201 2.55110004 64.387501 3.82010006 65.790401 5.93490009 64.514401 5.93490009 63.6191009 4.53200007 63.3865009 4.75060007 63.3865009 5.93490009 62.2797009 5.93490009 62.2797009 1.23290002 63.3865009 1.23290002"></polyline>
            <text id="Budapest" font-family="LucidaGrande, Lucida Grande" font-size="6.00000009" font-weight="normal" letter-spacing="-0.00399999997" fill="#F2B229">
                <tspan x="11.3358002" y="11.4615938">Bu</tspan>
                <tspan x="18.502605" y="11.4615938" letter-spacing="0.115999998">d</tspan>
                <tspan x="22.3949722" y="11.4615938" letter-spacing="0.0560000011">a</tspan>
                <tspan x="25.7644488" y="11.4615938" letter-spacing="0.115999998">pe</tspan>
                <tspan x="33.1155895" y="11.4615938" letter-spacing="0.176000002">s</tspan>
                <tspan x="36.3501833" y="11.4615938">t</tspan>
            </text>
        </g>
    </g>
</svg>