<?xml version="1.0" encoding="UTF-8"?>
<svg width="38px" height="17px" viewBox="0 0 38 17" version="1.1" xmlns="http://www.w3.org/2000/svg" xmlns:xlink="http://www.w3.org/1999/xlink">
    <!-- Generator: Sketch 48.1 (47250) - http://www.bohemiancoding.com/sketch -->
    <title>Leax_Hungary_Logo</title>
    <desc>Created with Sketch.</desc>
    <defs>
        <polygon id="path-1" points="0.00606217617 0.0906666667 16.2022772 0.0906666667 16.2022772 16.9941379 0.00606217617 16.9941379"></polygon>
    </defs>
    <g id="Page-1" stroke="none" stroke-width="1" fill="none" fill-rule="evenodd">
        <g id="Leax_Hungary_Logo" transform="translate(-1.000000, 0.000000)">
            <g id="Group-6">
                <mask id="mask-2" fill="white">
                    <use xlink:href="#path-1"></use>
                </mask>
                <g id="Clip-2"></g>
                <path d="M7.34018394,16.9992184 L7.34018394,11.4520402 L1.59445337,11.4520402 C1.66265285,14.488592 4.19906736,16.9372759 7.34018394,16.9992184" id="Fill-1" fill="#BC3331" mask="url(#mask-2)"></path>
                <path d="M7.34018394,11.175546 L7.34018394,5.65357471 C4.20735233,5.71463793 1.67720207,8.14983908 1.59505959,11.1746667 L7.34018394,11.175546" id="Fill-3" fill="#BC3331" mask="url(#mask-2)"></path>
                <path d="M7.5693342,0.0906666667 L7.5693342,5.65298851 C10.7077228,5.70867816 13.2614145,8.14661494 13.343557,11.1750575 L14.9137617,11.175546 L14.9137617,11.4520402 L13.343456,11.4520402 L13.3446684,11.3244425 L13.343557,11.174569 L7.3423057,11.175546 L7.3423057,11.4520402 L13.3441632,11.4520402 C13.2757617,14.4983621 10.7245959,16.9534943 7.5693342,17 C12.357443,16.9525172 16.2022772,13.189069 16.2022772,8.54758046 C16.2022772,3.91205172 12.349057,0.147626437 7.5693342,0.0906666667" id="Fill-5" fill="#BC3331" mask="url(#mask-2)"></path>
            </g>
            <polyline id="Fill-8" fill="#1A1919" points="21.5620492 10.3142126 17.8518964 10.3142126 17.8518964 4.01004598 19.1749663 4.01004598 19.1749663 9.18312644 21.5620492 9.18312644 21.5620492 10.3142126"></polyline>
            <polyline id="Fill-9" fill="#1A1919" points="22.6502098 10.3142126 22.6502098 4.01004598 26.8685751 4.01004598 26.8685751 5.12247126 23.9731788 5.12247126 23.9731788 6.59658621 26.2933756 6.59658621 26.2933756 7.69054598 23.9731788 7.69054598 23.9731788 9.20168966 26.8685751 9.20168966 26.8685751 10.3142126 22.6502098 10.3142126"></polyline>
            <path d="M30.266728,5.06687931 L29.6052435,8.06132184 L31.3884326,8.06132184 L30.7268472,5.06687931 L30.266728,5.06687931 Z M27.7740622,10.3142126 L29.2408057,4.01004598 L31.7527694,4.01004598 L33.219513,10.3142126 L31.896443,10.3142126 L31.6376891,9.17394253 L29.355886,9.17394253 L29.0970311,10.3142126 L27.7740622,10.3142126 Z" id="Fill-10" fill="#1A1919"></path>
            <polyline id="Fill-11" fill="#1A1919" points="35.1659767 4.01004598 36.3739663 6.32771264 37.6106503 4.01004598 38.9816114 4.01004598 37.1026399 7.22695402 38.9816114 10.3142126 37.5148679 10.3142126 36.3068782 8.13547701 35.0700933 10.3142126 33.6990311 10.3142126 35.5782047 7.29182759 33.6990311 4.01004598 35.1659767 4.01004598"></polyline>
            <polyline id="Fill-12" fill="#1A1919" points="24.6682073 14.6060287 24.6682073 13.5968736 23.494671 13.5968736 23.494671 14.6060287 23.2379378 14.6060287 23.2379378 12.3749253 23.494671 12.3749253 23.494671 13.374408 24.6682073 13.374408 24.6682073 12.3749253 24.9217073 12.3749253 24.9217073 14.6060287 24.6682073 14.6060287"></polyline>
            <path d="M25.9953187,13.935408 C25.9953187,14.2578218 26.1752642,14.4190287 26.5354585,14.4190287 C26.7220725,14.4190287 26.862715,14.3809253 26.9571839,14.304523 C27.0516528,14.2283161 27.0988368,14.1052126 27.0988368,13.935408 L27.0988368,12.3749253 L27.3523368,12.3749253 L27.3523368,13.9290575 C27.3523368,14.1782931 27.2839352,14.3589425 27.1472332,14.4707126 C27.0105311,14.5823851 26.8088627,14.6382701 26.5420259,14.6382701 C26.2753912,14.6382701 26.0746321,14.5823851 25.9402539,14.4707126 C25.8056736,14.3589425 25.7385855,14.1782931 25.7385855,13.9290575 L25.7385855,12.3749253 L25.9953187,12.3749253 L25.9953187,13.935408" id="Fill-13" fill="#1A1919"></path>
            <polyline id="Fill-14" fill="#1A1919" points="28.169114 14.6060287 28.169114 12.3749253 28.6492383 12.3749253 29.5328005 14.3867874 29.6028187 14.3867874 29.6028187 12.3749253 29.8562176 12.3749253 29.8562176 14.6060287 29.3860959 14.6060287 28.4891969 12.5942644 28.4258472 12.5942644 28.4258472 14.6060287 28.169114 14.6060287"></polyline>
            <path d="M31.6032358,13.6871494 L31.6032358,13.4647816 L32.2401684,13.4647816 L32.2401684,14.5608908 C31.9599948,14.6125747 31.7100311,14.6382701 31.4898731,14.6382701 C31.1542306,14.6382701 30.921443,14.5447701 30.7914093,14.3577701 C30.6613756,14.1707701 30.5963083,13.8822586 30.5963083,13.4921379 C30.5963083,13.1020172 30.6613756,12.8129195 30.7914093,12.6248448 C30.921443,12.4367701 31.1520078,12.3426839 31.4833057,12.3426839 C31.6899249,12.3426839 31.9044249,12.3641782 32.1268057,12.4071667 L32.2401684,12.4266092 L32.2300648,12.6328563 C31.9545389,12.5877184 31.715487,12.5652471 31.5132124,12.5652471 C31.2575907,12.5652471 31.0853238,12.6366667 30.9964119,12.7796034 C30.9075,12.9225402 30.8631451,13.1600517 30.8631451,13.4921379 C30.8631451,13.8241264 30.9075,14.0617356 30.9964119,14.2046724 C31.0853238,14.3476092 31.2564793,14.4190287 31.5098782,14.4190287 C31.6654741,14.4190287 31.8244041,14.4040805 31.9866684,14.3738908 L31.9866684,13.6871494 L31.6032358,13.6871494" id="Fill-15" fill="#1A1919"></path>
            <path d="M33.6337617,12.5877184 L33.283671,13.8096667 L34.1572306,13.8096667 L33.8071399,12.5877184 L33.6337617,12.5877184 Z M32.8068808,14.6060287 L33.4403782,12.3749253 L34.0006244,12.3749253 L34.6340207,14.6060287 L34.3806218,14.6060287 L34.2139119,14.0321322 L33.2269896,14.0321322 L33.0602798,14.6060287 L32.8068808,14.6060287 Z" id="Fill-16" fill="#1A1919"></path>
            <path d="M36.1211736,13.5323908 C36.434487,13.5323908 36.5912953,13.3759713 36.5912953,13.0633276 C36.5912953,12.7505862 36.4334767,12.5942644 36.1178394,12.5942644 L35.5209171,12.5942644 L35.5209171,13.5323908 L36.1211736,13.5323908 Z M35.5209171,13.7516322 L35.5209171,14.6060287 L35.2641839,14.6060287 L35.2641839,12.3749253 L36.1178394,12.3749253 C36.3623472,12.3749253 36.5462332,12.4297356 36.6696995,12.5393563 C36.7929637,12.648977 36.8546969,12.8198563 36.8546969,13.0519943 C36.8546969,13.396 36.7134482,13.6120172 36.4312539,13.700046 L36.8747021,14.6060287 L36.5912953,14.6060287 L36.1745207,13.7516322 L35.5209171,13.7516322 Z" id="Fill-17" fill="#1A1919"></path>
            <polyline id="Fill-18" fill="#1A1919" points="38.2582927 14.6060287 38.0015596 14.6060287 38.0015596 13.6679023 37.2647021 12.3749253 37.5547772 12.3749253 38.1282591 13.4196437 38.7017409 12.3749253 38.9918161 12.3749253 38.2582927 13.6679023 38.2582927 14.6060287"></polyline>
        </g>
    </g>
</svg>