<?xml version="1.0" encoding="UTF-8"?>
<svg width="66px" height="13px" viewBox="0 0 66 13" version="1.1" xmlns="http://www.w3.org/2000/svg" xmlns:xlink="http://www.w3.org/1999/xlink">
    <!-- Generator: Sketch 48.1 (47250) - http://www.bohemiancoding.com/sketch -->
    <title>budapest_16,5mm_yel</title>
    <desc>Created with Sketch.</desc>
    <defs>
        <polygon id="path-1" points="0.006 0.0556 7.0496 0.0556 7.0496 7.1052 0.006 7.1052"></polygon>
    </defs>
    <g id="Page-1" stroke="none" stroke-width="1" fill="none" fill-rule="evenodd">
        <g id="budapest_16,5mm_yel">
            <g id="Group-3">
                <mask id="mask-2" fill="white">
                    <use xlink:href="#path-1"></use>
                </mask>
                <g id="Clip-2"></g>
                <path d="M7.0496,3.5875 C7.0496,5.5402 5.4775,7.1052 3.5177,7.1052 C1.5791,7.1052 0,5.5331 0,3.5944 C0,1.6136 1.5791,0.0556 3.5882,0.0556 C5.4846,0.0556 7.0496,1.6558 7.0496,3.5875 Z M0.3172,3.5804 C0.3172,5.3569 1.7483,6.7879 3.5177,6.7879 C5.2942,6.7879 6.7323,5.364 6.7323,3.5944 C6.7323,1.7898 5.3154,0.3728 3.4966,0.3728 C1.7554,0.3728 0.3172,1.825 0.3172,3.5804 Z M2.5942,3.4958 L2.566,3.5592 C2.3686,3.4958 2.2488,3.4605 2.136,3.4111 C2.0585,3.376 1.9668,3.3406 1.6989,3.2208 L1.6778,3.2702 L1.7906,3.3336 L2.0867,3.4887 C2.3828,3.6509 2.5801,3.7143 2.8057,3.7143 C3.2992,3.7143 3.7433,3.3619 4.0183,2.7415 C4.3073,2.6992 4.5963,2.678 4.9136,2.678 C5.3436,2.678 5.7947,2.7203 6.4856,2.8261 L6.3305,2.9882 C5.8088,2.9036 5.3718,2.8683 4.9699,2.8683 C4.8995,2.8683 4.836,2.8683 4.6738,2.8754 L4.6175,2.9671 C4.7443,2.96 4.7867,2.96 4.9136,2.96 C5.3154,2.96 5.7807,3.0023 6.2459,3.0799 L6.0908,3.235 C5.696,3.1715 5.3154,3.1433 4.9065,3.1433 C4.7796,3.1433 4.6738,3.1433 4.5046,3.1574 L4.4412,3.256 C4.5963,3.242 4.6738,3.242 4.7937,3.242 C5.266,3.242 5.7313,3.2702 6.0133,3.3125 L5.8652,3.4676 C5.4423,3.4183 5.2801,3.4111 4.9629,3.4111 C4.7232,3.4111 4.5751,3.4183 4.3284,3.4393 L4.265,3.5451 C4.4765,3.5169 4.7091,3.5028 5.0052,3.5028 C5.259,3.5028 5.4423,3.5099 5.7877,3.5451 L5.6326,3.7002 C5.4281,3.6861 5.3154,3.679 5.1532,3.679 C4.5046,3.679 4.0605,3.7848 3.5318,4.0668 C3.9759,4.518 4.7232,4.8281 5.3365,4.8 L5.1392,5.0467 C3.8632,4.7083 3.2217,4.4334 2.2347,3.8131 C1.431,3.3266 1.1279,3.1715 0.5287,2.9671 L0.578,2.8261 C0.8318,2.9177 0.8812,2.9318 1.0081,2.9882 L1.0645,2.8402 L2.5942,3.4958 Z" id="Fill-1" fill="#F2B229" mask="url(#mask-2)"></path>
            </g>
            <path d="M12.9229,1.2329 L12.9229,5.0044 L14.9109,5.0044 L14.9109,5.9349 L11.7457,5.9349 L11.7457,1.2329 L12.9229,1.2329 Z M17.3712,5.9349 L17.3359,5.6036 C17.061,5.8927 16.7508,6.0266 16.3631,6.0266 C15.8837,6.0266 15.496,5.8292 15.2986,5.4908 C15.1506,5.237 15.1294,5.1101 15.1294,4.5532 L15.1294,2.5511 L16.2362,2.5511 L16.2362,4.5109 C16.2362,5.0044 16.3772,5.2089 16.7226,5.2089 C17.0892,5.2089 17.2725,4.9691 17.2725,4.5109 L17.2725,2.5511 L18.3793,2.5511 L18.3793,5.9349 L17.3712,5.9349 Z M20.8889,1.9801 L20.7057,1.9801 C20.2968,1.9801 20.191,2.0788 20.191,2.4524 L20.191,2.5511 L20.8466,2.5511 L20.8466,3.2984 L20.191,3.2984 L20.191,5.9349 L19.0842,5.9349 L19.0842,3.2984 L18.6049,3.2984 L18.6049,2.5511 L19.0842,2.5511 L19.0842,2.4524 C19.0842,1.5642 19.4156,1.2329 20.2827,1.2329 L20.8889,1.2329 L20.8889,1.9801 Z M22.5879,1.4937 L22.5879,2.5511 L23.2153,2.5511 L23.2153,3.2984 L22.5879,3.2984 L22.5879,4.6378 C22.5949,5.1312 22.6231,5.1595 23.0461,5.1595 L23.2646,5.1595 L23.2646,5.9349 L22.4328,5.9349 C21.7771,5.9349 21.4811,5.6318 21.4811,4.941 L21.4811,3.2984 L21.0158,3.2984 L21.0158,2.5511 L21.4811,2.5511 L21.4811,1.4937 L22.5879,1.4937 Z M24.6182,1.2329 L24.6182,2.9318 C24.8226,2.6005 25.1116,2.4524 25.5417,2.4524 C26.0069,2.4524 26.3805,2.6498 26.585,3.0094 C26.733,3.2702 26.7542,3.4111 26.7542,3.9752 L26.7542,5.9349 L25.6544,5.9349 L25.6544,4.0174 C25.6544,3.531 25.5064,3.3125 25.168,3.3125 C24.8014,3.3125 24.6182,3.5522 24.6182,4.0174 L24.6182,5.9349 L23.5114,5.9349 L23.5114,1.2329 L24.6182,1.2329 Z M27.2265,3.6298 C27.2265,2.8613 27.8257,2.4101 28.8267,2.4101 C29.8771,2.4101 30.3988,2.8472 30.3988,3.7355 L30.3988,5.4626 C30.3988,5.7587 30.3988,5.7587 30.4904,5.9349 L29.4683,5.9349 L29.4048,5.6529 C29.0523,5.9632 28.7492,6.076 28.3051,6.076 C27.5578,6.076 27.015,5.6318 27.015,5.0185 C27.015,4.5109 27.3463,4.1515 27.9949,3.9682 C28.0936,3.9398 28.4179,3.8765 28.9748,3.7707 C29.2145,3.7214 29.3061,3.6437 29.3061,3.4816 C29.3061,3.2914 29.1087,3.1644 28.8126,3.1644 C28.4531,3.1644 28.2416,3.3336 28.2346,3.6298 L27.2265,3.6298 Z M29.3343,4.3136 C29.1933,4.3558 29.151,4.3699 29.0382,4.4052 C28.9043,4.4404 28.7844,4.4685 28.6364,4.4969 C28.2769,4.5885 28.1006,4.7294 28.1006,4.948 C28.1006,5.1665 28.2698,5.2933 28.5447,5.2933 C29.0805,5.2933 29.3343,5.0537 29.3343,4.5532 L29.3343,4.3136 Z M31.7946,2.5511 L31.8298,2.9318 C32.0907,2.6005 32.4009,2.4524 32.8097,2.4524 C33.282,2.4524 33.6627,2.6569 33.8601,3.0094 C34.0011,3.2702 34.0293,3.4183 34.0293,3.9752 L34.0293,5.9349 L32.9225,5.9349 L32.9225,4.0174 C32.9225,3.5169 32.7815,3.3125 32.4361,3.3125 C32.0766,3.3125 31.8933,3.5522 31.8933,4.0174 L31.8933,5.9349 L30.7865,5.9349 L30.7865,2.5511 L31.7946,2.5511 Z M36.4615,3.6086 C36.4332,3.2914 36.2993,3.1715 35.9609,3.1715 C35.686,3.1715 35.5167,3.2772 35.5167,3.4535 C35.5167,3.6156 35.679,3.7143 36.0455,3.7707 L36.4261,3.8412 C37.2298,3.9752 37.6035,4.3136 37.6035,4.8986 C37.6035,5.6177 36.9902,6.076 36.0314,6.076 C34.8964,6.076 34.276,5.6248 34.276,4.8069 L35.3546,4.8069 L35.3546,4.8493 C35.3546,5.1312 35.5873,5.3075 35.9609,5.3075 C36.2852,5.3075 36.4826,5.1877 36.4826,4.9974 C36.4826,4.8 36.2993,4.6871 35.8693,4.6096 L35.5167,4.5532 C34.7131,4.4123 34.3677,4.1231 34.3677,3.5875 C34.3677,2.8543 34.981,2.4101 35.989,2.4101 C36.694,2.4101 37.1311,2.6005 37.3567,3.0094 C37.4554,3.1786 37.4695,3.235 37.4977,3.6086 L36.4615,3.6086 Z M38.0052,3.6298 C38.0123,2.8683 38.6115,2.4101 39.6197,2.4101 C40.67,2.4101 41.1846,2.8472 41.1846,3.7355 L41.1846,5.4626 C41.1846,5.7516 41.1846,5.7516 41.2763,5.9349 L40.247,5.9349 L40.1907,5.6529 C39.7818,5.9843 39.542,6.076 39.0909,6.076 C38.3366,6.076 37.7937,5.6318 37.7937,5.0185 C37.7937,4.5109 38.1251,4.1515 38.7737,3.9682 C38.8723,3.9398 39.1966,3.8694 39.7536,3.7707 C39.9862,3.7214 40.0848,3.6437 40.0848,3.4816 C40.0848,3.2914 39.8875,3.1644 39.5985,3.1644 C39.2389,3.1644 39.0205,3.3406 39.0205,3.6298 L38.0052,3.6298 Z M40.1202,4.3136 C39.9792,4.3558 39.9298,4.3699 39.8169,4.4052 C39.6972,4.4264 39.5632,4.4545 39.4152,4.4969 C39.0556,4.5885 38.8793,4.7294 38.8793,4.948 C38.8793,5.1665 39.0486,5.2933 39.3306,5.2933 C39.8664,5.2933 40.1202,5.0537 40.1202,4.5532 L40.1202,4.3136 Z" id="Fill-4" fill="#F2B229"></path>
            <polyline id="Fill-5" fill="#F2B229" points="46.5373 1.2329 46.5373 2.1493 45.1204 2.1493 45.1204 5.9349 43.9431 5.9349 43.9431 2.1493 42.5261 2.1493 42.5261 1.2329 46.5373 1.2329"></polyline>
            <path d="M49.3577,4.8635 C49.2941,5.5543 48.5681,6.076 47.6657,6.076 C46.5519,6.076 45.8117,5.3498 45.8117,4.2431 C45.8117,3.1644 46.5731,2.4031 47.6586,2.4031 C48.413,2.4031 48.9981,2.7767 49.2589,3.4253 C49.3577,3.672 49.4282,4.0668 49.4282,4.3558 C49.4282,4.384 49.4282,4.4404 49.421,4.5039 L46.9396,4.5039 C47.0031,4.9974 47.2569,5.2652 47.6446,5.2652 C47.9335,5.2652 48.1662,5.1172 48.265,4.8635 L49.3577,4.8635 Z M48.2579,3.7848 C48.2438,3.4111 47.997,3.1786 47.6375,3.1786 C47.2639,3.1786 47.0101,3.4111 46.9819,3.7848 L48.2579,3.7848 Z" id="Fill-6" fill="#F2B229"></path>
            <path d="M53.1859,4.6802 C53.0661,5.6177 52.5021,6.076 51.4517,6.076 C50.3378,6.076 49.6752,5.4203 49.6752,4.3064 C49.6752,3.1292 50.3731,2.4101 51.5292,2.4101 C52.1778,2.4101 52.6361,2.6216 52.918,3.0516 C53.0802,3.2984 53.1506,3.5381 53.1718,3.8553 L52.0791,3.8553 C52.058,3.4746 51.8464,3.2702 51.4798,3.2702 C51.0569,3.2702 50.8102,3.6368 50.8102,4.2501 C50.8102,4.8846 51.0569,5.2229 51.5222,5.2229 C51.8606,5.2229 52.0369,5.0537 52.0791,4.6802 L53.1859,4.6802" id="Fill-7" fill="#F2B229"></path>
            <path d="M54.5536,1.2329 L54.5536,2.9318 C54.751,2.6076 55.04,2.4595 55.463,2.4595 C55.9353,2.4595 56.316,2.6569 56.5205,3.0164 C56.6615,3.2702 56.6896,3.4183 56.6896,3.9752 L56.6896,5.9349 L55.5828,5.9349 L55.5828,4.0174 C55.5828,3.5239 55.4418,3.3195 55.1035,3.3195 C54.906,3.3195 54.7158,3.4253 54.6312,3.5804 C54.5818,3.6861 54.5536,3.8201 54.5536,4.0174 L54.5536,5.9349 L53.4468,5.9349 L53.4468,1.2329 L54.5536,1.2329" id="Fill-8" fill="#F2B229"></path>
            <path d="M58.1135,2.5511 L58.1488,2.9318 C58.4025,2.6146 58.7198,2.4595 59.1216,2.4595 C59.5939,2.4595 59.9746,2.6569 60.179,3.0164 C60.3201,3.2702 60.3482,3.4183 60.3482,3.9752 L60.3482,5.9349 L59.2415,5.9349 L59.2415,4.0174 C59.2415,3.5239 59.1004,3.3195 58.7621,3.3195 C58.5646,3.3195 58.3744,3.4253 58.2898,3.5804 C58.2404,3.6861 58.2123,3.8201 58.2123,4.0174 L58.2123,5.9349 L57.1054,5.9349 L57.1054,2.5511 L58.1135,2.5511" id="Fill-9" fill="#F2B229"></path>
            <path d="M60.764,5.9348 L61.8708,5.9348 L61.8708,2.5511 L60.764,2.5511 L60.764,5.9348 Z M60.764,2.1071 L61.8708,2.1071 L61.8708,1.2329 L60.764,1.2329 L60.764,2.1071 Z" id="Fill-10" fill="#F2B229"></path>
            <polyline id="Fill-11" fill="#F2B229" points="63.3865 1.2329 63.3865 3.6227 64.3805 2.5511 65.6142 2.5511 64.3875 3.8201 65.7904 5.9349 64.5144 5.9349 63.6191 4.532 63.3865 4.7506 63.3865 5.9349 62.2797 5.9349 62.2797 1.2329 63.3865 1.2329"></polyline>
            <text id="Budapest" font-family="LucidaGrande, Lucida Grande" font-size="6" font-weight="normal" letter-spacing="-0.00399999991" fill="#F2B229">
                <tspan x="11.3358" y="11.4615938">Bu</tspan>
                <tspan x="18.5026047" y="11.4615938" letter-spacing="0.115999997">d</tspan>
                <tspan x="22.3949719" y="11.4615938" letter-spacing="0.0560000002">a</tspan>
                <tspan x="25.7644484" y="11.4615938" letter-spacing="0.115999997">pe</tspan>
                <tspan x="33.1155891" y="11.4615938" letter-spacing="0.175999999">s</tspan>
                <tspan x="36.3501828" y="11.4615938">t</tspan>
            </text>
        </g>
    </g>
</svg>