<?xml version="1.0" encoding="UTF-8"?>
<svg width="79px" height="30px" viewBox="0 0 79 30" version="1.1" xmlns="http://www.w3.org/2000/svg" xmlns:xlink="http://www.w3.org/1999/xlink">
    <!-- Generator: Sketch 48.1 (47250) - http://www.bohemiancoding.com/sketch -->
    <title>mut_u패j_logo패_ok</title>
    <desc>Created with Sketch.</desc>
    <defs></defs>
    <g id="Page-1" stroke="none" stroke-width="1" fill="none" fill-rule="evenodd">
        <g id="mut_u패j_logo패_ok">
            <path d="M0.581853904,21.7127723 L78.4072015,21.7127723 L78.4072015,23.4021782 L78.408296,23.4021782 C78.408296,25.0365347 77.7314232,26.5229703 76.6410441,27.6009901 C75.5503665,28.679505 74.0462821,29.3488119 72.3921574,29.3489109 L72.3921574,29.3478218 L6.59699748,29.3478218 L6.59699748,29.3489109 C4.9427733,29.3489109 3.43868892,28.679505 2.34791184,27.6009901 C1.25753275,26.5228713 0.580759446,25.0365347 0.58065995,23.4022772 L0.581853904,23.4022772 L0.581853904,21.7127723 Z M9.54934887,24.0676238 L8.35619018,24.0676238 L8.35619018,25.4837624 L5.66581234,25.4837624 L5.66581234,24.0676238 L4.47852393,24.0676238 L4.47852393,27.9487129 L5.66581234,27.9487129 L5.66581234,26.4510891 L8.35619018,26.4510891 L8.35619018,27.9487129 L9.54934887,27.9487129 L9.54934887,24.0676238 Z M19.2288388,26.2820792 L19.2288388,24.0676238 L18.0357796,24.0676238 L18.0357796,26.270396 C18.0357796,26.5793069 17.9890164,26.7832673 17.8953904,26.8822772 C17.801864,26.9872277 17.5971008,27.0338614 17.2754295,27.0338614 L16.7841171,27.039703 L16.2519118,27.0338614 C15.8717368,27.0338614 15.6378212,26.9755446 15.5441952,26.8590099 C15.4506688,26.7366337 15.4039055,26.4860396 15.4039055,26.1013861 L15.4039055,24.0676238 L14.2165176,24.0676238 L14.2165176,26.4510891 C14.2223879,26.9289109 14.3042733,27.2785149 14.4680441,27.5 C14.6435554,27.7272277 14.86583,27.8612871 15.140738,27.9137624 C15.4214169,27.9672277 15.8074622,27.990495 16.3104156,27.990495 L17.2812997,27.9963366 C17.9480239,27.990495 18.433466,27.8962376 18.749267,27.7039604 C19.0709383,27.5058416 19.2288388,27.109604 19.2288388,26.5094059 L19.2288388,26.2820792 Z M27.3643463,27.9487129 L29.2534811,27.9487129 L29.2534811,24.0676238 L28.136437,24.0676238 L28.136437,26.9765347 L25.7852418,24.0676238 L23.8961071,24.0676238 L23.8961071,27.9487129 L25.0132506,27.9487129 L25.0132506,25.0330693 L27.3643463,27.9487129 Z M38.9389408,25.7576238 L36.2660743,25.7576238 L36.2660743,26.4860396 L37.7691637,26.4860396 L37.775034,26.5967327 C37.775034,26.7832673 37.7165302,26.9056436 37.5995227,26.969703 C37.4767443,27.039703 37.3247141,27.0688119 37.1316914,27.0688119 L36.0730516,27.0629703 L35.7922733,27.0571287 L35.4764723,27.0221782 C35.3360831,26.9988119 35.2308161,26.9289109 35.1606713,26.8065347 C35.0846562,26.6725743 35.049534,26.4743564 35.049534,26.2063366 L35.049534,25.8450495 C35.0554043,25.5128713 35.090427,25.2856436 35.1606713,25.1574257 C35.2425567,25.0175248 35.4179685,24.9534653 35.6928766,24.9534653 L37.0673174,24.9593069 L37.3656071,24.9650495 C37.4357519,24.9708911 37.5001259,24.9884158 37.5702708,25.0175248 C37.6521562,25.0524752 37.6990189,25.0932673 37.7224005,25.1515842 C37.7575227,25.2156436 37.7691637,25.2972277 37.7691637,25.3963366 L38.9330705,25.3963366 L38.9330705,25.3264356 C38.9330705,24.8194059 38.816063,24.4813861 38.5821474,24.3066337 C38.3481322,24.1259406 37.9796977,24.0385149 37.4650038,24.0385149 L36.669631,24.0210891 L36.3420894,24.0269307 L35.4530907,24.0443564 C34.7571146,24.0443564 34.3184358,24.190099 34.1312834,24.4813861 C33.944131,24.7727723 33.8506045,25.2972277 33.8506045,26.0548515 L33.8622456,26.5443564 C33.8622456,26.9755446 33.9382607,27.290198 34.0903904,27.4941584 C34.2482909,27.7039604 34.4529547,27.8321782 34.7103514,27.890495 C34.9735189,27.9487129 35.3303123,27.9788119 35.7865025,27.9788119 L36.4005932,27.9846535 L37.1083098,27.990495 L37.7282708,27.9846535 C38.2078426,27.9788119 38.5295139,27.8671287 38.6932846,27.639901 C38.8628262,27.4068317 38.9447116,27.0512871 38.9447116,26.5734653 L38.9389408,25.7576238 Z M45.5537481,23.7121782 L46.9457003,23.3217822 L46.7176549,22.6807921 L45.4074887,23.3217822 L45.5537481,23.7121782 Z M44.541971,27.9487129 L44.9279169,27.2436634 L47.4487531,27.2436634 L47.8171877,27.9487129 L49.1272544,27.9487129 L46.9983338,24.0676238 L45.3958476,24.0676238 L43.2201637,27.9487129 L44.541971,27.9487129 Z M45.3432141,26.4394059 L46.1795793,24.9048515 L47.0159446,26.4394059 L45.3432141,26.4394059 Z M57.1165025,24.0676238 L53.4845919,24.0676238 L53.4845919,27.9487129 L54.6717809,27.9487129 L54.6717809,26.9522772 L56.6545416,26.9522772 C56.9352204,26.9522772 57.0873501,27.010495 57.1165025,27.1270297 C57.1516247,27.2436634 57.1692355,27.3893069 57.1692355,27.5757426 L57.1692355,27.9487129 L58.3740353,27.9487129 L58.3740353,27.2027723 C58.368165,26.9405941 58.3037909,26.7657426 58.1751423,26.6667327 C58.0464937,26.5617822 57.8476008,26.4918812 57.578563,26.4569307 C57.8359597,26.369505 57.9997305,26.3111881 58.0698753,26.270396 C58.1517607,26.2180198 58.2161348,26.1538614 58.2746385,26.0664356 C58.3389131,25.9732673 58.3740353,25.8751485 58.3856763,25.770198 C58.4090579,25.660495 58.4149282,25.5847525 58.4149282,25.5332673 C58.4207985,25.4691089 58.4207985,25.3943564 58.4207985,25.2953465 C58.4149282,24.8310891 58.3155315,24.5163366 58.1166385,24.3415842 C57.9178451,24.1550495 57.5844332,24.0676238 57.1165025,24.0676238 Z M56.6194194,26.0082178 L54.6717809,26.0082178 L54.6717809,25.0116832 L56.6486713,25.0116832 L56.8299534,25.0175248 L57.0288463,25.0583168 C57.1107317,25.0865347 57.157495,25.1273267 57.1808766,25.1913861 C57.2101285,25.2545545 57.2217695,25.3477228 57.2217695,25.4691089 C57.2159987,25.7012871 57.1867469,25.8460396 57.1223728,25.910099 C57.052228,25.9790099 56.8884572,26.0082178 56.6194194,26.0082178 Z M63.0529446,27.9487129 L64.240233,27.9487129 L64.240233,24.0676238 L63.0529446,24.0676238 L63.0529446,27.9487129 Z M69.9251486,27.9487129 L70.311194,27.2436634 L72.8319307,27.2436634 L73.2003652,27.9487129 L74.5105315,27.9487129 L72.3816108,24.0676238 L70.7790252,24.0676238 L68.6033413,27.9487129 L69.9251486,27.9487129 Z M70.7263917,26.4394059 L71.5627569,24.9048515 L72.3991222,26.4394059 L70.7263917,26.4394059 Z" id="Fill-1" fill="#3E8937"></path>
            <path d="M6.59709698,0.0553465347 L72.3920579,0.0553465347 L72.3920579,0.0564356436 C74.2035856,0.0565346535 75.8501486,0.789009901 77.0436058,1.9690099 C78.237461,3.14940594 78.9784093,4.77821782 78.9785088,6.57039604 L78.9796033,6.57039604 L78.9796033,23.4021782 L78.9785088,23.4021782 C78.9785088,25.1944554 78.237461,26.8233663 77.0436058,28.0037624 C75.8501486,29.1837624 74.2035856,29.9161386 72.3921574,29.9162376 L72.3921574,29.9173267 L6.59699748,29.9173267 L6.59699748,29.9162376 C4.78546977,29.9162376 3.1389068,29.1837624 1.94544962,28.0036634 C0.751594458,26.8232673 0.0105465995,25.1944554 0.0105465995,23.4022772 L0.00945214106,23.4022772 L0.00945214106,6.57059406 L0.0105465995,6.57059406 C0.0105465995,4.77821782 0.751594458,3.14940594 1.94544962,1.96891089 C3.1389068,0.789009901 4.78546977,0.0565346535 6.59689798,0.0564356436 L6.59689798,0.0553465347 L6.59709698,0.0553465347 Z M72.3918589,0.624950495 L6.59689798,0.624950495 L6.59689798,0.623861386 C4.9427733,0.623861386 3.43868892,1.29326733 2.34801134,2.37168317 C1.25753275,3.44980198 0.580759446,4.93613861 0.58065995,6.57059406 L0.581853904,6.57059406 L0.581853904,23.4022772 L0.58065995,23.4022772 C0.580759446,25.0365347 1.25753275,26.5228713 2.34791184,27.6009901 C3.43868892,28.679505 4.9427733,29.3489109 6.59699748,29.3489109 L6.59699748,29.3478218 L72.3921574,29.3478218 L72.3921574,29.3489109 C74.0462821,29.3488119 75.5503665,28.679505 76.6410441,27.6009901 C77.7314232,26.5229703 78.408296,25.0365347 78.408296,23.4021782 L78.4072015,23.4021782 L78.4072015,6.57039604 L78.408296,6.57039604 C78.408296,4.93613861 77.7315227,3.44980198 76.6411436,2.37178218 C75.5503665,1.29326733 74.0461826,0.623861386 72.3920579,0.623861386 L72.3920579,0.624950495 L72.3918589,0.624950495 Z M72.6858703,15.8092079 L72.6859698,15.8092079 L72.6859698,15.809802 C73.1876297,15.809802 73.64183,16.0124752 73.970665,16.340099 C74.2990025,16.6672277 74.5021738,17.119505 74.5022733,17.6191089 L74.5028703,17.6191089 L74.5028703,17.619505 L74.5022733,17.619505 C74.5022733,18.1192079 74.2990025,18.5714851 73.9705655,18.8988119 C73.64183,19.2262376 73.1876297,19.4289109 72.6861688,19.4290099 L72.6861688,19.429505 L72.6857708,19.429505 L72.6857708,19.4290099 C72.1842103,19.4289109 71.7299106,19.2262376 71.4011751,18.8987129 C71.0728375,18.5714851 70.8695668,18.1192079 70.8695668,17.619604 L70.8689698,17.619604 L70.8689698,17.6192079 L70.8695668,17.6192079 C70.8695668,17.119604 71.0728375,16.6672277 71.4012746,16.34 C71.7300101,16.0124752 72.1841108,15.809802 72.6856713,15.809802 L72.6856713,15.8092079 L72.6858703,15.8092079 Z M72.6859698,16.0771287 L72.6859698,16.0777228 L72.6856713,16.0777228 L72.6856713,16.0771287 C72.2586335,16.0772277 71.8719912,16.249802 71.5920088,16.5287129 C71.3116285,16.8080198 71.1382065,17.1936634 71.1382065,17.6192079 L71.1388035,17.6192079 L71.1388035,17.619604 L71.1382065,17.619604 C71.1382065,18.0451485 71.3116285,18.4306931 71.5919093,18.71 C71.8718917,18.9890099 72.258733,19.1615842 72.6857708,19.1615842 L72.6857708,19.1610891 L72.6861688,19.1610891 L72.6861688,19.1615842 C73.1131071,19.1615842 73.4998489,18.9889109 73.7798312,18.71 C74.0601121,18.4307921 74.233534,18.0451485 74.2336335,17.619505 L74.2330365,17.619505 L74.2330365,17.6191089 L74.2336335,17.6191089 C74.233534,17.1935644 74.0601121,16.8080198 73.7799307,16.5288119 C73.4999484,16.249802 73.1131071,16.0771287 72.6859698,16.0771287 Z M71.9356688,18.5493069 L71.9356688,16.689505 L72.7631788,16.689505 C72.9297355,16.689505 73.0561952,16.7064356 73.1426574,16.739703 C73.2291196,16.7730693 73.2982695,16.8319802 73.3504055,16.9164356 C73.4021436,17.0012871 73.4277141,17.0948515 73.4277141,17.1970297 C73.4277141,17.3291089 73.3851297,17.439901 73.2990655,17.530396 C73.2134987,17.6209901 73.0809698,17.6785149 72.9018766,17.7031683 C72.9674446,17.7343564 73.0169937,17.7651485 73.0509219,17.7958416 C73.1230567,17.8616832 73.1913111,17.9444554 73.2560831,18.0430693 L73.5807393,18.5493069 L73.2700126,18.5493069 L73.0231625,18.1621782 C72.9510277,18.0508911 72.8914295,17.9651485 72.8444673,17.9063366 C72.7980025,17.8470297 72.7563136,17.8054455 72.719301,17.7819802 C72.6823879,17.7582178 72.6449773,17.7417822 72.6067708,17.7321782 C72.5785139,17.7266337 72.5328451,17.7235644 72.4689685,17.7235644 L72.1826184,17.7235644 L72.1826184,18.5493069 L71.9356688,18.5493069 Z M72.1826184,17.510495 L72.7137292,17.510495 C72.8262594,17.510495 72.9149106,17.4988119 72.9783892,17.4754455 C73.0422657,17.4519802 73.0905214,17.4148515 73.1235542,17.3637624 C73.1565869,17.3125743 73.1731033,17.2571287 73.1731033,17.1970297 C73.1731033,17.1091089 73.141364,17.0368317 73.0769899,16.980099 C73.0131134,16.9233663 72.9118262,16.8951485 72.773228,16.8951485 L72.1826184,16.8951485 L72.1826184,17.510495 Z M25.0673766,19.1031683 L29.3064131,19.1031683 L29.3064131,3.43386139 L22.2193967,3.43386139 L16.8764496,13.8173267 L11.467238,3.43386139 L4.33604534,3.43386139 L4.33604534,19.1031683 L8.55289421,19.1031683 L8.55289421,7.16693069 L14.9776637,19.1031683 L18.5764421,19.1031683 L25.0673766,7.16693069 L25.0673766,19.1031683 Z M53.1508816,12.3742574 L53.1508816,3.43386139 L48.6469861,3.43386139 L48.6469861,12.3272277 C48.6469861,13.5742574 48.4702809,14.3976238 48.1170693,14.7976238 C47.7638577,15.2210891 46.9910705,15.4094059 45.7767191,15.4094059 L43.9222091,15.4328713 L41.9130819,15.4094059 C40.4780479,15.4094059 39.5948199,15.1740594 39.2416083,14.7034653 C38.8883967,14.209505 38.7117909,13.1978218 38.7117909,11.6449505 L38.7117909,3.43386139 L34.2298841,3.43386139 L34.2298841,13.0566337 C34.2519723,14.9858416 34.5610076,16.3975248 35.1792771,17.2915842 C35.8416234,18.2091089 36.6805756,18.750198 37.7183212,18.9619802 C38.7779559,19.1776238 40.2351776,19.2717822 42.1337645,19.2717822 L45.7989068,19.2952475 C48.3157632,19.2717822 50.1482846,18.8913861 51.3404484,18.1150495 C52.5547997,17.3150495 53.1508816,15.7152475 53.1508816,13.2918812 L53.1508816,12.3742574 Z M63.3289471,19.1031683 L67.8107544,19.1031683 L67.8107544,7.3629703 L74.3679534,7.3629703 L74.3679534,3.43386139 L56.7495605,3.43386139 L56.7495605,7.3629703 L63.3289471,7.3629703 L63.3289471,19.1031683 Z" id="Fill-2" fill="#1A1919"></path>
        </g>
    </g>
</svg>