<?xml version="1.0" encoding="UTF-8"?>
<svg width="33px" height="30px" viewBox="0 0 33 30" version="1.1" xmlns="http://www.w3.org/2000/svg" xmlns:xlink="http://www.w3.org/1999/xlink">
    <!-- Generator: Sketch 48.1 (47250) - http://www.bohemiancoding.com/sketch -->
    <title>parmen_logo_fejes_2014_0724</title>
    <desc>Created with Sketch.</desc>
    <defs>
        <path d="M0.0802275449,11.6477778 C0.0802275449,18.0262626 6.30477844,23.2286869 13.9366707,23.2286869 C21.5685629,23.2286869 27.7931138,18.0262626 27.7931138,11.6477778 C27.7931138,5.26919192 21.5685629,0.0668686869 13.9366707,0.0668686869 C6.30477844,0.0668686869 0.0802275449,5.26919192 0.0802275449,11.6477778" id="path-1"></path>
        <radialGradient cx="50.0014874%" cy="49.9981978%" fx="50.0014874%" fy="49.9981978%" r="64.5820359%" gradientTransform="translate(0.500015,0.499982),scale(0.835778,1.000000),translate(-0.500015,-0.499982)" id="radialGradient-3">
            <stop stop-color="#005B2E" offset="0%"></stop>
            <stop stop-color="#007B40" offset="100%"></stop>
        </radialGradient>
        <path d="M0.0802275449,11.6477778 C0.0802275449,18.0262626 6.30477844,23.2286869 13.9366707,23.2286869 C21.5685629,23.2286869 27.7931138,18.0262626 27.7931138,11.6477778 C27.7931138,5.26919192 21.5685629,0.0668686869 13.9366707,0.0668686869 C6.30477844,0.0668686869 0.0802275449,5.26919192 0.0802275449,11.6477778" id="path-4"></path>
        <radialGradient cx="50.0014874%" cy="49.9981978%" fx="50.0014874%" fy="49.9981978%" r="40.6866545%" gradientTransform="translate(0.500015,0.499982),scale(0.835778,1.000000),translate(-0.500015,-0.499982)" id="radialGradient-6">
            <stop stop-color="#007B40" offset="0%"></stop>
            <stop stop-color="#009949" offset="100%"></stop>
        </radialGradient>
    </defs>
    <g id="Page-1" stroke="none" stroke-width="1" fill="none" fill-rule="evenodd">
        <g id="parmen_logo_fejes_2014_0724">
            <path d="M4.78851737,15.4319192 L0.0432359281,6.97969697 C3.91717904,2.7669697 9.90460419,0.055959596 16.6043946,0.055959596 C23.1953048,0.055959596 29.0966731,2.67989899 32.9748647,6.77585859 L28.5792449,15.9838384 C27.3712868,11.2489899 22.4559665,7.6869697 16.6043946,7.6869697 C10.9824395,7.6869697 6.22470898,10.9749495 4.78851737,15.4319192" id="Fill-1" fill="#F9C623"></path>
            <g id="Group-5" transform="translate(2.667665, 6.767677)">
                <mask id="mask-2" fill="white">
                    <use xlink:href="#path-1"></use>
                </mask>
                <g id="Clip-4"></g>
                <path d="M0.0802275449,11.6477778 C0.0802275449,18.0262626 6.30477844,23.2286869 13.9366707,23.2286869 C21.5685629,23.2286869 27.7931138,18.0262626 27.7931138,11.6477778 C27.7931138,5.26919192 21.5685629,0.0668686869 13.9366707,0.0668686869 C6.30477844,0.0668686869 0.0802275449,5.26919192 0.0802275449,11.6477778" id="Fill-3" fill="url(#radialGradient-3)" mask="url(#mask-2)"></path>
            </g>
            <g id="Group-8" transform="translate(2.667665, 6.767677)">
                <mask id="mask-5" fill="white">
                    <use xlink:href="#path-4"></use>
                </mask>
                <g id="Clip-7"></g>
                <path d="M0.0802275449,11.6477778 C0.0802275449,18.0262626 6.30477844,23.2286869 13.9366707,23.2286869 C21.5685629,23.2286869 27.7931138,18.0262626 27.7931138,11.6477778 C27.7931138,5.26919192 21.5685629,0.0668686869 13.9366707,0.0668686869 C6.30477844,0.0668686869 0.0802275449,5.26919192 0.0802275449,11.6477778" id="Fill-6" fill="url(#radialGradient-6)" mask="url(#mask-5)"></path>
            </g>
            <g id="Group-71" transform="translate(1.778443, 1.111111)">
                <path d="M14.8261324,6.39135709 C22.0181594,6.39135709 27.8838432,11.2938314 27.8838432,17.3047925 C27.8838432,23.3154828 22.0181594,28.2179571 14.8261324,28.2179571 C7.63410535,28.2179571 1.76842152,23.3154828 1.76842152,17.3047925 C1.76842152,11.2938314 7.63410535,6.39135709 14.8261324,6.39135709 Z" id="Stroke-9" stroke="#003017" stroke-width="0.5"></path>
                <path d="M15.0806294,9.35150409 C11.6803463,9.19570967 9.2665969,10.4345669 7.52816002,12.6279081 C7.61761107,17.5405701 7.06804439,19.6364356 6.04464434,21.4607022 C5.58510028,22.2799421 5.91489745,22.540988 6.4979011,22.419074 L8.90107647,21.9155886 C11.0016043,25.668818 16.0951701,27.4028294 20.2730772,23.374391 C23.4953155,22.8475781 24.5847322,19.0104808 21.6782875,16.9421085 L23.3910036,15.709083 C23.7216581,15.4708092 23.8334005,15.0189776 23.4195822,14.912893 C20.8918041,14.2661101 18.2871495,12.4251809 15.0806294,9.35150409" id="Fill-11" fill="#003017"></path>
                <path d="M15.0806294,9.35150409 C11.6803463,9.19570967 9.2665969,10.4345669 7.52816002,12.6279081 C7.61761107,17.5405701 7.06804439,19.6364356 6.04464434,21.4607022 C5.58510028,22.2799421 5.91489745,22.540988 6.4979011,22.419074 L8.90107647,21.9155886 C11.0016043,25.668818 16.0951701,27.4028294 20.2730772,23.374391 C23.4953155,22.8475781 24.5847322,19.0104808 21.6782875,16.9421085 L23.3910036,15.709083 C23.7216581,15.4708092 23.8334005,15.0189776 23.4195822,14.912893 C20.8918041,14.2661101 18.2871495,12.4251809 15.0806294,9.35150409 Z" id="Stroke-13" stroke="#003017" stroke-width="0.5"></path>
                <path d="M8.90160211,21.9152692 C11.0018659,25.6684426 16.0956603,27.4026047 20.2733406,23.3739821 C23.4958998,22.8472959 24.5853176,19.010092 21.6787175,16.9418018 L21.3566287,17.0480506 C21.2064507,16.4242308 20.9467736,15.9072294 20.5773189,15.4967617 C16.8379132,15.6762167 13.9076301,16.7099346 11.430946,18.2227688 L12.5111692,20.0278583 L11.7441188,20.5884416 L11.9943227,20.7151995 L11.3130883,21.4543832 L12.4916656,22.1391607 C12.3696285,22.8350474 12.0004524,23.291091 11.3844159,23.6673768 C10.5569042,23.3064728 9.72939246,22.7558593 8.90160211,21.9152692" id="Fill-15" fill="#FCE3C4"></path>
                <path d="M15.2512149,16.9546031 C15.6265971,16.8604762 16.0728236,17.2723552 16.2447669,17.8715089 C16.4163913,18.4703915 16.2503063,19.035715 15.8749241,19.1298419 C15.4994331,19.2236275 15.0532066,18.8117485 14.881372,18.212936 C14.7096389,17.6137122 14.8758327,17.0487299 15.2512149,16.9546031" id="Fill-17" fill="#003017"></path>
                <path d="M15.2512149,16.9546031 C15.6265971,16.8604762 16.0728236,17.2723552 16.2447669,17.8715089 C16.4163913,18.4703915 16.2503063,19.035715 15.8749241,19.1298419 C15.4994331,19.2236275 15.0532066,18.8117485 14.881372,18.212936 C14.7096389,17.6137122 14.8758327,17.0487299 15.2512149,16.9546031 Z" id="Stroke-19" stroke="#003017" stroke-width="0.5"></path>
                <path d="M18.8131641,15.8926013 C19.2135374,15.7984206 19.689377,16.2103997 19.8723752,16.8093726 C20.0555847,17.408263 19.8784211,17.9735165 19.4782593,18.0676147 C19.0777638,18.1614677 18.6019241,17.7494886 18.4190482,17.1508434 C18.2357164,16.5516253 18.41288,15.9863718 18.8131641,15.8926013" id="Fill-21" fill="#003017"></path>
                <path d="M18.8131641,15.8926013 C19.2135374,15.7984206 19.689377,16.2103997 19.8723752,16.8093726 C20.0555847,17.408263 19.8784211,17.9735165 19.4782593,18.0676147 C19.0777638,18.1614677 18.6019241,17.7494886 18.4190482,17.1508434 C18.2357164,16.5516253 18.41288,15.9863718 18.8131641,15.8926013 Z" id="Stroke-23" stroke="#003017" stroke-width="0.5"></path>
                <path d="M7.9387351,16.6904509 C9.5848426,15.4824053 11.1128137,14.3979843 12.7115552,13.6639279 C14.2868924,12.9409806 16.1007312,12.5721008 18.1681174,12.3049122 C18.2634066,12.4003367 18.3592531,12.4949067 18.4545423,12.5891918 C18.5503888,12.6840466 18.645678,12.7791862 18.7420818,12.8737561 C16.5886009,13.1925024 14.6942399,13.6323096 13.0185983,14.389154 C11.3245676,15.154259 9.69350575,16.2497891 7.95712425,17.5182227 C7.96046773,17.3783617 7.96046773,17.2385008 7.95712425,17.1006337 C7.95378077,16.9633364 7.94681518,16.8263239 7.9387351,16.6904509" id="Fill-25" fill="#FFFFFE"></path>
                <path d="M7.86205792,15.8860652 C9.42792186,14.7361288 10.8642259,13.6576897 12.3749224,12.9515485 C13.8585924,12.2579406 15.6024967,11.9554307 17.5943759,11.7363817 C17.6893865,11.8315213 17.7855116,11.9269458 17.8805222,12.0212309 C17.9766473,12.1160857 18.0719366,12.2103708 18.1683403,12.3049407 C16.1006755,12.5721293 14.2868366,12.941009 12.7114995,13.6639564 C11.112758,14.3980128 9.58478687,15.4824338 7.93867938,16.6904794 C7.92864893,16.555176 7.91806124,16.4207271 7.90552318,16.2862783 C7.89298513,16.1529689 7.87710359,16.0199443 7.86205792,15.8860652" id="Fill-27" fill="#D8232A"></path>
                <path d="M7.95715211,17.5181657 C9.69353361,16.2497322 11.3243168,15.154202 13.0186262,14.3893819 C14.6942678,13.6325375 16.5886288,13.1927303 18.7421096,12.8736992 C18.8371202,12.9682691 18.9329667,13.0636936 19.0282559,13.1579787 C19.124381,13.2528335 19.2196703,13.3471186 19.3157953,13.4416885 C17.0583879,13.8219622 15.0662301,14.3395333 13.2693873,15.1382505 C11.4591706,15.9429495 9.70857928,17.05671 7.86214151,18.3949316 C7.89195422,18.243107 7.91758758,18.0941309 7.932076,17.9477184 C7.94600717,17.8032998 7.95241551,17.6600207 7.95715211,17.5181657" id="Fill-29" fill="#009949"></path>
                <polygon id="Fill-31" fill="#FFFFFE" points="15.7931587 17.5875265 15.1481454 18.2216009 16.0901714 18.1925463"></polygon>
                <polygon id="Stroke-33" stroke="#FFFFFE" stroke-width="0.5" points="15.7931587 17.5875265 15.1481454 18.2216009 16.0901714 18.1925463"></polygon>
                <polygon id="Fill-35" fill="#FFFFFE" points="19.3556664 16.4527442 18.710653 17.0868186 19.652679 17.0577639"></polygon>
                <polygon id="Stroke-37" stroke="#FFFFFE" stroke-width="0.5" points="19.3556664 16.4527442 18.710653 17.0868186 19.652679 17.0577639"></polygon>
                <path d="M13.0408025,19.5409872 C14.6663539,21.8712386 17.218138,21.5904754 17.1935604,19.2538367 C17.3458844,19.4912774 17.6170954,19.6501266 17.9251729,19.6501266 C18.3990062,19.6501266 18.7856748,19.2743871 18.7856748,18.8136688 C18.7856748,18.7509067 18.7785302,18.6900886 18.7650982,18.6312144 C19.8387966,19.8373021 21.3637513,19.422128 21.3686097,17.0018991 C25.1401289,19.0175068 22.9330028,24.2314825 18.9917266,22.997624 C16.8529034,26.6703179 11.1546142,24.1259533 13.0408025,19.5409872" id="Fill-39" fill="#FFFFFE"></path>
                <path d="M13.0408025,19.5409872 C14.6663539,21.8712386 17.218138,21.5904754 17.1935604,19.2538367 C17.3458844,19.4912774 17.6170954,19.6501266 17.9251729,19.6501266 C18.3990062,19.6501266 18.7856748,19.2743871 18.7856748,18.8136688 C18.7856748,18.7509067 18.7785302,18.6900886 18.7650982,18.6312144 C19.8387966,19.8373021 21.3637513,19.422128 21.3686097,17.0018991 C25.1401289,19.0175068 22.9330028,24.2314825 18.9917266,22.997624 C16.8529034,26.6703179 11.1546142,24.1259533 13.0408025,19.5409872 Z" id="Stroke-41" stroke="#003017" stroke-width="0.5"></path>
                <path d="M10.8237976,18.7811587 C10.8725567,18.754098 11.0806885,18.9942259 11.2874271,19.3158207 C11.4941657,19.6371306 11.6231684,19.9214101 11.5744092,19.9484708 C11.5259288,19.9752466 11.3175184,19.7354036 11.1107798,19.4138088 C10.9040412,19.0922141 10.7750385,18.8082194 10.8237976,18.7811587" id="Fill-43" fill="#FFFFFE"></path>
                <path d="M10.0958381,19.3414571 C10.1607573,19.309554 10.4388235,19.5938335 10.7146608,19.9741072 C10.990498,20.3546658 11.1626873,20.6910727 11.0977681,20.7229759 C11.0328488,20.754879 10.7547826,20.4708843 10.4789453,20.0903257 C10.2031081,19.7097672 10.0309188,19.3736451 10.0958381,19.3414571" id="Fill-45" fill="#FFFFFE"></path>
                <path d="M9.65591945,21.2916773 C9.70746479,21.2574954 9.87157402,21.4041928 10.0214734,21.6183994 C10.1713729,21.8323212 10.2516164,22.0348489 10.2000711,22.068746 C10.1485258,22.1029279 9.9841379,21.9562306 9.83423847,21.7420239 C9.68461766,21.5281022 9.6043741,21.3258592 9.65591945,21.2916773" id="Fill-51" fill="#FFFFFE"></path>
                <path d="M17.9253698,17.97711 C18.3993281,17.97711 18.7860987,18.3527514 18.7860987,18.8133495 C18.7860987,19.2742253 18.3993281,19.6498667 17.9253698,19.6498667 C17.4511256,19.6498667 17.0646408,19.2742253 17.0646408,18.8133495 C17.0646408,18.3527514 17.4511256,17.97711 17.9253698,17.97711" id="Fill-53" fill="#003017"></path>
                <path d="M17.9253698,17.97711 C18.3993281,17.97711 18.7860987,18.3527514 18.7860987,18.8133495 C18.7860987,19.2742253 18.3993281,19.6498667 17.9253698,19.6498667 C17.4511256,19.6498667 17.0646408,19.2742253 17.0646408,18.8133495 C17.0646408,18.3527514 17.4511256,17.97711 17.9253698,17.97711 Z" id="Stroke-55" stroke="#003017" stroke-width="0.5"></path>
                <path d="M15.0806294,9.35150409 C11.6803463,9.19570967 9.2665969,10.4345669 7.52816002,12.6279081 C7.61761107,17.5405701 7.06804439,19.6364356 6.04464434,21.4607022 C5.58510028,22.2799421 5.91489745,22.540988 6.4979011,22.419074 L8.90107647,21.9155886 C11.0016043,25.668818 16.0951701,27.4028294 20.2730772,23.374391 C23.4953155,22.8475781 24.5847322,19.0104808 21.6782875,16.9421085 L23.3910036,15.709083 C23.7216581,15.4708092 23.8334005,15.0189776 23.4195822,14.912893 C20.8918041,14.2661101 18.2871495,12.4251809 15.0806294,9.35150409 Z" id="Stroke-57" stroke="#003017" stroke-width="0.5"></path>
                <path d="M13.6995541,4.57988679 C14.1342067,4.56963222 14.5688593,4.55937765 15.003512,4.54912308 C15.1060454,3.77661199 15.2598456,3.0041009 15.5150647,2.2315898 C15.854428,3.01748881 16.1102044,3.78202412 16.2974394,4.52861393 C16.5147657,4.53545031 16.732092,4.5422867 16.9494183,4.54912308 C17.347014,3.76749681 17.7950406,3.00694939 18.383772,2.30337181 C18.2962842,3.16504071 18.2765019,4.0261399 18.3035284,4.88752395 C18.6846853,4.99348786 19.0658422,5.09945177 19.4469991,5.20541568 C19.3606259,3.67235717 19.3322063,2.05071055 19.3224545,0.400294155 C19.0530255,0.390324432 18.7835966,0.38006986 18.5144464,0.369815288 C18.0056799,1.15913248 17.5378711,1.96525578 16.829053,2.6725364 C16.437587,1.77583105 16.0926511,0.895362103 15.815978,0.0371113968 C15.5685604,0.0268568248 15.3211427,0.0166022528 15.0737251,0.00634768076 C14.6156681,1.53086072 14.1576111,3.05537376 13.6995541,4.57988679" id="Fill-59" fill="#1A1919"></path>
                <path d="M19.6074863,5.21567026 C20.3700787,5.52131347 21.125427,5.81670212 22.0047627,6.28214574 C22.127357,5.90899326 22.3633511,5.55948327 22.6768025,5.22592483 C22.0716323,5.18832473 21.5143853,5.09005175 21.0619008,4.85676024 C21.1376864,4.55766855 21.1560755,4.25601323 21.2324184,3.99537619 C21.7071928,4.10988558 22.1819672,4.43974098 22.6567416,4.86701481 C22.8239157,4.47392288 22.9910898,4.08083096 23.1582638,3.68773903 C22.6049176,3.60171456 22.1003305,3.44020505 21.6236057,3.23653786 C21.5600796,2.91180975 21.5681597,2.58708163 21.7339406,2.26235352 C22.3588931,2.42129939 22.9844028,2.8386035 23.6096339,3.34933815 C23.5962599,2.84344593 23.582886,2.33755372 23.5695121,1.8316615 C22.6834894,1.62343672 21.7974668,1.27819946 20.9114441,0.795949725 C20.5249934,2.30223241 20.1081727,3.78772111 19.6074863,5.21567026" id="Fill-61" fill="#1A1919"></path>
                <path d="M29.1664726,6.16931697 C28.7886592,5.83433428 28.4108457,5.4993516 28.0330323,5.16436891 C27.538197,5.7898978 27.0433617,6.4154267 26.5485264,7.04095559 C26.3916614,5.77821899 26.2843914,4.50237932 25.9363907,3.35671575 C25.5822602,3.10035145 25.1275467,2.88785393 24.7731376,2.63148963 C24.157937,4.09874797 23.4449395,5.44095751 22.6767746,6.71280928 C23.0378706,6.90764615 23.3989667,7.10248302 23.7600627,7.29731989 C24.1545935,6.54873613 24.5491244,5.80015238 24.9436552,5.05156862 C25.3847162,6.29977791 25.4017122,7.44828998 25.344873,8.57914139 C25.622382,8.8320875 25.9285892,9.11437308 26.2060982,9.36731919 C27.2024557,8.31109827 28.1701151,7.22553788 29.1664726,6.16931697" id="Fill-63" fill="#1A1919"></path>
                <path d="M4.28079894,8.35912385 C3.99994647,8.13694146 3.76646,7.91447421 3.63801458,7.69200697 C5.72824789,5.3009826 3.44186365,3.58789938 1.78572571,4.63101723 C1.15715115,5.0272425 0.674853915,5.64621986 0.0585387867,6.12220291 C1.46419422,7.17301169 2.44968546,8.25059629 3.24431961,9.34014457 C3.59009134,9.01313766 3.93530583,8.68613076 4.28079894,8.35912385 M2.30396538,5.5388317 C2.09750538,5.54538323 1.96348749,5.66473506 2.02840676,5.77895959 C2.25325591,6.17660911 2.54302432,6.51500998 2.81384634,6.78134401 C2.93476893,6.90041098 3.14763726,6.74459846 3.1824652,6.60644658 C3.24905621,6.34182166 3.48142819,5.47872851 2.95148634,5.5388317 C2.73722488,5.56332873 2.51961995,5.53228017 2.30396538,5.5388317" id="Fill-65" fill="#1A1919"></path>
                <path d="M5.64800433,7.30760294 C5.91381113,7.06975384 6.26069736,6.84158962 6.71847573,6.68207405 C6.68476229,6.34025499 6.65132747,5.99843592 6.61817128,5.65661685 C7.07260617,5.45152541 7.52731968,5.24643397 7.98231181,5.04134253 C8.14252031,5.2737795 8.30300743,5.50621646 8.46377318,5.73865343 C8.83462103,5.60876218 9.2057475,5.47887094 9.57715259,5.34897969 C8.57522257,4.08795219 7.60839911,2.79701551 6.72126196,1.53570315 C6.03250473,1.85701308 5.5585662,2.178323 4.86953034,2.49963292 C5.22003867,4.09250977 5.33622466,5.71472609 5.64800433,7.30760294 M6.23701436,2.88788241 C6.17070197,3.4040292 6.18212554,3.92017599 6.30722748,4.43632278 C6.74438771,4.40214088 7.10548374,4.23123134 7.39051555,3.92359418 C7.08207936,3.57835693 6.69757897,3.23283482 6.23701436,2.88788241" id="Fill-67" fill="#1A1919"></path>
                <path d="M9.04542755,0.816458869 C9.53051102,2.26577171 9.94649587,3.7147997 10.2791723,5.1643974 C10.6502988,5.08236082 11.0214252,5.00032424 11.3925517,4.91828767 C11.2588124,4.40214088 11.1250732,3.88599409 10.9913339,3.3698473 C11.5848019,3.4040292 11.863704,4.11273407 12.259628,4.75563876 C12.5571978,4.61891114 12.9405837,4.51152298 13.2381536,4.37479535 C12.8703706,3.90650323 12.4699887,3.46299299 12.1348046,2.96991899 C12.0325498,2.8195186 12.0431375,2.61556656 12.164896,2.51871782 C12.3685697,2.35635376 12.5566406,2.14214715 12.796814,1.86242521 C12.9210801,1.71772181 12.9110497,1.54140014 12.70654,1.30867832 C12.4811336,1.05231402 12.0757365,0.758349627 11.6232519,0.467803421 C11.4546847,0.359560716 11.186649,0.258154393 10.7806946,0.313984841 C10.19057,0.39488202 9.62357126,0.634440216 9.04542755,0.816458869 M10.8107859,1.30867832 C10.5171167,1.2095508 10.4112398,1.3345996 10.4797812,1.61631548 C10.5616965,1.95186787 10.5750704,2.3062203 10.6904205,2.63151811 C10.7976906,2.93459769 11.0097231,2.83774895 11.1417906,2.6725364 C11.2989342,2.47599044 11.4279369,2.25608684 11.5530388,2.03675294 C11.6330038,1.89632227 11.5931606,1.71686726 11.4126126,1.59580634 C11.2276066,1.47161208 11.020868,1.37960578 10.8107859,1.30867832" id="Fill-69" fill="#1A1919"></path>
            </g>
        </g>
    </g>
</svg>