<?xml version="1.0" encoding="UTF-8"?>
<svg width="33px" height="10px" viewBox="0 0 33 10" version="1.1" xmlns="http://www.w3.org/2000/svg" xmlns:xlink="http://www.w3.org/1999/xlink">
    <!-- Generator: Sketch 48.1 (47250) - http://www.bohemiancoding.com/sketch -->
    <title>RobotX_logo</title>
    <desc>Created with Sketch.</desc>
    <defs></defs>
    <g id="Page-1" stroke="none" stroke-width="1" fill="none" fill-rule="evenodd">
        <g id="RobotX_logo" fill="#D8232A">
            <polygon id="Fill-1" points="21.3314508 6.86271569 23.2019991 6.86271569 23.8442353 5.17480392 21.9625432 5.17480392"></polygon>
            <path d="M32.4235833,0.749470588 C32.3453663,0.797107843 31.2682824,1.96848039 30.0184951,3.32977451 C30.1099924,2.17357843 30.1810979,1.20456863 30.1720605,0.982029412 C30.1485994,0.397892157 30.0988486,0.154362745 29.0526684,0.154362745 C28.0066085,0.154362745 23.9051699,1.38779412 23.9217201,4.0657549 C24.5860432,4.0170098 25.8313067,3.7412451 25.8645173,3.49771569 C25.6653237,3.44897059 25.0177413,3.61132353 25.050952,3.48153922 C25.0842429,3.35162745 26.2904982,2.0802549 28.593166,1.76652941 L28.593166,4.88133333 C27.4613562,6.11123529 26.4368416,7.21515686 26.113562,7.52271569 C25.1838447,7.84731373 23.5942277,9.93622549 24.4355772,9.93622549 C25.2769267,9.93622549 26.0912945,8.77791176 26.4899225,8.30183333 C26.6597271,8.09879412 27.5861444,7.0502549 28.593166,5.91408824 L28.593166,9.12418627 C28.593166,9.12418627 28.6816541,10.5307549 29.9880128,9.66515686 C31.2942711,8.79948039 31.8477383,7.97720588 31.7370228,7.8689902 C31.6263574,7.76086275 30.5969581,8.6479902 29.9659559,8.6479902 C29.7886185,8.6479902 29.6671304,8.79948039 29.6671304,8.0529902 C29.6671304,7.67553922 29.8020392,6.02252941 29.9326249,4.40416667 C30.7803237,3.44927451 31.4491404,2.69712745 31.4491404,2.69712745 C31.4491404,2.69712745 31.5448204,2.55242157 31.7508347,2.35085294 C32.5174678,2.13436275 32.6891982,1.44201961 32.8662246,1.03065686 C33.0433614,0.61977451 32.6006298,0.64122549 32.4235833,0.749470588" id="Fill-2"></path>
            <path d="M18.6746498,8.36672549 C18.5639343,8.88612745 18.2981991,9.49212745 19.7153134,9.49212745 C20.2244562,8.43163725 20.3130246,8.06377451 20.3130246,8.06377451 C20.3130246,8.06377451 19.4656468,8.34506863 20.0222435,7.02515686 C20.1075119,6.82281373 20.223062,6.53662745 20.3571483,6.19810784 L19.4416742,6.19810784 C19.0310198,7.30673529 18.7113611,8.19448039 18.6746498,8.36672549" id="Fill-3"></path>
            <path d="M22.4163283,0.836068627 L21.4643435,0.836068627 C21.4643435,0.836068627 21.1851976,1.56635294 20.8037416,2.57264706 L20.3766274,2.57264706 L19.8479252,3.90882353 L20.29829,3.90882353 C20.0624754,4.53469608 19.8176435,5.18686275 19.5914581,5.79431373 L20.5164611,5.79431373 C20.7392261,5.22607843 20.9953222,4.56312745 21.246383,3.90882353 L21.9043669,3.90882353 L22.3692657,2.57264706 L21.7573112,2.57264706 C22.1338422,1.58441176 22.4163283,0.836068627 22.4163283,0.836068627" id="Fill-4"></path>
            <path d="M7.20874468,5.76396078 C7.47936474,5.11854902 7.75700608,4.64169608 8.04219027,4.33288235 C8.3272541,4.02423529 8.59934863,3.90659804 8.85846383,3.98013725 C9.11742857,4.0537549 9.24381155,4.28463725 9.2374924,4.67248039 C9.23268784,4.97043137 9.14912462,5.34473529 8.98853799,5.79433333 L9.95808602,5.79433333 C10.4337073,4.48678431 10.7907091,2.83501961 9.7578693,2.47521569 C8.08079726,1.891 6.30401307,5.46151961 6.30401307,5.46151961 C6.2464386,5.5587549 6.19005775,5.67130392 6.13609422,5.79433333 L7.19640729,5.79433333 C7.20072036,5.78405882 7.20433131,5.77435294 7.20874468,5.76396078" id="Fill-5"></path>
            <path d="M8.8221538,6.22239216 C8.55161398,6.86769608 8.27349119,7.34594118 7.9877152,7.65633333 C7.70204954,7.96711765 7.42960395,8.08573529 7.17063921,8.01211765 C6.91156413,7.93877451 6.78566261,7.70692157 6.79249331,7.31682353 C6.79768906,7.01876471 6.88074073,6.64534314 7.04013374,6.19807843 L5.98054286,6.19807843 C5.53167264,7.52455882 5.39214985,9.53523529 6.55316809,9.53523529 C7.96465532,9.53523529 9.02726535,7.83113725 9.23780334,7.44162745 C9.30479635,7.3175098 9.5522462,6.82692157 9.80401915,6.19807843 L8.83196353,6.19807843 C8.82855319,6.20622549 8.82564438,6.21386275 8.8221538,6.22239216" id="Fill-6"></path>
            <path d="M17.52301,6.22239216 C17.2525103,6.86769608 16.9743474,7.34594118 16.6885714,7.65633333 C16.4028255,7.96711765 16.1305805,8.08573529 15.8715055,8.01211765 C15.6124304,7.93877451 15.4864386,7.70692157 15.4933495,7.31682353 C15.4985854,7.01876471 15.5817173,6.64534314 15.7410301,6.19807843 L14.6815997,6.19807843 C14.2325389,7.52455882 14.0930161,9.53523529 15.2540343,9.53523529 C16.6654313,9.53523529 17.7281316,7.83113725 17.9385894,7.44162745 C18.0056827,7.3175098 18.2532228,6.82692157 18.5048754,6.19807843 L17.5330505,6.19807843 C17.5294395,6.20622549 17.5265407,6.21386275 17.52301,6.22239216" id="Fill-7"></path>
            <path d="M15.9096912,5.76396078 C16.1804015,5.11854902 16.4580429,4.64169608 16.7431067,4.33288235 C17.0281705,4.02423529 17.3003052,3.90659804 17.5594705,3.98013725 C17.8185757,4.0537549 17.9446377,4.28463725 17.9385292,4.67248039 C17.9336143,4.97043137 17.8500511,5.34473529 17.6894644,5.79433333 L18.6590927,5.79433333 C19.1346638,4.48678431 19.4915152,2.83501961 18.4587055,2.47521569 C16.7817237,1.891 15.0050198,5.46151961 15.0050198,5.46151961 C14.9474754,5.5587549 14.8909842,5.67130392 14.8369304,5.79433333 L15.8972334,5.79433333 C15.9016468,5.78405882 15.9052578,5.77435294 15.9096912,5.76396078" id="Fill-8"></path>
            <path d="M5.78452888,0.143578431 L4.44835988,0.143578431 L3.50471033,0.143578431 L2.49785927,2.83241176 L3.43872036,2.83241176 L3.44241155,2.83241176 L3.83933435,1.77102941 L5.14728784,1.77102941 C5.14728784,1.77102941 6.03678328,1.62259804 5.71239027,2.83241176 L6.67099514,2.83241176 C6.82828176,2.42357843 6.92967903,1.97084314 6.92967903,1.47672549 C6.92967903,0.546245098 6.84221398,0.143578431 5.78452888,0.143578431" id="Fill-13"></path>
            <path d="M3.91147295,4.20409804 C3.66270912,4.20409804 3.01774468,4.18440196 2.93759179,4.18195098 L3.06719453,3.83567647 L3.29138389,3.23606863 L3.28617812,3.23606863 L2.34682158,3.23606863 L0.0729209726,9.30801961 L1.01958967,9.30801961 L2.33417325,5.79431373 L3.68045289,5.79431373 C3.91297751,5.90213725 4.17868267,6.06440196 3.92952766,6.94078431 C3.68045289,7.8172451 3.28205562,8.90460784 3.28205562,9.1967451 C3.28205562,9.25088235 3.27091185,9.30801961 3.27091185,9.30801961 L4.38879939,9.30801961 C4.38879939,9.30801961 4.47736778,9.22117647 4.44838997,8.95332353 C4.4193921,8.68558824 4.97016109,6.93 5.125231,6.41059804 C5.2801003,5.89127451 5.50159149,5.1554902 5.03657234,4.96078431 C5.43577204,4.66470588 6.07030486,4.06706863 6.49329666,3.23606863 L5.57500395,3.23606863 C5.0711772,4.43665686 4.16391793,4.20409804 3.91147295,4.20409804" id="Fill-14"></path>
            <path d="M11.6565128,5.72872549 C11.6565128,5.72872549 12.4645714,3.85685294 13.3833356,3.85685294 C13.8371207,3.85685294 13.7265757,4.94969608 13.3833356,5.72872549 L14.4239991,5.72872549 C14.4239991,5.72872549 15.4867295,2.56940196 14.2024277,2.33137255 C13.5604723,2.22304902 12.9626809,3.18607843 12.8078116,3.0995098 C12.6527316,3.01294118 13.8483547,0.0915588235 13.8483547,0.0915588235 L12.8409018,0.0915588235 L10.7598055,5.72872549 L11.6565128,5.72872549 Z" id="Fill-15"></path>
            <path d="M10.5937322,6.16153922 L11.4682623,6.16153922 C11.4682623,6.16153922 10.9259389,8.03329412 11.6010647,8.03329412 C12.5420161,8.03329412 13.2949176,6.16153922 13.2949176,6.16153922 L14.2799927,6.16153922 C14.2799927,6.16153922 12.8741426,9.53740196 11.4129046,9.53740196 C10.7154812,9.53740196 10.7819827,8.74740196 10.64909,8.74740196 C10.5161973,8.74740196 10.3169635,9.35348039 10.3169635,9.35348039 L9.39830973,9.35348039 L10.5937322,6.16153922 Z" id="Fill-16"></path>
        </g>
    </g>
</svg>