<?xml version="1.0" encoding="UTF-8"?>
<svg width="66px" height="74px" viewBox="0 0 66 74" version="1.1" xmlns="http://www.w3.org/2000/svg" xmlns:xlink="http://www.w3.org/1999/xlink">
    <!-- Generator: Sketch 40.3 (33839) - http://www.bohemiancoding.com/sketch -->
    <title>aqua-filt</title>
    <desc>Created with Sketch.</desc>
    <defs></defs>
    <g id="Page-1" stroke="none" stroke-width="1" fill="none" fill-rule="evenodd">
        <g id="logok" transform="translate(-392.000000, -345.000000)">
            <g id="aqua-filt" transform="translate(392.000000, 345.000000)">
                <polygon id="Stroke-3" stroke="#151515" stroke-width="0.5669" points="0.2847 0.9636 65.0251 0.9636 65.0251 73.5779 0.2847 73.5779"></polygon>
                <path d="M6.8463,4.2444 L58.4638,4.2444 C60.3888,4.2444 61.9631,5.8188 61.9631,7.7438 L61.9631,58.0494 C61.9631,59.9744 60.3888,61.5488 58.4638,61.5488 L6.8463,61.5488 C4.9213,61.5488 3.3469,59.9744 3.3469,58.0494 L3.3469,7.7438 C3.3469,5.8188 4.9213,4.2444 6.8463,4.2444" id="Fill-4" fill="#003968"></path>
                <path d="M21.1202,40.4449 C21.3787,39.3617 29.3157,23.202 30.7707,20.8112 C30.8662,20.6536 30.8668,20.7064 30.9955,20.5397 C31.1812,20.3002 30.9839,20.4308 31.2104,20.2676 L31.8796,19.9283 C32.1396,19.8344 32.4726,19.8398 32.7995,19.8387 C33.797,19.8361 34.2928,20.3614 34.6587,21.0703 L39.7358,30.9182 L42.0603,30.9281 L44.2906,30.9264 C44.2795,30.7682 36.1614,13.2997 34.6426,10.9815 C34.1405,10.1592 33.3125,9.706 32.3065,9.8043 C31.76,9.8576 31.3186,10.2964 30.9289,10.8058 L30.5125,11.3747 L9.1412,54.2567 C8.8507,54.7221 8.6928,55.0648 8.6928,55.721 C8.6928,56.3923 8.8169,56.7208 9.1109,57.1279 C9.1829,57.2279 9.3017,57.3201 9.389,57.4374 C9.9457,58.1863 11.8106,58.5687 12.9122,56.7696 L18.6013,45.0225 C18.8096,44.8859 18.9964,44.8468 19.3681,44.8468 C20.8846,44.8468 38.1348,44.9449 38.8154,44.838 C38.8832,44.8275 39.1913,44.7804 39.4388,44.6685 C39.7166,44.5435 39.9357,44.3501 39.9856,44.3005 C40.1542,44.1347 40.2852,43.9405 40.383,43.7291 C40.6908,43.0649 40.6735,42.2287 40.4791,41.5498 C40.2469,40.7391 38.8883,40.4434 38.1397,40.4477 L21.1202,40.4449 Z" id="Fill-5" fill="#FEFEFE"></path>
                <path d="M50.9035,36.2479 C53.7719,36.4205 54.5296,31.8275 51.0285,31.6529 L31.1313,31.6529 C30.1023,31.6529 29.8302,31.7853 29.0081,32.9053 L25.5071,39.7189 L30.7341,39.7178 C30.7574,39.6812 30.7914,39.6007 30.8115,39.5644 C32.342,36.6399 31.9071,36.1657 35.0105,36.2479 L50.9035,36.2479 Z" id="Fill-6" fill="#FEFEFE"></path>
                <path d="M47.8098,36.8896 L46.5651,36.8862 L42.5557,36.8925 L52.5499,57.0913 L52.9311,57.5225 C53.186,57.7351 53.7693,57.9922 54.0718,58.0233 C54.9661,58.1149 55.6617,57.8595 56.2763,57.2512 C57.0428,56.4918 56.9101,55.456 56.5096,54.6059 L47.8098,36.8896 Z" id="Fill-7" fill="#FEFEFE"></path>
                <path d="M22.1571,56.8549 L27.5123,45.6564 L23.2053,45.6359 C22.4754,45.6359 22.368,46.2227 22.0601,46.9047 C20.9906,49.2714 19.2122,52.4728 17.9947,54.8344 C17.8243,55.1643 17.8291,56.2914 18.0797,56.7682 L18.3025,57.2109 C19.141,58.4253 21.4042,58.427 22.1571,56.8549" id="Fill-8" fill="#FEFEFE"></path>
                <path d="M6.9197,68.3208 C7.0113,68.3208 7.0892,68.3239 7.1524,68.3295 C7.2157,68.3355 7.2641,68.3432 7.299,68.3525 C7.3653,68.3746 7.4158,68.4086 7.4498,68.4537 C7.4844,68.4991 7.5011,68.558 7.5011,68.6306 C7.5011,68.7414 7.4529,68.8245 7.3546,68.8815 C7.2579,68.9376 7.1125,68.9659 6.9197,68.9659 L6.2051,68.9659 C6.1133,68.9659 6.0364,68.9628 5.9732,68.9577 C5.91,68.9509 5.8604,68.9438 5.8258,68.9345 C5.7589,68.9121 5.7085,68.8783 5.675,68.8333 C5.6402,68.7879 5.6231,68.7289 5.6231,68.6558 C5.6231,68.5453 5.6716,68.4622 5.7697,68.4049 C5.8669,68.3494 6.0121,68.3208 6.2051,68.3208 L6.9197,68.3208 Z M8.684,69.7248 L8.684,67.5052 C8.684,67.1481 8.5751,66.8793 8.3569,66.6999 C8.14,66.5199 7.8143,66.4303 7.3809,66.4303 L6.2366,66.4303 C5.9965,66.4303 5.7867,66.4428 5.6064,66.4672 C5.4264,66.4927 5.2753,66.5281 5.1554,66.576 C4.9658,66.6483 4.8235,66.7538 4.7288,66.8918 C4.6336,67.0299 4.5862,67.1985 4.5862,67.3978 L4.5862,67.4355 L5.7626,67.4355 C5.7626,67.2714 5.8763,67.1892 6.1039,67.1892 L7.0586,67.1892 C7.2106,67.1892 7.3242,67.2187 7.4002,67.2787 C7.4759,67.3377 7.5139,67.4261 7.5139,67.5429 L7.5139,67.891 C7.3874,67.7995 7.204,67.7297 6.9648,67.6832 C6.7244,67.6359 6.4293,67.6129 6.0787,67.6129 C5.81,67.6129 5.582,67.6251 5.3944,67.6495 C5.2059,67.675 5.0574,67.711 4.9468,67.7584 C4.7762,67.8372 4.6486,67.9531 4.5633,68.1059 C4.478,68.2587 4.4346,68.4506 4.4346,68.6816 C4.4346,68.9121 4.4734,69.104 4.5525,69.2568 C4.6305,69.4095 4.7472,69.5255 4.9026,69.6043 C5.0069,69.6584 5.1503,69.6995 5.3334,69.7267 C5.5157,69.7551 5.7374,69.769 5.9965,69.769 C6.7615,69.769 7.2672,69.6233 7.5139,69.3324 L7.5139,69.7248 L8.684,69.7248 Z M15.2884,69.1366 L15.2884,70.8249 L16.458,70.8249 L16.458,66.4746 L15.2884,66.4746 L15.2884,67.069 C15.2726,66.9298 15.2181,66.813 15.1229,66.7189 C15.0282,66.6242 14.8933,66.5534 14.7195,66.506 C14.6214,66.4808 14.4993,66.4618 14.3539,66.449 C14.2073,66.4366 14.0367,66.4303 13.8405,66.4303 C13.5752,66.4303 13.3464,66.4428 13.1537,66.4695 C12.9603,66.4947 12.8036,66.5347 12.6834,66.5882 C12.4966,66.6676 12.3577,66.7844 12.265,66.9394 C12.1732,67.0942 12.127,67.287 12.127,67.5177 L12.127,68.5926 C12.127,68.8174 12.1732,69.0082 12.265,69.1649 C12.3569,69.3222 12.4935,69.4433 12.6772,69.5286 C12.8067,69.5918 12.9669,69.6392 13.1568,69.6712 C13.3473,69.7027 13.5684,69.7185 13.8215,69.7185 C14.0239,69.7185 14.1965,69.7129 14.3391,69.7035 C14.4826,69.6927 14.5962,69.6774 14.6815,69.6553 C14.8428,69.6142 14.9744,69.5507 15.0756,69.4645 C15.177,69.3792 15.2473,69.2695 15.2884,69.1366 L15.2884,69.1366 Z M14.5679,67.3281 C14.6847,67.3281 14.7867,67.3357 14.8743,67.3513 C14.9616,67.3672 15.0325,67.3913 15.086,67.423 C15.1589,67.4641 15.2136,67.522 15.2516,67.5979 C15.2884,67.673 15.3074,67.7646 15.3074,67.872 L15.3074,68.2641 C15.3074,68.384 15.2896,68.4843 15.2547,68.5634 C15.219,68.6436 15.1651,68.7032 15.0926,68.7443 C15.0418,68.7732 14.9724,68.7953 14.8851,68.81 C14.7966,68.8256 14.6912,68.8333 14.5679,68.8333 L14.0367,68.8333 C13.5434,68.8333 13.2968,68.6496 13.2968,68.2831 L13.2968,67.8783 C13.2968,67.7677 13.3155,67.673 13.3527,67.5948 C13.3906,67.5177 13.4456,67.4576 13.5182,67.4168 C13.5715,67.3882 13.6424,67.3661 13.73,67.3513 C13.8173,67.3357 13.9196,67.3281 14.0367,67.3281 L14.5679,67.3281 Z M23.1705,66.4746 L23.1705,68.0617 C23.1705,68.2196 23.1475,68.3525 23.1002,68.4591 C23.0537,68.5665 22.9842,68.6467 22.8924,68.7 C22.8229,68.7414 22.728,68.7732 22.6081,68.7941 C22.4879,68.8163 22.3425,68.8267 22.1715,68.8267 C22.0136,68.8267 21.8807,68.8174 21.7721,68.7992 C21.6647,68.7803 21.5805,68.7542 21.5204,68.719 C21.4413,68.672 21.3821,68.5994 21.3444,68.501 C21.3055,68.403 21.2866,68.2797 21.2866,68.1311 L21.2866,66.4746 L20.1164,66.4746 L20.1164,68.5546 C20.1164,68.7859 20.1567,68.9818 20.2357,69.1439 C20.3148,69.3072 20.4328,69.4368 20.5909,69.5348 C20.7174,69.6142 20.8741,69.6732 21.0609,69.7109 C21.2474,69.75 21.4634,69.769 21.71,69.769 C22.0766,69.769 22.349,69.7438 22.5259,69.6927 C22.6616,69.6553 22.7838,69.5972 22.8912,69.5181 C22.999,69.4399 23.0917,69.3421 23.1705,69.225 L23.1705,69.7248 L24.3406,69.7248 L24.3406,66.4746 L23.1705,66.4746 Z M30.2752,68.3208 C30.3668,68.3208 30.4447,68.3239 30.5079,68.3295 C30.5711,68.3355 30.6196,68.3432 30.6545,68.3525 C30.7208,68.3746 30.7713,68.4086 30.8053,68.4537 C30.8402,68.4991 30.8569,68.558 30.8569,68.6306 C30.8569,68.7414 30.8084,68.8245 30.7106,68.8815 C30.6134,68.9376 30.468,68.9659 30.2752,68.9659 L29.5606,68.9659 C29.469,68.9659 29.3919,68.9628 29.3287,68.9577 C29.2655,68.9509 29.2162,68.9438 29.1813,68.9345 C29.115,68.9121 29.064,68.8783 29.0305,68.8333 C28.9957,68.7879 28.9786,68.7289 28.9786,68.6558 C28.9786,68.5453 29.0274,68.4622 29.1252,68.4049 C29.2224,68.3494 29.3678,68.3208 29.5606,68.3208 L30.2752,68.3208 Z M32.0395,69.7248 L32.0395,67.5052 C32.0395,67.1481 31.9306,66.8793 31.7127,66.6999 C31.4955,66.5199 31.1698,66.4303 30.7367,66.4303 L29.5921,66.4303 C29.352,66.4303 29.1422,66.4428 28.9622,66.4672 C28.7819,66.4927 28.6311,66.5281 28.5109,66.576 C28.3213,66.6483 28.179,66.7538 28.0843,66.8918 C27.9891,67.0299 27.9417,67.1985 27.9417,67.3978 L27.9417,67.4355 L29.1181,67.4355 C29.1181,67.2714 29.2318,67.1892 29.4594,67.1892 L30.4144,67.1892 C30.566,67.1892 30.6797,67.2187 30.7557,67.2787 C30.8314,67.3377 30.8694,67.4261 30.8694,67.5429 L30.8694,67.891 C30.7429,67.7995 30.5598,67.7297 30.3203,67.6832 C30.0802,67.6359 29.7851,67.6129 29.4342,67.6129 C29.1654,67.6129 28.9375,67.6251 28.7499,67.6495 C28.5617,67.675 28.4129,67.711 28.3023,67.7584 C28.1317,67.8372 28.0041,67.9531 27.9188,68.1059 C27.8334,68.2587 27.7901,68.4506 27.7901,68.6816 C27.7901,68.9121 27.8292,69.104 27.9083,69.2568 C27.986,69.4095 28.1033,69.5255 28.2581,69.6043 C28.3624,69.6584 28.5058,69.6995 28.6892,69.7267 C28.8712,69.7551 29.0929,69.769 29.352,69.769 C30.117,69.769 30.6227,69.6233 30.8694,69.3324 L30.8694,69.7248 L32.0395,69.7248 Z" id="Fill-9" fill="#003968"></path>
                <polygon id="Fill-10" fill="#003968" points="37.876 67.4862 35.7957 67.4862 35.7957 68.6626 37.876 68.6626"></polygon>
                <path d="M43.0867,69.7248 L43.0867,67.3598 L44.1616,67.3598 L44.1616,66.4746 L43.0867,66.4746 L43.0802,66.4303 C43.0802,66.3323 43.0949,66.2501 43.1232,66.1817 C43.1522,66.114 43.1941,66.0604 43.2511,66.0193 C43.2984,65.9878 43.3616,65.9632 43.4396,65.9479 C43.5167,65.9317 43.6083,65.9246 43.7126,65.9246 C43.7381,65.9246 43.7735,65.9266 43.8223,65.9286 C43.8707,65.9317 43.9201,65.9348 43.9719,65.9371 C44.0224,65.9391 44.0646,65.9391 44.0984,65.9371 L44.0984,65.1278 L43.352,65.1278 C43.0836,65.1278 42.8571,65.1499 42.6725,65.1953 C42.488,65.2395 42.3434,65.3078 42.2391,65.3997 C42.1286,65.4975 42.0464,65.6358 41.9917,65.8138 C41.9378,65.9921 41.9106,66.2121 41.9106,66.4746 L41.3414,66.4746 L41.3414,67.3598 L41.9106,67.3598 L41.9106,69.7248 L43.0867,69.7248 Z M48.7146,66.0825 L48.7146,65.1278 L47.5447,65.1278 L47.5447,66.0825 L48.7146,66.0825 Z M48.7146,69.7248 L48.7146,66.4746 L47.5447,66.4746 L47.5447,69.7248 L48.7146,69.7248 Z M53.7543,69.7248 L53.7543,65.1278 L52.5847,65.1278 L52.5847,69.7248 L53.7543,69.7248 Z M57.9218,67.3218 C57.9218,67.3944 57.9207,67.4777 57.9175,67.5727 C57.9156,67.6674 57.9124,67.774 57.9093,67.891 C57.9059,68.0081 57.9039,68.1059 57.9039,68.1861 C57.9028,68.2672 57.9028,68.3304 57.9028,68.3777 C57.9028,68.6306 57.9249,68.8435 57.968,69.0178 C58.0122,69.1904 58.0769,69.3231 58.1622,69.4147 C58.2665,69.5317 58.4255,69.6202 58.6392,69.6794 C58.8533,69.7395 59.12,69.769 59.4392,69.769 C59.6889,69.769 59.9092,69.7508 60.0991,69.7163 C60.2887,69.6805 60.4477,69.6264 60.5773,69.5538 C60.9189,69.3642 61.0898,69.0419 61.0898,68.5864 C61.0898,68.539 61.0887,68.4852 61.0853,68.4265 C61.0833,68.3664 61.0802,68.3021 61.077,68.2323 L60.0401,68.2513 C60.0432,68.2924 60.0464,68.3295 60.0483,68.3607 C60.0515,68.3936 60.0526,68.422 60.0526,68.4472 C60.0526,68.5263 60.0441,68.5926 60.0282,68.6476 C60.0115,68.7012 59.9863,68.7443 59.9517,68.7763 C59.9137,68.8143 59.8607,68.8426 59.7944,68.8616 C59.7269,68.8806 59.6447,68.89 59.5466,68.89 C59.4361,68.89 59.3465,68.8752 59.2802,68.8446 C59.213,68.8143 59.1642,68.7647 59.1347,68.6969 C59.105,68.6286 59.0905,68.5402 59.0917,68.4282 L59.0917,67.3218 L60.9189,67.3218 L60.9189,66.4746 L59.0917,66.4746 L59.0917,65.697 L57.9218,65.697 L57.9218,66.4746 L57.2642,66.4746 L57.2642,67.3218 L57.9218,67.3218 Z" id="Fill-11" fill="#003968"></path>
            </g>
        </g>
    </g>
</svg>