<?xml version="1.0" encoding="UTF-8"?>
<svg width="114px" height="48px" viewBox="0 0 114 48" version="1.1" xmlns="http://www.w3.org/2000/svg" xmlns:xlink="http://www.w3.org/1999/xlink">
    <!-- Generator: Sketch 40.3 (33839) - http://www.bohemiancoding.com/sketch -->
    <title>foton</title>
    <desc>Created with Sketch.</desc>
    <defs></defs>
    <g id="Page-1" stroke="none" stroke-width="1" fill="none" fill-rule="evenodd">
        <g id="foton" style="mix-blend-mode: luminosity;">
            <path d="M0.5252,24.4769 L0.5252,46.9871 L6.9567,46.9871 L6.9567,31.1559 L21.7558,31.1559 L21.7539,30.4135 L21.7539,24.2294 L6.9567,24.2294 C6.9567,15.7805 13.2063,7.4089 22.0461,7.4089 L22.0461,0.2347 C9.6097,0.2347 0.5252,11.8848 0.5252,24.4769" id="Fill-34" fill="#AFAFB0"></path>
            <path d="M21.6892,9.1091 C13.8565,10.7076 9.526,15.2924 8.7023,22.8688 L21.6892,22.8688 L21.6892,9.1091" id="Fill-35" fill="#0074B7"></path>
            <polygon id="Fill-36" fill="#0074B7" points="21.6118 32.8405 8.3157 32.8405 8.3157 46.9868 21.6118 46.9868"></polygon>
            <path d="M36.4152,24.9562 C40.7919,24.9562 44.5807,27.4742 46.4124,31.14 L26.418,31.14 C28.25,27.4742 32.0382,24.9562 36.4152,24.9562 L36.4152,24.9562 L36.4152,24.9562 Z M47.0698,32.7634 C47.4046,33.8241 47.5851,34.954 47.5851,36.1261 C47.5851,42.2952 42.5843,47.2958 36.4152,47.2958 C30.2459,47.2958 25.2453,42.2952 25.2453,36.1261 C25.2453,34.954 25.4256,33.8241 25.7603,32.7634 L33.1653,32.7634 C32.2857,33.6138 31.7386,34.8058 31.7386,36.1261 C31.7386,38.7085 33.8326,40.8027 36.4152,40.8027 C38.9981,40.8027 41.0918,38.7085 41.0918,36.1261 C41.0918,34.8058 40.545,33.6138 39.6651,32.7634 L47.0698,32.7634 L47.0698,32.7634 Z" id="Fill-37" fill="#AFAFB0"></path>
            <path d="M77.1533,24.9562 C81.53,24.9562 85.3185,27.4742 87.1506,31.14 L67.1558,31.14 C68.9878,27.4742 72.7761,24.9562 77.1533,24.9562 L77.1533,24.9562 L77.1533,24.9562 Z M87.8076,32.7634 C88.1424,33.8241 88.3232,34.954 88.3232,36.1261 C88.3232,42.2952 83.3221,47.2958 77.1533,47.2958 C70.9843,47.2958 65.9831,42.2952 65.9831,36.1261 C65.9831,34.954 66.164,33.8241 66.4987,32.7634 L73.9031,32.7634 C73.0235,33.6138 72.4764,34.8058 72.4764,36.1261 C72.4764,38.7085 74.5704,40.8027 77.1533,40.8027 C79.736,40.8027 81.8299,38.7085 81.8299,36.1261 C81.8299,34.8058 81.2828,33.6138 80.4032,32.7634 L87.8076,32.7634 L87.8076,32.7634 Z" id="Fill-38" fill="#AFAFB0"></path>
            <polygon id="Fill-39" fill="#AFAFB0" points="51.2183 15.9112 57.5569 15.9112 57.5569 22.9459 51.2183 22.9459"></polygon>
            <path d="M51.218,32.7628 L57.5569,32.7628 L57.5569,35.6618 C57.6252,38.3173 58.6592,40.3628 62.234,40.8025 L62.234,46.9865 C61.9803,46.9865 61.7008,46.9899 61.4225,46.9865 C54.8004,46.9015 51.218,40.9808 51.218,34.9078 L51.218,32.7628 L51.218,32.7628 Z" id="Fill-40" fill="#AFAFB0"></path>
            <polygon id="Fill-41" fill="#AFAFB0" points="51.2364 24.7045 62.2133 24.7045 62.2133 30.9657 51.2364 30.9657"></polygon>
            <path d="M99.5122,34.0577 C99.6111,33.5855 99.8033,33.1481 100.0669,32.7634 L92.5551,32.7634 L92.5551,46.851 L99.4348,46.851 L99.4348,34.8018 L99.5122,34.0577 L99.5122,34.0577 Z M106.0111,32.7634 C106.2751,33.1481 106.4672,33.5855 106.5662,34.0577 L106.6628,46.851 L113.5428,46.851 L113.5428,32.7634 L106.0111,32.7634 L106.0111,32.7634 Z M113.182,31.14 C111.9707,27.4252 109.1063,25.7763 105.1953,25.1425 C103.5297,24.8726 102.2561,24.8981 100.591,25.1827 C95.9666,25.9727 93.9631,28.1874 92.9553,31.14 L113.182,31.14 L113.182,31.14 Z" id="Fill-42" fill="#AFAFB0"></path>
        </g>
    </g>
</svg>