<?xml version="1.0" encoding="UTF-8"?>
<svg width="96px" height="75px" viewBox="0 0 96 75" version="1.1" xmlns="http://www.w3.org/2000/svg" xmlns:xlink="http://www.w3.org/1999/xlink">
    <!-- Generator: Sketch 40.3 (33839) - http://www.bohemiancoding.com/sketch -->
    <title>Hirschler</title>
    <desc>Created with Sketch.</desc>
    <defs></defs>
    <g id="Page-1" stroke="none" stroke-width="1" fill="none" fill-rule="evenodd">
        <g id="logok" transform="translate(-198.000000, -390.000000)">
            <g id="Hirschler" transform="translate(198.000000, 390.000000)">
                <path d="M62.4887,11.2997 C64.2983,21.4125 64.3145,31.1603 62.4723,41.0975 C66.8702,36.7324 70.6323,31.7315 73.8236,26.175 C70.68,20.5871 66.9022,15.6174 62.4887,11.2997 L62.4887,11.2997 Z M34.7531,41.2409 C32.8485,31.2077 32.8803,21.3802 34.7378,11.1727 C30.2284,15.491 26.3552,20.4439 23.2597,26.175 C26.4819,31.8265 30.2925,36.8594 34.7531,41.2409 L34.7531,41.2409 Z" id="Fill-109" fill="#1A4BA2"></path>
                <path d="M54.4391,30.1013 C54.5664,34.1339 54.2801,38.4833 53.8042,42.0079 C56.5031,42.0553 59.2022,41.833 61.9484,41.5635 C58.0111,45.3732 53.5658,48.6753 48.549,51.4068 C43.5329,48.6603 39.087,45.3576 35.1341,41.5479 C37.8967,41.8175 40.6432,42.0241 43.3897,42.0079 C42.8814,38.4833 42.5957,34.1339 42.7545,30.1013 C46.6759,30.4191 50.5183,30.4191 54.4391,30.1013 L54.4391,30.1013 Z M61.8379,10.6375 C59.1699,10.352 56.4875,10.1301 53.8042,10.225 C54.2169,14.0031 54.3442,18.1314 54.4391,22.1317 C50.5492,21.8933 46.6439,21.9097 42.7545,22.1317 C42.85,18.1314 42.9449,14.0031 43.3897,10.225 C40.675,10.1933 37.9599,10.3838 35.2458,10.6539 C39.2304,6.923 43.691,3.6844 48.549,0.8427 C53.4711,3.6209 57.9003,6.8753 61.8379,10.6375 L61.8379,10.6375 Z" id="Fill-110" fill="#7FC700"></path>
                <path d="M0.8119,74.3555 L5.3485,74.3555 L5.3485,68.9555 L7.3361,68.9555 L7.3361,74.3555 L11.873,74.3555 L11.873,71.505 L10.9494,71.5452 L10.9494,63.776 L11.873,63.8166 L11.873,60.9655 L7.3361,60.9655 L7.3361,66.1849 L5.3485,66.1849 L5.3485,60.9655 L0.8119,60.9655 L0.8119,63.8166 L1.755,63.776 L1.755,71.5452 L0.8119,71.505 L0.8119,74.3555 Z M12.9569,74.3555 L18.3368,74.3555 L18.3368,71.505 L17.5136,71.5452 L17.5136,63.776 L18.3368,63.8166 L18.3368,60.9655 L12.9569,60.9655 L12.9569,63.8166 L13.9003,63.776 L13.9003,71.5452 L12.9569,71.505 L12.9569,74.3555 Z M19.4009,74.3555 L23.9576,74.3555 L23.9576,68.9354 L26.0658,68.9354 L26.0658,72.7497 C26.0621,73.1811 26.1057,73.5125 26.1962,73.7469 C26.29,73.9808 26.4535,74.1415 26.6914,74.2285 C26.9255,74.3187 27.26,74.3592 27.6917,74.3555 L30.6023,74.3555 L30.6023,71.505 L29.6791,71.5452 C29.6791,70.8828 29.6692,70.3507 29.6522,69.9527 C29.632,69.5511 29.6091,69.2869 29.5785,69.1562 C29.3576,68.4132 28.7955,67.9115 27.8924,67.6507 C28.3374,67.4733 28.6921,67.2794 28.9531,67.0617 C29.2139,66.8443 29.4013,66.5835 29.515,66.2722 C29.6255,65.9613 29.6825,65.5797 29.6791,65.1211 L29.6791,63.776 C29.6791,62.8429 29.4313,62.1402 28.9398,61.6716 C28.4446,61.1999 27.7016,60.9655 26.7081,60.9655 L19.4009,60.9655 L19.4009,63.8166 L20.344,63.776 L20.344,71.5452 L19.4009,71.505 L19.4009,74.3555 Z M23.9576,66.4664 L23.9576,63.776 L26.0658,63.776 L26.0658,66.4664 L23.9576,66.4664 Z M31.2651,74.3555 L37.2674,74.3555 C38.3012,74.3555 39.0776,74.1214 39.5995,73.6497 C40.118,73.1811 40.3787,72.4787 40.3787,71.5452 L40.3787,68.8954 C40.3787,68.3633 40.2951,67.9115 40.1245,67.5402 C39.9572,67.1688 39.7064,66.8777 39.375,66.6671 C39.1043,66.4964 38.763,66.3692 38.3483,66.2887 C37.9367,66.205 37.4483,66.1651 36.8859,66.1651 C36.7654,66.1651 36.6118,66.1685 36.421,66.1784 C36.2336,66.1849 36.0128,66.1951 35.7617,66.205 C35.5108,66.2152 35.2965,66.2221 35.1162,66.2221 C34.9357,66.2255 34.7883,66.2255 34.6777,66.2255 L34.6777,63.776 L36.7654,63.776 L36.7654,64.9005 L39.9774,64.9005 L39.9774,60.9655 L34.1156,60.9655 C33.5433,60.9655 33.0583,61.0261 32.6603,61.1463 C32.2623,61.2668 31.9576,61.4477 31.7467,61.6883 C31.5361,61.9293 31.3787,62.2538 31.2784,62.6651 C31.1749,63.0767 31.1245,63.5753 31.1245,64.1576 L31.1245,65.864 C31.1245,67.0486 31.4057,67.8715 31.9675,68.3333 C32.2186,68.5439 32.5565,68.7012 32.978,68.8016 C33.3996,68.9053 33.9047,68.9555 34.4971,68.9555 C34.6275,68.9555 34.7883,68.9555 34.9787,68.9521 C35.1695,68.9521 35.3906,68.9453 35.6415,68.9354 C35.8923,68.9255 36.1132,68.9152 36.3003,68.9087 C36.491,68.8985 36.6452,68.8954 36.7654,68.8954 L36.7654,71.5452 L34.6777,71.5452 L34.6777,70.2404 L31.2651,70.2404 L31.2651,74.3555 Z M50.2561,69.417 L47.024,69.417 L47.024,71.5452 L44.8957,71.5452 L44.8957,63.776 L47.024,63.776 L47.024,65.2418 L50.1353,65.2418 L50.1353,60.9655 L44.3138,60.9655 C43.5944,60.9655 43.0121,61.0797 42.564,61.3136 C42.1189,61.5446 41.791,61.8958 41.5869,62.3709 C41.3794,62.846 41.2793,63.4481 41.2824,64.1777 L41.2824,71.5452 C41.2824,72.4787 41.5333,73.1811 42.0387,73.6497 C42.5404,74.1214 43.2998,74.3555 44.3138,74.3555 L50.2561,74.3555 L50.2561,69.417 Z M51.3199,74.3555 L55.8565,74.3555 L55.8565,68.9555 L57.8438,68.9555 L57.8438,74.3555 L62.381,74.3555 L62.381,71.505 L61.4574,71.5452 L61.4574,63.776 L62.381,63.8166 L62.381,60.9655 L57.8438,60.9655 L57.8438,66.1849 L55.8565,66.1849 L55.8565,60.9655 L51.3199,60.9655 L51.3199,63.8166 L52.263,63.776 L52.263,71.5452 L51.3199,71.505 L51.3199,74.3555 Z M63.4649,74.3555 L73.0404,74.3555 L73.0404,69.1962 L69.6476,69.1962 L69.6476,71.5452 L68.0216,71.5452 L68.0216,63.776 L68.9452,63.8166 L68.9452,60.9655 L63.4649,60.9655 L63.4649,63.8166 L64.408,63.776 L64.408,71.5452 L63.4649,71.505 L63.4649,74.3555 Z M73.8437,74.3555 L83.6198,74.3555 L83.6198,69.8391 L80.4277,69.8391 L80.4277,71.5452 L78.4004,71.5452 L78.4004,68.7347 L81.1908,68.7347 L81.1908,66.3258 L78.4004,66.3258 L78.4004,63.776 L80.4277,63.776 L80.4277,65.2418 L83.4795,65.2418 L83.4795,60.9655 L73.8437,60.9655 L73.8437,63.8166 L74.7868,63.776 L74.7868,71.5452 L73.8437,71.505 L73.8437,74.3555 Z M84.5635,74.3555 L89.1202,74.3555 L89.1202,68.9354 L91.228,68.9354 L91.228,72.7497 C91.2246,73.1811 91.2683,73.5125 91.3587,73.7469 C91.4525,73.9808 91.6161,74.1415 91.8539,74.2285 C92.0881,74.3187 92.4226,74.3592 92.8543,74.3555 L95.7649,74.3555 L95.7649,71.505 L94.8416,71.5452 C94.8416,70.8828 94.8317,70.3507 94.8147,69.9527 C94.7946,69.5511 94.7716,69.2869 94.741,69.1562 C94.5202,68.4132 93.9581,67.9115 93.055,67.6507 C93.5,67.4733 93.8546,67.2794 94.1157,67.0617 C94.3765,66.8443 94.5638,66.5835 94.6775,66.2722 C94.7881,65.9613 94.845,65.5797 94.8416,65.1211 L94.8416,63.776 C94.8416,62.8429 94.5939,62.1402 94.1021,61.6716 C93.6071,61.1999 92.8642,60.9655 91.8704,60.9655 L84.5635,60.9655 L84.5635,63.8166 L85.5066,63.776 L85.5066,71.5452 L84.5635,71.505 L84.5635,74.3555 Z M89.1202,66.4664 L89.1202,63.776 L91.228,63.776 L91.228,66.4664 L89.1202,66.4664 Z" id="Fill-111" fill="#3E4042"></path>
            </g>
        </g>
    </g>
</svg>