<?xml version="1.0" encoding="UTF-8"?>
<svg width="91px" height="77px" viewBox="0 0 91 77" version="1.1" xmlns="http://www.w3.org/2000/svg" xmlns:xlink="http://www.w3.org/1999/xlink">
    <!-- Generator: Sketch 40.3 (33839) - http://www.bohemiancoding.com/sketch -->
    <title>kh</title>
    <desc>Created with Sketch.</desc>
    <defs></defs>
    <g id="Page-1" stroke="none" stroke-width="1" fill="none" fill-rule="evenodd">
        <g id="kh" style="mix-blend-mode: luminosity;">
            <polygon id="Fill-46" fill="#00ABD7" points="0.8685 0.3019 90.5428 0.3019 90.5428 76.8575 0.8685 76.8575"></polygon>
            <path d="M20.0551,36.254 L20.0324,40.2222 L72.3214,40.2225 L72.3313,31.991 C70.5659,31.8387 59.2466,32.2087 57.34,32.2724 C56.1345,32.3127 54.9238,32.3878 53.7225,32.4369 C52.9449,32.4683 53.2774,32.385 52.4661,33.133 C48.9228,36.3997 43.8882,37.1259 39.3814,35.0731 C38.9134,34.8599 38.554,34.6484 38.1415,34.3868 C37.3603,33.8913 37.3889,33.7295 36.8002,33.7969 C32.1134,34.3304 27.9623,34.869 23.3005,35.6468 C22.6953,35.748 20.4596,36.0689 20.0551,36.254" id="Fill-47" fill="#FEFEFE"></path>
            <path d="M45.3489,16.2301 C40.7338,16.8327 36.8855,20.992 37.5619,26.3928 C38.1311,30.9373 42.3878,34.778 47.666,34.1164 C52.2493,33.5415 56.1478,29.2929 55.4527,24.0253 C54.8526,19.4788 50.6905,15.5324 45.3489,16.2301" id="Fill-48" fill="#FEFEFE"></path>
            <path d="M45.3997,54.165 C45.1267,54.4552 44.5368,54.6732 44.0311,54.735 C43.4667,54.8039 42.8918,54.6809 42.4678,54.4484 C41.381,53.8532 41.8855,52.5509 42.6911,52.1382 L44.7341,53.6417 C44.8497,53.7287 44.9385,53.79 45.0706,53.8886 L45.3997,54.165 L45.3997,54.165 Z M43.4386,46.2002 C44.2046,46.05 45.2474,46.1897 45.4209,46.8893 C45.6312,47.7369 44.7879,48.1394 44.2536,48.4328 C43.7986,48.6825 43.7975,48.5875 43.3414,48.3239 C41.9247,47.5053 42.1492,46.4536 43.4386,46.2002 L43.4386,46.2002 L43.4386,46.2002 Z M46.4349,50.0808 C46.9346,49.7653 50.843,48.7483 50.1769,46.156 C49.697,44.2882 46.8405,43.9492 44.6774,43.8902 C42.3921,43.8279 39.6853,44.064 38.3947,45.373 C37.7682,46.0086 37.2991,47.1626 37.7793,48.3443 C38.1217,49.1868 38.9375,49.8277 39.7057,50.2634 C39.4996,50.4564 38.6597,50.6886 37.91,51.3065 C36.1848,52.7278 36.3209,55.4077 38.8715,56.6461 C40.1989,57.2905 42.0953,57.4866 43.7445,57.4432 C45.8345,57.3885 46.6251,57.1116 48.3531,56.397 C49.244,56.9948 48.882,57.244 49.6922,57.2369 L56.2172,57.2341 C56.1072,56.9781 53.5538,55.0817 53.0243,54.686 C52.7218,54.4592 52.1679,54.0173 51.8918,53.8968 C52.0469,53.6046 52.5469,53.2579 52.7836,52.9948 C53.4415,52.2641 54.542,50.7421 54.5794,49.7495 L49.4053,49.7492 C49.2483,50.0145 49.1431,50.3518 48.9625,50.633 C48.7579,50.9505 48.5926,51.1226 48.3502,51.3448 L46.4349,50.0808 L46.4349,50.0808 Z" id="Fill-49" fill="#FEFEFE"></path>
            <path d="M62.9716,48.6181 C62.8622,48.534 62.9019,48.7451 62.8656,48.3936 L62.8718,44.1247 C62.0991,44.1119 57.7508,44.0232 57.3528,44.1782 L57.3517,57.1518 C57.6895,57.2859 62.1949,57.2394 62.8718,57.204 L62.8738,52.4934 C62.9546,52.4784 66.4812,52.3596 66.6728,52.5382 L66.6938,57.2352 L72.2194,57.2338 L72.1967,44.096 L66.6725,44.0972 L66.6589,48.6173 L62.9716,48.6181 L62.9716,48.6181 Z" id="Fill-50" fill="#FEFEFE"></path>
            <path d="M25.7967,49.216 C25.7023,49.2599 25.9163,49.3421 25.6685,49.2384 L25.6705,44.1332 L20.1172,44.134 C20.1226,45.644 20.0015,56.7899 20.1739,57.2397 L25.6972,57.2284 L25.715,51.6623 C25.893,51.8049 29.0707,56.842 29.3513,57.2417 L35.9937,57.2457 C35.9342,56.9996 34.9171,55.7892 34.6807,55.4686 C33.5868,53.9864 31.6102,51.6042 30.6836,50.256 C30.8219,49.875 35.4206,44.4178 35.5065,44.0949 L29.1824,44.0994 L25.7967,49.216 L25.7967,49.216 Z" id="Fill-51" fill="#FEFEFE"></path>
            <path d="M20.1739,57.2397 C20.0015,56.7899 20.1226,45.644 20.1172,44.134 L25.6705,44.1332 L25.6685,49.2384 C25.9163,49.3421 25.7023,49.2599 25.7967,49.216 C25.7275,49.1332 25.7258,49.1681 25.7207,48.9175 C25.6977,47.7797 25.7964,44.7029 25.7017,44.0725 L20.0814,44.0946 C19.9902,44.6485 20.0599,54.6398 20.0588,56.4985 C20.0588,57.0098 19.9757,57.1731 20.1739,57.2397" id="Fill-52" fill="#FEFEFE"></path>
            <path d="M57.3517,57.1518 C57.4288,57.2851 57.34,57.2289 57.5104,57.2732 C57.5178,57.2752 57.6669,57.2763 57.6847,57.2766 C58.674,57.2797 62.6241,57.3154 62.9288,57.2301 L62.9317,52.5226 L66.6728,52.5382 C66.4812,52.3596 62.9546,52.4784 62.8738,52.4934 L62.8718,57.204 C62.1949,57.2394 57.6895,57.2859 57.3517,57.1518" id="Fill-53" fill="#FEFEFE"></path>
            <path d="M62.9716,48.6181 C62.8078,47.9625 63.0456,44.8546 62.9073,44.1034 C62.7344,44.0487 57.5501,44.0501 57.5104,44.06 C57.3403,44.1031 57.4305,44.0459 57.3528,44.1782 C57.7508,44.0232 62.0991,44.1119 62.8718,44.1247 L62.8656,48.3936 C62.9019,48.7451 62.8622,48.534 62.9716,48.6181" id="Fill-54" fill="#FEFEFE"></path>
        </g>
    </g>
</svg>