<?xml version="1.0" encoding="UTF-8"?>
<svg width="155px" height="50px" viewBox="0 0 155 50" version="1.1" xmlns="http://www.w3.org/2000/svg" xmlns:xlink="http://www.w3.org/1999/xlink">
    <!-- Generator: Sketch 40.3 (33839) - http://www.bohemiancoding.com/sketch -->
    <title>kwikfit</title>
    <desc>Created with Sketch.</desc>
    <defs></defs>
    <g id="Page-1" stroke="none" stroke-width="1" fill="none" fill-rule="evenodd">
        <g id="kwikfit">
            <polygon id="Fill-68" fill="#1E45A1" points="0.3868 0.0875 154.1148 0.0875 154.1148 49.793 0.3868 49.793"></polygon>
            <path d="M32.4291,25.1018 C33.3087,24.0329 39.5605,17.884 41.0201,16.4321 C42.756,14.7055 43.904,13.8095 42.1409,13.8095 C35.9628,13.8095 36.9013,13.2765 34.7121,15.6282 L30.5883,20.0015 C29.9689,20.6322 29.1653,21.7969 28.3841,22.1629 C28.5884,20.3561 31.2275,14.9663 30.9225,13.8384 C29.4561,13.7805 26.5784,13.7207 25.2399,13.8772 C24.6429,14.7222 23.7588,17.8644 23.3625,19.0646 L18.2808,34.1395 L18.3369,34.838 C19.661,34.9295 22.7091,34.929 24.0581,34.8434 C24.6568,34.1015 26.3615,28.2035 26.8213,26.7638 C27.0424,26.9427 26.9996,26.876 27.1893,27.1453 L27.6822,28.2265 C27.9056,28.7183 28.1369,29.2194 28.3217,29.6248 L30.9732,35.4885 C31.2269,36.0288 31.3828,36.4169 31.5974,36.9044 C31.9146,37.6259 31.9106,37.7123 32.9011,37.7123 C34.4525,37.7157 36.5048,37.8433 37.9833,37.6247 C38.146,36.4481 32.5516,26.4361 32.4291,25.1018" id="Fill-69" fill="#FEFEFE"></path>
            <path d="M60.7628,20.4746 L55.432,20.4213 C54.9149,21.2096 52.374,28.9416 52.1007,30.1625 L49.5614,30.1484 C50.0552,28.6678 52.6707,21.4307 52.5194,20.5409 C51.8283,20.2362 49.3752,20.3898 48.4698,20.4439 C48.0216,21.065 46.3693,26.3627 45.8908,27.7806 C45.6839,28.3943 45.3222,29.7314 44.9718,30.1543 C41.7874,30.2847 42.8093,29.5792 45.0728,22.848 L45.6573,21.0758 C45.7641,20.1749 45.3163,20.4176 43.0845,20.4179 C42.2194,20.4181 41.3373,20.3694 40.4775,20.459 C39.9253,21.1999 39.05,24.3725 38.6563,25.5284 C38.1746,26.9421 37.1658,29.4244 37.3064,31.0784 C37.7248,36.0019 43.9151,34.8853 47.4882,34.8853 C49.7936,34.8853 52.1047,34.8695 54.4089,34.8862 C56.6373,34.9029 55.9884,35.4228 57.4828,31.016 C58.0872,29.2345 58.6493,27.5796 59.2276,25.8522 C59.5286,24.9527 60.9553,21.2606 60.7628,20.4746" id="Fill-70" fill="#FEFEFE"></path>
            <path d="M77.1703,25.7566 C77.5167,23.6451 81.1958,14.9478 80.9395,13.8375 C74.5582,13.6 75.1673,13.6073 74.4493,15.7597 C73.5629,18.4163 68.0977,33.7447 68.2599,34.857 L69.0448,34.8853 C74.0649,34.976 74.0411,35.2309 74.5018,33.7237 C74.8037,32.7358 75.9585,28.9139 76.2697,28.4269 C76.5912,28.7228 76.9557,29.7481 77.1468,30.1957 L78.6528,33.7387 C79.0284,34.6486 78.8838,34.8853 80.0395,34.8853 L85.1164,34.8751 C85.2085,33.9751 84.1027,31.956 83.6854,31.0486 C83.347,30.3125 82.2092,28.0836 82.1786,27.4611 C83.2951,26.3295 84.5588,25.1605 85.6411,24.0924 C86.9042,22.8463 88.893,21.3944 88.6013,20.4584 C86.9487,20.362 84.5985,20.4179 82.8753,20.4179 C81.8421,20.4179 81.6612,20.9309 81.1538,21.4913 C80.2972,22.4378 77.7894,25.372 77.1703,25.7566" id="Fill-71" fill="#FEFEFE"></path>
            <path d="M105.7209,18.8217 C106.0633,17.9959 107.4208,14.7358 107.1759,13.8724 C105.1922,13.5478 99.3803,13.7406 97.6875,14.3018 C95.225,15.1182 93.808,17.1195 93.0211,19.5244 C92.4187,21.3644 88.2172,33.9241 88.3666,34.8496 C89.4809,34.9364 93.1089,35.0455 93.9395,34.7895 C94.5155,34.5021 95.941,29.2058 96.5479,27.8078 L102.8411,27.7327 C103.2051,27.056 104.2984,24.0272 104.2599,23.1768 L98.1574,23.1454 C98.1631,21.7598 98.9497,19.5958 100.0139,19.1032 C101.0975,18.6017 104.265,19.0065 105.7209,18.8217" id="Fill-72" fill="#FEFEFE"></path>
            <path d="M133.7297,26.2745 C133.1917,26.6535 129.0367,31.3604 128.5349,31.9055 C127.6463,32.8702 126.9753,33.6497 126.0008,34.7269 C125.1864,35.6272 123.6182,37.0286 123.6987,37.7534 C125.2391,37.9467 127.6327,37.7863 129.2759,37.8022 C131.0461,37.8186 130.7346,37.6536 132.705,35.4534 C134.4012,33.5598 136.3673,31.3837 138.1838,29.4609 C138.6509,28.9663 139.1464,28.4033 139.5229,27.9671 C139.9804,27.4381 140.2806,26.7887 139.9954,25.8505 C139.6516,24.72 134.878,14.2959 134.6189,14.0164 L128.7274,13.9773 C128.5287,15.2364 133.563,24.5627 133.7297,26.2745" id="Fill-73" fill="#F9B000"></path>
            <path d="M122.8685,18.5887 C122.9005,17.6697 124.3158,14.5192 124.1931,14.113 C124.0106,13.509 118.7928,13.8616 118.7917,13.8625 C118.0779,14.7755 114.8867,24.97 114.2463,26.9018 C113.5524,28.9952 112.2799,31.9285 114.1267,33.7982 C115.5639,35.253 119.9513,35.0438 121.8695,34.8352 C122.3322,34.0695 123.3078,31.278 123.131,30.4681 C119.8408,30.1812 118.4756,31.3755 119.5307,28.2613 L121.2471,23.1734 L124.9276,23.1034 C125.4333,22.5818 126.4722,19.4328 126.4438,18.6136 L122.8685,18.5887 L122.8685,18.5887 Z" id="Fill-74" fill="#FEFEFE"></path>
            <path d="M59.3806,34.7751 C60.627,34.9536 63.7698,34.9298 65.0635,34.8258 C65.7078,33.7415 68.443,24.9737 69.2792,22.5319 C70.1937,19.8611 69.9981,20.4179 66.9905,20.4179 C63.2332,20.4181 64.4002,19.2684 61.9485,26.3462 L59.4878,33.6443 C59.3157,34.1341 59.2179,34.3161 59.3806,34.7751" id="Fill-75" fill="#FEFEFE"></path>
            <path d="M103.1065,34.7782 C104.0901,35.1172 105.773,34.8805 106.9386,34.8856 C108.9436,34.895 108.7803,35.2218 109.3458,33.481 C110.0054,31.4503 110.6477,29.6503 111.2836,27.7162 C114.0337,19.3486 114.3461,20.4088 111.4998,20.4179 C106.9851,20.4315 107.9344,19.7027 106.4791,24.0085 L103.4718,32.9909 C103.2505,33.6752 102.9089,34.2081 103.1065,34.7782" id="Fill-76" fill="#FEFEFE"></path>
            <path d="M114.2169,18.2613 C114.8827,17.8256 115.8351,14.5158 115.6639,13.8755 C114.5698,13.6859 112.5427,13.8168 111.338,13.8049 C109.3364,13.7859 109.7302,14.2817 109.161,16.0137 C108.3863,18.3693 108.0574,18.3945 109.9207,18.3704 C111.0789,18.3551 113.293,18.5717 114.2169,18.2613" id="Fill-77" fill="#FEFEFE"></path>
            <path d="M70.4854,18.2516 C71.0829,17.8621 72.0787,14.4047 71.9375,13.88 C70.8448,13.6853 68.8189,13.8174 67.6156,13.8052 C65.622,13.7856 66.006,14.2304 65.4167,15.9921 C64.5918,18.4588 64.3744,18.3962 66.1988,18.3695 C67.3905,18.3523 69.5204,18.6125 70.4854,18.2516" id="Fill-78" fill="#FEFEFE"></path>
        </g>
    </g>
</svg>