<?xml version="1.0" encoding="UTF-8"?>
<svg width="153px" height="46px" viewBox="0 0 153 46" version="1.1" xmlns="http://www.w3.org/2000/svg" xmlns:xlink="http://www.w3.org/1999/xlink">
    <!-- Generator: Sketch 40.3 (33839) - http://www.bohemiancoding.com/sketch -->
    <title>walter auto</title>
    <desc>Created with Sketch.</desc>
    <defs></defs>
    <g id="Page-1" stroke="none" stroke-width="1" fill="none" fill-rule="evenodd">
        <g id="logok" transform="translate(-20.000000, -50.000000)">
            <g id="walter-auto" transform="translate(20.000000, 50.000000)">
                <path d="M42.8054,23.3962 C46.8566,23.3962 49.8197,26.0386 49.6536,29.7974 C49.6326,30.2733 49.3358,30.3884 49.2318,29.9374 C48.5974,27.1869 46.1406,25.4833 42.5312,25.4833 C38.6656,25.54 35.2692,27.5906 33.4782,30.5392 C33.1602,31.0639 32.5984,31.404 32.8815,30.5185 C34.1843,26.446 38.5284,23.3962 42.8054,23.3962 L42.8054,23.3962 Z M114.271,19.7854 C119.3918,19.5413 122.7262,22.961 122.5334,27.4789 C122.5088,28.0504 122.163,28.189 122.0419,27.6473 C121.3041,24.3415 118.525,22.1886 113.9516,22.2938 C109.4518,22.3969 105.4958,24.8268 103.4104,28.3707 C103.0396,29.0011 102.3859,29.4101 102.7156,28.346 C104.2321,23.4509 108.5028,20.0595 114.271,19.7854 L114.271,19.7854 Z M109.6114,9.8225 C93.5098,10.3574 73.0386,13.5517 63.9515,16.2084 C62.8134,16.5411 62.8678,17.0624 63.8353,16.9454 C72.8305,15.854 96.1043,12.6775 115.2274,11.8169 C117.0158,11.7367 113.1638,9.7043 109.6114,9.8225 L109.6114,9.8225 Z M21.5778,29.0816 C23.7367,25.0655 26.2238,23.2173 29.6551,21.3419 C32.981,19.5243 41.4782,17.5554 45.0643,16.7617 C52.7119,15.0691 55.5451,13.3102 61.7606,9.759 C69.5647,5.3004 72.9325,2.8767 80.9243,1.7432 C87.2965,0.8392 96.3722,0.4491 102.791,0.3905 C110.0151,0.3241 112.7032,1.3378 120.6175,5.7264 C124.5032,7.881 126.9972,8.7495 131.7667,9.3919 C133.0486,9.5645 133.611,10.0903 131.9844,10.189 C120.3814,10.8959 119.9862,9.8715 112.7616,5.937 C109.1094,3.9482 105.7753,2.047 100.9128,2.1224 C94.3843,2.2242 89.6646,2.6162 83.3005,3.5568 C75.4392,4.7184 71.6399,7.4964 65.9774,11.2976 C60.4584,15.0019 58.3871,16.4538 52.5625,17.7436 C46.6545,19.0521 37.8243,20.0368 32.2956,22.3306 C28.1945,24.032 25.1492,25.9099 22.0696,29.4133 C21.4792,30.0848 21.2317,29.7256 21.5778,29.0816 L21.5778,29.0816 Z" id="Fill-43" fill="#DC2A1B"></path>
                <path d="M19.5717,38.845 L15.1474,45.1271 C14.8475,45.5552 14.284,45.7695 13.4566,45.7695 C12.7972,45.7695 12.1974,45.5861 11.658,45.219 C11.5619,45.158 11.4958,45.1044 11.4601,45.0588 L8.0608,40.7476 C7.9769,40.641 7.9347,40.5109 7.9347,40.3578 C7.9347,40.0525 8.1269,39.8229 8.5104,39.6699 C8.7981,39.548 9.0889,39.4867 9.3886,39.4867 C9.9283,39.4867 10.3059,39.6395 10.5216,39.9454 L12.4613,42.6204 L15.8487,37.6065 C16.1367,37.1785 16.7062,36.9645 17.5574,36.9645 C18.0252,36.9645 18.4691,37.056 18.8883,37.2397 C19.4762,37.469 19.7699,37.8205 19.7699,38.2945 C19.7699,38.4779 19.7038,38.6613 19.5717,38.845 L19.5717,38.845 Z M7.863,45.5861 C7.5151,45.7082 7.1376,45.7695 6.7294,45.7695 C5.9022,45.7695 5.3387,45.5552 5.0388,45.1271 L0.6145,38.845 C0.4824,38.6613 0.4166,38.4779 0.4166,38.2945 C0.4166,37.8205 0.7103,37.469 1.2979,37.2397 C1.7174,37.056 2.1611,36.9645 2.6288,36.9645 C3.4534,36.9645 4.0169,37.1785 4.3163,37.6102 L8.7621,43.8892 C8.882,44.0573 8.9418,44.241 8.9418,44.4394 C8.9418,44.9593 8.5821,45.3414 7.863,45.5861 L7.863,45.5861 Z M29.3567,39.8995 L29.3567,39.3263 C29.3567,39.0511 29.1889,38.845 28.8529,38.7069 C28.6131,38.6004 28.3611,38.5468 28.0975,38.5468 L22.5759,38.5468 C22.2641,38.5468 21.9642,38.5009 21.6765,38.4093 C21.2567,38.2712 21.0469,38.0575 21.0469,37.7672 C21.0469,37.4767 21.2507,37.2627 21.6583,37.1252 C21.9341,37.0181 22.2281,36.9645 22.5399,36.9645 L29.4287,36.9645 C30.2921,36.9645 31.1255,37.1405 31.9288,37.4917 C33.0199,37.966 33.5655,38.6539 33.5655,39.5556 L33.5655,44.5083 C33.5655,44.9361 33.2838,45.2649 32.72,45.4942 C32.3126,45.6623 31.8928,45.7462 31.4608,45.7462 C31.0294,45.7462 30.6099,45.6623 30.2022,45.4942 C29.6387,45.2802 29.3567,44.9517 29.3567,44.5083 L29.3567,42.2383 C29.3567,41.9784 29.1889,41.772 28.8529,41.619 C28.6131,41.5124 28.3611,41.4588 28.0975,41.4588 L24.9859,41.4588 C24.7223,41.4588 24.4703,41.5124 24.2305,41.619 C23.8946,41.772 23.7268,41.9784 23.7268,42.2383 L23.7268,43.3161 C23.7268,43.5757 23.8946,43.7821 24.2305,43.9352 C24.4703,44.0417 24.7223,44.0953 24.9859,44.0953 L26.5146,44.0953 C26.8146,44.0953 27.1204,44.1489 27.4322,44.256 C27.852,44.4088 28.0615,44.6308 28.0615,44.9208 C28.0615,45.1963 27.852,45.4177 27.4322,45.5861 C27.1204,45.6926 26.8146,45.7462 26.5146,45.7462 L23.6548,45.7462 C22.7913,45.7462 21.958,45.5707 21.1546,45.219 C20.0636,44.7453 19.5179,44.0573 19.5179,43.1553 L19.5179,42.4677 C19.5179,41.581 20.0636,40.893 21.1546,40.4038 C21.958,40.0676 22.7913,39.8995 23.6548,39.8995 L29.3567,39.8995 Z M45.8682,45.7462 L41.3719,45.7462 C39.9086,45.7462 38.5837,45.4636 37.3966,44.8981 C35.7539,44.1032 34.9324,42.9187 34.9324,41.344 L34.9324,38.1797 C34.9324,37.7517 35.2142,37.4231 35.7777,37.1941 C36.1856,37.041 36.6051,36.9645 37.0369,36.9645 C37.4686,36.9645 37.8884,37.041 38.296,37.1941 C38.8595,37.4231 39.141,37.7517 39.141,38.1797 L39.141,41.344 C39.141,42.3682 39.5668,43.1174 40.4183,43.591 C41.0419,43.9275 41.8152,44.0953 42.7387,44.0953 L45.886,44.0953 C46.1981,44.0953 46.4975,44.1489 46.7855,44.256 C47.2053,44.4088 47.4151,44.6308 47.4151,44.9208 C47.4151,45.2116 47.1991,45.433 46.7673,45.5861 C46.4674,45.6926 46.1681,45.7462 45.8682,45.7462 L45.8682,45.7462 Z M48.1342,44.5083 C48.1342,44.9361 48.4163,45.2649 48.9798,45.4942 C49.3877,45.6473 49.8069,45.7235 50.2389,45.7235 C50.6704,45.7235 51.0902,45.6473 51.4981,45.4942 C52.0616,45.2649 52.3431,44.9361 52.3431,44.5083 L52.3252,38.5468 L55.2931,38.5468 C55.9286,38.5468 56.366,38.5159 56.6061,38.4549 C57.0378,38.3481 57.2535,38.1261 57.2535,37.7899 C57.2535,37.6524 57.2357,37.5683 57.1994,37.5379 C56.5642,37.1405 55.9286,36.9418 55.2931,36.9418 L45.1488,36.9418 C43.8417,36.9418 43.1883,37.2244 43.1883,37.7899 C43.1883,38.1261 43.4037,38.3481 43.8357,38.4549 C44.0756,38.5159 44.5132,38.5468 45.1488,38.5468 L48.1163,38.5468 L48.1342,44.5083 Z M68.7829,41.9058 C68.4592,42.0663 68.1054,42.1462 67.7216,42.1462 L63.8546,42.1462 C63.555,42.1462 63.2491,42.0932 62.9373,41.9861 C62.5178,41.8333 62.3077,41.6116 62.3077,41.3213 C62.3077,41.0308 62.5178,40.8091 62.9373,40.656 C63.2491,40.5489 63.555,40.4959 63.8546,40.4959 L67.7216,40.4959 C68.0215,40.4959 68.3274,40.5489 68.6389,40.656 C69.0587,40.8091 69.2685,41.0308 69.2685,41.3213 C69.2685,41.5504 69.1069,41.7451 68.7829,41.9058 L68.7829,41.9058 Z M68.7829,45.5058 C68.4592,45.6663 68.1054,45.7462 67.7216,45.7462 L63.2071,45.7462 C61.7323,45.7462 60.4014,45.4636 59.2143,44.8981 C57.5713,44.1032 56.7498,42.9187 56.7498,41.344 C56.7498,39.7696 57.5713,38.5927 59.2143,37.8129 C60.4014,37.2471 61.7323,36.9645 63.2071,36.9645 L67.7037,36.9645 C68.0156,36.9645 68.3214,37.0181 68.621,37.1252 C69.0409,37.278 69.2506,37.4994 69.2506,37.7899 C69.2506,38.0805 69.0409,38.3021 68.621,38.4549 C68.3092,38.5618 68.0037,38.6154 67.7037,38.6154 L64.5743,38.6154 C63.6508,38.6154 62.8531,38.7914 62.1819,39.1426 C61.2586,39.6169 60.7971,40.3578 60.7971,41.367 C60.7971,42.3605 61.2646,43.0944 62.1997,43.5681 C62.8715,43.9196 63.6627,44.0953 64.5743,44.0953 L67.7216,44.0953 C68.0215,44.0953 68.3274,44.1489 68.6389,44.256 C69.0587,44.4088 69.2685,44.6308 69.2685,44.9208 C69.2685,45.1504 69.1069,45.3451 68.7829,45.5058 L68.7829,45.5058 Z M75.5639,41.6419 C75.5639,41.367 75.7737,41.1529 76.1935,40.9999 C76.4929,40.893 76.7987,40.8321 77.1105,40.8168 L78.8192,40.8168 C79.0831,40.8168 79.3349,40.7632 79.5747,40.656 C79.9106,40.5186 80.0784,40.3122 80.0784,40.0369 L80.0784,39.1199 C80.0784,38.7378 79.6555,38.5468 78.8105,38.5468 L75.6807,38.5468 C74.8354,38.5468 74.4125,38.7378 74.4125,39.1199 L74.4125,39.2115 L74.4125,44.531 C74.4125,44.9593 74.131,45.2878 73.5675,45.5172 C73.1715,45.67 72.752,45.7462 72.3083,45.7462 C71.8763,45.7462 71.4565,45.67 71.0492,45.5172 C70.4857,45.2878 70.2039,44.9593 70.2039,44.531 L70.2039,39.5556 C70.2039,39.54 70.2096,39.4788 70.2218,39.3722 C70.3179,38.5315 70.8873,37.8971 71.9305,37.469 C72.6981,37.1329 73.5014,36.9645 74.3408,36.9645 L79.6107,36.9645 C81.3852,36.9645 82.6622,37.3083 83.4417,37.9963 C83.8853,38.3784 84.1073,38.7838 84.1073,39.2115 L84.1073,39.8995 C84.1073,40.6181 83.7056,41.2292 82.902,41.7338 C82.5786,41.9325 82.1769,42.1009 81.6973,42.2383 L83.5678,43.4995 C83.9276,43.7554 84.1073,44.065 84.1073,44.4321 C84.1073,44.8672 83.8045,45.2076 83.1988,45.4523 C82.7495,45.6473 82.3115,45.7462 81.8832,45.7462 C81.3974,45.7462 80.9929,45.6393 80.6748,45.4216 L76.0314,42.2383 C75.7198,42.07 75.5639,41.8712 75.5639,41.6419 L75.5639,41.6419 Z" id="Fill-44" fill="#151515"></path>
                <path d="M103.8755,39.8314 L103.8755,39.2583 C103.8755,38.9827 103.7077,38.7764 103.3721,38.6389 C103.132,38.5318 102.88,38.4782 102.6164,38.4782 L97.0948,38.4782 C96.7827,38.4782 96.4831,38.4328 96.1953,38.3407 C95.7755,38.2032 95.5658,37.9895 95.5658,37.6989 C95.5658,37.4081 95.7696,37.1944 96.1772,37.0569 C96.453,36.9497 96.7467,36.8962 97.0588,36.8962 L103.9475,36.8962 C104.811,36.8962 105.6443,37.0725 106.4477,37.4234 C107.5387,37.8974 108.0844,38.5853 108.0844,39.4873 L108.0844,44.44 C108.0844,44.868 107.8026,45.1966 107.2388,45.4259 C106.8312,45.5943 106.4117,45.6782 105.9797,45.6782 C105.5483,45.6782 105.1284,45.5943 104.7208,45.4259 C104.1576,45.2119 103.8755,44.8833 103.8755,44.44 L103.8755,42.1703 C103.8755,41.9101 103.7077,41.7037 103.3721,41.5509 C103.132,41.4438 102.88,41.3902 102.6164,41.3902 L99.5048,41.3902 C99.2412,41.3902 98.9892,41.4438 98.7494,41.5509 C98.4134,41.7037 98.2456,41.9101 98.2456,42.1703 L98.2456,43.2478 C98.2456,43.5077 98.4134,43.7141 98.7494,43.8666 C98.9892,43.9737 99.2412,44.0273 99.5048,44.0273 L101.0335,44.0273 C101.3334,44.0273 101.6393,44.0806 101.9511,44.1877 C102.3703,44.3408 102.5807,44.5622 102.5807,44.8527 C102.5807,45.128 102.3703,45.3496 101.9511,45.5177 C101.6393,45.6246 101.3334,45.6782 101.0335,45.6782 L98.1736,45.6782 C97.3108,45.6782 96.4771,45.5024 95.6735,45.1507 C94.5824,44.677 94.0368,43.989 94.0368,43.0873 L94.0368,42.3993 C94.0368,41.5127 94.5824,40.825 95.6735,40.3357 C96.4771,39.9995 97.3108,39.8314 98.1736,39.8314 L103.8755,39.8314 Z M145.9017,36.6657 L145.7282,36.8962 L142.5466,36.8962 C141.6832,36.8962 140.8498,37.0725 140.0465,37.4234 C138.9554,37.8974 138.4097,38.5853 138.4097,39.4873 L138.4097,43.0873 C138.4097,43.989 138.9554,44.677 140.0465,45.1507 C140.8498,45.5024 141.6832,45.6782 142.5466,45.6782 L148.3199,45.6782 C149.1834,45.6782 150.0168,45.5024 150.8204,45.1507 C151.9117,44.6617 152.4568,43.9737 152.4568,43.0873 L152.4568,39.4873 C152.4568,38.6006 151.9117,37.9127 150.8204,37.4234 C150.449,37.2635 150.0737,37.1408 149.695,37.0538 C149.6525,37.1218 149.6063,37.1941 149.5553,37.2729 C149.0391,37.9651 148.7049,38.4702 148.2318,39.1185 C148.2423,39.163 148.2479,39.2089 148.2479,39.2583 L148.2479,43.2478 C148.2479,43.5077 148.0801,43.7141 147.7445,43.8666 C147.5044,43.9737 147.253,44.0273 146.9894,44.0273 L143.8772,44.0273 C143.6136,44.0273 143.3621,43.9737 143.1218,43.8666 C142.7864,43.7141 142.6186,43.5077 142.6186,43.2478 L142.6186,39.2583 C142.6186,38.9827 142.7864,38.7764 143.1218,38.6389 C143.3621,38.5318 143.6136,38.4782 143.8772,38.4782 L144.5368,38.4782 L144.0889,39.0732 C143.5951,39.7294 143.8871,39.8836 144.9915,39.8711 C146.093,39.8584 146.4641,39.8048 147.0285,39.0238 L148.6227,36.8188 C149.2035,36.0154 148.9257,35.8156 148.3316,35.8122 L147.3451,35.8071 C146.7323,35.804 146.2455,36.1475 145.9017,36.6657 L145.9017,36.6657 Z M122.6534,40.2212 L122.6534,43.0641 C122.6414,43.9663 122.087,44.6537 120.9925,45.128 C120.2011,45.4795 119.3708,45.6555 118.5046,45.6555 L113.6182,45.6555 C112.7519,45.6555 111.9154,45.4795 111.1118,45.128 C110.0179,44.6537 109.4691,43.9663 109.4691,43.0641 L109.4691,38.1117 C109.4691,37.668 109.7512,37.3398 110.3147,37.1255 C110.7223,36.9574 111.1419,36.8735 111.5739,36.8735 C112.0053,36.8735 112.4251,36.9574 112.8327,37.1255 C113.3963,37.3398 113.678,37.668 113.678,38.1117 L113.678,43.2248 C113.678,43.485 113.8458,43.6911 114.1817,43.8439 C114.4215,43.951 114.6735,44.0046 114.9372,44.0046 L117.1493,44.0046 C117.4135,44.0046 117.6649,43.951 117.905,43.8439 C118.2407,43.6911 118.4085,43.485 118.4085,43.2248 L118.4085,38.1117 C118.4085,37.668 118.6934,37.3398 119.26,37.1255 C119.6617,36.9574 120.0843,36.8735 120.5311,36.8735 C120.9656,36.8735 121.3883,36.9574 121.8018,37.1255 C122.3685,37.3398 122.6534,37.668 122.6534,38.1117 L122.6534,40.2212 Z M128.535,44.44 C128.535,44.868 128.8167,45.1966 129.3805,45.4259 C129.7879,45.5787 130.2077,45.6555 130.6394,45.6555 C131.0711,45.6555 131.4906,45.5787 131.8983,45.4259 C132.4624,45.1966 132.7438,44.868 132.7438,44.44 L132.726,38.4782 L135.6936,38.4782 C136.3294,38.4782 136.7668,38.4478 137.0066,38.3866 C137.438,38.2798 137.654,38.0581 137.654,37.7216 C137.654,37.5844 137.6362,37.5002 137.6002,37.4693 C136.9646,37.0725 136.3294,36.8735 135.6936,36.8735 L125.5489,36.8735 C124.2422,36.8735 123.5885,37.1561 123.5885,37.7216 C123.5885,38.0581 123.8045,38.2798 124.2359,38.3866 C124.4757,38.4478 124.9137,38.4782 125.5489,38.4782 L128.5171,38.4782 L128.535,44.44 Z" id="Fill-45" fill="#151515"></path>
            </g>
        </g>
    </g>
</svg>