<svg width="96" height="75" xmlns="http://www.w3.org/2000/svg"><title>Hirschler</title><g fill="none" fill-rule="evenodd"><path d="M62.489 11.3c1.81 10.113 1.825 19.86-.017 29.797 4.398-4.365 8.16-9.366 11.352-14.922-3.144-5.588-6.922-10.558-11.335-14.875zM34.753 41.24c-1.904-10.032-1.873-19.86-.015-30.067-4.51 4.318-8.383 9.27-11.478 15.002 3.222 5.651 7.032 10.684 11.493 15.066z" fill="#1A4BA2"/><path d="M54.44 30.101c.126 4.033-.16 8.382-.636 11.907 2.7.047 5.398-.175 8.144-.445a61.379 61.379 0 0 1-13.399 9.844 62.429 62.429 0 0 1-13.415-9.86c2.763.27 5.51.477 8.256.46-.509-3.524-.794-7.873-.636-11.906a71.72 71.72 0 0 0 11.685 0zm7.398-19.463c-2.668-.286-5.35-.508-8.034-.413.413 3.778.54 7.906.635 11.907a98.935 98.935 0 0 0-11.684 0c.095-4 .19-8.129.635-11.907-2.715-.032-5.43.159-8.144.429C39.23 6.923 43.69 3.684 48.549.843c4.922 2.778 9.351 6.032 13.289 9.794z" fill="#7FC700"/><path d="M.812 74.356h4.537v-5.4h1.987v5.4h4.537v-2.851l-.924.04v-7.769l.924.04v-2.85H7.336v5.219H5.348v-5.22H.813v2.852l.943-.041v7.77l-.943-.041v2.85zm12.145 0h5.38v-2.851l-.823.04v-7.769l.823.04v-2.85h-5.38v2.85l.943-.04v7.77l-.943-.041v2.85zm6.444 0h4.557v-5.42h2.108v3.814c-.004.431.04.763.13.997a.812.812 0 0 0 .495.481c.235.09.569.131 1 .128h2.911v-2.851l-.923.04c0-.662-.01-1.194-.027-1.592-.02-.402-.043-.666-.074-.797-.22-.743-.782-1.245-1.686-1.505.445-.178.8-.372 1.061-.59.26-.217.448-.478.562-.789.11-.31.168-.692.164-1.15v-1.346c0-.933-.248-1.636-.74-2.104-.494-.472-1.237-.706-2.23-.706H19.4v2.85l.943-.04v7.77l-.943-.041v2.85zm4.557-7.89v-2.69h2.108v2.69h-2.108zm7.307 7.89h6.002c1.034 0 1.81-.235 2.332-.706.519-.469.78-1.171.78-2.105v-2.65c0-.532-.084-.983-.255-1.355a1.968 1.968 0 0 0-.749-.873c-.27-.17-.612-.298-1.027-.378a7.449 7.449 0 0 0-1.462-.124c-.12 0-.274.003-.465.013l-.66.027c-.25.01-.465.017-.645.017-.18.004-.328.004-.438.004v-2.45h2.087V64.9h3.212v-3.935h-5.861c-.573 0-1.058.061-1.456.181-.398.12-.702.302-.913.542-.21.241-.368.566-.469.977-.103.412-.153.91-.153 1.493v1.706c0 1.185.28 2.007.843 2.47.25.21.588.367 1.01.468.422.103.927.153 1.52.153.13 0 .29 0 .48-.003.191 0 .413-.007.663-.017.251-.01.472-.02.66-.026.19-.01.344-.014.464-.014v2.65h-2.087V70.24h-3.413v4.116zm18.991-4.939h-3.232v2.128h-2.128v-7.769h2.128v1.466h3.111v-4.277h-5.821c-.72 0-1.302.115-1.75.349a2.08 2.08 0 0 0-.977 1.057c-.208.475-.308 1.077-.305 1.807v7.367c0 .934.251 1.636.757 2.105.501.471 1.26.706 2.275.706h5.942v-4.939zm1.064 4.939h4.536v-5.4h1.988v5.4h4.537v-2.851l-.924.04v-7.769l.924.04v-2.85h-4.537v5.219h-1.988v-5.22H51.32v2.852l.943-.041v7.77l-.943-.041v2.85zm12.145 0h9.575v-5.16h-3.392v2.35h-1.626v-7.77l.923.04v-2.85h-5.48v2.85l.943-.04v7.77l-.943-.041v2.85zm10.379 0h9.776v-4.517h-3.192v1.706H78.4v-2.81h2.79v-2.41H78.4v-2.549h2.028v1.466h3.052v-4.277h-9.636v2.852l.943-.041v7.77l-.943-.041v2.85zm10.72 0h4.556v-5.42h2.108v3.814c-.003.431.04.763.13.997a.812.812 0 0 0 .496.481c.234.09.569.131 1 .128h2.91v-2.851l-.922.04c0-.662-.01-1.194-.027-1.592-.02-.402-.043-.666-.074-.797-.22-.743-.783-1.245-1.686-1.505.445-.178.8-.372 1.06-.59a1.83 1.83 0 0 0 .563-.789c.11-.31.167-.692.164-1.15v-1.346c0-.933-.248-1.636-.74-2.104-.495-.472-1.238-.706-2.232-.706h-7.306v2.85l.943-.04v7.77l-.944-.041v2.85zm4.556-7.89v-2.69h2.108v2.69H89.12z" fill="#3E4042"/></g></svg>