<svg width="91" height="77" xmlns="http://www.w3.org/2000/svg"><title>kh</title><g style="mix-blend-mode:luminosity" fill="none" fill-rule="evenodd"><path fill="#00ABD7" d="M.869.302h89.674v76.555H.868z"/><path d="M20.055 36.254l-.023 3.968h52.29l.01-8.231c-1.766-.152-13.085.218-14.992.281-1.206.04-2.416.116-3.618.165-.777.031-.445-.052-1.256.696-3.543 3.267-8.578 3.993-13.085 1.94a9.682 9.682 0 0 1-1.24-.686c-.78-.496-.752-.657-1.34-.59-4.688.533-8.839 1.072-13.5 1.85-.606.101-2.841.422-3.246.607" fill="#FEFEFE"/><path d="M45.349 16.23c-4.615.603-8.463 4.762-7.787 10.163.57 4.544 4.826 8.385 10.104 7.723 4.583-.575 8.482-4.823 7.787-10.09-.6-4.547-4.763-8.494-10.104-7.796m.051 37.935c-.273.29-.863.508-1.369.57a2.673 2.673 0 0 1-1.563-.287c-1.087-.595-.583-1.897.223-2.31l2.043 1.504c.116.087.204.148.337.247l.329.276zM43.439 46.2c.766-.15 1.808-.01 1.982.69.21.847-.633 1.25-1.167 1.543-.455.25-.456.154-.913-.11-1.416-.818-1.192-1.87.098-2.123zm2.996 3.88c.5-.315 4.408-1.332 3.742-3.924-.48-1.868-3.337-2.207-5.5-2.266-2.285-.062-4.992.174-6.282 1.483-.627.636-1.096 1.79-.616 2.971.343.843 1.158 1.484 1.927 1.92-.206.192-1.046.425-1.796 1.042-1.725 1.422-1.59 4.102.962 5.34 1.327.645 3.223.84 4.873.797 2.09-.054 2.88-.331 4.608-1.046.891.598.529.847 1.34.84l6.524-.003c-.11-.256-2.663-2.152-3.193-2.548-.302-.227-.856-.669-1.132-.79.155-.291.655-.638.892-.901.657-.73 1.758-2.253 1.795-3.245h-5.174c-.157.264-.262.602-.443.883a3.25 3.25 0 0 1-.612.712l-1.915-1.264zm16.537-1.462c-.11-.084-.07.127-.106-.224l.006-4.27c-.773-.012-5.121-.1-5.52.054v12.974c.338.134 4.843.087 5.52.052l.002-4.71c.08-.016 3.607-.134 3.799.044l.02 4.697 5.526-.001-.022-13.138-5.525.001-.013 4.52-3.687.001zm-37.175.598c-.095.044.12.126-.128.022l.002-5.105-5.554.001c.006 1.51-.116 12.656.057 13.106l5.523-.012.018-5.566c.178.143 3.356 5.18 3.636 5.58l6.643.004c-.06-.246-1.077-1.457-1.313-1.777-1.094-1.483-3.07-3.865-3.997-5.213.138-.381 4.737-5.838 4.823-6.161l-6.325.004-3.385 5.117z" fill="#FEFEFE"/><path d="M20.174 57.24c-.172-.45-.051-11.596-.057-13.106h5.553l-.002 5.104c.248.104.034.022.129-.022-.07-.083-.071-.048-.076-.299-.023-1.137.075-4.214-.02-4.845l-5.62.023c-.09.553-.021 10.545-.022 12.404 0 .51-.083.674.115.74m37.178-.087c.077.133-.012.077.158.121.008.002.157.003.175.004.989.003 4.94.038 5.244-.047l.003-4.707 3.74.015c-.19-.178-3.717-.06-3.798-.045l-.002 4.711c-.677.035-5.182.082-5.52-.052m5.62-8.534c-.164-.656.074-3.763-.065-4.515-.173-.054-5.357-.053-5.397-.043-.17.043-.08-.014-.157.118.398-.155 4.746-.066 5.519-.053l-.006 4.269c.036.351-.004.14.106.224" fill="#FEFEFE"/></g></svg>