<svg width="155" height="50" xmlns="http://www.w3.org/2000/svg"><title>kwikfit</title><g fill="none" fill-rule="evenodd"><path fill="#1E45A1" d="M.387.087h153.728v49.706H.387z"/><path d="M32.43 25.102c.879-1.07 7.13-7.218 8.59-8.67 1.736-1.726 2.884-2.622 1.12-2.622-6.177 0-5.239-.534-7.428 1.818l-4.124 4.373c-.62.631-1.423 1.796-2.204 2.162.204-1.807 2.843-7.197 2.538-8.325-1.466-.057-4.344-.117-5.682.04-.597.844-1.481 3.986-1.877 5.187L18.28 34.139l.056.699c1.324.091 4.372.091 5.721.005.599-.742 2.303-6.64 2.763-8.08.221.18.179.113.368.382l.493 1.082.64 1.398 2.651 5.864c.254.54.41.928.624 1.415.318.722.314.808 1.304.808 1.551.004 3.604.131 5.082-.087.163-1.177-5.431-11.189-5.554-12.523" fill="#FEFEFE"/><path d="M60.763 20.475l-5.331-.054c-.517.789-3.058 8.52-3.331 9.742l-2.54-.015c.494-1.48 3.11-8.717 2.958-9.607-.69-.305-3.144-.151-4.05-.097-.447.621-2.1 5.919-2.578 7.337-.207.613-.569 1.95-.92 2.373-3.184.13-2.162-.575.102-7.306l.584-1.772c.107-.901-.34-.658-2.572-.658-.866 0-1.748-.049-2.608.041-.552.74-1.427 3.913-1.82 5.07-.482 1.413-1.491 3.895-1.35 5.55.418 4.923 6.608 3.806 10.181 3.806 2.306 0 4.617-.015 6.92.001 2.23.017 1.58.537 3.075-3.87.604-1.781 1.166-3.436 1.745-5.164.3-.9 1.727-4.591 1.535-5.377m16.407 5.282c.347-2.112 4.026-10.81 3.77-11.92-6.382-.237-5.773-.23-6.49 1.923-.887 2.656-6.352 17.985-6.19 19.097l.785.028c5.02.091 4.996.346 5.457-1.161.302-.988 1.457-4.81 1.768-5.297.321.296.686 1.321.877 1.769l1.506 3.543c.375.91.23 1.146 1.386 1.146l5.077-.01c.093-.9-1.013-2.919-1.43-3.826-.339-.736-1.477-2.965-1.507-3.588 1.116-1.131 2.38-2.3 3.462-3.369 1.263-1.246 3.252-2.698 2.96-3.634-1.652-.096-4.002-.04-5.726-.04-1.033 0-1.214.513-1.721 1.073-.857.947-3.365 3.881-3.984 4.266m28.55-6.935c.343-.826 1.7-4.086 1.456-4.95-1.984-.324-7.796-.131-9.489.43-2.462.816-3.879 2.817-4.666 5.222-.602 1.84-4.804 14.4-4.654 15.326 1.114.086 4.742.195 5.572-.06.577-.288 2.002-5.584 2.609-6.982l6.293-.075c.364-.677 1.457-3.706 1.419-4.556l-6.103-.032c.006-1.385.793-3.55 1.857-4.042 1.084-.501 4.251-.097 5.707-.281" fill="#FEFEFE"/><path d="M133.73 26.274c-.538.38-4.693 5.086-5.195 5.631-.889.965-1.56 1.745-2.534 2.822-.815.9-2.383 2.302-2.302 3.026 1.54.194 3.934.033 5.577.05 1.77.016 1.459-.15 3.429-2.35a318.095 318.095 0 0 1 5.479-5.992 47.04 47.04 0 0 0 1.339-1.494c.457-.529.758-1.178.472-2.116-.343-1.131-5.117-11.555-5.376-11.835l-5.892-.039c-.198 1.26 4.836 10.586 5.003 12.297" fill="#F9B000"/><path d="M122.868 18.589c.032-.92 1.448-4.07 1.325-4.476-.182-.604-5.4-.251-5.401-.25-.714.912-3.905 11.107-4.546 13.039-.694 2.093-1.966 5.026-.12 6.896 1.438 1.455 5.825 1.246 7.743 1.037.463-.766 1.439-3.557 1.262-4.367-3.29-.287-4.655.907-3.6-2.207l1.716-5.088 3.68-.07c.506-.521 1.545-3.67 1.517-4.49l-3.576-.024zM59.38 34.775c1.247.179 4.39.155 5.684.05.644-1.084 3.379-9.851 4.215-12.293.915-2.67.72-2.114-2.288-2.114-3.758 0-2.59-1.15-5.042 5.928l-2.461 7.298c-.172.49-.27.672-.107 1.131m43.725.003c.984.34 2.667.102 3.833.108 2.005.009 1.841.336 2.407-1.405.66-2.03 1.302-3.83 1.938-5.765 2.75-8.367 3.062-7.307.216-7.298-4.515.014-3.566-.715-5.02 3.59l-3.008 8.983c-.221.684-.563 1.217-.365 1.787m11.11-16.517c.666-.435 1.618-3.745 1.447-4.385-1.094-.19-3.121-.06-4.326-.071-2.002-.02-1.608.477-2.177 2.209-.775 2.355-1.104 2.38.76 2.356 1.158-.015 3.372.202 4.296-.109m-43.732-.009c.598-.39 1.594-3.847 1.453-4.372-1.093-.195-3.12-.063-4.322-.075-1.994-.02-1.61.425-2.2 2.187-.824 2.467-1.042 2.404.783 2.377 1.192-.017 3.321.244 4.286-.117" fill="#FEFEFE"/></g></svg>