<svg width="46" height="23" xmlns="http://www.w3.org/2000/svg"><title>PRV-logo</title><g fill="#3E4042" fill-rule="evenodd"><path d="M5.596 15.117V23H.036V.07h1.19v21.72h3.181v-7.884H8.36c1.447 0 2.636-.327 3.632-1.014 1.543-.948 2.346-2.878 2.346-5.397 0-4.056-2.25-6.215-6.395-6.215H3.347v8.145H7.46c1.672 0 2.314-.523 2.314-1.93 0-1.145-.546-1.701-1.67-1.701H5.66v2.65l-1.19.032V4.65h3.632c1.768 0 2.764 1.047 2.764 2.846 0 2.093-1.125 3.14-3.407 3.14H2.254V.07h5.689c4.66 0 7.52 2.747 7.52 7.425 0 4.841-2.603 7.622-7.103 7.622H5.596zm-2.25-2.257v8.177H2.255v-9.322h5.4c2.988 0 4.435-1.309 4.435-4.057 0-2.584-1.382-4.088-3.6-4.088H4.47V2.392h4.02c1.832 0 3.407.85 4.178 2.42.386.786.579 1.734.579 2.846 0 3.402-1.865 5.202-5.593 5.202H3.347zM33.912 23l-4.435-8.44-1.06.426 3.567 6.836h-3.696l-4.435-8.406-2.99.032v8.374h-3.245V.102H16.46V23h5.592v-8.407h1.125L27.58 23h6.331zm-15.266-1.995h1.157V1.28h4.532c4.66 0 7.296 2.126 7.296 6.019 0 3.532-2.09 5.691-5.721 6.084l-.868.098 4.017 7.556h1.318l-3.503-6.64c3.857-.687 5.914-3.075 5.914-7.098 0-1.341-.29-2.552-.836-3.631C30.665 1.345 28.03.102 24.334.102h-5.689v20.903zm2.218-9.748v1.145h3.214c4.403 0 6.492-1.538 6.492-4.94 0-3.238-2.186-5.07-5.689-5.07h-4.05v3.435h3.697c1.703 0 2.57.49 2.57 1.472 0 1.145-1.06 1.7-3.213 1.7H22.02V6.973h-1.19v3.205h3.054c2.86 0 4.37-1.014 4.37-2.878 0-.59-.128-1.047-.417-1.407-.546-.818-1.64-1.21-3.31-1.21H22.02V3.57h2.86c2.86 0 4.532 1.406 4.532 3.892 0 2.584-1.704 3.795-5.335 3.795h-3.214z"/><path d="M45.904.102h-3.76L32.307 20.71 32.02 23h.547L42.882 1.313h1.125L33.658 23h1.318zM31.713 16.646l.722 1.427L40.967.103h-1.434z"/></g></svg>