<?xml version="1.0" encoding="UTF-8"?>
<svg width="46px" height="23px" viewBox="0 0 46 23" version="1.1" xmlns="http://www.w3.org/2000/svg" xmlns:xlink="http://www.w3.org/1999/xlink">
    <!-- Generator: Sketch 40.3 (33839) - http://www.bohemiancoding.com/sketch -->
    <title>PRV-logo</title>
    <desc>Created with Sketch.</desc>
    <defs></defs>
    <g id="Page-1" stroke="none" stroke-width="1" fill="none" fill-rule="evenodd">
        <g id="PRV-logo" fill="#3E4042">
            <g id="Page-1">
                <g id="PRV">
                    <path d="M5.59633188,15.1166222 L5.59633188,23 L0.0361572052,23 L0.0361572052,0.0695111111 L1.22532751,0.0695111111 L1.22532751,21.7896889 L4.40716157,21.7896889 L4.40716157,13.9063111 L8.36034934,13.9063111 C9.80663755,13.9063111 10.9958079,13.5792 11.9921397,12.8922667 C13.5348472,11.9436444 14.3383406,10.0136889 14.3383406,7.49493333 C14.3383406,3.43875556 12.088559,1.27982222 7.94253275,1.27982222 L3.34655022,1.27982222 L3.34655022,9.42488889 L7.46043668,9.42488889 C9.13170306,9.42488889 9.77449782,8.90151111 9.77449782,7.49493333 C9.77449782,6.35004444 9.22812227,5.79395556 8.10323144,5.79395556 L5.66061135,5.79395556 L5.66061135,8.44355556 L4.47144105,8.47626667 L4.47144105,4.64906667 L8.10323144,4.64906667 C9.87091703,4.64906667 10.8672489,5.69582222 10.8672489,7.49493333 C10.8672489,9.58844444 9.74235808,10.6352 7.46043668,10.6352 L2.25379913,10.6352 L2.25379913,0.0695111111 L7.94253275,0.0695111111 C12.6027948,0.0695111111 15.4632314,2.81724444 15.4632314,7.49493333 C15.4632314,12.3361778 12.8599127,15.1166222 8.36034934,15.1166222 L5.59633188,15.1166222 L5.59633188,15.1166222 Z M3.34655022,12.8595556 L3.34655022,21.0373333 L2.25379913,21.0373333 L2.25379913,11.7146667 L7.65327511,11.7146667 C10.6422707,11.7146667 12.088559,10.4062222 12.088559,7.65848889 C12.088559,5.07431111 10.7065502,3.5696 8.4889083,3.5696 L4.47144105,3.5696 L4.47144105,2.392 L8.4889083,2.392 C10.3208734,2.392 11.8957205,3.24248889 12.6670742,4.81262222 C13.0527511,5.59768889 13.2455895,6.54631111 13.2455895,7.65848889 C13.2455895,11.0604444 11.3814847,12.8595556 7.65327511,12.8595556 L3.34655022,12.8595556 L3.34655022,12.8595556 Z M33.911441,23 L29.4761572,14.5605333 L28.4155459,14.9857778 L31.9830568,21.8224 L28.2869869,21.8224 L23.8517031,13.4156444 L20.8627074,13.4483556 L20.8627074,21.8224 L17.6165939,21.8224 L17.6165939,0.102222222 L16.4595633,0.102222222 L16.4595633,23 L22.0518777,23 L22.0518777,14.5932444 L23.1767686,14.5932444 L27.5799127,23 L33.911441,23 L33.911441,23 Z M18.6450655,21.0046222 L19.8020961,21.0046222 L19.8020961,1.27982222 L24.3337991,1.27982222 C28.9940611,1.27982222 31.6295197,3.40604444 31.6295197,7.29866667 C31.6295197,10.8314667 29.5404367,12.9904 25.9086463,13.3829333 L25.0408734,13.4810667 L29.0583406,21.0373333 L30.3760699,21.0373333 L26.8728384,14.3969778 C30.729607,13.7100444 32.7865502,11.3221333 32.7865502,7.29866667 C32.7865502,5.95751111 32.4972926,4.7472 31.950917,3.66773333 C30.6653275,1.34524444 28.029869,0.102222222 24.3337991,0.102222222 L18.6450655,0.102222222 L18.6450655,21.0046222 L18.6450655,21.0046222 Z M20.8627074,11.2567111 L20.8627074,12.4016 L24.0766812,12.4016 C28.4798253,12.4016 30.5689083,10.8641778 30.5689083,7.46222222 C30.5689083,4.22382222 28.3834061,2.392 24.8801747,2.392 L20.8305677,2.392 L20.8305677,5.82666667 L24.5266376,5.82666667 C26.2300437,5.82666667 27.0978166,6.31733333 27.0978166,7.29866667 C27.0978166,8.44355556 26.0372052,8.99964444 23.8838428,8.99964444 L22.019738,8.99964444 L22.019738,6.97155556 L20.8305677,6.97155556 L20.8305677,10.1772444 L23.8838428,10.1772444 C26.7442795,10.1772444 28.2548472,9.1632 28.2548472,7.29866667 C28.2548472,6.70986667 28.1262882,6.25191111 27.8370306,5.89208889 C27.290655,5.07431111 26.1979039,4.68177778 24.5266376,4.68177778 L22.019738,4.68177778 L22.019738,3.5696 L24.8801747,3.5696 C27.7406114,3.5696 29.4118777,4.97617778 29.4118777,7.46222222 C29.4118777,10.0464 27.7084716,11.2567111 24.0766812,11.2567111 L20.8627074,11.2567111 L20.8627074,11.2567111 Z" id="PR"></path>
                    <polygon id="V" points="45.9035808 0.102222222 42.1432314 0.102222222 32.3084716 20.7102222 32.019214 23 32.5655895 23 42.8824454 1.31253333 44.0073362 1.31253333 33.6583406 23 34.9760699 23"></polygon>
                    <polygon id="V" points="31.7128821 16.6458667 32.4353592 18.0734679 40.9671179 0.102222222 39.5328821 0.102222222"></polygon>
                </g>
            </g>
        </g>
    </g>
</svg>