<svg width="52" height="71" viewBox="0 0 52 71" xmlns="http://www.w3.org/2000/svg"><title>lista</title><g fill="#3E4042" fill-rule="evenodd"><path d="M49.158 15.516v50.286c0 1.199-.943 1.988-2.104 1.988H5.207c-1.253 0-1.944-1.034-1.944-2.22V16.084c0-.23-.03-.56-.007-.737.125-.928.735-1.537 1.605-1.753.27-.067.678-.027 1.004-.027h7.573l-1.413-1.418v2.306c0 .743-.223 2.103.222 2.765.766 1.14 1.991.93 3.172.93h21.853c1.193 0 2.755.164 3.072-1.415.155-.771.05-1.634.05-2.414v-2.172l-1.413 1.418h8.164c1.114 0 1.983.836 2.013 1.95.049 1.825 2.876 1.83 2.827 0-.06-2.254-1.6-4.261-3.85-4.692-.89-.17-1.843-.094-2.744-.094h-6.41a1.43 1.43 0 0 0-1.413 1.418v4.021c0 .376-.084-.013.084-.263l.507-.509c.225-.152.64-.084.314-.084H13.906c-.277 0 .147-.057.355.084l.507.509c.152.225.084.635.084.318V12.15a1.43 1.43 0 0 0-1.413-1.419H5.945c-.796 0-1.579.005-2.341.283-2.011.731-3.168 2.63-3.168 4.73v46.82c0 1.895-.295 4.165.742 5.84.969 1.566 2.666 2.223 4.429 2.223h40.658c.868 0 1.714.023 2.551-.282 2.012-.731 3.169-2.63 3.169-4.731V15.516c0-1.829-2.827-1.829-2.827 0"/><path d="M38.609 6.24h-7.924l1.413 1.42c0-1.525.002-2.917-.673-4.334-.986-2.067-3.362-3.29-5.591-3.15-2.061.13-3.941 1.381-4.876 3.225-.685 1.354-.636 2.79-.636 4.258l1.413-1.418h-7.912c-.971 0-1.798.817-1.798 1.795v7.59c0 .957.076 2.204 1.266 2.445.809.164 1.676.08 2.496.08h22.76c1.064 0 1.848-.841 1.848-1.892V8.613c0-1.01-.226-2.082-1.411-2.322-.754-.152-1.524.208-1.739.991-.193.706.232 1.592.988 1.745l-.074-.034-.508-.508c-.134-.2-.084-.625-.084-.382v8.156c0 .28-.058-.14.084-.352l.508-.509c.224-.151.64-.084.314-.084H13.906c-.277 0 .147-.056.355.084l.507.51c.134.199.084.624.084.381V8.133c0-.28.058.14-.084.352l-.507.509c-.2.135-.623.084-.378.084h7.852a1.43 1.43 0 0 0 1.413-1.419c0-.834-.081-1.705.135-2.494.327-1.194 1.374-1.932 2.558-2.156 1.381-.261 2.658.733 3.23 1.934.367.77.2 1.887.2 2.716a1.43 1.43 0 0 0 1.413 1.419h7.924c1.824 0 1.824-2.837 0-2.837"/><path d="M26.187 6.833l.06.003-.375-.05c.06.009.113.023.17.046l-.338-.143a.551.551 0 0 1 .1.058l-.286-.222a.82.82 0 0 1 .12.122l-.22-.287a.576.576 0 0 1 .058.1l-.143-.339a.78.78 0 0 1 .047.17l-.05-.377a.557.557 0 0 1 0 .123l.05-.378a.805.805 0 0 1-.047.171l.143-.339a.56.56 0 0 1-.058.1l.22-.287a.82.82 0 0 1-.12.121l.286-.222a.57.57 0 0 1-.1.059l.338-.143a.803.803 0 0 1-.17.047l.376-.051a.55.55 0 0 1-.122 0l.376.05a.794.794 0 0 1-.17-.046l.337.143a.57.57 0 0 1-.099-.059l.286.222a.812.812 0 0 1-.12-.121l.22.287a.574.574 0 0 1-.058-.1l.143.339a.817.817 0 0 1-.047-.17l.05.377a.6.6 0 0 1 0-.123l-.05.378a.807.807 0 0 1 .047-.171l-.143.339a.564.564 0 0 1 .058-.1l-.22.287a.82.82 0 0 1 .12-.122l-.286.222a.575.575 0 0 1 .1-.058l-.338.143a.794.794 0 0 1 .17-.047l-.376.05.06-.002c.77-.042 1.414-.614 1.414-1.419 0-.741-.643-1.46-1.413-1.418-1.114.06-1.913.861-1.973 1.98-.028.528.24.987.558 1.378.334.412.912.574 1.415.601.526.029.984-.242 1.374-.56.41-.335.572-.915.599-1.42.028-.528-.241-.987-.559-1.378-.334-.412-.912-.574-1.414-.601-.77-.042-1.414.677-1.414 1.418 0 .805.644 1.377 1.414 1.419"/><path d="M25.356 5.975l-.003.061.05-.376a.789.789 0 0 1-.047.17l.143-.339a.552.552 0 0 1-.058.1l.22-.287a.812.812 0 0 1-.12.121l.286-.221a.571.571 0 0 1-.1.058l.338-.143a.791.791 0 0 1-.17.046l.376-.05a.572.572 0 0 1-.122 0l.376.05a.793.793 0 0 1-.17-.046l.338.143a.566.566 0 0 1-.1-.058l.287.221a.818.818 0 0 1-.121-.121l.22.287a.558.558 0 0 1-.057-.1l.142.339a.82.82 0 0 1-.047-.17l.051.376a.555.555 0 0 1 0-.122l-.05.378a.822.822 0 0 1 .046-.171l-.142.339a.544.544 0 0 1 .058-.1l-.221.287a.826.826 0 0 1 .12-.121l-.285.221a.567.567 0 0 1 .099-.058l-.338.143a.8.8 0 0 1 .17-.047l-.376.05a.551.551 0 0 1 .122 0l-.376-.05a.78.78 0 0 1 .17.047l-.338-.143a.557.557 0 0 1 .1.058l-.286-.221a.82.82 0 0 1 .12.121l-.22-.287a.573.573 0 0 1 .058.1l-.143-.34a.8.8 0 0 1 .047.172l-.05-.378.003.061c.041.772.611 1.419 1.413 1.419.74 0 1.456-.646 1.414-1.419-.06-1.118-.859-1.919-1.973-1.98-.527-.028-.985.243-1.374.561-.41.335-.572.915-.599 1.42-.028.528.241.987.558 1.378.334.412.913.574 1.415.601.527.029.985-.242 1.374-.56.41-.335.572-.915.599-1.42.041-.772-.675-1.418-1.414-1.418-.802 0-1.372.647-1.413 1.418"/><path d="M25.006 5.975l-.001.023.05-.377a.298.298 0 0 1-.017.064l.143-.339a.214.214 0 0 1-.022.038l.22-.287a.29.29 0 0 1-.045.045l.287-.221a.222.222 0 0 1-.038.021l.338-.143a.283.283 0 0 1-.064.018l.376-.05a.216.216 0 0 1-.046 0l.376.05a.296.296 0 0 1-.064-.018l.338.143a.209.209 0 0 1-.037-.021l.286.221a.298.298 0 0 1-.046-.045l.222.287a.198.198 0 0 1-.022-.038l.142.34a.289.289 0 0 1-.017-.065l.05.377a.199.199 0 0 1 0-.045l-.05.377a.284.284 0 0 1 .017-.064l-.142.338a.203.203 0 0 1 .022-.037l-.222.287a.306.306 0 0 1 .046-.045l-.286.221a.206.206 0 0 1 .037-.022l-.338.143a.294.294 0 0 1 .064-.017l-.376.05a.216.216 0 0 1 .046 0l-.376-.05a.302.302 0 0 1 .064.017l-.338-.143a.213.213 0 0 1 .038.022l-.287-.221a.304.304 0 0 1 .046.045l-.221-.287a.214.214 0 0 1 .022.037l-.143-.338a.293.293 0 0 1 .017.064l-.05-.377.001.022c.02.384.139.727.414 1.003.264.265.626.416 1 .416.373 0 .735-.15 1-.416.252-.253.433-.638.413-1.003-.008-.152-.012-.319-.069-.463-.143-.367-.148-.372-.399-.68a1.129 1.129 0 0 0-.355-.273 1.666 1.666 0 0 0-.8-.212 1.14 1.14 0 0 0-.462.069c-.366.144-.37.15-.678.4a1.133 1.133 0 0 0-.272.357 1.68 1.68 0 0 0-.211.802c-.009.15.013.32.069.464.143.366.148.372.399.68.092.114.224.205.355.273.29.15.47.194.8.212.148.008.32-.013.462-.07.365-.143.37-.148.678-.4.114-.093.204-.225.272-.356.15-.292.193-.471.211-.803.02-.364-.162-.75-.414-1.003a1.417 1.417 0 0 0-1-.415c-.373 0-.735.15-.999.415-.275.277-.393.62-.414 1.003M10.195 30.342h32.03c1.823 0 1.823-2.837 0-2.837h-32.03c-1.823 0-1.823 2.837 0 2.837m0 12.69h32.03c1.823 0 1.823-2.837 0-2.837h-32.03c-1.823 0-1.823 2.837 0 2.837m0 12.69h6.86c1.823 0 1.823-2.837 0-2.837h-6.86c-1.823 0-1.823 2.837 0 2.837m31.03-6.813L29.603 60.57h2l-5.345-5.363c-1.29-1.294-3.29.712-2 2.006l5.345 5.363a1.424 1.424 0 0 0 2 0l11.621-11.661c1.29-1.295-.709-3.301-1.999-2.006"/></g></svg>