<?xml version="1.0" encoding="UTF-8"?>
<svg width="52px" height="71px" viewBox="0 0 52 71" version="1.1" xmlns="http://www.w3.org/2000/svg" xmlns:xlink="http://www.w3.org/1999/xlink">
    <!-- Generator: Sketch 40.3 (33839) - http://www.bohemiancoding.com/sketch -->
    <title>lista</title>
    <desc>Created with Sketch.</desc>
    <defs></defs>
    <g id="Symbols" stroke="none" stroke-width="1" fill="none" fill-rule="evenodd">
        <g id="4---Folyamatabra" transform="translate(-1866.000000, -1606.000000)" fill="#3E4042">
            <g id="Step-by-step">
                <g>
                    <g id="1---partnerlista" transform="translate(1802.000000, 1560.000000)">
                        <g id="left-side">
                            <g id="lista" transform="translate(64.000000, 46.000000)">
                                <path d="M49.157655,15.5164848 L49.157655,30.2325274 L49.157655,55.9425027 L49.157655,64.2772809 L49.157655,65.8018884 C49.157655,67.0009639 48.2150847,67.7897532 47.0536693,67.7897532 L28.5570882,67.7897532 L6.63993053,67.7897532 L5.20735815,67.7897532 C3.95379732,67.7897532 3.26254715,66.7564937 3.26254715,65.5704203 L3.26254715,59.5105146 L3.26254715,34.7201515 L3.26254715,16.0835977 C3.26254715,15.8530927 3.23215198,15.5237082 3.2559882,15.347298 C3.38140827,14.4194993 3.99059148,13.8098489 4.8608532,13.5944327 C5.13121025,13.5273358 5.53914543,13.567305 5.8653336,13.567305 L13.4383703,13.567305 C12.9672452,13.0945771 12.4961201,12.6218493 12.0248349,12.1489609 L12.0248349,14.4548135 C12.0248349,15.197855 11.8023103,16.5577703 12.2471996,17.2199103 C13.012678,18.3591122 14.2384032,18.1509194 15.4185357,18.1509194 L26.8140051,18.1509194 L37.2723434,18.1509194 C38.4654338,18.1509194 40.0272657,18.314167 40.3444953,16.7354646 C40.4993507,15.9638507 40.3948873,15.1012227 40.3948873,14.3207803 L40.3948873,12.1489609 C39.9237621,12.6218493 39.452477,13.0945771 38.9813519,13.567305 L44.6724476,13.567305 L47.1445348,13.567305 C48.2585978,13.567305 49.1275798,14.4029659 49.157655,15.5164848 C49.2066072,17.3420651 52.033838,17.3468807 51.9847258,15.5164848 C51.9242554,13.2626403 50.3841801,11.2558343 48.1352574,10.8253229 C47.2456388,10.6551729 46.2915504,10.7306168 45.3913734,10.7306168 L38.9815118,10.7306168 C38.2109143,10.7306168 37.5679764,11.3757418 37.5679764,12.1489609 L37.5679764,14.186426 L37.5679764,15.6752379 L37.5679764,16.1699568 C37.5679764,16.5463734 37.4841498,16.1567943 37.6518031,15.907027 C37.8208963,15.7373587 37.9899894,15.5678508 38.1589225,15.3981824 C38.3835269,15.2463317 38.7993008,15.3140706 38.4731126,15.3140706 L38.0391016,15.3140706 L36.4764699,15.3140706 L31.2467408,15.3140706 L18.494687,15.3140706 L15.1478587,15.3140706 L14.1808124,15.3140706 L13.906136,15.3140706 C13.62922,15.3140706 14.0531527,15.2574075 14.2612796,15.3981824 C14.4302127,15.5678508 14.5993059,15.7373587 14.768399,15.907027 C14.9198949,16.1323954 14.8522257,16.5418789 14.8522257,16.2254963 L14.8522257,15.7744385 L14.8522257,14.3207803 L14.8522257,12.1488004 C14.8522257,11.3757418 14.2092879,10.7304562 13.4386903,10.7304562 L8.7863095,10.7304562 L5.944681,10.7304562 C5.1491274,10.7304562 4.36637177,10.7354323 3.60393291,11.0128088 C1.59273247,11.744293 0.435636316,13.6432304 0.435636316,15.7439399 L0.435636316,17.8058039 L0.435636316,39.6658963 L0.435636316,62.5631006 C0.435636316,64.458025 0.141283085,66.7280819 1.17791838,68.4030956 C2.14704439,69.969117 3.84421473,70.6264415 5.60681468,70.6264415 L8.2305578,70.6264415 L31.8580037,70.6264415 L42.9997534,70.6264415 L46.2648346,70.6264415 C47.1326967,70.6264415 47.9794422,70.6485931 48.8164292,70.3440889 C50.8276296,69.6126047 51.9847258,67.7135068 51.9847258,65.6129578 L51.9847258,63.5509333 L51.9847258,54.4792133 L51.9847258,28.6433913 L51.9847258,15.5163243 C51.9847258,13.6872126 49.157655,13.6872126 49.157655,15.5164848" id="Fill-4"></path>
                                <path d="M38.6085791,6.2407454 L30.6847181,6.2407454 C31.1558433,6.71347326 31.6271284,7.18636165 32.0982535,7.65908952 C32.0982535,6.13528454 32.1003332,4.74342602 31.4246005,3.32572398 C30.4394771,1.25904442 28.0632146,0.0368542718 25.8338089,0.176345109 C23.7728563,0.305402225 21.8926751,1.55712783 20.9584235,3.40148885 C20.2730924,4.75450182 20.3218846,6.19034249 20.3218846,7.65908952 C20.7930098,7.18636165 21.2641349,6.71347326 21.73542,6.2407454 L17.0425657,6.2407454 L14.3380354,6.2407454 L13.8233972,6.2407454 C12.8518715,6.2407454 12.0249629,7.05794661 12.0249629,8.0363087 L12.0249629,12.7982594 L12.0249629,15.6256376 C12.0249629,16.5828112 12.1012708,17.8302028 13.2905218,18.0708205 C14.0998332,18.2347102 14.9672154,18.1509194 15.7870852,18.1509194 L20.9265886,18.1509194 L33.7079178,18.1509194 L37.6920847,18.1509194 L38.5474688,18.1509194 C39.6109798,18.1509194 40.3948553,17.3099614 40.3948553,16.2590448 L40.3948553,11.197566 L40.3948553,8.61337379 C40.3948553,7.60306846 40.1689712,6.53144494 38.9840394,6.29146934 C38.2295993,6.13881596 37.4601216,6.49869911 37.2452757,7.28203085 C37.0517065,7.98783202 37.4769189,8.8738958 38.2326388,9.02703074 C38.2078428,9.01579442 38.1833667,9.00471862 38.1585706,8.99348231 C37.9896374,8.82397445 37.8205443,8.65430608 37.6514512,8.48463771 C37.5172325,8.28463128 37.5674645,7.86005906 37.5674645,8.102924 L37.5674645,8.35525955 L37.5674645,9.30922279 L37.5674645,12.128896 L37.5674645,14.9814756 L37.5674645,15.9784579 L37.5674645,16.2590448 C37.5674645,16.5394711 37.5090738,16.1190724 37.6514512,15.9073481 C37.8205443,15.7376797 37.9896374,15.5680113 38.1585706,15.398343 C38.3830149,15.2466527 38.7987889,15.3142311 38.4727607,15.3142311 L38.0387496,15.3142311 L36.4761179,15.3142311 L31.2463889,15.3142311 L18.494335,15.3142311 L15.1475068,15.3142311 L14.1803005,15.3142311 L13.9057841,15.3142311 C13.6288681,15.3142311 14.0528007,15.2577285 14.2609276,15.398343 C14.4298608,15.5680113 14.5989539,15.7376797 14.7680471,15.9073481 C14.9022657,16.106873 14.8518738,16.5320873 14.8518738,16.2890618 L14.8518738,16.0367262 L14.8518738,15.0829235 L14.8518738,12.2630898 L14.8518738,9.41067067 L14.8518738,8.41352788 L14.8518738,8.13294102 C14.8518738,7.85251467 14.9102645,8.27307393 14.7680471,8.48479823 C14.5991139,8.65430608 14.4300208,8.82397445 14.2609276,8.99364282 C14.0607994,9.12896017 13.6375067,9.07775468 13.8833876,9.07775468 L14.1443062,9.07775468 L15.0241664,9.07775468 L17.7061402,9.07775468 L21.7347801,9.07775468 C22.5053777,9.07775468 23.1483155,8.43262962 23.1483155,7.65941055 C23.1483155,6.82503383 23.0667285,5.95357726 23.2826942,5.16526943 C23.6100022,3.97100955 24.6571958,3.23278359 25.8413277,3.00869935 C27.2220683,2.74753526 28.4988254,3.74243078 29.0708945,4.94279037 C29.4383561,5.71376217 29.2703828,6.83000991 29.2703828,7.65941055 C29.2703828,8.43262962 29.9134806,9.07775468 30.6840782,9.07775468 L38.6079392,9.07775468 C40.4316494,9.07743364 40.4316494,6.2407454 38.6085791,6.2407454" id="Fill-6"></path>
                                <path d="M26.1867448,6.83256216 C26.2070616,6.83368579 26.2273783,6.83464891 26.2475351,6.83577254 C26.122435,6.81891806 25.9970149,6.80206359 25.8719148,6.78520911 C25.9323852,6.79500076 25.9846969,6.80928693 26.0419678,6.83192009 C25.9293457,6.784246 25.8167236,6.73657192 25.7042614,6.68889783 C25.7394558,6.70494971 25.7725706,6.72437249 25.8036057,6.74732668 C25.7082608,6.67348803 25.612916,6.59932834 25.5175711,6.5254897 C25.5636438,6.56321161 25.6010778,6.60093353 25.6386719,6.64716295 C25.5650836,6.55149374 25.4913353,6.45566402 25.417587,6.35999481 C25.4404634,6.39129598 25.4598203,6.42452337 25.4759777,6.45967699 C25.4284653,6.34683227 25.3809528,6.23382703 25.3334404,6.12098232 C25.3558368,6.17828753 25.3699146,6.23077718 25.379993,6.2916138 C25.3631956,6.16576706 25.3462383,6.04024136 25.329441,5.91439462 C25.3339203,5.95500588 25.3339203,5.99577765 25.329441,6.03654943 C25.3462383,5.91086321 25.3631956,5.78517699 25.379993,5.65949077 C25.3700745,5.72032739 25.3558368,5.77265652 25.3334404,5.82996173 C25.3809528,5.71711702 25.4284653,5.60411178 25.4759777,5.49110654 C25.4599803,5.52642068 25.4404634,5.55948755 25.417587,5.59078872 C25.4913353,5.49511951 25.5650836,5.39928979 25.6386719,5.30362059 C25.6010778,5.34985 25.5636438,5.38757192 25.5175711,5.42529384 C25.612916,5.35145519 25.7082608,5.2772955 25.8036057,5.20345685 C25.7725706,5.22625052 25.7394558,5.2456733 25.7042614,5.2618857 L26.0419678,5.11870293 C25.9848569,5.14133608 25.9323852,5.15546173 25.8719148,5.16557442 C25.9970149,5.14855942 26.122435,5.13170495 26.2475351,5.11485048 C26.2070616,5.119345 26.166428,5.119345 26.1259544,5.11485048 C26.2512145,5.13170495 26.3764746,5.14855942 26.5015748,5.16557442 C26.4412643,5.15562225 26.3887927,5.14133608 26.3316818,5.11870293 L26.6693881,5.2618857 C26.6341937,5.2456733 26.6012389,5.22625052 26.5702039,5.20345685 C26.6655487,5.2772955 26.7608936,5.35129467 26.8562384,5.42529384 C26.8101657,5.38757192 26.7725717,5.34985 26.7351376,5.30362059 C26.8088859,5.39928979 26.8826342,5.49511951 26.9562225,5.59078872 C26.9335061,5.55948755 26.9141492,5.52626016 26.8981517,5.49110654 C26.9456642,5.60411178 26.9930167,5.71711702 27.0405291,5.82996173 C27.0181327,5.77265652 27.0040549,5.72016687 26.9939765,5.65949077 C27.0107739,5.78517699 27.0275712,5.91086321 27.0443685,6.03654943 C27.0402092,5.99577765 27.0402092,5.95500588 27.0443685,5.91439462 C27.0275712,6.04008084 27.0107739,6.16576706 26.9939765,6.2916138 C27.0038949,6.23077718 27.0181327,6.17828753 27.0405291,6.12098232 C26.9930167,6.23382703 26.9456642,6.34683227 26.8981517,6.45967699 C26.9139892,6.42452337 26.9335061,6.39129598 26.9562225,6.35999481 C26.8826342,6.45566402 26.8088859,6.55149374 26.7351376,6.64716295 C26.7725717,6.60093353 26.8103257,6.56321161 26.8562384,6.5254897 C26.7608936,6.59932834 26.6655487,6.67348803 26.5702039,6.74732668 C26.6012389,6.72453301 26.6343537,6.70511023 26.6693881,6.68889783 C26.556766,6.73657192 26.4443039,6.784246 26.3316818,6.83192009 C26.3887927,6.80928693 26.4412643,6.79516128 26.5015748,6.78520911 C26.3764746,6.80206359 26.2512145,6.81891806 26.1259544,6.83577254 C26.1461112,6.83464891 26.166428,6.83368579 26.1867448,6.83256216 C26.9559026,6.79082727 27.6002802,6.21889879 27.6002802,5.41421804 C27.6002802,4.67262118 26.9568624,3.95413903 26.1867448,3.99587392 C25.0725218,4.05622899 24.2740887,4.8572178 24.2139382,5.97539177 C24.1856227,6.50398018 24.45486,6.96338498 24.7720896,7.35440878 C25.1061165,7.76565795 25.6842646,7.92794246 26.1865848,7.95507013 C26.7132211,7.98364248 27.1710684,7.71348934 27.5609264,7.39502004 C27.9707813,7.05985678 28.1325156,6.47974184 28.1595513,5.97555228 C28.1878668,5.44712439 27.9186296,4.98755907 27.6014,4.59685631 C27.2672131,4.18544662 26.6892249,4.02316211 26.1865848,3.99587392 C25.4166271,3.95413903 24.7730494,4.6727817 24.7730494,5.41437856 C24.7732094,6.21889879 25.417427,6.79082727 26.1867448,6.83256216" id="Fill-8"></path>
                                <path d="M25.3558368,5.97545597 C25.354717,5.99584186 25.3537571,6.01606723 25.3526373,6.03645312 C25.3694346,5.91092742 25.386232,5.78508068 25.4030293,5.65955497 C25.3932709,5.72023108 25.3790331,5.77272073 25.3564767,5.83002594 C25.4039891,5.7170207 25.4515016,5.60417599 25.4990141,5.49117075 C25.4830166,5.52648489 25.4636597,5.55955176 25.4407833,5.59069241 C25.5143716,5.49518372 25.5881199,5.399354 25.6618682,5.30368479 C25.6242741,5.34991421 25.5866801,5.38763613 25.5406074,5.42519752 C25.6359523,5.35135888 25.7314571,5.27735971 25.826802,5.20352106 C25.7956069,5.22631473 25.7624922,5.24573751 25.7274578,5.26178939 L26.0651641,5.11876713 C26.0080532,5.14140029 25.9557415,5.15552594 25.8952711,5.16547811 C26.0206912,5.14862363 26.1457913,5.13176916 26.2712114,5.11491468 C26.2304178,5.11924869 26.1899443,5.11924869 26.1494707,5.11491468 C26.2745708,5.13176916 26.3998309,5.14862363 26.525251,5.16547811 C26.4647806,5.15568646 26.4123089,5.14123977 26.355198,5.11876713 C26.4676601,5.16644122 26.5804422,5.2141153 26.6929044,5.26178939 C26.6578699,5.24573751 26.6245952,5.22631473 26.5935601,5.20352106 C26.689065,5.27735971 26.7844098,5.35119836 26.8795947,5.42519752 C26.833682,5.38763613 26.7962479,5.34991421 26.7586539,5.30368479 C26.8322422,5.399354 26.9059905,5.49518372 26.9797388,5.59069241 C26.9568624,5.55955176 26.9375055,5.52632437 26.921508,5.49117075 C26.9690205,5.60417599 27.016373,5.7170207 27.0640454,5.83002594 C27.0416489,5.77272073 27.0274112,5.72007056 27.0173328,5.65955497 C27.0341301,5.78508068 27.0510874,5.91092742 27.0680448,6.03645312 C27.0635655,5.99584186 27.0635655,5.95507009 27.0680448,5.91445883 C27.0510874,6.03998453 27.0341301,6.16583127 27.0173328,6.29151749 C27.0274112,6.23084139 27.0416489,6.17835174 27.0640454,6.12088601 C27.016373,6.23389124 26.9690205,6.34673596 26.921508,6.45974119 C26.9373455,6.42442706 26.9568624,6.39119967 26.9797388,6.36005902 C26.9059905,6.45572822 26.8322422,6.55139743 26.7586539,6.64706663 C26.7962479,6.60083722 26.833682,6.56327582 26.8795947,6.5255539 C26.7844098,6.59939255 26.689065,6.67339172 26.5935601,6.74739089 C26.6245952,6.7244367 26.6578699,6.70501392 26.6929044,6.68880152 C26.5804422,6.73647561 26.4676601,6.78414969 26.355198,6.83182377 C26.4123089,6.80935114 26.4646206,6.79506497 26.525251,6.7851128 C26.3998309,6.80196728 26.2745708,6.81898227 26.1494707,6.83583674 C26.1899443,6.83134222 26.2305778,6.83134222 26.2712114,6.83583674 C26.1457913,6.81898227 26.0206912,6.80196728 25.8952711,6.7851128 C25.9559015,6.79506497 26.0080532,6.80935114 26.0651641,6.83182377 C25.952702,6.78414969 25.8400799,6.73647561 25.7274578,6.68880152 C25.7626522,6.7048534 25.7956069,6.7244367 25.826802,6.74739089 C25.7314571,6.67339172 25.6359523,6.59939255 25.5406074,6.5255539 C25.5866801,6.56327582 25.6242741,6.60083722 25.6618682,6.64706663 C25.5881199,6.55139743 25.5143716,6.45572822 25.4407833,6.36005902 C25.4634997,6.39119967 25.4828566,6.42442706 25.4990141,6.45974119 C25.4515016,6.34673596 25.4039891,6.23389124 25.3564767,6.12088601 C25.3790331,6.17819122 25.3931109,6.23084139 25.4030293,6.29151749 C25.386232,6.16583127 25.3694346,6.04014505 25.3526373,5.91445883 C25.3537571,5.93484472 25.354717,5.95507009 25.3558368,5.97545597 C25.3974302,6.74723037 25.9674196,7.3938001 26.7693722,7.3938001 C27.5084548,7.3938001 28.224501,6.74819348 28.1829076,5.97545597 C28.1227572,4.85744253 27.324484,4.05613267 26.2101011,3.99577761 C25.6834647,3.96736578 25.2254575,4.23751892 24.8359194,4.55598822 C24.4259046,4.89115148 24.2643302,5.47126642 24.2372945,5.97545597 C24.208819,6.50388386 24.4780563,6.96344919 24.7954458,7.35431247 C25.1294728,7.76572216 25.7076209,7.92800666 26.2101011,7.95513434 C26.7367374,7.98354617 27.1945846,7.71339303 27.5841228,7.39508425 C27.9941376,7.05976047 28.1557119,6.47964553 28.1827476,5.97561649 C28.224341,5.20287899 27.5082948,4.55727237 26.7692122,4.55727237 C25.9674196,4.55711185 25.3972702,5.20352106 25.3558368,5.97545597" id="Fill-10"></path>
                                <path d="M25.0062124,5.97545597 C25.0057324,5.98316088 25.0054125,5.99070526 25.0049326,5.99824964 C25.0218899,5.87272394 25.0386872,5.7468772 25.0554845,5.6213515 C25.0518051,5.64398465 25.0465259,5.66372846 25.0380473,5.68523798 C25.0855597,5.57223275 25.1332322,5.45922751 25.1807446,5.34638279 C25.1748256,5.35954534 25.1673068,5.3720658 25.1588281,5.38378367 C25.2325764,5.28811447 25.3063247,5.19244526 25.379913,5.09677606 C25.3659952,5.11411209 25.3517574,5.12823774 25.3344802,5.14220288 C25.429825,5.06836423 25.5253299,4.99436506 25.6206747,4.92052642 C25.6089966,4.92903391 25.5965186,4.93625726 25.5834006,4.94235697 C25.6958628,4.89468289 25.8084849,4.84700881 25.920947,4.79933472 C25.8995104,4.80784222 25.8799935,4.81313934 25.8572771,4.81667075 C25.9825372,4.79981628 26.1077973,4.7829618 26.2330574,4.76610733 C26.2178598,4.76771252 26.2026623,4.76771252 26.1874647,4.76610733 C26.3127248,4.7829618 26.4379849,4.79981628 26.563245,4.81667075 C26.5405286,4.81313934 26.5210117,4.8076817 26.4994151,4.79933472 C26.6120372,4.84700881 26.7244993,4.89468289 26.8371214,4.94235697 C26.8238436,4.93625726 26.8115255,4.92903391 26.8000073,4.92052642 C26.8951922,4.99436506 26.9905371,5.06820371 27.0860419,5.14220288 C27.0686047,5.12823774 27.0546869,5.11411209 27.0404491,5.09677606 C27.1143574,5.19244526 27.1879457,5.28811447 27.261694,5.38378367 C27.2530554,5.37222632 27.2458565,5.35954534 27.2399374,5.34638279 C27.2874499,5.45922751 27.3348024,5.57223275 27.3824748,5.68523798 C27.3739961,5.66372846 27.368557,5.64398465 27.3650376,5.6213515 C27.3818349,5.7468772 27.3986322,5.87272394 27.4154296,5.99824964 C27.4136698,5.98300036 27.4136698,5.96775107 27.4154296,5.95250178 C27.3986322,6.07818801 27.3818349,6.20387423 27.3650376,6.32956045 C27.368557,6.30676678 27.3739961,6.28702297 27.3824748,6.26567396 C27.3348024,6.37851868 27.2874499,6.49152392 27.2399374,6.60436863 C27.2458565,6.59120609 27.2530554,6.57868563 27.261694,6.56696775 C27.1879457,6.66263696 27.1143574,6.75846668 27.0404491,6.85397537 C27.0545269,6.83679986 27.0686047,6.8226742 27.0860419,6.80854855 C26.9905371,6.8823872 26.8951922,6.95622584 26.8000073,7.03038553 C26.8115255,7.02187803 26.8240035,7.01433365 26.8371214,7.00839446 L26.4994151,7.15141671 C26.5208517,7.14290921 26.5405286,7.13777261 26.563245,7.13408068 C26.4379849,7.15093515 26.3127248,7.16778962 26.1874647,7.1846441 C26.2026623,7.18303891 26.2180198,7.18303891 26.2330574,7.1846441 C26.1077973,7.16778962 25.9825372,7.15093515 25.8572771,7.13408068 C25.8799935,7.13777261 25.8995104,7.14306973 25.920947,7.15141671 L25.5834006,7.00839446 C25.5965186,7.01433365 25.6089966,7.02187803 25.6206747,7.03038553 C25.5253299,6.95638636 25.429825,6.8823872 25.3344802,6.80854855 C25.3517574,6.82251368 25.3658352,6.83679986 25.379913,6.85397537 C25.3063247,6.75846668 25.2325764,6.66263696 25.1588281,6.56696775 C25.1673068,6.57868563 25.1748256,6.59120609 25.1807446,6.60436863 C25.1332322,6.49152392 25.0855597,6.37851868 25.0380473,6.26567396 C25.0465259,6.28702297 25.0518051,6.30676678 25.0554845,6.32956045 C25.0386872,6.20387423 25.0218899,6.07818801 25.0049326,5.95250178 C25.0054125,5.96020669 25.0057324,5.96775107 25.0062124,5.97545597 C25.0268491,6.35893539 25.1447503,6.70196406 25.4202266,6.97837744 C25.6840247,7.24323346 26.0463671,7.3938001 26.4197478,7.3938001 C26.7932884,7.3938001 27.1554709,7.24323346 27.4194289,6.97837744 C27.6715489,6.72523929 27.85296,6.34015469 27.8332832,5.97545597 C27.8251245,5.82312363 27.8208051,5.65618408 27.7641741,5.51155664 C27.6208369,5.14525274 27.6155578,5.14011614 27.3651975,4.831599 C27.2724123,4.71730961 27.1409132,4.62725857 27.009894,4.55903808 C26.7193802,4.40766885 26.5400486,4.36448929 26.2100211,4.3466717 C26.0614047,4.33848525 25.8907118,4.35967373 25.7475346,4.41601583 C25.3824726,4.56000119 25.3773534,4.56513779 25.0698822,4.81634971 C24.9559803,4.90945062 24.8662346,5.04139707 24.7982454,5.17270145 C24.6473894,5.46420359 24.6043562,5.64430569 24.586599,5.97529545 C24.5784403,6.12441742 24.5997169,6.29569098 24.655708,6.43919479 C24.7992052,6.80549869 24.8043244,6.81063529 25.0546846,7.11915243 C25.1474699,7.23344181 25.278969,7.32365338 25.4098282,7.39187387 C25.7003421,7.54292206 25.8798335,7.58626214 26.2098611,7.60407972 C26.3584775,7.61226618 26.5291704,7.59123822 26.6723476,7.5347356 C27.0372496,7.39091076 27.0426888,7.38577416 27.34984,7.13440171 C27.4637419,7.04146133 27.5536476,6.90935436 27.6216368,6.77804998 C27.7721729,6.48638732 27.815366,6.30660626 27.8331232,5.97529545 C27.8528001,5.61059674 27.6713889,5.22551214 27.4192689,4.97237399 C27.1553109,4.70751797 26.7931284,4.55695133 26.4195878,4.55695133 C26.0462071,4.55695133 25.6840247,4.70751797 25.4200666,4.97237399 C25.1447503,5.24894788 25.0268491,5.59197656 25.0062124,5.97545597" id="Fill-12"></path>
                                <path d="M10.1954616,30.3416962 L29.0894196,30.3416962 L42.2246126,30.3416962 C44.0476829,30.3416962 44.0476829,27.505008 42.2246126,27.505008 L23.3304946,27.505008 L10.1953016,27.505008 C8.37239126,27.505008 8.37239126,30.3416962 10.1954616,30.3416962" id="Fill-14"></path>
                                <path d="M10.1954616,43.0319113 L29.0894196,43.0319113 L42.2246126,43.0319113 C44.0476829,43.0319113 44.0476829,40.1952231 42.2246126,40.1952231 L23.3304946,40.1952231 L10.1953016,40.1952231 C8.37239126,40.1952231 8.37239126,43.0319113 10.1954616,43.0319113" id="Fill-16"></path>
                                <path d="M10.1954616,55.7221424 L17.0546918,55.7221424 C18.8777621,55.7221424 18.8777621,52.8854542 17.0546918,52.8854542 L10.1954616,52.8854542 C8.37239126,52.8854542 8.37239126,55.7221424 10.1954616,55.7221424" id="Fill-18"></path>
                                <path d="M41.2251394,48.9085688 C37.3513549,52.7956921 33.4772504,56.6831364 29.6033059,60.5702597 L31.6023483,60.5702597 C29.8208714,58.7827223 28.0392344,56.9948639 26.2575975,55.2073265 C24.9672425,53.9129029 22.9682002,55.9187459 24.2583952,57.21333 C26.0400321,59.0008674 27.821669,60.7887258 29.6033059,62.5762631 C30.1478594,63.1226691 31.0577948,63.1226691 31.6023483,62.5762631 C35.4762928,58.6891399 39.3503972,54.8016955 43.2243417,50.9145723 C44.5142168,49.6199881 42.5153344,47.6139847 41.2251394,48.9085688" id="Fill-20"></path>
                            </g>
                        </g>
                    </g>
                </g>
            </g>
        </g>
    </g>
</svg>