<svg width="40" height="71" xmlns="http://www.w3.org/2000/svg"><title>Group 2</title><g fill="#3E4042" fill-rule="evenodd"><path d="M35.217 0H4.783C2.145 0 0 2.11 0 4.705v61.59C0 68.89 2.145 71 4.783 71h30.434C37.854 71 40 68.889 40 66.295V4.705C40 2.11 37.854 0 35.217 0zM4.783 2.566h30.434c1.2 0 2.174.96 2.174 2.139v3.85H2.61v-3.85c0-1.179.975-2.139 2.174-2.139zM37.39 11.12v44.482H2.61V11.12h34.78zm-2.174 57.314H4.783c-1.199 0-2.174-.96-2.174-2.139V58.17H37.39v8.126c0 1.18-.974 2.139-2.174 2.139z"/><path d="M20.363 59.167c-2.278 0-4.13 1.823-4.13 4.063 0 2.24 1.852 4.063 4.13 4.063 2.277 0 4.13-1.822 4.13-4.063 0-2.24-1.853-4.063-4.13-4.063zm0 5.56c-.84 0-1.522-.671-1.522-1.497 0-.825.682-1.497 1.522-1.497a1.51 1.51 0 0 1 1.521 1.497 1.51 1.51 0 0 1-1.521 1.497zm-5.58-57.884h10.434c.72 0 1.305-.574 1.305-1.283s-.585-1.283-1.305-1.283H14.783c-.721 0-1.305.574-1.305 1.283 0 .71.584 1.283 1.305 1.283z"/><ellipse cx="10.888" cy="5.578" rx="1.296" ry="1.275"/></g></svg>