<svg width="61" height="70" viewBox="0 0 61 70" xmlns="http://www.w3.org/2000/svg"><title>Group 3</title><path d="M26.622 54.78l-.07-.001c-1.347-.062-1.691-1.31-2.055-2.631-.524-1.903-1.4-5.088-4.46-8.485-5.29-5.882-6.846-14.236-3.872-20.788 2.661-5.862 8.53-9.224 16.1-9.224 7.571 0 13.44 3.362 16.101 9.224 2.974 6.552 1.42 14.906-3.872 20.788-3.427 3.808-5.164 6.084-5.164 6.765 0 .64-.434 1.2-1.06 1.369-11.039 2.957-11.408 2.984-11.648 2.984zm5.645-38.294c-6.486 0-11.275 2.681-13.486 7.55-2.52 5.551-1.155 12.682 3.399 17.742 3.508 3.899 4.533 7.626 5.084 9.628.028.106.06.22.091.332 1.896-.478 6.14-1.6 9.306-2.447.46-1.325 1.875-3.269 5.693-7.513 4.554-5.06 5.92-12.19 3.398-17.742-2.21-4.869-7-7.55-13.485-7.55zm-.361 53.12a1.43 1.43 0 0 1-1.387-1.068 1.417 1.417 0 0 1 1.035-1.724l7.095-1.783a1.439 1.439 0 0 1 1.743 1.024c.195.758-.27 1.53-1.036 1.723l-7.095 1.784a1.494 1.494 0 0 1-.355.044zm-5.539-6.519a1.43 1.43 0 0 1-1.385-1.06c-.2-.759.26-1.532 1.026-1.728l12.633-3.243a1.429 1.429 0 0 1 1.748 1.015 1.414 1.414 0 0 1-1.027 1.727L26.73 63.041a1.46 1.46 0 0 1-.362.046zm0 4.039a1.43 1.43 0 0 1-1.385-1.061c-.2-.758.26-1.531 1.026-1.727l12.633-3.243a1.43 1.43 0 0 1 1.748 1.014 1.414 1.414 0 0 1-1.027 1.728L26.73 67.079a1.417 1.417 0 0 1-.362.047zm0-8.077a1.43 1.43 0 0 1-1.385-1.061c-.2-.758.26-1.531 1.026-1.727l12.633-3.243a1.428 1.428 0 0 1 1.748 1.014 1.414 1.414 0 0 1-1.027 1.728L26.73 59.002a1.417 1.417 0 0 1-.362.047zM8.145 33.521H2.29a1.425 1.425 0 0 1-1.434-1.417c0-.783.643-1.417 1.434-1.417h5.855c.792 0 1.433.634 1.433 1.417s-.643 1.417-1.433 1.417zm3.272-12.081c-.244 0-.49-.06-.716-.19l-5.07-2.895a1.408 1.408 0 0 1-.523-1.936 1.444 1.444 0 0 1 1.958-.518l5.07 2.895c.685.39.92 1.257.524 1.936a1.437 1.437 0 0 1-1.243.708zm8.948-8.844a1.44 1.44 0 0 1-1.243-.709l-2.928-5.012a1.41 1.41 0 0 1 .524-1.936 1.444 1.444 0 0 1 1.959.518l2.928 5.012a1.41 1.41 0 0 1-.524 1.936c-.226.13-.472.19-.716.19zm12.22-3.238a1.425 1.425 0 0 1-1.434-1.417V2.154c0-.783.643-1.417 1.434-1.417.79 0 1.433.634 1.433 1.417V7.94c0 .783-.641 1.417-1.433 1.417zm12.219 3.239c-.244 0-.49-.062-.715-.19a1.408 1.408 0 0 1-.524-1.937l2.928-5.012a1.444 1.444 0 0 1 1.958-.518c.686.39.92 1.258.524 1.936l-2.928 5.012a1.44 1.44 0 0 1-1.242.709zm8.949 8.845a1.44 1.44 0 0 1-1.243-.71 1.41 1.41 0 0 1 .524-1.935l5.07-2.895a1.444 1.444 0 0 1 1.958.518 1.41 1.41 0 0 1-.524 1.936l-5.07 2.895c-.225.13-.472.19-.715.19zM58.82 48.5c-.244 0-.49-.062-.715-.191l-5.07-2.895a1.408 1.408 0 0 1-.524-1.936 1.442 1.442 0 0 1 1.959-.518l5.07 2.894a1.41 1.41 0 0 1 .523 1.937 1.438 1.438 0 0 1-1.243.708zm-52.47-.003a1.44 1.44 0 0 1-1.243-.709 1.41 1.41 0 0 1 .524-1.936l5.07-2.895a1.443 1.443 0 0 1 1.958.518 1.41 1.41 0 0 1-.524 1.937l-5.07 2.894c-.225.13-.472.191-.716.191z" fill="#3E4042" fill-rule="evenodd"/></svg>