<svg width="47" height="71" viewBox="0 0 47 71" xmlns="http://www.w3.org/2000/svg"><title>pencil</title><path d="M18.977 67.83a.91.91 0 0 0-1.24.328.498.498 0 0 1-.428.245.502.502 0 0 1-.427-.247 2.323 2.323 0 0 0-1.998-1.14c-.817 0-1.582.436-1.996 1.139a.504.504 0 0 1-.43.248.505.505 0 0 1-.43-.246 2.32 2.32 0 0 0-3.993-.003.502.502 0 0 1-.43.249.505.505 0 0 1-.428-.243 2.315 2.315 0 0 0-2-1.144c-.816 0-1.58.435-1.995 1.138a.494.494 0 1 1-.858.001.914.914 0 0 0-1.242-.325.897.897 0 0 0-.326 1.233 2.325 2.325 0 0 0 1.997 1.14 2.33 2.33 0 0 0 1.996-1.14c.13-.223.66-.34.858 0a2.329 2.329 0 0 0 1.998 1.14c.817 0 1.581-.436 1.997-1.14a.492.492 0 1 1 .856-.001 2.324 2.324 0 0 0 1.998 1.141c.818 0 1.583-.436 1.998-1.14a.503.503 0 0 1 .428-.247c.178 0 .337.092.428.246a2.321 2.321 0 0 0 1.997 1.141c.821 0 1.587-.438 2-1.143a.894.894 0 0 0-.33-1.23zM40.552 2.116l-3.427-.939a7.66 7.66 0 0 0-5.817.716 7.555 7.555 0 0 0-3.603 4.587 1.54 1.54 0 0 0-.053.344 1.52 1.52 0 0 0-.135.327L15.492 50.386l-.001.003-.002.006c-.006.02-.006.038-.01.057-.02.082-.036.165-.043.25-.004.053.001.106.002.158.002.051 0 .101.005.152a1.6 1.6 0 0 0 .06.266c.004.013.004.025.008.038l.001.004a.02.02 0 0 1 .002.008l4.424 13.294a1.598 1.598 0 0 0 1.52 1.092c.381 0 .755-.134 1.05-.388l10.676-9.17c.097-.083.177-.177.249-.276.017-.023.03-.049.046-.073.084-.13.153-.27.194-.415.002-.006.007-.01.008-.015l12.028-43.244a1.59 1.59 0 0 0 .052-.383c.049-.094.107-.183.136-.29 1.123-4.04-1.276-8.231-5.345-9.344zM32.89 4.658a4.454 4.454 0 0 1 3.382-.416l3.429.939a4.423 4.423 0 0 1 2.688 2.078c.553.966.701 2.078.456 3.154L30.869 7.135a4.376 4.376 0 0 1 2.02-2.477zm-2.524 4.207l12.014 3.289L30.833 53.66 18.82 50.373 30.365 8.865zm-6.368 50.977l-2.502-.684-2.263-6.803 10.224 2.8-5.46 4.687zm-1.818 1.372l.168.045-.118.103-.05-.148z" fill="#3E4042" fill-rule="evenodd"/></svg>