<svg width="74" height="59" viewBox="0 0 74 59" xmlns="http://www.w3.org/2000/svg"><title>imac</title><g fill="#3E4042" fill-rule="evenodd"><path d="M70.094.932H3.906C1.747.932 0 2.692 0 4.865v42.749c0 2.174 1.747 3.933 3.906 3.933h25.386a1.27 1.27 0 0 1-.206.31c-.411.518-.514.622-1.028 1.036-.616.518-1.439 1.242-3.083 2.898-.72.725-.822 1.45-.72 1.863.206.828.926 1.242 1.028 1.242l.206.104h22.817c.513 0 1.233-.31 1.438-.932.206-.517.206-1.242-.719-2.277-1.747-1.76-2.57-2.484-3.083-2.898-.514-.414-.72-.621-1.028-1.139 0 0-.103-.103-.206-.31h25.386c2.159 0 3.906-1.76 3.906-3.933V4.865C74 2.69 72.253.932 70.094.932zM43.27 53.1c.514.725.823.932 1.337 1.45.513.413 1.233 1.138 2.672 2.483H26.722c1.44-1.449 2.159-2.07 2.672-2.484.514-.414.823-.724 1.337-1.449.102-.104.308-.414.822-1.553h10.894c.514 1.139.72 1.45.822 1.553zm28.675-5.486a1.849 1.849 0 0 1-1.85 1.863H3.906a1.849 1.849 0 0 1-1.85-1.863V4.864c0-1.034.822-1.862 1.85-1.862h66.086a1.85 1.85 0 0 1 1.85 1.863v42.749h.102z"/><path d="M68.758 4.761H5.242c-.617 0-1.028.414-1.028 1.035v36.436c0 .62.411 1.035 1.028 1.035h63.516c.617 0 1.028-.414 1.028-1.035V5.796c0-.62-.411-1.035-1.028-1.035zm-1.027 36.435H6.269V6.832h61.462v34.364z"/><ellipse cx="37" cy="45.958" rx="1.542" ry="1.553"/><path d="M47.586 26.912c.206 0 .514-.103.72-.31l14.388-12.835c.412-.414.514-1.035.103-1.45-.41-.413-1.028-.517-1.439-.103L46.97 25.049c-.41.414-.513 1.035-.102 1.45.205.31.41.413.72.413zm13.772-7.349l-7.914 7.039c-.41.414-.513 1.035-.102 1.449.205.207.514.31.72.31.205 0 .513-.103.719-.31l7.913-7.039c.412-.414.514-1.035.103-1.449a.989.989 0 0 0-1.439 0z"/></g></svg>