<svg width="77" height="59" viewBox="0 0 77 59" xmlns="http://www.w3.org/2000/svg" xmlns:xlink="http://www.w3.org/1999/xlink"><title>delivery-car</title><defs><rect id="a" x="9.088" y="12.4" width="45.639" height="38.4" rx="3.3"/><mask id="d" x="0" y="0" width="45.639" height="38.4" fill="#fff"><use xlink:href="#a"/></mask><path d="M52.53 21.6h13.083c1.819 0 3.878 1.357 4.601 3.037L75 35.756v11.742a3.297 3.297 0 0 1-3.291 3.302H52.53V21.6z" id="b"/><mask id="e" x="0" y="0" width="22.47" height="29.2" fill="#fff"><use xlink:href="#b"/></mask><path d="M57.823 28.712c0-.725.592-1.312 1.317-1.312h4.456c.728 0 1.507.56 1.74 1.248l2.781 8.204c.234.69-.168 1.248-.89 1.248h-8.09c-.726 0-1.314-.59-1.314-1.312v-8.076z" id="c"/><mask id="f" x="0" y="0" width="10.361" height="10.7" fill="#fff"><use xlink:href="#c"/></mask></defs><g transform="translate(2 2)" fill="none" fill-rule="evenodd"><use stroke="#3E4042" mask="url(#d)" stroke-width="4.4" xlink:href="#a"/><ellipse stroke="#3E4042" stroke-width="2.2" fill="#FFF" cx="23.119" cy="50.05" rx="4.943" ry="4.95"/><use stroke="#3E4042" mask="url(#e)" stroke-width="4.4" xlink:href="#b"/><use stroke="#3E4042" mask="url(#f)" stroke-width="4.4" xlink:href="#c"/><ellipse stroke="#3E4042" stroke-width="2.2" fill="#FFF" cx="16.578" cy="16.6" rx="16.578" ry="16.6"/><ellipse stroke="#3E4042" stroke-width="2.2" fill="#FFF" cx="63.865" cy="50.05" rx="4.943" ry="4.95"/><path d="M45.773 27.811h-7.849c-.64 0-1.176.536-1.176 1.178 0 .643.535 1.179 1.176 1.179h7.849a1.19 1.19 0 0 0 1.177-1.179c0-.642-.536-1.178-1.177-1.178m0 7.765H23.117c-.642 0-1.177.536-1.177 1.178 0 .642.535 1.178 1.176 1.178h22.657c.641 0 1.177-.536 1.177-1.178 0-.642-.536-1.178-1.177-1.178" fill="#000"/><path stroke="#3E4042" stroke-width="2.2" stroke-linecap="round" stroke-linejoin="round" d="M16.607 7.962v7.828l7.473 8.338"/><circle fill="#000" cx="23" cy="50" r="1"/><circle fill="#000" cx="64" cy="50" r="1"/></g></svg>