<svg width="44" height="42" viewBox="0 0 44 42" xmlns="http://www.w3.org/2000/svg"><title>cycle</title><path d="M22 .488C12.855.488 4.435 6.7 1.986 15.857c-.132.495.192 1.074.688 1.206.496.131 1.075-.207 1.207-.703C6.097 8.07 13.744 2.442 22 2.442c8.63 0 15.485 5.915 17.63 12.133l-6.554-2.32a.98.98 0 0 0-1.281 1.108.98.98 0 0 0 .64.739l8.31 2.93a.979.979 0 0 0 1.284-.763l1.467-9.28a.976.976 0 0 0-1.115-1.144.977.977 0 0 0-.81.84l-.856 5.372C37.697 5.763 30.66.488 22 .488zM2.78 24.907a.977.977 0 0 0-.81.824l-1.466 9.28a.976.976 0 0 0 1.325 1.133.977.977 0 0 0 .6-.829l.856-5.387C6.299 36.23 13.335 41.512 22 41.512c9.145 0 17.565-6.227 20.014-15.384.132-.496-.207-1.059-.703-1.19-.496-.132-1.06.19-1.192.686-2.216 8.29-9.863 13.934-18.119 13.934-8.636 0-15.49-5.923-17.63-12.148l6.554 2.32a.98.98 0 0 0 1.281-1.108.978.978 0 0 0-.64-.739l-8.31-2.93a.979.979 0 0 0-.474-.046z" fill="#F9C21B" fill-rule="evenodd"/></svg>