<svg width="59" height="41" viewBox="0 0 59 41" xmlns="http://www.w3.org/2000/svg"><title>Mappa</title><g fill="#3E4042" fill-rule="evenodd"><path d="M58.21 10.672c-.183-.241-.487-.422-.791-.422h-8.273V4.22c0-2.29-1.885-4.22-4.257-4.22H31.446a.785.785 0 0 0-.608.241L26.52 3.86H4.38C2.068 3.86.122 5.729.122 8.08v31.595c0 .542.425.964.973.964h47.078c.426 0 .79-.24.913-.663l9.245-28.52c.122-.18.06-.542-.122-.783zM4.38 5.85h22.444c.243 0 .425-.06.608-.242l4.319-3.617h13.077a2.3 2.3 0 0 1 2.311 2.29v6.03H10.036a.988.988 0 0 0-.912.664l-.852 2.773H3.954L2.068 27.434V8.14a2.3 2.3 0 0 1 2.311-2.291zm3.406 9.888L3.893 28.7l1.764-12.963h2.129zM47.443 38.77H2.86l7.968-26.53H56.08l-8.637 26.53z"/><path d="M34.792 16.159c0 .542.426.965.973.965h14.72a.957.957 0 0 0 .973-.965.957.957 0 0 0-.973-.965h-14.72c-.547.06-.973.482-.973.965zm13.928 3.497H37.53a.957.957 0 0 0-.973.965c0 .542.425.964.973.964h11.13a.957.957 0 0 0 .974-.964c.06-.543-.426-.965-.912-.965zm-1.946 4.16h-5.596a.957.957 0 0 0-.973.965c0 .543.426.965.973.965h5.596a.957.957 0 0 0 .973-.965.957.957 0 0 0-.973-.965z"/></g></svg>