<?xml version="1.0" encoding="UTF-8"?>
<svg width="59px" height="41px" viewBox="0 0 59 41" version="1.1" xmlns="http://www.w3.org/2000/svg" xmlns:xlink="http://www.w3.org/1999/xlink">
    <!-- Generator: Sketch 40.3 (33839) - http://www.bohemiancoding.com/sketch -->
    <title>Mappa</title>
    <desc>Created with Sketch.</desc>
    <defs></defs>
    <g id="Page-1" stroke="none" stroke-width="1" fill="none" fill-rule="evenodd">
        <g id="Landing-page-v4-Copy" transform="translate(-671.000000, -1850.000000)" fill="#3E4042">
            <g id="2---Ajanlatunk" transform="translate(200.000000, 1566.000000)">
                <g id="Mappa" transform="translate(350.000000, 218.000000)">
                    <g id="Group" transform="translate(112.000000, 66.000000)">
                        <g id="Mappa" transform="translate(9.000000, 0.000000)">
                            <path d="M58.2092784,10.6720588 C58.0268041,10.4308824 57.7226804,10.25 57.4185567,10.25 L57.4185567,10.25 L49.1463918,10.25 L49.1463918,4.22058824 C49.1463918,1.92941176 47.2608247,0 44.8886598,0 L31.4463918,0 C31.2030928,0 31.0206186,0.0602941176 30.8381443,0.241176471 L26.5195876,3.85882353 L4.37938144,3.85882353 C2.06804124,3.85882353 0.121649485,5.72794118 0.121649485,8.07941176 L0.121649485,39.6735294 C0.121649485,40.2161765 0.54742268,40.6382353 1.09484536,40.6382353 L48.1731959,40.6382353 C48.5989691,40.6382353 48.9639175,40.3970588 49.085567,39.975 L58.3309278,11.4558824 C58.4525773,11.275 58.3917526,10.9132353 58.2092784,10.6720588 L58.2092784,10.6720588 Z M4.37938144,5.84852941 L26.8237113,5.84852941 C27.0670103,5.84852941 27.2494845,5.78823529 27.4319588,5.60735294 L31.7505155,1.98970588 L44.8278351,1.98970588 C46.1051546,1.98970588 47.1391753,3.01470588 47.1391753,4.28088235 L47.1391753,10.3102941 L10.0360825,10.3102941 C9.61030928,10.3102941 9.24536082,10.6117647 9.12371134,10.9735294 L8.27216495,13.7470588 L3.95360825,13.7470588 L2.06804124,27.4338235 L2.06804124,8.13970588 C2.06804124,6.87352941 3.10206186,5.84852941 4.37938144,5.84852941 L4.37938144,5.84852941 Z M7.78556701,15.7367647 L3.89278351,28.7 L5.65670103,15.7367647 L7.78556701,15.7367647 L7.78556701,15.7367647 Z M47.443299,38.7691176 L2.85876289,38.7691176 L10.8268041,12.2397059 L48.1731959,12.2397059 L48.1731959,12.2397059 L56.0804124,12.2397059 L47.443299,38.7691176 L47.443299,38.7691176 Z" id="Shape"></path>
                            <path d="M34.7917526,16.1588235 C34.7917526,16.7014706 35.2175258,17.1235294 35.7649485,17.1235294 L50.4845361,17.1235294 C51.0319588,17.1235294 51.457732,16.7014706 51.457732,16.1588235 C51.457732,15.6161765 51.0319588,15.1941176 50.4845361,15.1941176 L35.7649485,15.1941176 C35.2175258,15.2544118 34.7917526,15.6764706 34.7917526,16.1588235 L34.7917526,16.1588235 Z" id="Shape"></path>
                            <path d="M48.7206186,19.6558824 L37.528866,19.6558824 C36.9814433,19.6558824 36.5556701,20.0779412 36.5556701,20.6205882 C36.5556701,21.1632353 36.9814433,21.5852941 37.528866,21.5852941 L48.6597938,21.5852941 C49.2072165,21.5852941 49.6329897,21.1632353 49.6329897,20.6205882 C49.6938144,20.0779412 49.2072165,19.6558824 48.7206186,19.6558824 L48.7206186,19.6558824 Z" id="Shape"></path>
                            <path d="M46.7742268,23.8161765 L41.1783505,23.8161765 C40.6309278,23.8161765 40.2051546,24.2382353 40.2051546,24.7808824 C40.2051546,25.3235294 40.6309278,25.7455882 41.1783505,25.7455882 L46.7742268,25.7455882 C47.3216495,25.7455882 47.7474227,25.3235294 47.7474227,24.7808824 C47.7474227,24.2382353 47.3216495,23.8161765 46.7742268,23.8161765 L46.7742268,23.8161765 Z" id="Shape"></path>
                        </g>
                    </g>
                </g>
            </g>
        </g>
    </g>
</svg>