<svg width="65" height="48" viewBox="0 0 65 48" xmlns="http://www.w3.org/2000/svg"><title>kiadvany icon</title><g fill="none" fill-rule="evenodd"><path d="M50 36h-7.76l2.315 6.905c.355 1.06-.257 1.905-1.362 1.905H31.146c-.895 0-1.458-.547-1.462-1.305l-12.02 3.634-15.968-5.055V14.818L15 19.06V5.996A5.001 5.001 0 0 1 20.005 1h33.99A5.004 5.004 0 0 1 59 5.996V23h2.994c1.108 0 2.006.897 2.006 2.005v19.99A2.005 2.005 0 0 1 61.994 47h-9.988A2.005 2.005 0 0 1 50 44.995V36z" stroke="#3E4042" stroke-width="1.5"/><path fill="#3E4042" d="M20 5h2v2h-2zm4 0h2v2h-2zm4 0h2v2h-2z"/><path d="M33.733 28.75h16.49" stroke="#3E4042" stroke-width="1.5"/><path d="M39.313 17.212l4.242-4.242m2.829-2.829l2.828-2.828m2.828 2.828l-4.242 4.243m-3.182 3.182l-2.475 2.475m15.281 11.58l-3.182 3.182m5.182-.182l-3.182 3.182M51.5 27.75h11m-11 14h11" stroke="#3E4042" stroke-width="1.5" stroke-linecap="square"/><path stroke="#3E4042" stroke-width="1.503" stroke-linecap="round" stroke-linejoin="round" d="M1.696 14.818v27.266l15.967 5.055 16.152-4.883V14.63l-15.876 5.367z"/><path d="M22.098 39.97a.787.787 0 0 1-.239-1.543l7.274-2.242a.803.803 0 0 1 1.003.519.787.787 0 0 1-.525.989l-7.275 2.24a.808.808 0 0 1-.238.036zm-8.888 0a.813.813 0 0 1-.24-.037l-7.273-2.24a.788.788 0 0 1-.526-.99.802.802 0 0 1 1.003-.518l7.274 2.24a.788.788 0 0 1-.238 1.544zm8.888-4.532a.788.788 0 0 1-.239-1.543l7.274-2.24a.803.803 0 0 1 1.003.518.788.788 0 0 1-.525.989l-7.275 2.24a.808.808 0 0 1-.238.036zm-8.888 0a.813.813 0 0 1-.24-.036l-7.273-2.24a.788.788 0 0 1-.526-.99.803.803 0 0 1 1.003-.518l7.274 2.24a.788.788 0 0 1-.238 1.544zm8.888-4.532a.788.788 0 0 1-.239-1.543l7.274-2.24a.802.802 0 0 1 1.003.518.788.788 0 0 1-.525.99l-7.275 2.24a.808.808 0 0 1-.238.035zm-8.888 0a.813.813 0 0 1-.24-.036l-7.273-2.24a.788.788 0 0 1-.526-.989.802.802 0 0 1 1.003-.518l7.274 2.24a.788.788 0 0 1-.238 1.543zm8.888-4.531a.787.787 0 0 1-.239-1.543l7.274-2.24a.802.802 0 0 1 1.003.518.787.787 0 0 1-.525.989l-7.275 2.24a.808.808 0 0 1-.238.036zm-8.888 0a.813.813 0 0 1-.24-.036L5.698 24.1a.788.788 0 0 1-.526-.99.803.803 0 0 1 1.003-.518l7.274 2.24a.788.788 0 0 1-.238 1.544z" fill="#3E4042"/><path d="M17.852 19.924v27.148" stroke="#3E4042" stroke-width="1.503"/><path d="M59.014 23.005h-6.989c-1.1 0-1.993.898-1.993 1.998V36.07M43 36h-9" stroke="#3E4042" stroke-width="1.5"/></g></svg>