<?xml version="1.0" encoding="UTF-8"?>
<svg width="64px" height="47px" viewBox="0 0 64 47" version="1.1" xmlns="http://www.w3.org/2000/svg" xmlns:xlink="http://www.w3.org/1999/xlink">
    <!-- Generator: Sketch 40.3 (33839) - http://www.bohemiancoding.com/sketch -->
    <title>kiadvany icon</title>
    <desc>Created with Sketch.</desc>
    <defs>
        <rect id="path-1" x="0" y="0" width="44" height="35" rx="5"></rect>
        <mask id="mask-2" maskContentUnits="userSpaceOnUse" maskUnits="objectBoundingBox" x="0" y="0" width="44" height="35" fill="white">
            <use xlink:href="#path-1"></use>
        </mask>
        <rect id="path-3" x="0" y="0" width="14" height="24" rx="2"></rect>
        <mask id="mask-4" maskContentUnits="userSpaceOnUse" maskUnits="objectBoundingBox" x="0" y="0" width="14" height="24" fill="white">
            <use xlink:href="#path-3"></use>
        </mask>
    </defs>
    <g id="Page-1" stroke="none" stroke-width="1" fill="none" fill-rule="evenodd">
        <g id="Landing-page-v4-Copy" transform="translate(-317.000000, -1861.000000)">
            <g id="2---Ajanlatunk" transform="translate(200.000000, 1566.000000)">
                <g id="kiadvany" transform="translate(93.000000, 295.000000)">
                    <g id="kiadvany-icon" transform="translate(25.000000, 0.000000)">
                        <g id="imac" transform="translate(14.000000, 0.000000)">
                            <path d="M17.3566895,34.2841797 L14.7845558,41.9166622 C14.4321587,42.9623561 15.0320713,43.8100586 16.146341,43.8100586 L28.1931366,43.8100586 C29.2976269,43.8100586 29.9096363,42.9647004 29.5545175,41.9052496 L27,34.2841797 L17.3566895,34.2841797 Z" id="Path-7" stroke="#3E4042" stroke-width="1.5"></path>
                            <path d="M16.5,40.75 L28.5,40.75" id="Line" stroke="#3E4042" stroke-width="1.5" stroke-linecap="square"></path>
                            <use id="Rectangle-13" stroke="#3E4042" mask="url(#mask-2)" stroke-width="3" fill="#FFFFFF" xlink:href="#path-1"></use>
                            <rect id="Rectangle-14" fill="#3E4042" x="5" y="4" width="2" height="2"></rect>
                            <rect id="Rectangle-14-Copy" fill="#3E4042" x="9" y="4" width="2" height="2"></rect>
                            <rect id="Rectangle-14-Copy-2" fill="#3E4042" x="13" y="4" width="2" height="2"></rect>
                            <path d="M0.733398438,27.75 L43.2219915,27.75" id="Path-6" stroke="#3E4042" stroke-width="1.5"></path>
                            <g id="lines" transform="translate(30.500000, 12.500000) rotate(-45.000000) translate(-30.500000, -12.500000) translate(23.000000, 9.000000)" stroke="#3E4042" stroke-width="1.5" stroke-linecap="square">
                                <path d="M0.5,1.75 L6.5,1.75" id="Line"></path>
                                <path d="M10.5,1.75 L14.5,1.75" id="Line-Copy-4"></path>
                                <path d="M8.5,5.75 L14.5,5.75" id="Line-Copy-6" transform="translate(11.500000, 5.750000) scale(-1, -1) translate(-11.500000, -5.750000) "></path>
                                <path d="M0.5,5.75 L4,5.75" id="Line-Copy-5" transform="translate(2.250000, 5.750000) scale(-1, -1) translate(-2.250000, -5.750000) "></path>
                            </g>
                        </g>
                        <g id="note" transform="translate(0.000000, 13.000000)">
                            <polygon id="Path-4" stroke="#3E4042" stroke-width="1.5030487" stroke-linecap="round" stroke-linejoin="round" fill="#FFFFFF" points="0.695667006 0.81774964 0.695667006 28.0839998 16.6634689 33.1393041 32.8149119 28.2558055 32.8149119 0.629604751 16.9394916 5.99695238"></polygon>
                            <path d="M21.0978353,25.969305 C20.7566949,25.969305 20.4407797,25.7529381 20.3334726,25.4149636 C20.2017412,24.9988128 20.4367757,24.5558136 20.8591972,24.4259145 L28.1332557,22.1852542 C28.5556772,22.0553552 29.0045251,22.2875152 29.1362566,22.703666 C29.267988,23.1198168 29.0329535,23.5628161 28.610532,23.6927152 L21.3364735,25.9333754 C21.2571943,25.9578549 21.176714,25.969305 21.0978353,25.969305 L21.0978353,25.969305 Z" id="Shape" fill="#3E4042"></path>
                            <path d="M12.2097663,25.969305 C12.1308876,25.969305 12.0504072,25.9578549 11.9707277,25.9333754 L4.69666924,23.6927152 C4.27424772,23.5624213 4.03921318,23.1198168 4.17094463,22.703666 C4.30307648,22.2871204 4.75192437,22.0541707 5.17394549,22.1852542 L12.448004,24.4259145 C12.8704255,24.5562084 13.10546,24.9988128 12.9737286,25.4149636 C12.8668219,25.7529381 12.5509067,25.969305 12.2097663,25.969305 L12.2097663,25.969305 Z" id="Shape" fill="#3E4042"></path>
                            <path d="M21.0978353,21.437841 C20.7566949,21.437841 20.4407797,21.2214742 20.3334726,20.8834997 C20.2017412,20.4673489 20.4371761,20.0243496 20.8591972,19.8944505 L28.1332557,17.6541851 C28.5556772,17.5238912 29.0045251,17.7564461 29.1362566,18.1725969 C29.267988,18.5887477 29.0325531,19.031747 28.610532,19.1616461 L21.3364735,21.4019115 C21.2571943,21.426391 21.176714,21.437841 21.0978353,21.437841 L21.0978353,21.437841 Z" id="Shape" fill="#3E4042"></path>
                            <path d="M12.2097663,21.437841 C12.1308876,21.437841 12.0504072,21.426391 11.9707277,21.4019115 L4.69666924,19.1616461 C4.27464812,19.0313522 4.03921318,18.5887477 4.17094463,18.1725969 C4.30307648,17.7560513 4.75192437,17.5238912 5.17394549,17.6541851 L12.448004,19.8944505 C12.8700251,20.0247444 13.10546,20.4673489 12.9737286,20.8834997 C12.8668219,21.2214742 12.5509067,21.437841 12.2097663,21.437841 L12.2097663,21.437841 Z" id="Shape" fill="#3E4042"></path>
                            <path d="M21.0978353,16.9063771 C20.7566949,16.9063771 20.4407797,16.6900102 20.3334726,16.3520358 C20.2017412,15.9358849 20.4371761,15.4928857 20.8591972,15.3629866 L28.1332557,13.1227212 C28.5556772,12.9920324 29.0045251,13.2249821 29.1362566,13.641133 C29.267988,14.0572838 29.0325531,14.5002831 28.610532,14.6301821 L21.3364735,16.8704476 C21.2571943,16.894927 21.176714,16.9063771 21.0978353,16.9063771 L21.0978353,16.9063771 Z" id="Shape" fill="#3E4042"></path>
                            <path d="M12.2097663,16.9063771 C12.1308876,16.9063771 12.0504072,16.894927 11.9707277,16.8704476 L4.69666924,14.6301821 C4.27464812,14.4998882 4.03921318,14.0572838 4.17094463,13.641133 C4.30307648,13.2245873 4.75192437,12.9920324 5.17394549,13.1227212 L12.448004,15.3629866 C12.8700251,15.4932805 13.10546,15.9358849 12.9737286,16.3520358 C12.8668219,16.6900102 12.5509067,16.9063771 12.2097663,16.9063771 L12.2097663,16.9063771 Z" id="Shape" fill="#3E4042"></path>
                            <path d="M21.0978353,12.375308 C20.7566949,12.375308 20.4407797,12.1589411 20.3334726,11.8209667 C20.2017412,11.4048158 20.4367757,10.9618166 20.8591972,10.8319175 L28.1332557,8.59125724 C28.5556772,8.46056851 29.0045251,8.69351821 29.1362566,9.10966903 C29.267988,9.52581985 29.0329535,9.96881911 28.610532,10.0987182 L21.3364735,12.3393784 C21.2571943,12.3638579 21.176714,12.375308 21.0978353,12.375308 L21.0978353,12.375308 Z" id="Shape" fill="#3E4042"></path>
                            <path d="M12.2097663,12.375308 C12.1308876,12.375308 12.0504072,12.3638579 11.9707277,12.3393784 L4.69666924,10.0987182 C4.27424772,9.96842428 4.03921318,9.52581985 4.17094463,9.10966903 C4.30307648,8.69351821 4.75192437,8.46056851 5.17394549,8.59125724 L12.448004,10.8319175 C12.8704255,10.9622114 13.10546,11.4048158 12.9737286,11.8209667 C12.8668219,12.1585463 12.5509067,12.375308 12.2097663,12.375308 L12.2097663,12.375308 Z" id="Shape" fill="#3E4042"></path>
                            <path d="M16.8515982,5.92393902 L16.8515982,33.0721472" id="Path-5" stroke="#3E4042" stroke-width="1.5030487"></path>
                        </g>
                        <g id="iphone" transform="translate(49.000000, 22.000000)" stroke="#3E4042">
                            <use id="Rectangle-15" mask="url(#mask-4)" stroke-width="3" fill="#FFFFFF" xlink:href="#path-3"></use>
                            <path d="M7.42157288,8.62132034 L4.23959236,11.8033009" id="Line-Copy-5" stroke-width="1.5" stroke-linecap="square"></path>
                            <path d="M9.42157288,11.6213203 L6.23959236,14.8033009" id="Line-Copy-8" stroke-width="1.5" stroke-linecap="square"></path>
                            <path d="M1.5,4.75 L12.5,4.75" id="Line" stroke-width="1.5" stroke-linecap="square"></path>
                            <path d="M1.5,18.75 L12.5,18.75" id="Line-Copy-7" stroke-width="1.5" stroke-linecap="square"></path>
                        </g>
                    </g>
                </g>
            </g>
        </g>
    </g>
</svg>