<svg width="66" height="53" viewBox="0 0 66 53" xmlns="http://www.w3.org/2000/svg"><title>camera</title><g fill="#3E4042" fill-rule="evenodd"><path d="M58.876 11.448H54.79l-6.914-8.48C46.305 1.378 44.21.424 42.01.424h-8.172c-2.2 0-4.295.954-5.971 2.544l-5.762 7.102c0-1.484-1.153-2.544-2.62-2.544h-8.17c-1.467 0-2.62 1.166-2.62 2.65v1.272h-.733c-3.876 0-7.124 3.18-7.124 7.208v26.818c0 3.922 3.143 7.208 7.124 7.208h50.81c3.876 0 7.123-3.18 7.123-7.208V18.656c.105-4.028-3.038-7.208-7.019-7.208zM29.543 4.452c1.152-1.166 2.724-1.908 4.4-1.908h8.171c1.676 0 3.248.636 4.296 1.802l5.761 7.102H23.886l5.657-6.996zm27.762 22.366c1.047.848 1.676 2.226 1.676 3.71s-.629 2.756-1.676 3.71c.21-1.166.314-2.438.314-3.71a21.31 21.31 0 0 0-.314-3.71zm-1.781 3.71c0 9.222-7.438 16.854-16.657 16.854-9.115 0-16.657-7.526-16.657-16.854s7.438-16.854 16.657-16.854c9.219 0 16.657 7.526 16.657 16.854zM10.895 10.176c0-.318.21-.53.524-.53h8.171c.315 0 .524.212.524.53v1.272h-9.219v-1.272zM3.143 45.368V23.85h9.638c1.152 0 2.2.954 2.2 2.226v24.38h-6.81c-2.828 0-5.028-2.226-5.028-5.088zm60.762 0c0 2.756-2.2 5.088-5.029 5.088h-41.8v-24.38c0-2.332-1.886-4.346-4.295-4.346H3.143v-3.074c0-2.756 2.2-5.088 5.028-5.088h22.524c-6.076 3.074-10.371 9.54-10.371 16.96 0 10.388 8.38 18.974 18.752 18.974 8.067 0 14.981-5.194 17.6-12.402h.314c2.62-1.06 4.296-3.604 4.296-6.466s-1.676-5.406-4.296-6.466h-.314C55 19.61 51.752 15.9 47.457 13.78h11.629c2.724 0 5.028 2.226 5.028 5.088v26.5h-.21z"/><path d="M38.971 18.126c-6.704 0-12.257 5.512-12.257 12.402S32.162 42.93 38.971 42.93c6.81 0 12.258-5.512 12.258-12.402S45.676 18.126 38.97 18.126zm0 22.578c-5.552 0-10.161-4.558-10.161-10.282S33.314 20.14 38.97 20.14c5.553 0 10.162 4.558 10.162 10.282s-4.61 10.282-10.162 10.282zM22.838 19.292c0-1.802-1.467-3.286-3.248-3.286-1.78 0-3.247 1.484-3.247 3.286s1.467 3.286 3.247 3.286c1.781 0 3.248-1.484 3.248-3.286zm-3.143 1.166a1.17 1.17 0 0 1-1.152-1.166 1.17 1.17 0 0 1 1.152-1.166c.629 0 1.153.53 1.153 1.166 0 .636-.629 1.166-1.153 1.166z"/><path d="M45.152 25.44c-.419-.424-1.047-.53-1.466-.106l-6.6 5.83c-.42.424-.524 1.06-.105 1.484.21.212.524.318.733.318.21 0 .524-.106.734-.318l6.6-5.83c.419-.318.419-.954.104-1.378zm-.628 4.028l-3.667 3.286c-.419.424-.524 1.06-.105 1.484.21.212.524.318.734.318.21 0 .524-.106.733-.318l3.667-3.286c.419-.424.524-1.06.104-1.484a1.247 1.247 0 0 0-1.466 0z"/></g></svg>