<?xml version="1.0" encoding="UTF-8"?>
<svg width="66px" height="53px" viewBox="0 0 66 53" version="1.1" xmlns="http://www.w3.org/2000/svg" xmlns:xlink="http://www.w3.org/1999/xlink">
    <!-- Generator: Sketch 40.3 (33839) - http://www.bohemiancoding.com/sketch -->
    <title>camera</title>
    <desc>Created with Sketch.</desc>
    <defs></defs>
    <g id="Page-1" stroke="none" stroke-width="1" fill="none" fill-rule="evenodd">
        <g id="Landing-page-v4-Copy" transform="translate(-1016.000000, -1850.000000)" fill="#3E4042">
            <g id="2---Ajanlatunk" transform="translate(200.000000, 1566.000000)">
                <g id="Video" transform="translate(700.000000, 218.000000)">
                    <g id="camera" transform="translate(116.000000, 66.000000)">
                        <path d="M58.8761905,11.448 L54.7904762,11.448 L47.8761905,2.968 C46.3047619,1.378 44.2095238,0.424 42.0095238,0.424 L33.8380952,0.424 C31.6380952,0.424 29.5428571,1.378 27.8666667,2.968 L22.1047619,10.07 C22.1047619,8.586 20.952381,7.526 19.4857143,7.526 L11.3142857,7.526 C9.84761905,7.526 8.6952381,8.692 8.6952381,10.176 L8.6952381,11.448 L7.96190476,11.448 C4.08571429,11.448 0.838095238,14.628 0.838095238,18.656 L0.838095238,45.474 C0.838095238,49.396 3.98095238,52.682 7.96190476,52.682 L58.7714286,52.682 C62.647619,52.682 65.8952381,49.502 65.8952381,45.474 L65.8952381,18.656 C66,14.628 62.8571429,11.448 58.8761905,11.448 L58.8761905,11.448 Z M29.5428571,4.452 C30.6952381,3.286 32.2666667,2.544 33.9428571,2.544 L42.1142857,2.544 C43.7904762,2.544 45.3619048,3.18 46.4095238,4.346 L52.1714286,11.448 L23.8857143,11.448 L29.5428571,4.452 L29.5428571,4.452 Z M57.3047619,26.818 C58.352381,27.666 58.9809524,29.044 58.9809524,30.528 C58.9809524,32.012 58.352381,33.284 57.3047619,34.238 C57.5142857,33.072 57.6190476,31.8 57.6190476,30.528 C57.6190476,29.256 57.5142857,27.984 57.3047619,26.818 L57.3047619,26.818 Z M55.5238095,30.528 C55.5238095,39.75 48.0857143,47.382 38.8666667,47.382 C29.752381,47.382 22.2095238,39.856 22.2095238,30.528 C22.2095238,21.2 29.647619,13.674 38.8666667,13.674 C48.0857143,13.674 55.5238095,21.2 55.5238095,30.528 L55.5238095,30.528 Z M10.8952381,10.176 C10.8952381,9.858 11.1047619,9.646 11.4190476,9.646 L19.5904762,9.646 C19.9047619,9.646 20.1142857,9.858 20.1142857,10.176 L20.1142857,11.448 L10.8952381,11.448 L10.8952381,10.176 L10.8952381,10.176 Z M3.14285714,45.368 L3.14285714,23.85 L12.7809524,23.85 C13.9333333,23.85 14.9809524,24.804 14.9809524,26.076 L14.9809524,50.456 L8.17142857,50.456 C5.34285714,50.456 3.14285714,48.23 3.14285714,45.368 L3.14285714,45.368 Z M63.9047619,45.368 C63.9047619,48.124 61.7047619,50.456 58.8761905,50.456 L17.0761905,50.456 L17.0761905,26.076 C17.0761905,23.744 15.1904762,21.73 12.7809524,21.73 L3.14285714,21.73 L3.14285714,18.656 C3.14285714,15.9 5.34285714,13.568 8.17142857,13.568 L8.9047619,13.568 L22.3142857,13.568 L30.6952381,13.568 C24.6190476,16.642 20.3238095,23.108 20.3238095,30.528 C20.3238095,40.916 28.7047619,49.502 39.0761905,49.502 C47.1428571,49.502 54.0571429,44.308 56.6761905,37.1 L56.9904762,37.1 C59.6095238,36.04 61.2857143,33.496 61.2857143,30.634 C61.2857143,27.772 59.6095238,25.228 56.9904762,24.168 L56.6761905,24.168 C55,19.61 51.752381,15.9 47.4571429,13.78 L59.0857143,13.78 C61.8095238,13.78 64.1142857,16.006 64.1142857,18.868 L64.1142857,45.368 L63.9047619,45.368 Z" id="Shape"></path>
                        <path d="M38.9714286,18.126 C32.2666667,18.126 26.7142857,23.638 26.7142857,30.528 C26.7142857,37.418 32.1619048,42.93 38.9714286,42.93 C45.7809524,42.93 51.2285714,37.418 51.2285714,30.528 C51.2285714,23.638 45.6761905,18.126 38.9714286,18.126 L38.9714286,18.126 Z M38.9714286,40.704 C33.4190476,40.704 28.8095238,36.146 28.8095238,30.422 C28.8095238,24.698 33.3142857,20.14 38.9714286,20.14 C44.5238095,20.14 49.1333333,24.698 49.1333333,30.422 C49.1333333,36.146 44.5238095,40.704 38.9714286,40.704 L38.9714286,40.704 Z" id="Shape"></path>
                        <path d="M22.8380952,19.292 C22.8380952,17.49 21.3714286,16.006 19.5904762,16.006 C17.8095238,16.006 16.3428571,17.49 16.3428571,19.292 C16.3428571,21.094 17.8095238,22.578 19.5904762,22.578 C21.3714286,22.578 22.8380952,21.094 22.8380952,19.292 L22.8380952,19.292 Z M19.6952381,20.458 C19.0666667,20.458 18.5428571,19.928 18.5428571,19.292 C18.5428571,18.656 19.0666667,18.126 19.6952381,18.126 C20.3238095,18.126 20.847619,18.656 20.847619,19.292 C20.847619,19.928 20.2190476,20.458 19.6952381,20.458 L19.6952381,20.458 Z" id="Shape"></path>
                        <path d="M45.152381,25.44 C44.7333333,25.016 44.1047619,24.91 43.6857143,25.334 L37.0857143,31.164 C36.6666667,31.588 36.5619048,32.224 36.9809524,32.648 C37.1904762,32.86 37.5047619,32.966 37.7142857,32.966 C37.9238095,32.966 38.2380952,32.86 38.447619,32.648 L45.047619,26.818 C45.4666667,26.5 45.4666667,25.864 45.152381,25.44 L45.152381,25.44 Z" id="Shape"></path>
                        <path d="M44.5238095,29.468 L40.8571429,32.754 C40.4380952,33.178 40.3333333,33.814 40.752381,34.238 C40.9619048,34.45 41.2761905,34.556 41.4857143,34.556 C41.6952381,34.556 42.0095238,34.45 42.2190476,34.238 L45.8857143,30.952 C46.3047619,30.528 46.4095238,29.892 45.9904762,29.468 C45.5714286,29.15 44.9428571,29.15 44.5238095,29.468 L44.5238095,29.468 Z" id="Shape"></path>
                    </g>
                </g>
            </g>
        </g>
    </g>
</svg>