<?xml version="1.0" encoding="UTF-8"?>
<svg width="79px" height="77px" viewBox="0 0 79 77" version="1.1" xmlns="http://www.w3.org/2000/svg" xmlns:xlink="http://www.w3.org/1999/xlink">
    <!-- Generator: Sketch 40.3 (33839) - http://www.bohemiancoding.com/sketch -->
    <title>A1</title>
    <desc>Created with Sketch.</desc>
    <defs></defs>
    <g id="Page-1" stroke="none" stroke-width="1" fill="none" fill-rule="evenodd">
        <g id="logok" transform="translate(-277.000000, -250.000000)">
            <g id="A1" transform="translate(277.000000, 250.000000)">
                <polygon id="Fill-106" fill="#DC2A1B" points="42.2088 44.1165 46.3797 55.6294 29.8279 47.9294 22.8672 62.2067 11.4518 57.2177 22.4638 34.9946"></polygon>
                <polygon id="Fill-107" fill="#151515" points="39.6097 0.3944 67.1758 57.2177 55.4083 62.2548 39.0176 29.0824 35.8431 35.593 24.7534 30.3747"></polygon>
                <path d="M0.1449,76.5148 L1.3667,76.7923 L1.827,75.6945 L3.6154,75.6945 L4.1347,76.7804 L5.3564,76.5148 L2.7477,71.4093 L0.1449,76.5148 Z M3.1962,74.691 L2.2403,74.691 L2.7126,73.6229 L3.1962,74.691 Z M5.7757,73.6581 L6.5254,73.2745 L6.5254,76.6092 L7.7588,76.5029 L7.7588,71.4212 L5.3389,72.9086 L5.7757,73.6581 Z M13.4193,72.2711 C13.1976,72.0616 12.9499,71.9043 12.6752,71.798 C12.4008,71.6928 12.1001,71.6395 11.7724,71.6395 C11.3534,71.6395 10.9875,71.7812 10.6748,72.0644 C10.5124,72.2121 10.3913,72.3745 10.3106,72.5514 C10.2312,72.7286 10.1906,72.9202 10.1906,73.1268 C10.1906,73.3837 10.2349,73.6079 10.3222,73.8006 C10.4112,73.9925 10.5416,74.1538 10.7159,74.2837 C10.7984,74.3457 10.9214,74.4115 11.0838,74.4824 C11.2471,74.5532 11.4506,74.6289 11.6958,74.7089 C11.8699,74.7678 12.0006,74.8319 12.0893,74.8993 C12.1766,74.9685 12.2208,75.0422 12.2208,75.1219 C12.2208,75.1896 12.2061,75.2497 12.1766,75.3027 C12.1474,75.3549 12.1026,75.3994 12.0439,75.4348 C11.9935,75.464 11.9385,75.4858 11.8784,75.5006 C11.8186,75.5153 11.7517,75.5232 11.678,75.5232 C11.4892,75.5232 11.316,75.4895 11.1595,75.4218 C11.0022,75.3549 10.8605,75.2545 10.7335,75.1219 L9.9956,76.0071 C10.09,76.1015 10.2054,76.1871 10.3409,76.2651 C10.4767,76.3416 10.6331,76.4113 10.81,76.4734 C10.9756,76.5324 11.1349,76.5766 11.2894,76.6064 C11.4427,76.6358 11.5924,76.6506 11.7369,76.6506 C12.2151,76.6506 12.6165,76.5148 12.9411,76.2432 C13.2832,75.9541 13.4545,75.5763 13.4545,75.11 C13.4545,74.8415 13.4102,74.6074 13.3226,74.4067 C13.2342,74.2071 13.1032,74.0419 12.9292,73.912 C12.8552,73.8587 12.7384,73.7981 12.5783,73.7298 C12.4175,73.662 12.212,73.5872 11.9612,73.5047 C11.7874,73.4455 11.6564,73.3777 11.568,73.3012 C11.4801,73.2244 11.4359,73.1387 11.4359,73.0444 C11.4359,72.9942 11.4506,72.9491 11.479,72.9074 C11.5088,72.8672 11.551,72.8318 11.6071,72.8023 C11.6958,72.7552 11.7959,72.7314 11.9082,72.7314 C11.9819,72.7314 12.0575,72.7393 12.1346,72.7541 C12.2112,72.7697 12.2889,72.7935 12.3685,72.8261 C12.4601,72.8644 12.5335,72.9074 12.5916,72.9548 C12.6491,73.003 12.6902,73.056 12.7166,73.1152 L13.4193,72.2711 Z M14.2805,71.7637 L14.0271,72.8261 L15.8271,72.8261 L13.6787,76.5264 L17.6035,76.5264 L17.9105,75.3875 L15.7446,75.3875 L17.946,71.7637 L14.2805,71.7637 Z M18.1937,76.5148 L21.0856,76.5148 L21.3986,75.464 L19.4035,75.464 L19.4035,74.6145 L20.7494,74.6145 L20.7494,73.5637 L19.4154,73.5637 L19.4154,72.8142 L21.2687,72.8142 L21.0269,71.7637 L18.1937,71.7637 L18.1937,76.5148 Z M24.2964,74.4605 C24.5532,74.3163 24.746,74.1343 24.8761,73.9157 C25.0048,73.6975 25.0697,73.4426 25.0697,73.1504 C25.0697,72.6605 24.8574,72.2946 24.4322,72.0528 C24.2641,71.9553 24.0713,71.8824 23.8528,71.8354 C23.6345,71.7869 23.3905,71.7637 23.122,71.7637 L21.6463,71.7637 L21.6463,76.5973 L22.9037,76.5264 L22.9037,74.4254 L24.3557,76.6506 L25.6125,76.2608 L24.2964,74.4605 Z M22.9037,73.965 L22.9037,72.6903 L23.1574,72.6903 C23.3848,72.6903 23.5546,72.7413 23.6671,72.8448 C23.7799,72.948 23.8363,73.1033 23.8363,73.3097 C23.8352,73.4426 23.8077,73.5577 23.7544,73.6552 C23.7006,73.7533 23.6246,73.8293 23.5262,73.8834 C23.429,73.9364 23.3139,73.9642 23.1813,73.965 L22.9037,73.965 Z M25.6301,76.5148 L28.5223,76.5148 L28.8352,75.464 L26.8402,75.464 L26.8402,74.6145 L28.1861,74.6145 L28.1861,73.5637 L26.8521,73.5637 L26.8521,72.8142 L28.7054,72.8142 L28.4636,71.7637 L25.6301,71.7637 L25.6301,76.5148 Z M30.4762,71.6395 L29.1952,71.7637 L29.1952,76.5148 L32.0341,76.5148 L32.3471,75.3756 L30.4762,75.3756 L30.4762,71.6395 Z M32.3409,71.7637 L34.4127,76.9043 L36.6852,71.7637 L35.44,71.5335 L34.46,74.0713 L33.5923,71.5451 L32.3409,71.7637 Z M36.9803,76.5148 L39.8722,76.5148 L40.1854,75.464 L38.1901,75.464 L38.1901,74.6145 L39.536,74.6145 L39.536,73.5637 L38.202,73.5637 L38.202,72.8142 L40.0553,72.8142 L39.8135,71.7637 L36.9803,71.7637 L36.9803,76.5148 Z M37.4761,70.9609 L37.7652,71.4861 L39.1582,70.8546 L38.8101,70.2409 L37.4761,70.9609 Z M40.4097,76.6208 L41.6314,76.5148 L41.6314,74.1836 L44.6058,76.8513 L44.6058,71.6395 L43.4079,71.7637 L43.4079,74.1655 L40.4097,71.445 L40.4097,76.6208 Z M47.4095,73.7113 L46.1408,71.5803 L44.9071,72.0409 L46.7426,74.9685 L45.8692,76.633 L47.1675,76.8864 L49.5579,72.0293 L48.354,71.6276 L47.4095,73.7113 Z M52.6273,76.6208 L53.9017,76.5148 L53.9017,71.6511 L52.6273,71.7637 L52.6273,73.5163 L51.128,73.5163 L51.128,71.6633 L49.859,71.7637 L49.859,76.6208 L51.128,76.5148 L51.128,74.6145 L52.6273,74.6145 L52.6273,76.6208 Z M54.3683,76.5148 L55.59,76.7923 L56.0504,75.6945 L57.8388,75.6945 L58.3581,76.7804 L59.5798,76.5148 L56.9711,71.4093 L54.3683,76.5148 Z M57.4195,74.691 L56.4634,74.691 L56.9359,73.6229 L57.4195,74.691 Z M56.0269,70.9904 L56.316,71.5216 L57.7087,70.89 L57.3668,70.276 L56.0269,70.9904 Z M59.9636,71.7637 L59.7099,72.8261 L61.5102,72.8261 L59.3618,76.5264 L63.2864,76.5264 L63.5937,75.3875 L61.4277,75.3875 L63.6288,71.7637 L59.9636,71.7637 Z M67.0466,74.3012 L68.6518,76.6741 L69.9268,76.3317 L68.3034,74.083 L69.8852,71.9819 L68.6694,71.6511 L67.0466,73.8412 L67.0466,71.6276 L65.8007,71.7637 L65.8007,76.6208 L67.0466,76.5029 L67.0466,74.3012 Z M70.0445,76.633 L71.2781,76.5148 L71.2781,74.9036 L72.5588,74.9036 L72.5588,73.8293 L71.2781,73.8293 L71.2781,72.8142 L73.0075,72.8142 L72.7065,71.7637 L70.0445,71.7637 L70.0445,76.633 Z M76.7787,72.9086 L76.7787,71.7637 L73.4089,71.7637 L73.09,72.9086 L74.3707,72.9086 L74.3707,76.6208 L75.5927,76.5148 L75.5927,72.9086 L76.7787,72.9086 Z M77.9477,76.6741 L78.7446,75.8713 L77.9061,75.0745 L77.1095,75.8949 L77.9477,76.6741 Z" id="Fill-108" fill="#151515"></path>
            </g>
        </g>
    </g>
</svg>