<svg width="79" height="77" xmlns="http://www.w3.org/2000/svg"><title>A1</title><g fill="none" fill-rule="evenodd"><path fill="#DC2A1B" d="M42.209 44.117l4.17 11.512-16.551-7.7-6.96 14.278-11.416-4.99 11.012-22.222z"/><path fill="#151515" d="M39.61.394l27.566 56.824-11.768 5.037-16.39-33.173-3.175 6.511-11.09-5.218zM.145 76.515l1.222.277.46-1.097h1.788l.52 1.085 1.221-.265-2.608-5.106-2.603 5.106zm3.051-1.824H2.24l.473-1.068.483 1.068zm2.58-1.033l.75-.383v3.334l1.233-.106V71.42l-2.42 1.488.437.75zm7.643-1.387a2.265 2.265 0 0 0-.744-.473 2.501 2.501 0 0 0-.903-.159c-.419 0-.784.142-1.097.425a1.5 1.5 0 0 0-.364.487 1.39 1.39 0 0 0-.12.576c0 .257.044.48.131.674.09.192.22.353.394.483.082.062.205.127.368.198.163.071.367.147.612.227.174.059.305.123.393.19.088.07.132.143.132.223a.365.365 0 0 1-.044.18.363.363 0 0 1-.133.133.626.626 0 0 1-.166.066.84.84 0 0 1-.2.022c-.189 0-.362-.033-.519-.101a1.284 1.284 0 0 1-.426-.3l-.737.885c.094.094.21.18.345.258.136.077.292.146.469.208.166.06.325.104.48.133.153.03.302.045.447.045.478 0 .88-.136 1.204-.408.342-.289.513-.667.513-1.133a1.75 1.75 0 0 0-.131-.703c-.089-.2-.22-.365-.394-.495a1.932 1.932 0 0 0-.35-.182 8.36 8.36 0 0 0-.618-.225 1.191 1.191 0 0 1-.393-.204c-.088-.077-.132-.162-.132-.257 0-.05.015-.095.043-.137a.37.37 0 0 1 .128-.105.631.631 0 0 1 .301-.07 1.202 1.202 0 0 1 .46.094.898.898 0 0 1 .224.129.446.446 0 0 1 .125.16l.702-.844zm.861-.507l-.253 1.062h1.8l-2.148 3.7h3.925l.306-1.138h-2.165l2.201-3.624H14.28zm3.914 4.75h2.892l.313-1.05h-1.995v-.85h1.345v-1.05h-1.334v-.75h1.854l-.242-1.05h-2.833v4.75zm6.102-2.053a1.52 1.52 0 0 0 .58-.545c.129-.218.194-.473.194-.766 0-.49-.213-.855-.638-1.097a1.974 1.974 0 0 0-.58-.218 3.383 3.383 0 0 0-.73-.071h-1.476v4.833l1.258-.07v-2.102l1.452 2.226 1.256-.39-1.316-1.8zm-1.392-.496V72.69h.253c.228 0 .398.051.51.155.113.103.17.258.17.465a.722.722 0 0 1-.083.345.566.566 0 0 1-.228.228.72.72 0 0 1-.345.082h-.277zm2.726 2.55h2.892l.313-1.051H26.84v-.85h1.346v-1.05h-1.334v-.75h1.853l-.241-1.05H25.63v4.75zm4.846-4.876l-1.28.125v4.75h2.838l.313-1.138h-1.87v-3.737zm1.865.125l2.072 5.14 2.272-5.14-1.245-.23-.98 2.537-.868-2.526-1.251.219zm4.64 4.75h2.891l.313-1.05H38.19v-.85h1.346v-1.05h-1.334v-.75h1.853l-.242-1.05H36.98v4.75zm.495-5.553l.29.525 1.392-.631-.348-.614-1.334.72zm2.934 5.66l1.221-.106v-2.331l2.975 2.667V71.64l-1.198.125v2.401l-2.998-2.72v5.176zm7-2.91l-1.27-2.13-1.233.46 1.836 2.928-.874 1.664 1.298.253 2.39-4.857-1.203-.401-.944 2.083zm5.217 2.91l1.275-.106V71.65l-1.275.113v1.752h-1.499v-1.853l-1.269.1v4.858l1.269-.106v-1.9h1.5v2.006zm1.741-.106l1.222.277.46-1.097h1.789l.52 1.085 1.22-.265-2.608-5.106-2.603 5.106zm3.051-1.824h-.956l.473-1.068.483 1.068zm-1.392-3.7l.289.53 1.393-.631-.342-.614-1.34.714zm3.937.773l-.254 1.062h1.8l-2.148 3.7h3.924l.308-1.138h-2.166l2.2-3.624h-3.664zm7.083 2.537l1.605 2.373 1.275-.342-1.624-2.249 1.582-2.101-1.216-.33-1.622 2.19v-2.214l-1.246.136v4.857l1.246-.118V74.3zm2.998 2.332l1.233-.118v-1.611h1.28v-1.075h-1.28v-1.015h1.73l-.301-1.05h-2.662v4.869zm6.734-3.724v-1.145h-3.37l-.319 1.145h1.28v3.712l1.223-.106v-3.606h1.186zm1.169 3.765l.797-.803-.839-.796-.797.82.839.78z"/></g></svg>