<?xml version="1.0" encoding="UTF-8"?>
<svg width="159px" height="66px" viewBox="0 0 159 66" version="1.1" xmlns="http://www.w3.org/2000/svg" xmlns:xlink="http://www.w3.org/1999/xlink">
    <!-- Generator: Sketch 40.3 (33839) - http://www.bohemiancoding.com/sketch -->
    <title>allianz</title>
    <desc>Created with Sketch.</desc>
    <defs></defs>
    <g id="Page-1" stroke="none" stroke-width="1" fill="none" fill-rule="evenodd">
        <g id="allianz">
            <polygon id="Fill-55" fill="#1E3184" points="0.5751 0.8974 158.5428 0.8974 158.5428 65.2849 0.5751 65.2849"></polygon>
            <path d="M138.753,34.5622 C137.836,41.1859 131.8458,46.3881 124.0174,45.17 C117.3432,44.1323 112.2805,38.0964 113.587,30.0529 C114.658,23.4555 120.4443,18.4078 128.317,19.614 C135.0631,20.6475 139.846,26.6674 138.753,34.5622 L138.753,34.5622 L138.753,34.5622 Z M124.0301,16.6076 C115.6336,17.6663 109.1865,24.7339 110.3385,34.4171 C111.3542,42.957 118.5743,49.2919 128.385,48.1609 C136.6503,47.2076 143.1212,39.8902 141.9426,30.2961 C140.9082,21.8746 133.7603,15.3807 124.0301,16.6076 L124.0301,16.6076 L124.0301,16.6076 Z" id="Fill-56" fill="#FEFEFE"></path>
            <path d="M27.3974,26.5311 L29.2549,33.5565 L25.1206,33.5551 L27.3974,26.5311 L27.3974,26.5311 Z M21.9078,23.4765 C22.9005,23.6327 23.0031,23.3518 23.6361,23.9606 C23.9482,25.7527 18.8112,38.4757 18.1947,41.557 L22.9628,41.5686 L24.3765,36.8149 L29.9094,36.8038 C30.4165,37.5355 31.0359,40.4305 31.3188,41.5176 L36.5045,41.5729 C36.3387,40.2726 32.589,27.5793 31.7919,24.7903 C31.4376,23.5513 31.282,22.3996 30.3462,21.9908 C29.5934,21.6617 23.0059,21.6694 21.9282,21.8508 L21.9078,23.4765 L21.9078,23.4765 Z" id="Fill-57" fill="#FEFEFE"></path>
            <path d="M81.1153,28.6007 C81.0019,26.2598 80.1198,26.6785 75.3468,26.7485 L75.2657,28.3399 C76.8302,28.9541 76.6343,28.4844 76.6184,30.6161 C76.5977,33.3501 76.488,39.4389 76.6505,41.559 L81.2315,41.5697 C81.3503,38.8822 81.2721,35.2607 81.2474,32.4269 C81.24,31.5759 81.1941,31.53 81.6856,31.1068 C82.4014,30.4902 83.4423,30.1841 84.588,30.4367 C85.346,31.7857 84.8485,39.2635 84.9659,41.5774 L89.5569,41.5621 C89.7049,39.6714 89.7675,30.3638 89.414,28.932 C88.7521,26.2513 85.2871,26.0515 83.0009,27.2593 C82.25,27.6564 81.6261,28.3597 81.1153,28.6007" id="Fill-58" fill="#FEFEFE"></path>
            <path d="M68.6695,34.4939 C68.8203,36.3537 69.095,37.2152 67.9209,37.9723 C64.4266,40.225 64.5717,35.9784 65.8519,35.2958 C66.4029,35.0013 67.9711,34.5271 68.6695,34.4939 L68.6695,34.4939 L68.6695,34.4939 Z M61.4834,28.0627 C61.5565,28.7186 62.2102,30.5155 62.5339,30.9052 C64.2149,30.3689 69.2486,28.2171 68.6684,31.8832 C64.4929,32.735 60.6531,32.7392 60.6438,37.597 C60.6398,39.8845 61.4644,41.3296 63.5195,41.6553 C65.6628,41.9955 67.6176,41.036 68.7554,40.1048 C69.4232,41.1054 68.5394,41.5706 70.8763,41.574 C72.0444,41.5754 73.3504,41.6151 74.5026,41.5363 L74.5197,40.0246 L73.4331,39.7686 C71.634,34.5917 76.9926,25.6198 66.723,26.5889 C63.6797,26.8761 63.5329,27.3585 61.4834,28.0627 L61.4834,28.0627 L61.4834,28.0627 Z" id="Fill-59" fill="#FEFEFE"></path>
            <path d="M93.3372,31.0223 C94.0869,29.9074 92.5015,29.6072 97.7635,29.7921 C97.4789,30.5432 96.559,31.6301 96.0856,32.3036 L92.7382,36.9992 C91.4394,38.8 91.6267,38.8312 91.6911,41.5502 C95.1797,41.5955 99.7783,41.6381 103.3222,41.5252 L103.3199,38.4752 L97.0072,38.4445 C97.0982,37.913 100.0859,33.9165 100.6148,33.1888 C101.9981,31.2873 103.0373,30.3491 103.028,28.8031 C103.0237,28.1301 103.0835,27.4166 102.9656,26.7593 C100.8739,26.6425 98.4957,26.7443 96.3719,26.7428 C91.5593,26.74 91.6429,26.0866 91.769,31.0104 L93.3372,31.0223 L93.3372,31.0223 Z" id="Fill-60" fill="#FEFEFE"></path>
            <path d="M44.4265,23.333 C44.9109,23.6576 45.689,23.3985 45.8095,24.4077 C46.0439,26.3687 45.5297,38.0188 45.8475,41.5629 L50.4671,41.5573 C50.5281,40.2448 50.6587,23.2089 50.3172,22.5033 C49.8883,21.6158 48.975,21.7816 47.815,21.789 C46.6976,21.7958 45.5785,21.7683 44.4614,21.8077 L44.4265,23.333 L44.4265,23.333 Z" id="Fill-61" fill="#FEFEFE"></path>
            <path d="M36.5292,23.333 C37.4425,23.9589 37.9162,23.0473 37.9179,25.306 L37.9369,41.5601 L42.5607,41.5632 L42.5851,27.7338 C42.5862,22.7596 43.2031,21.791 40.2281,21.7884 L36.5337,21.7916 L36.5292,23.333 L36.5292,23.333 Z" id="Fill-62" fill="#FEFEFE"></path>
            <path d="M122.6363,24.1103 C124.4474,24.2302 123.9343,25.3303 123.9332,27.1269 L123.9462,40.721 L128.3238,40.744 C128.3612,36.7151 128.3263,32.6707 128.3249,28.644 C128.3229,22.2769 129.5529,21.9171 122.6701,22.3009 L122.6363,24.1103 L122.6363,24.1103 Z" id="Fill-63" fill="#FEFEFE"></path>
            <path d="M52.5367,28.3404 C54.0467,28.9624 53.9041,28.4504 53.8914,30.6161 C53.8712,34.0392 53.8174,38.2334 53.9078,41.5332 L58.513,41.5541 C58.5952,38.0505 58.5203,34.5183 58.5195,31.0719 C58.5192,29.5489 58.8863,27.25 57.6804,26.8406 C57.1574,26.6632 53.3534,26.7134 52.5985,26.7615 L52.5367,28.3404 L52.5367,28.3404 Z" id="Fill-64" fill="#FEFEFE"></path>
            <path d="M117.6933,40.7083 L121.99,40.7412 L122.0462,26.3945 C116.9784,26.3103 117.6567,26.0713 117.6638,32.286 C117.6672,34.9046 117.4895,38.171 117.6933,40.7083" id="Fill-65" fill="#FEFEFE"></path>
            <path d="M130.2902,40.6947 L134.5626,40.7468 C134.6822,39.7136 134.8809,27.7443 134.3304,26.9489 C133.8185,26.2099 131.4325,26.2218 130.3024,26.4497 L130.2902,40.6947 L130.2902,40.6947 Z" id="Fill-66" fill="#FEFEFE"></path>
            <path d="M55.0235,21.5654 C53.4273,21.9772 52.9355,23.1584 53.4143,24.4111 C53.8313,25.5032 55.3297,25.9571 56.8329,25.6441 C59.8915,25.0072 58.9294,20.5591 55.0235,21.5654" id="Fill-67" fill="#FEFEFE"></path>
        </g>
    </g>
</svg>