<svg width="159" height="66" viewBox="0 0 159 66" xmlns="http://www.w3.org/2000/svg"><title>allianz</title><g fill="none" fill-rule="evenodd"><path fill="#1E3184" d="M.575.897h157.968v64.388H.575z"/><path d="M138.753 34.562c-.917 6.624-6.907 11.826-14.736 10.608-6.674-1.038-11.736-7.074-10.43-15.117 1.071-6.598 6.857-11.645 14.73-10.439 6.746 1.034 11.529 7.053 10.436 14.948zM124.03 16.608c-8.396 1.058-14.844 8.126-13.692 17.81 1.016 8.539 8.236 14.874 18.047 13.743 8.265-.953 14.736-8.27 13.558-17.865-1.035-8.421-8.183-14.915-17.913-13.688zm-96.633 9.923l1.858 7.026-4.134-.002 2.276-7.024zm-5.49-3.054c.994.156 1.096-.125 1.73.484.311 1.792-4.826 14.515-5.442 17.596l4.768.012 1.413-4.754 5.533-.011c.508.731 1.127 3.627 1.41 4.714l5.186.055c-.166-1.3-3.916-13.994-4.713-16.783-.354-1.239-.51-2.39-1.446-2.8-.753-.328-7.34-.32-8.418-.14l-.02 1.627zM81.115 28.6c-.113-2.34-.995-1.922-5.768-1.852l-.081 1.592c1.564.614 1.368.144 1.352 2.276-.02 2.734-.13 8.823.032 10.943l4.581.01c.12-2.687.041-6.308.016-9.142-.007-.851-.053-.897.439-1.32.715-.617 1.756-.923 2.902-.67.758 1.349.26 8.826.378 11.14l4.59-.015c.149-1.89.212-11.198-.142-12.63-.662-2.68-4.127-2.88-6.413-1.673-.751.397-1.375 1.1-1.886 1.342M68.67 34.494c.15 1.86.425 2.721-.75 3.478-3.493 2.253-3.348-1.994-2.068-2.676.55-.295 2.12-.769 2.817-.802zm-7.187-6.431c.074.656.727 2.453 1.05 2.842 1.682-.536 6.716-2.688 6.135.978-4.175.852-8.015.856-8.024 5.714-.004 2.288.82 3.733 2.876 4.058 2.143.34 4.098-.619 5.235-1.55.668 1-.216 1.466 2.121 1.469 1.168.001 2.474.041 3.627-.038l.017-1.511-1.087-.256c-1.799-5.177 3.56-14.15-6.71-13.18-3.043.287-3.19.77-5.24 1.474zm31.854 2.959c.75-1.115-.836-1.415 4.426-1.23-.284.751-1.204 1.838-1.677 2.512l-3.348 4.695c-1.299 1.801-1.111 1.832-1.047 4.551 3.489.046 8.087.088 11.631-.025l-.002-3.05-6.313-.03c.091-.532 3.079-4.529 3.608-5.256 1.383-1.902 2.422-2.84 2.413-4.386-.004-.673.055-1.386-.062-2.044-2.092-.117-4.47-.015-6.594-.016-4.813-.003-4.73-.656-4.603 4.267l1.568.012zm-48.911-7.689c.485.325 1.263.066 1.383 1.075.235 1.96-.28 13.61.038 17.155l4.62-.006c.061-1.312.192-18.348-.15-19.054-.429-.887-1.342-.721-2.502-.714-1.117.007-2.236-.02-3.354.019l-.035 1.525zm-7.896 0c.913.626 1.386-.286 1.388 1.973l.019 16.254 4.624.003.024-13.83c.001-4.973.618-5.942-2.357-5.945l-3.694.004-.005 1.541z" fill="#FEFEFE"/><path d="M122.636 24.11c1.811.12 1.298 1.22 1.297 3.017l.013 13.594 4.378.023c.037-4.029.002-8.073 0-12.1-.001-6.367 1.229-6.727-5.654-6.343l-.034 1.81zm-70.099 4.23c1.51.622 1.367.11 1.354 2.276-.02 3.423-.074 7.617.017 10.917l4.605.021c.082-3.504.007-7.036.007-10.482 0-1.523.366-3.822-.84-4.231-.523-.178-4.327-.128-5.081-.08l-.062 1.58zm65.156 12.368l4.297.033.056-14.346c-5.068-.085-4.39-.324-4.382 5.891.003 2.619-.174 5.885.03 8.422m12.596-.013l4.273.052c.12-1.033.318-13.003-.233-13.798-.512-.74-2.898-.727-4.028-.5l-.012 14.246zm-75.267-19.13c-1.596.412-2.088 1.593-1.609 2.846.417 1.092 1.916 1.546 3.419 1.233 3.059-.637 2.096-5.085-1.81-4.079" fill="#FEFEFE"/></g></svg>