<svg width="176" height="41" viewBox="0 0 176 41" xmlns="http://www.w3.org/2000/svg"><title>alpha park</title><g fill="none" fill-rule="evenodd"><path d="M91.794 16.922l-4.318-9.464-4.386 9.464h8.704zm1.707 3.707H81.332l-1.831 3.782c-.25.525-.374.938-.374 1.24 0 .58.444.98 1.33 1.202v.668h-8.93v-.668c.526-.104.927-.286 1.202-.547.275-.265.591-.775.947-1.534l9.886-20.617c.315-.656.472-1.18.472-1.573 0-.602-.38-1.036-1.142-1.297V.618h9.538v.667c-.775.223-1.162.61-1.162 1.161 0 .378.124.813.374 1.297l10.253 20.674c.433.877.814 1.478 1.143 1.8.329.319.769.532 1.32.636v.668h-9.893v-.668c.869-.143 1.304-.55 1.304-1.22 0-.276-.133-.683-.395-1.222l-1.873-3.782z" fill="#D02314"/><path d="M91.794 16.922l-4.318-9.464-4.386 9.464h8.704zm1.707 3.707H81.332l-1.831 3.782c-.25.525-.374.938-.374 1.24 0 .58.444.98 1.33 1.202v.668h-8.93v-.668c.526-.104.927-.286 1.202-.547.275-.265.591-.775.947-1.534l9.886-20.617c.315-.656.472-1.18.472-1.573 0-.602-.38-1.036-1.142-1.297V.618h9.538v.667c-.775.223-1.162.61-1.162 1.161 0 .378.124.813.374 1.297l10.253 20.674c.433.877.814 1.478 1.143 1.8.329.319.769.532 1.32.636v.668h-9.893v-.668c.869-.143 1.304-.55 1.304-1.22 0-.276-.133-.683-.395-1.222l-1.873-3.782zM111.04 16.3h3.534c.704 0 1.2-.074 1.484-.225.181-.099.327-.256.438-.471.113-.216.168-.454.168-.713a1.5 1.5 0 0 0-.168-.706 1.09 1.09 0 0 0-.438-.471c-.28-.15-.774-.225-1.484-.225h-3.535v2.812zm0 1.758v3.485c0 .155.037.276.112.36.075.086.203.152.385.199v.263h-3.31v-.263c.186-.052.316-.12.39-.202.072-.084.108-.203.108-.359v-8.98c0-.159-.036-.281-.108-.365-.074-.082-.204-.15-.39-.202v-.264h6.626c.772 0 1.386.052 1.838.157.455.104.855.284 1.203.539.358.264.637.613.84 1.044.201.448.303.922.303 1.42 0 .719-.193 1.348-.576 1.89a2.692 2.692 0 0 1-1.32.986c-.547.196-1.31.292-2.29.292h-3.812z" fill="#D02314"/><path d="M111.04 16.3h3.534c.704 0 1.2-.074 1.484-.225.181-.099.327-.256.438-.471.113-.216.168-.454.168-.713a1.5 1.5 0 0 0-.168-.706 1.09 1.09 0 0 0-.438-.471c-.28-.15-.774-.225-1.484-.225h-3.535v2.812zm0 1.758v3.485c0 .155.037.276.112.36.075.086.203.152.385.199v.263h-3.31v-.263c.186-.052.316-.12.39-.202.072-.084.108-.203.108-.359v-8.98c0-.159-.036-.281-.108-.365-.074-.082-.204-.15-.39-.202v-.264h6.626c.772 0 1.386.052 1.838.157.455.104.855.284 1.203.539.358.264.637.613.84 1.044.201.448.303.922.303 1.42 0 .719-.193 1.348-.576 1.89a2.692 2.692 0 0 1-1.32.986c-.547.196-1.31.292-2.29.292h-3.812zm20.144.117l-1.707-3.74-1.734 3.74h3.441zm.674 1.466h-4.81l-.724 1.494c-.099.208-.147.371-.147.49 0 .23.174.388.526.477v.263h-3.53v-.263c.206-.042.365-.114.474-.217.11-.104.235-.306.374-.607l3.908-8.15c.125-.258.188-.465.188-.621 0-.238-.152-.41-.452-.513v-.263h3.77v.263c-.306.088-.46.241-.46.459 0 .15.05.322.149.512l4.053 8.172c.17.348.32.585.45.712a1 1 0 0 0 .524.253v.263h-3.911v-.263c.342-.058.514-.218.514-.483 0-.11-.052-.27-.155-.484l-.74-1.494z" fill="#D02314"/><path d="M131.184 18.175l-1.707-3.74-1.734 3.74h3.441zm.674 1.466h-4.81l-.724 1.494c-.099.208-.147.371-.147.49 0 .23.174.388.526.477v.263h-3.53v-.263c.206-.042.365-.114.474-.217.11-.104.235-.306.374-.607l3.908-8.15c.125-.258.188-.465.188-.621 0-.238-.152-.41-.452-.513v-.263h3.77v.263c-.306.088-.46.241-.46.459 0 .15.05.322.149.512l4.053 8.172c.17.348.32.585.45.712a1 1 0 0 0 .524.253v.263h-3.911v-.263c.342-.058.514-.218.514-.483 0-.11-.052-.27-.155-.484l-.74-1.494zm12.78-3.37h3.578c.529 0 .902-.015 1.12-.046.218-.032.418-.095.6-.195.393-.212.59-.596.59-1.15 0-.553-.197-.938-.59-1.15a1.67 1.67 0 0 0-.597-.199c-.21-.028-.583-.042-1.123-.042h-3.578v2.782zm0 1.757v3.514c0 .156.038.277.112.36.076.087.204.152.386.2v.263h-3.31v-.263c.186-.052.317-.12.39-.202a.54.54 0 0 0 .108-.359v-8.979c0-.16-.037-.282-.109-.366-.072-.082-.203-.15-.389-.202v-.264h6.643c.81 0 1.45.048 1.926.141.474.093.887.258 1.24.491.409.27.716.637.917 1.099.192.447.289.925.289 1.434 0 1.735-.964 2.75-2.89 3.046l2.061 2.927c.363.512.628.84.797.989.167.148.374.228.617.245v.263H149.6v-.263c.263-.042.395-.136.395-.28 0-.092-.122-.317-.365-.675l-2.158-3.119h-2.833z" fill="#D02314"/><path d="M144.638 16.271h3.578c.529 0 .902-.015 1.12-.046.218-.032.418-.095.6-.195.393-.212.59-.596.59-1.15 0-.553-.197-.938-.59-1.15a1.67 1.67 0 0 0-.597-.199c-.21-.028-.583-.042-1.123-.042h-3.578v2.782zm0 1.757v3.514c0 .156.038.277.112.36.076.087.204.152.386.2v.263h-3.31v-.263c.186-.052.317-.12.39-.202a.54.54 0 0 0 .108-.359v-8.979c0-.16-.037-.282-.109-.366-.072-.082-.203-.15-.389-.202v-.264h6.643c.81 0 1.45.048 1.926.141.474.093.887.258 1.24.491.409.27.716.637.917 1.099.192.447.289.925.289 1.434 0 1.735-.964 2.75-2.89 3.046l2.061 2.927c.363.512.628.84.797.989.167.148.374.228.617.245v.263H149.6v-.263c.263-.042.395-.136.395-.28 0-.092-.122-.317-.365-.675l-2.158-3.119h-2.833zm19.265-.627l-1.597 1.29v2.843c0 .16.038.285.112.369.075.086.203.152.386.198v.264h-3.31V22.1c.186-.052.315-.12.389-.202.072-.083.108-.204.108-.365v-8.98a.534.534 0 0 0-.108-.358c-.074-.082-.203-.15-.39-.202v-.264h3.31v.264c-.186.046-.316.113-.388.198-.074.086-.11.204-.11.359v3.693l4.345-3.543c.203-.165.304-.298.304-.396 0-.149-.151-.253-.453-.31v-.265h4.358v.264c-.18.037-.31.078-.388.125-.078.046-.304.222-.675.528l-.6.497-3.606 2.895 4.081 4.921c.378.46.651.757.82.89.167.134.379.221.633.264v.25h-4.12V22.1c.273-.057.41-.154.41-.295 0-.072-.124-.265-.372-.575l-3.139-3.83z" fill="#D02314"/><path d="M163.903 17.401l-1.597 1.29v2.843c0 .16.038.285.112.369.075.086.203.152.386.198v.264h-3.31V22.1c.186-.052.315-.12.389-.202.072-.083.108-.204.108-.365v-8.98a.534.534 0 0 0-.108-.358c-.074-.082-.203-.15-.39-.202v-.264h3.31v.264c-.186.046-.316.113-.388.198-.074.086-.11.204-.11.359v3.693l4.345-3.543c.203-.165.304-.298.304-.396 0-.149-.151-.253-.453-.31v-.265h4.358v.264c-.18.037-.31.078-.388.125-.078.046-.304.222-.675.528l-.6.497-3.606 2.895 4.081 4.921c.378.46.651.757.82.89.167.134.379.221.633.264v.25h-4.12V22.1c.273-.057.41-.154.41-.295 0-.072-.124-.265-.372-.575l-3.139-3.83z" fill="#D02314"/><path d="M59.415 33.847l-.84 1.61-.149-.08a.415.415 0 0 0-.13-.32c-.237-.211-.585-.384-1.046-.52a4.885 4.885 0 0 0-1.398-.205c-.402 0-.76.057-1.07.166-.447.162-.672.394-.672.7 0 .2.107.344.321.428.216.084.63.152 1.248.201l.98.074c.855.067 1.508.231 1.953.493.25.15.453.348.614.594.204.31.305.658.305 1.046 0 .703-.317 1.26-.955 1.668-.606.39-1.429.587-2.465.587a7.265 7.265 0 0 1-3.032-.662.431.431 0 0 0-.167-.044c-.083 0-.16.05-.229.15l-.156-.062.713-1.695.157.061v.05c0 .107.04.198.124.272.205.181.563.338 1.072.473a5.914 5.914 0 0 0 1.508.2c.44 0 .833-.057 1.18-.172.429-.14.645-.367.645-.679 0-.251-.15-.426-.446-.524-.198-.067-.555-.122-1.072-.166l-.972-.082c-.524-.041-.926-.094-1.202-.16a2.473 2.473 0 0 1-.724-.29 1.714 1.714 0 0 1-.62-.672 1.97 1.97 0 0 1-.223-.932c0-.758.327-1.337.98-1.735.597-.363 1.332-.543 2.21-.543.473 0 .916.052 1.328.156.411.105.904.289 1.472.552.172.077.29.116.355.116.067 0 .15-.045.254-.136l.15.082zm8.819.533c-.714 0-1.295.228-1.746.686-.417.429-.624.969-.624 1.615 0 .647.207 1.182.624 1.612.45.462 1.034.694 1.752.694.714 0 1.296-.232 1.745-.694.418-.426.626-.952.626-1.58 0-.68-.208-1.23-.626-1.647-.454-.45-1.038-.679-1.751-.686zm-.007-1.304c1.103 0 2.023.28 2.761.84.88.676 1.32 1.617 1.32 2.823 0 1.131-.44 2.037-1.32 2.71-.728.56-1.644.84-2.748.84-1.105 0-2.02-.28-2.747-.84-.885-.673-1.328-1.598-1.328-2.767 0-1.181.443-2.104 1.328-2.765.73-.549 1.642-.829 2.734-.84zm10.97 2.956h2.358c.432 0 .732-.043.9-.124.247-.119.37-.337.37-.657 0-.318-.123-.538-.37-.655-.165-.082-.465-.123-.9-.123h-2.358v1.559zm0 1.255v2.193a.44.44 0 0 0 .086.292c.056.067.16.123.307.167v.21h-2.44v-.21a.59.59 0 0 0 .304-.158.438.438 0 0 0 .09-.294v-5.609c0-.127-.029-.222-.086-.288-.058-.065-.16-.12-.308-.165v-.21h4.512c.895 0 1.567.134 2.022.401.263.157.47.378.617.667.149.289.223.611.223.968 0 .688-.234 1.198-.705 1.533-.47.336-1.19.503-2.16.503h-2.462zm12.047-1.233h2.483c.376 0 .655-.042.835-.124.255-.113.381-.335.381-.667 0-.294-.089-.5-.266-.616-.179-.116-.495-.174-.95-.174h-2.483v1.58zm0 1.256v2.173c0 .128.03.223.086.29.058.068.162.122.31.167v.21h-2.444v-.21c.144-.037.246-.09.306-.159a.44.44 0 0 0 .09-.293v-5.61c0-.127-.028-.221-.086-.288-.058-.065-.162-.12-.31-.165v-.21h4.529c.587 0 1.035.03 1.343.09.308.061.585.17.829.328.497.328.746.861.746 1.601 0 .564-.154 1.005-.46 1.32-.306.318-.8.546-1.482.686l1.304 1.795c.24.333.43.558.571.677.144.119.304.195.485.228v.21h-2.923v-.21c.215-.056.323-.148.323-.273 0-.089-.067-.225-.2-.407l-1.38-1.95h-1.637zm14.19-2.93c-.713 0-1.294.228-1.746.686-.415.429-.623.969-.623 1.615 0 .647.209 1.182.623 1.612.452.462 1.034.694 1.753.694.714 0 1.295-.232 1.747-.694.415-.426.622-.952.622-1.58 0-.68-.207-1.23-.622-1.647-.456-.45-1.04-.679-1.754-.686zm-.006-1.304c1.104 0 2.026.28 2.76.84.88.676 1.321 1.617 1.321 2.823 0 1.131-.44 2.037-1.321 2.71-.726.56-1.643.84-2.747.84-1.104 0-2.02-.28-2.748-.84-.884-.673-1.326-1.598-1.326-2.767 0-1.181.442-2.104 1.326-2.765.732-.549 1.644-.829 2.735-.84zm10.83 2.517v3.889c0 .126.03.225.09.294.058.068.162.124.306.163v.21h-2.304v-.21a.597.597 0 0 0 .306-.158.444.444 0 0 0 .09-.294v-5.609c0-.127-.03-.222-.088-.288-.058-.065-.16-.119-.308-.166v-.208h2.662v.209c-.18.046-.27.124-.27.239 0 .098.064.212.197.343l3.716 3.65v-3.779a.431.431 0 0 0-.087-.29c-.058-.068-.16-.121-.308-.163v-.21h2.303v.21c-.148.042-.251.095-.31.163a.436.436 0 0 0-.086.29v5.604c0 .126.03.224.087.29.058.068.161.123.309.167v.21h-2.483v-.21c.182-.036.272-.11.272-.224a.28.28 0 0 0-.075-.175 5.64 5.64 0 0 0-.34-.359l-3.68-3.588z" fill="#C3C4C4"/><path d="M12.186 18.175l-1.708-3.74-1.733 3.74h3.44zm.674 1.466H8.05l-.725 1.494c-.098.208-.147.371-.147.49 0 .23.175.388.527.477v.263H4.174v-.263c.207-.042.366-.114.475-.217.108-.104.233-.306.373-.607l3.909-8.15c.124-.258.187-.465.187-.621 0-.238-.15-.41-.452-.513v-.263h3.77v.263c-.306.088-.459.241-.459.459 0 .15.049.322.148.512l4.053 8.172c.17.348.322.585.452.712.13.126.304.211.521.253v.263h-3.91v-.263c.343-.058.515-.218.515-.483 0-.11-.052-.27-.155-.484l-.741-1.494z" fill="#D02314"/><path d="M12.186 18.175l-1.708-3.74-1.733 3.74h3.44zm.674 1.466H8.05l-.725 1.494c-.098.208-.147.371-.147.49 0 .23.175.388.527.477v.263H4.174v-.263c.207-.042.366-.114.475-.217.108-.104.233-.306.373-.607l3.909-8.15c.124-.258.187-.465.187-.621 0-.238-.15-.41-.452-.513v-.263h3.77v.263c-.306.088-.459.241-.459.459 0 .15.049.322.148.512l4.053 8.172c.17.348.322.585.452.712.13.126.304.211.521.253v.263h-3.91v-.263c.343-.058.515-.218.515-.483 0-.11-.052-.27-.155-.484l-.741-1.494zm12.78.966h6.522c.16 0 .282-.036.365-.109.082-.073.15-.203.203-.389h.264v2.754h-.264c-.053-.187-.121-.317-.203-.39-.083-.072-.205-.108-.365-.108h-9.334v-.263c.186-.053.316-.12.389-.203.072-.083.109-.204.109-.365v-8.972c0-.16-.037-.282-.11-.366-.072-.082-.202-.15-.388-.202v-.263h3.31v.263c-.187.047-.317.114-.39.199-.072.085-.108.209-.108.369v8.045z" fill="#D02314"/><path d="M25.64 20.607h6.522c.16 0 .282-.036.365-.109.082-.073.15-.203.203-.389h.264v2.754h-.264c-.053-.187-.121-.317-.203-.39-.083-.072-.205-.108-.365-.108h-9.334v-.263c.186-.053.316-.12.389-.203.072-.083.109-.204.109-.365v-8.972c0-.16-.037-.282-.11-.366-.072-.082-.202-.15-.388-.202v-.263h3.31v.263c-.187.047-.317.114-.39.199-.072.085-.108.209-.108.369v8.045zM41.696 16.3h3.535c.704 0 1.2-.074 1.484-.225.181-.099.326-.256.438-.471.112-.216.168-.454.168-.713 0-.255-.056-.489-.167-.706a1.098 1.098 0 0 0-.439-.471c-.28-.15-.775-.225-1.484-.225h-3.535v2.812zm0 1.758v3.485a.53.53 0 0 0 .113.36c.075.086.203.152.386.199v.263h-3.311v-.263c.187-.052.316-.12.39-.202a.54.54 0 0 0 .108-.359v-8.98c0-.159-.037-.281-.109-.365-.073-.082-.203-.15-.39-.202v-.264h6.626c.773 0 1.386.052 1.84.157.454.104.854.284 1.201.539.358.264.638.613.84 1.044.202.448.304.922.304 1.42 0 .719-.193 1.348-.576 1.89a2.693 2.693 0 0 1-1.319.986c-.547.196-1.311.292-2.29.292h-3.813z" fill="#D02314"/><path d="M41.696 16.3h3.535c.704 0 1.2-.074 1.484-.225.181-.099.326-.256.438-.471.112-.216.168-.454.168-.713 0-.255-.056-.489-.167-.706a1.098 1.098 0 0 0-.439-.471c-.28-.15-.775-.225-1.484-.225h-3.535v2.812zm0 1.758v3.485a.53.53 0 0 0 .113.36c.075.086.203.152.386.199v.263h-3.311v-.263c.187-.052.316-.12.39-.202a.54.54 0 0 0 .108-.359v-8.98c0-.159-.037-.281-.109-.365-.073-.082-.203-.15-.39-.202v-.264h6.626c.773 0 1.386.052 1.84.157.454.104.854.284 1.201.539.358.264.638.613.84 1.044.202.448.304.922.304 1.42 0 .719-.193 1.348-.576 1.89a2.693 2.693 0 0 1-1.319.986c-.547.196-1.311.292-2.29.292h-3.813zm23.098-.322H58.67v3.808c0 .155.038.275.113.36.075.084.203.151.384.198v.263h-3.31v-.263c.188-.053.317-.12.39-.203.072-.083.108-.202.108-.358v-8.987c0-.155-.036-.274-.108-.358-.073-.082-.203-.15-.39-.202v-.264h3.31v.264c-.186.047-.316.113-.388.199a.543.543 0 0 0-.11.362v3.424h6.124v-3.424a.549.549 0 0 0-.11-.362c-.073-.086-.202-.152-.388-.199v-.264h3.31v.264c-.187.052-.317.12-.39.202-.073.084-.108.203-.108.358v8.987c0 .156.035.275.109.358.072.083.202.15.39.203v.263h-3.311v-.263c.181-.047.309-.114.384-.198a.523.523 0 0 0 .114-.36v-3.808z" fill="#D02314"/><path d="M64.794 17.736H58.67v3.808c0 .155.038.275.113.36.075.084.203.151.384.198v.263h-3.31v-.263c.188-.053.317-.12.39-.203.072-.083.108-.202.108-.358v-8.987c0-.155-.036-.274-.108-.358-.073-.082-.203-.15-.39-.202v-.264h3.31v.264c-.186.047-.316.113-.388.199a.543.543 0 0 0-.11.362v3.424h6.124v-3.424a.549.549 0 0 0-.11-.362c-.073-.086-.202-.152-.388-.199v-.264h3.31v.264c-.187.052-.317.12-.39.202-.073.084-.108.203-.108.358v8.987c0 .156.035.275.109.358.072.083.202.15.39.203v.263h-3.311v-.263c.181-.047.309-.114.384-.198a.523.523 0 0 0 .114-.36v-3.808zM.035 27.52H73.78v-.663H.035zm102.635 0h73.007v-.663H102.67z" fill="#D02314"/></g></svg>