<?xml version="1.0" encoding="UTF-8"?>
<svg width="176px" height="41px" viewBox="0 0 176 41" version="1.1" xmlns="http://www.w3.org/2000/svg" xmlns:xlink="http://www.w3.org/1999/xlink">
    <!-- Generator: Sketch 40.3 (33839) - http://www.bohemiancoding.com/sketch -->
    <title>alpha park</title>
    <desc>Created with Sketch.</desc>
    <defs></defs>
    <g id="Page-1" stroke="none" stroke-width="1" fill="none" fill-rule="evenodd">
        <g id="logok" transform="translate(-90.000000, -502.000000)">
            <g id="alpha-park" transform="translate(90.000000, 502.000000)">
                <path d="M91.7944,16.9221 L87.4758,7.4577 L83.0903,16.9221 L91.7944,16.9221 Z M93.5014,20.6286 L81.3323,20.6286 L79.5008,24.4106 C79.2505,24.9359 79.1266,25.3495 79.1266,25.6513 C79.1266,26.2305 79.5705,26.6301 80.4578,26.8532 L80.4578,27.5208 L71.5275,27.5208 L71.5275,26.8532 C72.053,26.7489 72.4539,26.5669 72.7291,26.3056 C73.0043,26.0414 73.3201,25.5306 73.6756,24.7718 L83.5617,4.1551 C83.8769,3.4994 84.0337,2.9759 84.0337,2.5824 C84.0337,1.9804 83.6533,1.5464 82.8922,1.285 L82.8922,0.618 L92.4296,0.618 L92.4296,1.285 C91.6555,1.5075 91.2685,1.8947 91.2685,2.4464 C91.2685,2.8245 91.3916,3.2585 91.6424,3.7429 L101.8948,24.4169 C102.3279,25.2942 102.7086,25.8946 103.038,26.2174 C103.3665,26.536 103.807,26.7489 104.3589,26.8532 L104.3589,27.5208 L94.4649,27.5208 L94.4649,26.8532 C95.3337,26.7098 95.7688,26.3025 95.7688,25.6332 C95.7688,25.3571 95.6362,24.9498 95.3742,24.4106 L93.5014,20.6286 Z" id="Fill-80" fill="#D02314"></path>
                <path d="M91.7944,16.9221 L87.4758,7.4577 L83.0903,16.9221 L91.7944,16.9221 Z M93.5014,20.6286 L81.3323,20.6286 L79.5008,24.4106 C79.2505,24.9359 79.1266,25.3495 79.1266,25.6513 C79.1266,26.2305 79.5705,26.6301 80.4578,26.8532 L80.4578,27.5208 L71.5275,27.5208 L71.5275,26.8532 C72.053,26.7489 72.4539,26.5669 72.7291,26.3056 C73.0043,26.0414 73.3201,25.5306 73.6756,24.7718 L83.5617,4.1551 C83.8769,3.4994 84.0337,2.9759 84.0337,2.5824 C84.0337,1.9804 83.6533,1.5464 82.8922,1.285 L82.8922,0.618 L92.4296,0.618 L92.4296,1.285 C91.6555,1.5075 91.2685,1.8947 91.2685,2.4464 C91.2685,2.8245 91.3916,3.2585 91.6424,3.7429 L101.8948,24.4169 C102.3279,25.2942 102.7086,25.8946 103.038,26.2174 C103.3665,26.536 103.807,26.7489 104.3589,26.8532 L104.3589,27.5208 L94.4649,27.5208 L94.4649,26.8532 C95.3337,26.7098 95.7688,26.3025 95.7688,25.6332 C95.7688,25.3571 95.6362,24.9498 95.3742,24.4106 L93.5014,20.6286 Z" id="Fill-81" fill="#D02314"></path>
                <path d="M111.0393,16.3007 L114.5739,16.3007 C115.2777,16.3007 115.7732,16.2259 116.0578,16.0751 C116.2392,15.9764 116.3852,15.8194 116.496,15.6037 C116.6086,15.3877 116.6638,15.1504 116.6638,14.8907 C116.6638,14.6356 116.6086,14.4023 116.496,14.1852 C116.3852,13.9715 116.2392,13.8133 116.0578,13.7138 C115.7774,13.5647 115.2839,13.489 114.5739,13.489 L111.0393,13.489 L111.0393,16.3007 Z M111.0393,18.0579 L111.0393,21.5428 C111.0393,21.6979 111.0773,21.8189 111.1516,21.9039 C111.2273,21.9893 111.3548,22.055 111.5371,22.1015 L111.5371,22.3649 L108.2274,22.3649 L108.2274,22.1015 C108.4133,22.0496 108.5431,21.9819 108.6166,21.8997 C108.6886,21.8161 108.7254,21.6973 108.7254,21.5414 L108.7254,12.5612 C108.7254,12.4022 108.6886,12.2795 108.6166,12.1964 C108.5431,12.1139 108.4133,12.0467 108.2274,11.994 L108.2274,11.7304 L114.8528,11.7304 C115.6247,11.7304 116.2386,11.7823 116.6913,11.8866 C117.1457,11.9912 117.5457,12.1715 117.8938,12.426 C118.2521,12.6902 118.5307,13.0392 118.7337,13.4703 C118.935,13.9179 119.037,14.3924 119.037,14.8907 C119.037,15.6088 118.8445,16.2381 118.461,16.7795 C118.1285,17.2429 117.6894,17.5715 117.1418,17.7659 C116.5941,17.9615 115.831,18.0579 114.8514,18.0579 L111.0393,18.0579 Z" id="Fill-82" fill="#D02314"></path>
                <path d="M111.0393,16.3007 L114.5739,16.3007 C115.2777,16.3007 115.7732,16.2259 116.0578,16.0751 C116.2392,15.9764 116.3852,15.8194 116.496,15.6037 C116.6086,15.3877 116.6638,15.1504 116.6638,14.8907 C116.6638,14.6356 116.6086,14.4023 116.496,14.1852 C116.3852,13.9715 116.2392,13.8133 116.0578,13.7138 C115.7774,13.5647 115.2839,13.489 114.5739,13.489 L111.0393,13.489 L111.0393,16.3007 Z M111.0393,18.0579 L111.0393,21.5428 C111.0393,21.6979 111.0773,21.8189 111.1516,21.9039 C111.2273,21.9893 111.3548,22.055 111.5371,22.1015 L111.5371,22.3649 L108.2274,22.3649 L108.2274,22.1015 C108.4133,22.0496 108.5431,21.9819 108.6166,21.8997 C108.6886,21.8161 108.7254,21.6973 108.7254,21.5414 L108.7254,12.5612 C108.7254,12.4022 108.6886,12.2795 108.6166,12.1964 C108.5431,12.1139 108.4133,12.0467 108.2274,11.994 L108.2274,11.7304 L114.8528,11.7304 C115.6247,11.7304 116.2386,11.7823 116.6913,11.8866 C117.1457,11.9912 117.5457,12.1715 117.8938,12.426 C118.2521,12.6902 118.5307,13.0392 118.7337,13.4703 C118.935,13.9179 119.037,14.3924 119.037,14.8907 C119.037,15.6088 118.8445,16.2381 118.461,16.7795 C118.1285,17.2429 117.6894,17.5715 117.1418,17.7659 C116.5941,17.9615 115.831,18.0579 114.8514,18.0579 L111.0393,18.0579 Z" id="Fill-83" fill="#D02314"></path>
                <path d="M131.184,18.1752 L129.477,14.4344 L127.7433,18.1752 L131.184,18.1752 Z M131.8584,19.6408 L127.0486,19.6408 L126.324,21.1349 C126.2251,21.3432 126.1772,21.5065 126.1772,21.6253 C126.1772,21.8549 126.3512,22.0128 126.703,22.1015 L126.703,22.3651 L123.173,22.3651 L123.173,22.1015 C123.3794,22.0604 123.5381,21.9876 123.647,21.8847 C123.7561,21.7806 123.8817,21.5788 124.0212,21.2781 L127.9293,13.1284 C128.054,12.8696 128.1167,12.6627 128.1167,12.5068 C128.1167,12.269 127.9653,12.0978 127.6648,11.9943 L127.6648,11.7307 L131.4355,11.7307 L131.4355,11.9943 C131.1288,12.0825 130.9751,12.2352 130.9751,12.4529 C130.9751,12.6035 131.0253,12.7747 131.1237,12.9652 L135.1766,21.1375 C135.3476,21.4853 135.4972,21.7222 135.6279,21.8495 C135.7583,21.9751 135.9323,22.0604 136.1509,22.1015 L136.1509,22.3651 L132.2399,22.3651 L132.2399,22.1015 C132.5824,22.0445 132.7541,21.8835 132.7541,21.6185 C132.7541,21.5094 132.7017,21.3481 132.5988,21.1349 L131.8584,19.6408 Z" id="Fill-84" fill="#D02314"></path>
                <path d="M131.184,18.1752 L129.477,14.4344 L127.7433,18.1752 L131.184,18.1752 Z M131.8584,19.6408 L127.0486,19.6408 L126.324,21.1349 C126.2251,21.3432 126.1772,21.5065 126.1772,21.6253 C126.1772,21.8549 126.3512,22.0128 126.703,22.1015 L126.703,22.3651 L123.173,22.3651 L123.173,22.1015 C123.3794,22.0604 123.5381,21.9876 123.647,21.8847 C123.7561,21.7806 123.8817,21.5788 124.0212,21.2781 L127.9293,13.1284 C128.054,12.8696 128.1167,12.6627 128.1167,12.5068 C128.1167,12.269 127.9653,12.0978 127.6648,11.9943 L127.6648,11.7307 L131.4355,11.7307 L131.4355,11.9943 C131.1288,12.0825 130.9751,12.2352 130.9751,12.4529 C130.9751,12.6035 131.0253,12.7747 131.1237,12.9652 L135.1766,21.1375 C135.3476,21.4853 135.4972,21.7222 135.6279,21.8495 C135.7583,21.9751 135.9323,22.0604 136.1509,22.1015 L136.1509,22.3651 L132.2399,22.3651 L132.2399,22.1015 C132.5824,22.0445 132.7541,21.8835 132.7541,21.6185 C132.7541,21.5094 132.7017,21.3481 132.5988,21.1349 L131.8584,19.6408 Z" id="Fill-85" fill="#D02314"></path>
                <path d="M144.6378,16.2712 L148.2163,16.2712 C148.7449,16.2712 149.118,16.2559 149.3365,16.225 C149.5542,16.1935 149.7538,16.1298 149.9363,16.0303 C150.3292,15.8185 150.5265,15.4344 150.5265,14.8794 C150.5265,14.3267 150.3292,13.9423 149.9363,13.73 C149.7493,13.6251 149.5497,13.5596 149.3391,13.531 C149.1299,13.5029 148.7563,13.489 148.2163,13.489 L144.6378,13.489 L144.6378,16.2712 Z M144.6378,18.0284 L144.6378,21.5422 C144.6378,21.6979 144.6758,21.8186 144.7504,21.9025 C144.8258,21.9893 144.9542,22.0539 145.1356,22.1015 L145.1356,22.3649 L141.8261,22.3649 L141.8261,22.1015 C142.0121,22.0496 142.1425,21.9819 142.2153,21.8997 C142.2871,21.8161 142.3242,21.6973 142.3242,21.5414 L142.3242,12.5621 C142.3242,12.4022 142.2871,12.2795 142.2153,12.1964 C142.1425,12.1139 142.0121,12.0467 141.8261,11.994 L141.8261,11.7304 L148.4689,11.7304 C149.2781,11.7304 149.9196,11.7783 150.3947,11.8713 C150.8689,11.9645 151.2825,12.1292 151.6351,12.3622 C152.0436,12.6329 152.3509,12.9989 152.5524,13.4607 C152.7443,13.908 152.841,14.3856 152.841,14.8947 C152.841,16.6301 151.8769,17.6457 149.9511,17.9414 L152.0122,20.8684 C152.3747,21.3795 152.6403,21.7086 152.8087,21.8566 C152.9765,22.0046 153.1826,22.0851 153.4264,22.1015 L153.4264,22.3649 L149.5985,22.3649 L149.5985,22.1015 C149.8621,22.0598 149.9936,21.966 149.9936,21.8215 C149.9936,21.7299 149.872,21.5048 149.6291,21.1471 L147.4708,18.0284 L144.6378,18.0284 Z" id="Fill-86" fill="#D02314"></path>
                <path d="M144.6378,16.2712 L148.2163,16.2712 C148.7449,16.2712 149.118,16.2559 149.3365,16.225 C149.5542,16.1935 149.7538,16.1298 149.9363,16.0303 C150.3292,15.8185 150.5265,15.4344 150.5265,14.8794 C150.5265,14.3267 150.3292,13.9423 149.9363,13.73 C149.7493,13.6251 149.5497,13.5596 149.3391,13.531 C149.1299,13.5029 148.7563,13.489 148.2163,13.489 L144.6378,13.489 L144.6378,16.2712 Z M144.6378,18.0284 L144.6378,21.5422 C144.6378,21.6979 144.6758,21.8186 144.7504,21.9025 C144.8258,21.9893 144.9542,22.0539 145.1356,22.1015 L145.1356,22.3649 L141.8261,22.3649 L141.8261,22.1015 C142.0121,22.0496 142.1425,21.9819 142.2153,21.8997 C142.2871,21.8161 142.3242,21.6973 142.3242,21.5414 L142.3242,12.5621 C142.3242,12.4022 142.2871,12.2795 142.2153,12.1964 C142.1425,12.1139 142.0121,12.0467 141.8261,11.994 L141.8261,11.7304 L148.4689,11.7304 C149.2781,11.7304 149.9196,11.7783 150.3947,11.8713 C150.8689,11.9645 151.2825,12.1292 151.6351,12.3622 C152.0436,12.6329 152.3509,12.9989 152.5524,13.4607 C152.7443,13.908 152.841,14.3856 152.841,14.8947 C152.841,16.6301 151.8769,17.6457 149.9511,17.9414 L152.0122,20.8684 C152.3747,21.3795 152.6403,21.7086 152.8087,21.8566 C152.9765,22.0046 153.1826,22.0851 153.4264,22.1015 L153.4264,22.3649 L149.5985,22.3649 L149.5985,22.1015 C149.8621,22.0598 149.9936,21.966 149.9936,21.8215 C149.9936,21.7299 149.872,21.5048 149.6291,21.1471 L147.4708,18.0284 L144.6378,18.0284 Z" id="Fill-87" fill="#D02314"></path>
                <path d="M163.9032,17.4011 L162.3059,18.6903 L162.3059,21.5337 C162.3059,21.6945 162.3436,21.8186 162.4181,21.9028 C162.4933,21.989 162.6214,22.0545 162.8039,22.1012 L162.8039,22.3649 L159.4934,22.3649 L159.4934,22.1012 C159.6799,22.0494 159.8091,21.9813 159.8828,21.8994 C159.9546,21.8164 159.9914,21.6945 159.9914,21.5337 L159.9914,12.5539 C159.9914,12.3994 159.9546,12.2798 159.8828,12.1961 C159.8091,12.1139 159.6799,12.0462 159.4934,11.9943 L159.4934,11.7304 L162.8039,11.7304 L162.8039,11.9943 C162.6171,12.0402 162.487,12.1071 162.4147,12.1919 C162.3413,12.2778 162.3059,12.3965 162.3059,12.551 L162.3059,16.244 L166.6497,12.701 C166.8532,12.5357 166.9541,12.4031 166.9541,12.3055 C166.9541,12.1562 166.8028,12.0521 166.5009,11.9943 L166.5009,11.7304 L170.8594,11.7304 L170.8594,11.9943 C170.6786,12.0309 170.5488,12.072 170.4711,12.119 C170.3931,12.1655 170.1675,12.341 169.7956,12.6468 L169.1966,13.144 L165.5904,16.0393 L169.6714,20.96 C170.049,21.4198 170.3223,21.7169 170.4909,21.8509 C170.6582,21.9844 170.8696,22.0715 171.1239,22.114 L171.1239,22.3649 L167.004,22.3649 L167.004,22.1012 C167.277,22.0443 167.4134,21.947 167.4134,21.8059 C167.4134,21.7341 167.2895,21.5411 167.042,21.2313 L163.9032,17.4011 Z" id="Fill-88" fill="#D02314"></path>
                <path d="M163.9032,17.4011 L162.3059,18.6903 L162.3059,21.5337 C162.3059,21.6945 162.3436,21.8186 162.4181,21.9028 C162.4933,21.989 162.6214,22.0545 162.8039,22.1012 L162.8039,22.3649 L159.4934,22.3649 L159.4934,22.1012 C159.6799,22.0494 159.8091,21.9813 159.8828,21.8994 C159.9546,21.8164 159.9914,21.6945 159.9914,21.5337 L159.9914,12.5539 C159.9914,12.3994 159.9546,12.2798 159.8828,12.1961 C159.8091,12.1139 159.6799,12.0462 159.4934,11.9943 L159.4934,11.7304 L162.8039,11.7304 L162.8039,11.9943 C162.6171,12.0402 162.487,12.1071 162.4147,12.1919 C162.3413,12.2778 162.3059,12.3965 162.3059,12.551 L162.3059,16.244 L166.6497,12.701 C166.8532,12.5357 166.9541,12.4031 166.9541,12.3055 C166.9541,12.1562 166.8028,12.0521 166.5009,11.9943 L166.5009,11.7304 L170.8594,11.7304 L170.8594,11.9943 C170.6786,12.0309 170.5488,12.072 170.4711,12.119 C170.3931,12.1655 170.1675,12.341 169.7956,12.6468 L169.1966,13.144 L165.5904,16.0393 L169.6714,20.96 C170.049,21.4198 170.3223,21.7169 170.4909,21.8509 C170.6582,21.9844 170.8696,22.0715 171.1239,22.114 L171.1239,22.3649 L167.004,22.3649 L167.004,22.1012 C167.277,22.0443 167.4134,21.947 167.4134,21.8059 C167.4134,21.7341 167.2895,21.5411 167.042,21.2313 L163.9032,17.4011 Z" id="Fill-89" fill="#D02314"></path>
                <path d="M59.4153,33.8466 L58.5749,35.4569 L58.4263,35.3776 C58.4263,35.2407 58.3821,35.1347 58.2968,35.0561 C58.0587,34.8458 57.7109,34.6726 57.25,34.5365 C56.7905,34.3999 56.3239,34.3322 55.8516,34.3322 C55.4497,34.3322 55.0914,34.3886 54.7815,34.4983 C54.3345,34.6601 54.11,34.8923 54.11,35.1976 C54.11,35.3986 54.2169,35.542 54.4312,35.6262 C54.6466,35.7098 55.0616,35.7775 55.6787,35.8274 L56.6589,35.9009 C57.5144,35.968 58.167,36.1322 58.6123,36.3944 C58.8612,36.5438 59.0655,36.7419 59.2263,36.9879 C59.4304,37.2983 59.5313,37.6459 59.5313,38.0336 C59.5313,38.7369 59.2141,39.2936 58.5763,39.7021 C57.9702,40.0927 57.1471,40.2895 56.1107,40.2895 C55.0647,40.2895 54.0542,40.0689 53.0788,39.6267 C53.0136,39.5978 52.9572,39.5831 52.9118,39.5831 C52.8293,39.5831 52.7522,39.6324 52.6831,39.7324 L52.5274,39.6707 L53.2403,37.9758 L53.3971,38.0373 L53.3971,38.0867 C53.3971,38.1941 53.4371,38.2851 53.5207,38.3593 C53.7262,38.5402 54.0842,38.6972 54.5925,38.8316 C55.1036,38.9657 55.6039,39.0329 56.1011,39.0329 C56.541,39.0329 56.9336,38.975 57.2803,38.8597 C57.7097,38.7205 57.926,38.4934 57.926,38.1813 C57.926,37.9299 57.7769,37.7547 57.4801,37.6566 C57.2817,37.5895 56.9251,37.535 56.4081,37.4908 L55.4358,37.4089 C54.9117,37.3678 54.5103,37.3145 54.2339,37.2493 C53.9581,37.1838 53.7169,37.0857 53.5099,36.959 C53.246,36.7946 53.0394,36.5701 52.8908,36.2867 C52.7414,36.0026 52.6675,35.6925 52.6675,35.3546 C52.6675,34.5969 52.9937,34.0181 53.6468,33.6195 C54.2438,33.257 54.9788,33.0767 55.8562,33.0767 C56.3304,33.0767 56.7732,33.1289 57.1845,33.2326 C57.5961,33.3383 58.0893,33.5215 58.6568,33.7845 C58.8286,33.8616 58.9468,33.9013 59.0117,33.9013 C59.0789,33.9013 59.1625,33.8565 59.266,33.7655 L59.4153,33.8466 Z" id="Fill-90" fill="#C3C4C4"></path>
                <path d="M68.2339,34.3801 C67.5199,34.3801 66.9388,34.608 66.4881,35.0661 C66.0714,35.4949 65.8642,36.0349 65.8642,36.6815 C65.8642,37.3281 66.0714,37.8627 66.4881,38.2927 C66.9388,38.7553 67.5219,38.9869 68.2402,38.9869 C68.9542,38.9869 69.5356,38.7553 69.9849,38.2927 C70.4027,37.8672 70.6105,37.3411 70.6105,36.7133 C70.6105,36.0329 70.4027,35.4836 69.9849,35.0661 C69.5313,34.6168 68.9474,34.3872 68.2339,34.3801 L68.2339,34.3801 Z M68.2268,33.0764 C69.3304,33.0764 70.2505,33.3559 70.9881,33.9166 C71.8674,34.5921 72.3084,35.5326 72.3084,36.7385 C72.3084,37.8701 71.8674,38.7755 70.9881,39.4495 C70.2596,40.0097 69.3443,40.2897 68.2402,40.2897 C67.1352,40.2897 66.2199,40.0097 65.4931,39.4495 C64.6078,38.7755 64.1645,37.8514 64.1645,36.6815 C64.1645,35.5009 64.6078,34.5782 65.4931,33.9166 C66.2239,33.3684 67.1352,33.0883 68.2268,33.0764 L68.2268,33.0764 Z" id="Fill-91" fill="#C3C4C4"></path>
                <path d="M79.1966,36.0315 L81.5548,36.0315 C81.9873,36.0315 82.2875,35.989 82.4553,35.9077 C82.7017,35.7895 82.8258,35.5709 82.8258,35.2514 C82.8258,34.9331 82.7017,34.7131 82.4553,34.5955 C82.2901,34.5141 81.9902,34.4733 81.5548,34.4733 L79.1966,34.4733 L79.1966,36.0315 Z M79.1966,37.2867 L79.1966,39.4802 C79.1966,39.6083 79.2258,39.7044 79.2831,39.7721 C79.3395,39.8393 79.443,39.8949 79.5904,39.9394 L79.5904,40.1491 L77.1497,40.1491 L77.1497,39.9394 C77.2923,39.9028 77.3949,39.8495 77.4545,39.7809 C77.5143,39.7109 77.5435,39.6128 77.5435,39.4875 L77.5435,33.8783 C77.5435,33.7508 77.5151,33.6564 77.4581,33.5895 C77.4,33.5246 77.2974,33.4704 77.1497,33.4251 L77.1497,33.2159 L81.6616,33.2159 C82.5568,33.2159 83.2292,33.3494 83.6836,33.6161 C83.9472,33.7732 84.1541,33.9943 84.301,34.2826 C84.4498,34.5717 84.5241,34.894 84.5241,35.2514 C84.5241,35.9386 84.2896,36.4485 83.8191,36.7844 C83.3483,37.12 82.6285,37.2867 81.6597,37.2867 L79.1966,37.2867 Z" id="Fill-92" fill="#C3C4C4"></path>
                <path d="M91.2444,36.0539 L93.7265,36.0539 C94.1032,36.0539 94.3821,36.0123 94.5621,35.9301 C94.8172,35.8172 94.9434,35.5947 94.9434,35.2625 C94.9434,34.9685 94.8541,34.763 94.6766,34.6471 C94.498,34.5309 94.1823,34.4733 93.7265,34.4733 L91.2444,34.4733 L91.2444,36.0539 Z M91.2444,37.3097 L91.2444,39.4833 C91.2444,39.6111 91.2739,39.7061 91.33,39.7724 C91.3876,39.841 91.4916,39.8952 91.6399,39.9397 L91.6399,40.1494 L89.1964,40.1494 L89.1964,39.9397 C89.3401,39.9031 89.4425,39.8495 89.5023,39.7812 C89.5621,39.7109 89.5924,39.6131 89.5924,39.4878 L89.5924,33.8781 C89.5924,33.7511 89.5638,33.6567 89.506,33.5898 C89.4478,33.5249 89.3444,33.4704 89.1964,33.4254 L89.1964,33.2156 L93.725,33.2156 C94.3121,33.2156 94.7603,33.2456 95.0678,33.3057 C95.3765,33.3661 95.6534,33.475 95.8967,33.6326 C96.3936,33.9608 96.643,34.494 96.643,35.2344 C96.643,35.798 96.4894,36.2385 96.1824,36.5534 C95.8768,36.872 95.383,37.1005 94.7013,37.2402 L96.0052,39.0351 C96.245,39.3682 96.4347,39.5933 96.5761,39.7123 C96.7196,39.8308 96.88,39.9073 97.0611,39.9397 L97.0611,40.1494 L94.1383,40.1494 L94.1383,39.9397 C94.3529,39.8835 94.4612,39.792 94.4612,39.6672 C94.4612,39.578 94.394,39.4422 94.2614,39.2602 L92.8806,37.3097 L91.2444,37.3097 Z" id="Fill-93" fill="#C3C4C4"></path>
                <path d="M105.4338,34.3801 C104.7209,34.3801 104.1401,34.608 103.6883,35.0661 C103.2735,35.4949 103.0646,36.0349 103.0646,36.6815 C103.0646,37.3281 103.2735,37.8627 103.6883,38.2927 C104.1401,38.7553 104.7223,38.9869 105.4412,38.9869 C106.155,38.9869 106.7358,38.7553 107.1876,38.2927 C107.6026,37.8672 107.8104,37.3411 107.8104,36.7133 C107.8104,36.0329 107.6026,35.4836 107.1876,35.0661 C106.7324,34.6168 106.1484,34.3872 105.4338,34.3801 L105.4338,34.3801 Z M105.4284,33.0764 C106.5323,33.0764 107.4538,33.3559 108.188,33.9166 C109.0681,34.5921 109.5092,35.5326 109.5092,36.7385 C109.5092,37.8701 109.0681,38.7755 108.188,39.4495 C107.4617,40.0097 106.5453,40.2897 105.4412,40.2897 C104.3371,40.2897 103.4209,40.0097 102.6927,39.4495 C101.8094,38.7755 101.3667,37.8514 101.3667,36.6815 C101.3667,35.5009 101.8094,34.5782 102.6927,33.9166 C103.4246,33.3684 104.3374,33.0883 105.4284,33.0764 L105.4284,33.0764 Z" id="Fill-94" fill="#C3C4C4"></path>
                <path d="M116.2576,35.593 L116.2576,39.4819 C116.2576,39.6083 116.2874,39.7067 116.3472,39.7755 C116.4062,39.8441 116.5099,39.8997 116.6542,39.9391 L116.6542,40.1491 L114.3496,40.1491 L114.3496,39.9391 C114.4945,39.9025 114.5951,39.8489 114.6555,39.7812 C114.7145,39.7115 114.7462,39.6125 114.7462,39.4872 L114.7462,33.8783 C114.7462,33.7508 114.7167,33.6561 114.6583,33.5898 C114.6005,33.5249 114.4982,33.471 114.3496,33.4245 L114.3496,33.2159 L117.0122,33.2159 L117.0122,33.4245 C116.8317,33.471 116.7415,33.5492 116.7415,33.664 C116.7415,33.7621 116.8064,33.8758 116.9388,34.007 L120.655,37.6566 L120.655,33.8783 C120.655,33.7508 120.6264,33.6555 120.568,33.5878 C120.5105,33.52 120.4087,33.4667 120.2602,33.4245 L120.2602,33.2159 L122.563,33.2159 L122.563,33.4245 C122.4151,33.4667 122.3116,33.52 122.2538,33.5878 C122.1968,33.6555 122.1673,33.7508 122.1673,33.8783 L122.1673,39.4819 C122.1673,39.6083 122.1968,39.7055 122.2538,39.7724 C122.3116,39.8396 122.4151,39.8952 122.563,39.9391 L122.563,40.1491 L120.0799,40.1491 L120.0799,39.9391 C120.2621,39.9031 120.3517,39.8283 120.3517,39.7154 C120.3517,39.6587 120.3271,39.6012 120.2774,39.54 C120.2284,39.4779 120.1147,39.3597 119.9364,39.1811 L116.2576,35.593 Z" id="Fill-95" fill="#C3C4C4"></path>
                <path d="M12.1856,18.1752 L10.478,14.4344 L8.7446,18.1752 L12.1856,18.1752 Z M12.86,19.6408 L8.0504,19.6408 L7.3253,21.1349 C7.2267,21.3432 7.1776,21.5065 7.1776,21.6253 C7.1776,21.8549 7.3525,22.0128 7.7046,22.1015 L7.7046,22.3651 L4.174,22.3651 L4.174,22.1015 C4.381,22.0604 4.5397,21.9876 4.6486,21.8847 C4.7574,21.7806 4.8824,21.5788 5.0222,21.2781 L8.9306,13.1284 C9.0553,12.8696 9.1182,12.6627 9.1182,12.5068 C9.1182,12.269 8.9671,12.0978 8.6664,11.9943 L8.6664,11.7307 L12.4365,11.7307 L12.4365,11.9943 C12.13,12.0825 11.9773,12.2352 11.9773,12.4529 C11.9773,12.6035 12.026,12.7747 12.1252,12.9652 L16.1779,21.1375 C16.3489,21.4853 16.5002,21.7222 16.6298,21.8495 C16.7604,21.9751 16.9342,22.0604 17.1513,22.1015 L17.1513,22.3651 L13.2409,22.3651 L13.2409,22.1015 C13.5839,22.0445 13.756,21.8835 13.756,21.6185 C13.756,21.5094 13.7041,21.3481 13.6007,21.1349 L12.86,19.6408 Z" id="Fill-96" fill="#D02314"></path>
                <path d="M12.1856,18.1752 L10.478,14.4344 L8.7446,18.1752 L12.1856,18.1752 Z M12.86,19.6408 L8.0504,19.6408 L7.3253,21.1349 C7.2267,21.3432 7.1776,21.5065 7.1776,21.6253 C7.1776,21.8549 7.3525,22.0128 7.7046,22.1015 L7.7046,22.3651 L4.174,22.3651 L4.174,22.1015 C4.381,22.0604 4.5397,21.9876 4.6486,21.8847 C4.7574,21.7806 4.8824,21.5788 5.0222,21.2781 L8.9306,13.1284 C9.0553,12.8696 9.1182,12.6627 9.1182,12.5068 C9.1182,12.269 8.9671,12.0978 8.6664,11.9943 L8.6664,11.7307 L12.4365,11.7307 L12.4365,11.9943 C12.13,12.0825 11.9773,12.2352 11.9773,12.4529 C11.9773,12.6035 12.026,12.7747 12.1252,12.9652 L16.1779,21.1375 C16.3489,21.4853 16.5002,21.7222 16.6298,21.8495 C16.7604,21.9751 16.9342,22.0604 17.1513,22.1015 L17.1513,22.3651 L13.2409,22.3651 L13.2409,22.1015 C13.5839,22.0445 13.756,21.8835 13.756,21.6185 C13.756,21.5094 13.7041,21.3481 13.6007,21.1349 L12.86,19.6408 Z" id="Fill-97" fill="#D02314"></path>
                <path d="M25.64,20.6071 L32.1616,20.6071 C32.3224,20.6071 32.4437,20.5711 32.527,20.4982 C32.6089,20.4254 32.6773,20.2953 32.7297,20.1093 L32.9936,20.1093 L32.9936,22.8632 L32.7297,22.8632 C32.6773,22.6758 32.6089,22.546 32.527,22.4734 C32.4437,22.4011 32.3224,22.3646 32.1616,22.3646 L22.8277,22.3646 L22.8277,22.1015 C23.014,22.0494 23.1438,21.9816 23.2166,21.8994 C23.2889,21.8164 23.3255,21.6947 23.3255,21.5337 L23.3255,12.5618 C23.3255,12.4016 23.2889,12.2795 23.2166,12.1964 C23.1438,12.1142 23.014,12.0465 22.8277,11.9943 L22.8277,11.7307 L26.138,11.7307 L26.138,11.9943 C25.9512,12.0408 25.8208,12.1077 25.7488,12.1927 C25.6763,12.2781 25.64,12.4016 25.64,12.5618 L25.64,20.6071 Z" id="Fill-98" fill="#D02314"></path>
                <path d="M25.64,20.6071 L32.1616,20.6071 C32.3224,20.6071 32.4437,20.5711 32.527,20.4982 C32.6089,20.4254 32.6773,20.2953 32.7297,20.1093 L32.9936,20.1093 L32.9936,22.8632 L32.7297,22.8632 C32.6773,22.6758 32.6089,22.546 32.527,22.4734 C32.4437,22.4011 32.3224,22.3646 32.1616,22.3646 L22.8277,22.3646 L22.8277,22.1015 C23.014,22.0494 23.1438,21.9816 23.2166,21.8994 C23.2889,21.8164 23.3255,21.6947 23.3255,21.5337 L23.3255,12.5618 C23.3255,12.4016 23.2889,12.2795 23.2166,12.1964 C23.1438,12.1142 23.014,12.0465 22.8277,11.9943 L22.8277,11.7307 L26.138,11.7307 L26.138,11.9943 C25.9512,12.0408 25.8208,12.1077 25.7488,12.1927 C25.6763,12.2781 25.64,12.4016 25.64,12.5618 L25.64,20.6071 Z" id="Fill-99" fill="#D02314"></path>
                <path d="M41.6963,16.3007 L45.2313,16.3007 C45.9352,16.3007 46.4307,16.2259 46.715,16.0751 C46.8961,15.9764 47.0415,15.8194 47.1535,15.6037 C47.2649,15.3877 47.3213,15.1504 47.3213,14.8907 C47.3213,14.6356 47.2649,14.4023 47.1535,14.1852 C47.0415,13.9715 46.8961,13.8133 46.715,13.7138 C46.4346,13.5647 45.9403,13.489 45.2313,13.489 L41.6963,13.489 L41.6963,16.3007 Z M41.6963,18.0579 L41.6963,21.5428 C41.6963,21.6979 41.734,21.8189 41.8088,21.9039 C41.8839,21.9893 42.012,22.055 42.1946,22.1015 L42.1946,22.3649 L38.8837,22.3649 L38.8837,22.1015 C39.0705,22.0496 39.2003,21.9819 39.2732,21.8997 C39.3452,21.8161 39.382,21.6973 39.382,21.5414 L39.382,12.5612 C39.382,12.4022 39.3452,12.2795 39.2732,12.1964 C39.2003,12.1139 39.0705,12.0467 38.8837,11.994 L38.8837,11.7304 L45.5091,11.7304 C46.2821,11.7304 46.8953,11.7823 47.3485,11.8866 C47.8029,11.9912 48.2029,12.1715 48.5504,12.426 C48.9084,12.6902 49.1882,13.0392 49.39,13.4703 C49.5924,13.9179 49.6945,14.3924 49.6945,14.8907 C49.6945,15.6088 49.5014,16.2381 49.1185,16.7795 C48.786,17.2429 48.3466,17.5715 47.7992,17.7659 C47.2516,17.9615 46.4879,18.0579 45.5089,18.0579 L41.6963,18.0579 Z" id="Fill-100" fill="#D02314"></path>
                <path d="M41.6963,16.3007 L45.2313,16.3007 C45.9352,16.3007 46.4307,16.2259 46.715,16.0751 C46.8961,15.9764 47.0415,15.8194 47.1535,15.6037 C47.2649,15.3877 47.3213,15.1504 47.3213,14.8907 C47.3213,14.6356 47.2649,14.4023 47.1535,14.1852 C47.0415,13.9715 46.8961,13.8133 46.715,13.7138 C46.4346,13.5647 45.9403,13.489 45.2313,13.489 L41.6963,13.489 L41.6963,16.3007 Z M41.6963,18.0579 L41.6963,21.5428 C41.6963,21.6979 41.734,21.8189 41.8088,21.9039 C41.8839,21.9893 42.012,22.055 42.1946,22.1015 L42.1946,22.3649 L38.8837,22.3649 L38.8837,22.1015 C39.0705,22.0496 39.2003,21.9819 39.2732,21.8997 C39.3452,21.8161 39.382,21.6973 39.382,21.5414 L39.382,12.5612 C39.382,12.4022 39.3452,12.2795 39.2732,12.1964 C39.2003,12.1139 39.0705,12.0467 38.8837,11.994 L38.8837,11.7304 L45.5091,11.7304 C46.2821,11.7304 46.8953,11.7823 47.3485,11.8866 C47.8029,11.9912 48.2029,12.1715 48.5504,12.426 C48.9084,12.6902 49.1882,13.0392 49.39,13.4703 C49.5924,13.9179 49.6945,14.3924 49.6945,14.8907 C49.6945,15.6088 49.5014,16.2381 49.1185,16.7795 C48.786,17.2429 48.3466,17.5715 47.7992,17.7659 C47.2516,17.9615 46.4879,18.0579 45.5089,18.0579 L41.6963,18.0579 Z" id="Fill-101" fill="#D02314"></path>
                <path d="M64.7938,17.7359 L58.6707,17.7359 L58.6707,21.5439 C58.6707,21.699 58.7087,21.8192 58.7838,21.9042 C58.8586,21.9884 58.9873,22.055 59.1684,22.1018 L59.1684,22.3649 L55.8587,22.3649 L55.8587,22.1018 C56.0455,22.0491 56.1745,21.9819 56.2479,21.8991 C56.3202,21.8164 56.3559,21.6973 56.3559,21.5411 L56.3559,12.5544 C56.3559,12.3994 56.3202,12.2798 56.2479,12.1958 C56.1745,12.1139 56.0455,12.0462 55.8587,11.9943 L55.8587,11.7304 L59.1684,11.7304 L59.1684,11.9943 C58.9819,12.0411 58.8524,12.1074 58.7801,12.193 C58.707,12.2798 58.6707,12.3994 58.6707,12.5547 L58.6707,15.9787 L64.7938,15.9787 L64.7938,12.5547 C64.7938,12.3994 64.7569,12.2798 64.6849,12.193 C64.6112,12.1074 64.4823,12.0411 64.2957,11.9943 L64.2957,11.7304 L67.6063,11.7304 L67.6063,11.9943 C67.4192,12.0462 67.2891,12.1139 67.2169,12.1958 C67.1434,12.2798 67.108,12.3994 67.108,12.5544 L67.108,21.5411 C67.108,21.6973 67.1434,21.8164 67.2169,21.8991 C67.2891,21.9819 67.4192,22.0491 67.6063,22.1018 L67.6063,22.3649 L64.2957,22.3649 L64.2957,22.1018 C64.4772,22.055 64.6047,21.9884 64.6796,21.9042 C64.7555,21.8192 64.7938,21.699 64.7938,21.5439 L64.7938,17.7359 Z" id="Fill-102" fill="#D02314"></path>
                <path d="M64.7938,17.7359 L58.6707,17.7359 L58.6707,21.5439 C58.6707,21.699 58.7087,21.8192 58.7838,21.9042 C58.8586,21.9884 58.9873,22.055 59.1684,22.1018 L59.1684,22.3649 L55.8587,22.3649 L55.8587,22.1018 C56.0455,22.0491 56.1745,21.9819 56.2479,21.8991 C56.3202,21.8164 56.3559,21.6973 56.3559,21.5411 L56.3559,12.5544 C56.3559,12.3994 56.3202,12.2798 56.2479,12.1958 C56.1745,12.1139 56.0455,12.0462 55.8587,11.9943 L55.8587,11.7304 L59.1684,11.7304 L59.1684,11.9943 C58.9819,12.0411 58.8524,12.1074 58.7801,12.193 C58.707,12.2798 58.6707,12.3994 58.6707,12.5547 L58.6707,15.9787 L64.7938,15.9787 L64.7938,12.5547 C64.7938,12.3994 64.7569,12.2798 64.6849,12.193 C64.6112,12.1074 64.4823,12.0411 64.2957,11.9943 L64.2957,11.7304 L67.6063,11.7304 L67.6063,11.9943 C67.4192,12.0462 67.2891,12.1139 67.2169,12.1958 C67.1434,12.2798 67.108,12.3994 67.108,12.5544 L67.108,21.5411 C67.108,21.6973 67.1434,21.8164 67.2169,21.8991 C67.2891,21.9819 67.4192,22.0491 67.6063,22.1018 L67.6063,22.3649 L64.2957,22.3649 L64.2957,22.1018 C64.4772,22.055 64.6047,21.9884 64.6796,21.9042 C64.7555,21.8192 64.7938,21.699 64.7938,21.5439 L64.7938,17.7359 Z" id="Fill-103" fill="#D02314"></path>
                <polygon id="Fill-104" fill="#D02314" points="0.0355 27.5199 73.7802 27.5199 73.7802 26.8569 0.0355 26.8569"></polygon>
                <polygon id="Fill-105" fill="#D02314" points="102.6706 27.5199 152.6273 27.5199 175.6769 27.5199 175.6769 26.8569 102.6706 26.8569"></polygon>
            </g>
        </g>
    </g>
</svg>