<svg width="66" height="74" xmlns="http://www.w3.org/2000/svg"><title>aqua-filt</title><g fill="none" fill-rule="evenodd"><path stroke="#151515" stroke-width=".567" d="M.285.964h64.74v72.614H.285z"/><path d="M6.846 4.244h51.618a3.51 3.51 0 0 1 3.5 3.5v50.305a3.51 3.51 0 0 1-3.5 3.5H6.846a3.51 3.51 0 0 1-3.5-3.5V7.744a3.51 3.51 0 0 1 3.5-3.5" fill="#003968"/><path d="M21.12 40.445c.259-1.083 8.196-17.243 9.65-19.634.096-.157.097-.105.226-.271.185-.24-.012-.11.214-.272l.67-.34c.26-.094.593-.088.92-.09.997-.002 1.493.523 1.859 1.232l5.077 9.848 2.324.01 2.23-.002c-.01-.158-8.129-17.626-9.647-19.944-.502-.823-1.33-1.276-2.337-1.178-.546.054-.987.492-1.377 1.002l-.416.569L9.14 54.257c-.29.465-.448.808-.448 1.464 0 .671.124 1 .418 1.407.072.1.19.192.278.31.557.748 2.422 1.13 3.523-.668l5.69-11.748c.208-.136.394-.175.766-.175 1.517 0 18.767.098 19.447-.009.068-.01.376-.058.624-.17.278-.124.497-.318.547-.367.168-.166.3-.36.397-.572.308-.664.29-1.5.096-2.18-.232-.81-1.59-1.106-2.34-1.101l-17.019-.003z" fill="#FEFEFE"/><path d="M50.904 36.248c2.868.172 3.626-4.42.124-4.595H31.132c-1.029 0-1.3.132-2.123 1.252l-3.5 6.814 5.226-.001c.023-.037.057-.117.077-.154 1.531-2.924 1.096-3.398 4.2-3.316h15.892z" fill="#FEFEFE"/><path d="M47.81 36.89l-1.245-.004-4.01.006 9.995 20.2.381.43c.255.213.838.47 1.14.501.895.092 1.59-.164 2.205-.772.767-.76.634-1.795.234-2.645l-8.7-17.716zM22.157 56.855l5.355-11.199-4.307-.02c-.73 0-.837.587-1.145 1.269-1.07 2.366-2.848 5.568-4.065 7.93-.17.33-.166 1.456.085 1.933l.223.443c.838 1.214 3.101 1.216 3.854-.356" fill="#FEFEFE"/><path d="M6.92 68.32c.091 0 .17.004.232.01a.94.94 0 0 1 .147.023.302.302 0 0 1 .15.1.284.284 0 0 1 .052.178.27.27 0 0 1-.146.25c-.097.057-.243.085-.435.085h-.715a2.97 2.97 0 0 1-.232-.008 1.053 1.053 0 0 1-.147-.023.3.3 0 0 1-.151-.102.283.283 0 0 1-.052-.177c0-.11.049-.194.147-.251.097-.056.242-.084.435-.084h.715zm1.764 1.405v-2.22c0-.357-.109-.626-.327-.805-.217-.18-.543-.27-.976-.27H6.237c-.24 0-.45.013-.63.037-.18.026-.332.061-.452.109a.878.878 0 0 0-.426.316.87.87 0 0 0-.143.506v.038h1.177c0-.165.113-.247.34-.247h.956c.152 0 .265.03.341.09.076.059.114.147.114.264v.348c-.127-.092-.31-.161-.55-.208a4.687 4.687 0 0 0-.885-.07c-.269 0-.497.012-.685.037a1.766 1.766 0 0 0-.447.108.817.817 0 0 0-.384.348 1.17 1.17 0 0 0-.128.576c0 .23.038.422.118.575a.778.778 0 0 0 .35.347 1.4 1.4 0 0 0 .43.123c.183.028.404.042.663.042.765 0 1.271-.146 1.518-.437v.393h1.17zm6.604-.588v1.688h1.17v-4.35h-1.17v.594a.566.566 0 0 0-.165-.35.89.89 0 0 0-.403-.213 2.32 2.32 0 0 0-.366-.057 6.168 6.168 0 0 0-.513-.019c-.266 0-.495.013-.687.04a1.72 1.72 0 0 0-.47.118.861.861 0 0 0-.419.351 1.117 1.117 0 0 0-.138.579v1.075c0 .224.046.415.138.572a.899.899 0 0 0 .412.364c.13.063.29.11.48.142.19.032.411.047.665.047.202 0 .375-.005.517-.014.144-.011.257-.027.342-.049a.966.966 0 0 0 .395-.19.68.68 0 0 0 .212-.328zm-.72-1.809c.117 0 .219.008.306.023.088.016.159.04.212.072a.402.402 0 0 1 .166.175.62.62 0 0 1 .055.274v.392a.75.75 0 0 1-.052.3.378.378 0 0 1-.162.18.64.64 0 0 1-.208.066 1.854 1.854 0 0 1-.317.023h-.531c-.494 0-.74-.183-.74-.55v-.405c0-.11.018-.205.056-.283a.402.402 0 0 1 .165-.178.7.7 0 0 1 .212-.066c.087-.015.19-.023.307-.023h.53zm8.603-.853v1.587c0 .158-.023.29-.07.397a.497.497 0 0 1-.209.241.845.845 0 0 1-.284.094c-.12.022-.265.033-.436.033-.158 0-.291-.01-.4-.028a.774.774 0 0 1-.252-.08.417.417 0 0 1-.176-.218 1.011 1.011 0 0 1-.057-.37v-1.656h-1.17v2.08c0 .23.04.427.119.589a.92.92 0 0 0 .355.39 1.4 1.4 0 0 0 .47.177c.186.039.402.058.649.058.367 0 .639-.025.816-.076a1.106 1.106 0 0 0 .645-.468v.5h1.17v-3.25h-1.17zm7.104 1.846c.092 0 .17.003.233.008a.943.943 0 0 1 .146.024.302.302 0 0 1 .151.1.282.282 0 0 1 .052.178c0 .11-.049.194-.146.25-.098.057-.243.085-.436.085h-.714c-.092 0-.17-.003-.232-.008a1.06 1.06 0 0 1-.148-.023.303.303 0 0 1-.15-.102.283.283 0 0 1-.052-.177c0-.11.048-.194.146-.251.097-.056.243-.084.436-.084h.714zm1.764 1.404v-2.22c0-.357-.108-.626-.326-.805-.218-.18-.543-.27-.976-.27h-1.145c-.24 0-.45.013-.63.037-.18.026-.33.061-.451.109a.878.878 0 0 0-.427.316.87.87 0 0 0-.142.506v.038h1.176c0-.165.114-.247.341-.247h.955c.152 0 .266.03.342.09.075.059.113.147.113.264v.348c-.126-.092-.31-.161-.549-.208a4.683 4.683 0 0 0-.886-.07c-.269 0-.497.012-.684.037a1.77 1.77 0 0 0-.448.108.817.817 0 0 0-.383.348 1.168 1.168 0 0 0-.129.576c0 .23.04.422.118.575a.779.779 0 0 0 .35.347 1.4 1.4 0 0 0 .431.123c.182.028.404.042.663.042.765 0 1.27-.146 1.517-.437v.393h1.17zm5.837-2.239h-2.08v1.177h2.08zm5.211 2.239V67.36h1.075v-.885h-1.075l-.007-.045c0-.098.015-.18.043-.248a.378.378 0 0 1 .128-.163.522.522 0 0 1 .189-.071c.077-.016.168-.023.273-.023l.11.004.149.008c.05.002.093.002.126 0v-.81h-.746c-.268 0-.495.023-.68.068a.998.998 0 0 0-.433.205.885.885 0 0 0-.247.414 2.312 2.312 0 0 0-.081.66h-.57v.886h.57v2.365h1.176zm5.628-3.642v-.955h-1.17v.954h1.17zm0 3.642v-3.25h-1.17v3.25h1.17zm5.04 0v-4.597h-1.17v4.597h1.17zm4.167-2.403c0 .072-.001.156-.005.25-.001.095-.005.202-.008.319-.003.117-.005.215-.005.295l-.001.192c0 .253.022.466.065.64a.904.904 0 0 0 .194.397c.105.117.264.205.477.264.214.06.481.09.8.09.25 0 .47-.018.66-.053.19-.035.349-.09.478-.162.342-.19.513-.512.513-.968 0-.047-.001-.1-.005-.16l-.008-.194-1.037.02.008.109a.885.885 0 0 1-.02.287.287.287 0 0 1-.076.128.358.358 0 0 1-.158.086.925.925 0 0 1-.247.028c-.11 0-.2-.015-.267-.045a.28.28 0 0 1-.145-.148.66.66 0 0 1-.043-.269v-1.106h1.827v-.847h-1.827v-.778h-1.17v.778h-.658v.847h.658z" fill="#003968"/></g></svg>