<svg width="114" height="48" viewBox="0 0 114 48" xmlns="http://www.w3.org/2000/svg"><title>foton</title><g style="mix-blend-mode:luminosity" fill="none" fill-rule="evenodd"><path d="M.525 24.477v22.51h6.432V31.156h14.799l-.002-.742v-6.185H6.957c0-8.448 6.25-16.82 15.09-16.82V.235C9.61.235.524 11.885.524 24.477" fill="#AFAFB0"/><path d="M21.69 9.11c-7.834 1.598-12.164 6.182-12.988 13.759H21.69V9.109m-.078 23.731H8.316v14.147h13.296z" fill="#0074B7"/><path d="M36.415 24.956a11.17 11.17 0 0 1 9.997 6.184H26.418a11.17 11.17 0 0 1 9.997-6.184zm10.655 7.807c.335 1.061.515 2.191.515 3.363 0 6.17-5 11.17-11.17 11.17s-11.17-5-11.17-11.17c0-1.172.18-2.302.515-3.363h7.405a4.677 4.677 0 1 0 6.5 0h7.405zm30.083-7.807a11.17 11.17 0 0 1 9.998 6.184H67.156a11.17 11.17 0 0 1 9.997-6.184zm10.655 7.807c.334 1.061.515 2.191.515 3.363 0 6.17-5 11.17-11.17 11.17-6.169 0-11.17-5-11.17-11.17 0-1.172.181-2.302.516-3.363h7.404a4.677 4.677 0 1 0 6.5 0h7.405zm-36.59-16.852h6.339v7.035h-6.339zm0 16.852h6.339v2.899c.068 2.655 1.102 4.7 4.677 5.14v6.184c-.254 0-.533.004-.812 0-6.622-.084-10.204-6.005-10.204-12.078v-2.145zm.018-8.059h10.977v6.262H51.236zm48.276 9.354c.1-.472.291-.91.555-1.295h-7.512v14.088h6.88v-12.05l.077-.743zm6.5-1.295c.263.385.455.823.554 1.295l.097 12.793h6.88V32.763h-7.532zm7.17-1.623c-1.211-3.715-4.076-5.364-7.987-5.998-1.665-.27-2.939-.244-4.604.04-4.624.79-6.628 3.005-7.636 5.958h20.227z" fill="#AFAFB0"/></g></svg>