<?xml version="1.0" encoding="UTF-8"?>
<svg width="97px" height="77px" viewBox="0 0 97 77" version="1.1" xmlns="http://www.w3.org/2000/svg" xmlns:xlink="http://www.w3.org/1999/xlink">
    <!-- Generator: Sketch 40.3 (33839) - http://www.bohemiancoding.com/sketch -->
    <title>otthon</title>
    <desc>Created with Sketch.</desc>
    <defs>
        <path d="M70.8997,0.2394 L2.4008,0.2394 C1.1317,0.2394 0.1039,2.1284 0.1039,4.4611 L0.1039,24.5953 C0.1039,26.9265 1.1317,28.8163 2.4008,28.8163 L70.8997,28.8163 C72.1685,28.8163 73.1963,26.9265 73.1963,24.5953 L73.1963,4.4611 C73.1963,2.1284 72.1685,0.2394 70.8997,0.2394 L70.8997,0.2394 L70.8997,0.2394 Z M0.1039,0.2394 L73.1963,0.2394 L73.1963,28.8163 L0.1039,28.8163 L0.1039,0.2394 L0.1039,0.2394 L0.1039,0.2394 Z" id="path-1"></path>
    </defs>
    <g id="Page-1" stroke="none" stroke-width="1" fill="none" fill-rule="evenodd">
        <g id="otthon">
            <path d="M96.0505,71.5026 L96.0525,71.6347 C96.0525,71.6347 0.814,83.9696 0.8345,69.8627 L0.7939,5.9681 C0.7939,3.0025 3.162,0.597 6.0828,0.597 L90.7837,0.597 C93.7054,0.597 96.074,3.0025 96.074,5.9681 L96.0505,71.5026 L96.0505,71.5026 Z" id="Fill-12" fill="#FEFEFE"></path>
            <path d="M96.0505,71.5026 L96.0525,71.6347 C96.0525,71.6347 0.814,83.9696 0.8345,69.8627 L0.7939,5.9681 C0.7939,3.0025 3.162,0.597 6.0828,0.597 L90.7837,0.597 C93.7054,0.597 96.074,3.0025 96.074,5.9681 L96.0505,71.5026 L96.0505,71.5026 Z" id="Stroke-13" stroke="#151515" stroke-width="0.5669"></path>
            <g id="Group-16" transform="translate(12.000000, 7.889800)">
                <g id="Fill-14-Clipped">
                    <mask id="mask-2" fill="white">
                        <use xlink:href="#path-1"></use>
                    </mask>
                    <g id="path-1"></g>
                    <path d="M70.8997,0.2394 L2.4008,0.2394 C1.1317,0.2394 0.1039,2.1284 0.1039,4.4611 L0.1039,24.5953 C0.1039,26.9265 1.1317,28.8163 2.4008,28.8163 L2.4008,28.8163 L70.8997,28.8163 C72.1685,28.8163 73.1963,26.9265 73.1963,24.5953 L73.1963,24.5953 L73.1963,4.4611 C73.1963,2.1284 72.1685,0.2394 70.8997,0.2394" id="Fill-14" mask="url(#mask-2)"></path>
                </g>
            </g>
            <path d="M21.9024,49.4272 C19.201,49.4272 18.0263,47.4696 18.0263,45.1284 C18.0263,42.8004 19.201,40.8306 21.9024,40.8306 C24.6041,40.8306 25.768,42.8004 25.768,45.1284 C25.768,47.4696 24.6041,49.4272 21.9024,49.4272 L21.9024,49.4272 L21.9024,49.4272 Z M21.9024,42.0795 C20.5936,42.0795 20.2104,43.6159 20.2104,45.0689 C20.2104,46.5103 20.5579,48.0464 21.9024,48.0464 C23.2347,48.0464 23.5709,46.5103 23.5709,45.0689 C23.5709,43.6159 23.1998,42.0795 21.9024,42.0795 L21.9024,42.0795 L21.9024,42.0795 Z" id="Fill-17" fill="#1F345D"></path>
            <polygon id="Fill-18" fill="#1F345D" points="32.6809 42.2348 32.6809 49.2571 30.5563 49.2571 30.5563 42.2348 28.6715 42.2348 28.6715 40.9998 34.5653 40.9998 34.5653 42.2348"></polygon>
            <polygon id="Fill-19" fill="#1F345D" points="41.5998 42.2348 41.5998 49.2571 39.4752 49.2571 39.4752 42.2348 37.5907 42.2348 37.5907 40.9998 43.4837 40.9998 43.4837 42.2348"></polygon>
            <polygon id="Fill-20" fill="#1F345D" points="51.8768 49.2577 51.8768 45.6449 49.1751 45.6449 49.1751 49.2577 47.0619 49.2577 47.0619 41.0006 49.1751 41.0006 49.1751 44.4325 51.8768 44.4325 51.8768 41.0006 54.0011 41.0006 54.0011 49.2577"></polygon>
            <path d="M61.647,49.4272 C58.9475,49.4272 57.7703,47.4696 57.7703,45.1284 C57.7703,42.8004 58.9475,40.8306 61.647,40.8306 C64.3484,40.8306 65.5126,42.8004 65.5126,45.1284 C65.5126,47.4696 64.3484,49.4272 61.647,49.4272 L61.647,49.4272 L61.647,49.4272 Z M61.647,42.0795 C60.3382,42.0795 59.955,43.6159 59.955,45.0689 C59.955,46.5103 60.3033,48.0464 61.647,48.0464 C62.9804,48.0464 63.3166,46.5103 63.3166,45.0689 C63.3166,43.6159 62.9444,42.0795 61.647,42.0795 L61.647,42.0795 L61.647,42.0795 Z" id="Fill-21" fill="#1F345D"></path>
            <path d="M74.9593,49.2577 L71.5036,44.3608 C71.2269,43.9645 71.0228,43.5564 71.0228,43.5564 L70.9993,43.5564 C70.9993,43.5564 71.0466,44.0124 71.0466,44.481 L71.0466,49.2577 L69.2815,49.2577 L69.2815,41.0006 L71.1436,41.0006 L74.3601,45.4771 C74.6724,45.9083 74.8519,46.2926 74.8519,46.2926 L74.8754,46.2926 C74.8754,46.2926 74.8272,45.8499 74.8272,45.4043 L74.8272,41.0006 L76.6043,41.0006 L76.6043,49.2577 L74.9593,49.2577 L74.9593,49.2577 Z" id="Fill-22" fill="#1F345D"></path>
            <path d="M21.3499,58.0969 C19.3739,58.0969 18.0683,56.45 18.0683,54.4249 C18.0683,52.4501 19.3436,50.7521 21.3292,50.7521 C22.0702,50.7521 22.6156,50.9171 22.9753,51.1319 L22.7182,51.6683 C22.471,51.5237 22.0396,51.3689 21.5047,51.3689 C19.858,51.3689 19.0349,52.892 19.0349,54.4249 C19.0349,55.9979 19.9519,57.4484 21.524,57.4484 C22.0396,57.4484 22.42,57.3254 22.7182,57.1706 L22.9753,57.7157 C22.6553,57.9229 22.0297,58.0969 21.3499,58.0969" id="Fill-23" fill="#1F345D"></path>
            <polygon id="Fill-24" fill="#1F345D" points="26.4228 57.9646 26.4228 50.8856 30.302 50.8856 30.302 51.4619 27.3492 51.4619 27.3492 54.0136 30.0129 54.0136 30.0129 54.5896 27.3492 54.5896 27.3492 57.3761 30.302 57.3761 30.302 57.9646"></polygon>
            <path d="M38.8516,57.9646 L35.0353,52.5215 C34.7674,52.1411 34.5616,51.7814 34.5616,51.7814 L34.5319,51.7814 C34.5319,51.7814 34.5718,52.223 34.5718,52.6754 L34.5718,57.9646 L33.7898,57.9646 L33.7898,50.8856 L34.7674,50.8856 L38.4496,56.1022 C38.7592,56.5325 38.9242,56.8537 38.9242,56.8537 L38.9437,56.8537 C38.9437,56.8537 38.9026,56.4404 38.9026,55.9885 L38.9026,50.8856 L39.6736,50.8856 L39.6736,57.9646 L38.8516,57.9646 L38.8516,57.9646 Z" id="Fill-25" fill="#1F345D"></path>
            <polygon id="Fill-26" fill="#1F345D" points="45.8591 51.4619 45.8591 57.9646 44.9438 57.9646 44.9438 51.4619 42.9984 51.4619 42.9984 50.8859 47.8043 50.8859 47.8043 51.4619"></polygon>
            <path d="M55.0371,57.9646 L52.0951,54.5281 L52.0744,54.5281 L52.0744,57.9646 L51.1579,57.9646 L51.1579,51.1317 C51.6123,50.927 52.3828,50.7524 53.1853,50.7524 C54.9861,50.7524 55.9524,51.5438 55.9524,52.8188 C55.9524,54.0854 55.0272,54.7546 53.3091,54.7943 L53.3091,54.8153 L56.1792,57.9646 L55.0371,57.9646 L55.0371,57.9646 Z M53.1657,51.2669 C52.7028,51.2669 52.3113,51.3593 52.0744,51.471 L52.0744,54.4051 C52.2691,54.4561 52.6002,54.4961 52.9282,54.4961 C54.3364,54.4961 55.0272,53.9215 55.0272,52.8514 C55.0272,51.77 54.409,51.2669 53.1657,51.2669 L53.1657,51.2669 L53.1657,51.2669 Z" id="Fill-27" fill="#1F345D"></path>
            <path d="M62.2196,58.0969 C60.6146,58.0969 59.6471,57.1706 59.6471,55.9778 L59.6471,50.8862 L60.5735,50.8862 L60.5735,55.9778 C60.5735,56.9041 61.4168,57.4166 62.2706,57.4166 C63.1235,57.4166 63.9586,56.9041 63.9586,55.9778 L63.9586,50.8862 L64.8031,50.8862 L64.8031,55.9778 C64.8031,57.1706 63.8245,58.0969 62.2196,58.0969" id="Fill-28" fill="#1F345D"></path>
            <path d="M75.6263,57.9646 L74.8955,52.511 C74.8329,52.0696 74.8329,51.6779 74.8329,51.6779 L74.8128,51.6779 C74.8128,51.6779 74.7314,52.0696 74.5758,52.511 C74.5758,52.511 72.6839,57.8713 72.6417,57.9646 L72.0569,57.9646 L70.1424,52.5008 C69.999,52.0787 69.917,51.6779 69.917,51.6779 L69.8963,51.6872 C69.8963,51.6872 69.885,52.0787 69.8238,52.5008 L69.0732,57.9646 L68.2809,57.9646 L69.351,50.8856 L70.3164,50.8856 L72.1377,56.1532 C72.3038,56.6156 72.3639,56.956 72.3639,56.956 L72.3857,56.956 C72.3857,56.956 72.4481,56.6156 72.6131,56.1532 L74.4939,50.8856 L75.4613,50.8856 L76.53,57.9646 L75.6263,57.9646 L75.6263,57.9646 Z" id="Fill-29" fill="#1F345D"></path>
            <path d="M94.1439,38.473 C89.1889,44.8915 47.7141,5.6543 47.7141,5.6543 L94.1439,38.473 L94.1439,38.473 Z" id="Fill-30" fill="#FED21F"></path>
            <path d="M45.7987,3.7018 C47.4854,24.3066 1.7617,37.5937 1.7617,37.5937 L45.7987,3.7018 L45.7987,3.7018 Z" id="Fill-31" fill="#F49303"></path>
            <path d="M13.4537,64.277 C13.547,64.4911 13.6218,64.7136 13.6763,64.9409 L87.3447,65.1447 C90.4328,59.4448 35.2794,62.7543 13.4537,64.277" id="Fill-32" fill="#FED21F"></path>
            <path d="M91.6605,65.2377 C91.6605,65.2377 9.9388,74.863 8.3607,63.4661 L91.6605,65.2377 L91.6605,65.2377 Z" id="Fill-33" fill="#F49303"></path>
        </g>
    </g>
</svg>