<svg width="97" height="77" xmlns="http://www.w3.org/2000/svg" xmlns:xlink="http://www.w3.org/1999/xlink"><title>otthon</title><defs><path d="M70.9.24H2.4C1.133.24.105 2.127.105 4.46v20.134c0 2.332 1.028 4.221 2.297 4.221H70.9c1.268 0 2.296-1.89 2.296-4.22V4.46c0-2.332-1.028-4.22-2.296-4.22zM.104.24h73.092v28.576H.104V.24z" id="a"/></defs><g fill="none" fill-rule="evenodd"><path d="M96.05 71.503l.002.132S.814 83.97.834 69.863L.795 5.968C.794 3.002 3.162.597 6.083.597h84.7c2.922 0 5.291 2.405 5.291 5.371l-.023 65.535z" fill="#FEFEFE"/><path d="M96.05 71.503l.002.132S.814 83.97.834 69.863L.795 5.968C.794 3.002 3.162.597 6.083.597h84.7c2.922 0 5.291 2.405 5.291 5.371l-.023 65.535z" stroke="#151515" stroke-width=".567"/><g transform="translate(12 7.89)"><mask id="b" fill="#fff"><use xlink:href="#a"/></mask><path d="M70.9.24H2.4C1.133.24.105 2.127.105 4.46v20.134c0 2.332 1.028 4.221 2.297 4.221H70.9c1.268 0 2.296-1.89 2.296-4.22V4.46c0-2.332-1.028-4.22-2.296-4.22" mask="url(#b)"/></g><path d="M21.902 49.427c-2.701 0-3.876-1.957-3.876-4.299 0-2.328 1.175-4.297 3.876-4.297 2.702 0 3.866 1.97 3.866 4.297 0 2.342-1.164 4.3-3.866 4.3zm0-7.347c-1.308 0-1.692 1.536-1.692 2.989 0 1.441.348 2.977 1.692 2.977 1.333 0 1.669-1.536 1.669-2.977 0-1.453-.371-2.99-1.669-2.99zm10.778.155v7.022h-2.124v-7.022h-1.884V41h5.893v1.235zm8.92 0v7.022h-2.125v-7.022h-1.884V41h5.893v1.235zm10.277 7.023v-3.613h-2.702v3.613h-2.113V41h2.113v3.431h2.702V41H54v8.257zm9.77.169c-2.7 0-3.877-1.957-3.877-4.299 0-2.328 1.177-4.297 3.877-4.297 2.701 0 3.866 1.97 3.866 4.297 0 2.342-1.165 4.3-3.866 4.3zm0-7.347c-1.309 0-1.692 1.536-1.692 2.989 0 1.441.348 2.977 1.692 2.977 1.333 0 1.67-1.536 1.67-2.977 0-1.453-.373-2.99-1.67-2.99zm13.313 7.178l-3.456-4.897c-.277-.396-.481-.805-.481-.805h-.024s.048.456.048.925v4.777H69.28V41h1.863l3.216 4.476c.312.431.492.816.492.816h.023s-.048-.443-.048-.889V41h1.777v8.257H74.96zm-53.61 8.839c-1.976 0-3.282-1.647-3.282-3.672 0-1.975 1.276-3.673 3.261-3.673.741 0 1.287.165 1.646.38l-.257.536a2.475 2.475 0 0 0-1.213-.3c-1.647 0-2.47 1.524-2.47 3.057 0 1.573.917 3.023 2.489 3.023.516 0 .896-.123 1.194-.277l.257.545c-.32.207-.945.38-1.625.38m5.073-.131v-7.08h3.879v.577h-2.953v2.552h2.664v.576h-2.664v2.786h2.953v.589zm12.429 0l-3.817-5.444c-.268-.38-.473-.74-.473-.74h-.03s.04.442.04.894v5.29h-.782v-7.08h.977l3.683 5.217c.31.43.474.752.474.752h.02s-.041-.414-.041-.865v-5.103h.77v7.079h-.821zm7.008-6.503v6.503h-.916v-6.503h-1.946v-.576h4.806v.576zm9.177 6.503l-2.942-3.437h-.02v3.437h-.917v-6.833c.454-.205 1.225-.38 2.027-.38 1.801 0 2.767.792 2.767 2.067 0 1.266-.925 1.936-2.643 1.975v.021l2.87 3.15h-1.142zm-1.871-6.698c-.463 0-.855.092-1.092.204v2.934c.195.051.526.091.854.091 1.408 0 2.1-.575 2.1-1.645 0-1.081-.619-1.584-1.862-1.584zm9.054 6.83c-1.605 0-2.573-.926-2.573-2.12v-5.09h.927v5.09c0 .927.843 1.44 1.697 1.44.852 0 1.688-.513 1.688-1.44v-5.09h.844v5.09c0 1.194-.978 2.12-2.583 2.12m13.406-.132l-.73-5.454c-.063-.441-.063-.833-.063-.833h-.02s-.082.392-.237.833c0 0-1.892 5.36-1.934 5.454h-.585L70.142 52.5c-.143-.422-.225-.823-.225-.823l-.02.01s-.012.39-.073.813l-.75 5.464h-.793l1.07-7.08h.965l1.822 5.268c.166.463.226.803.226.803h.022s.062-.34.227-.803l1.88-5.267h.968l1.069 7.079h-.904z" fill="#1F345D"/><path d="M94.144 38.473c-4.955 6.419-46.43-32.819-46.43-32.819l46.43 32.819z" fill="#FED21F"/><path d="M45.799 3.702C47.485 24.307 1.762 37.594 1.762 37.594L45.799 3.702z" fill="#F49303"/><path d="M13.454 64.277c.093.214.168.437.222.664l73.669.204c3.088-5.7-52.066-2.39-73.891-.868" fill="#FED21F"/><path d="M91.66 65.238s-81.72 9.625-83.3-1.772l83.3 1.772z" fill="#F49303"/></g></svg>