<svg width="153" height="46" viewBox="0 0 153 46" xmlns="http://www.w3.org/2000/svg"><title>walter auto</title><g fill="none" fill-rule="evenodd"><path d="M42.805 23.396c4.052 0 7.015 2.643 6.849 6.401-.021.476-.318.591-.422.14-.635-2.75-3.091-4.454-6.7-4.454-3.866.057-7.263 2.108-9.054 5.056-.318.525-.88.865-.596-.02 1.302-4.073 5.646-7.123 9.923-7.123zm71.466-3.61c5.12-.245 8.455 3.175 8.262 7.693-.024.571-.37.71-.491.168-.738-3.305-3.517-5.458-8.09-5.353-4.5.103-8.456 2.533-10.542 6.077-.37.63-1.024 1.04-.694-.025 1.516-4.895 5.787-8.287 11.555-8.56zm-4.66-9.964c-16.101.535-36.572 3.73-45.66 6.386-1.138.333-1.083.854-.116.737 8.995-1.091 32.27-4.268 51.392-5.128 1.789-.08-2.063-2.113-5.616-1.995zm-88.033 19.26c2.159-4.017 4.646-5.865 8.077-7.74 3.326-1.818 11.823-3.787 15.41-4.58 7.647-1.693 10.48-3.452 16.696-7.003C69.565 5.3 72.933 2.877 80.924 1.743 87.296.84 96.372.45 102.791.39c7.224-.066 9.912.948 17.827 5.336 3.885 2.155 6.38 3.023 11.149 3.666 1.282.173 1.844.698.217.797-11.603.707-11.998-.318-19.222-4.252-3.653-1.989-6.987-3.89-11.85-3.815-6.528.102-11.247.494-17.612 1.435-7.86 1.161-11.66 3.94-17.323 7.74-5.519 3.705-7.59 5.157-13.415 6.447-5.907 1.308-14.738 2.293-20.266 4.587-4.101 1.701-7.147 3.579-10.226 7.082-.59.672-.838.313-.492-.331z" fill="#DC2A1B"/><path d="M19.572 38.845l-4.425 6.282c-.3.428-.863.642-1.69.642-.66 0-1.26-.183-1.799-.55a.812.812 0 0 1-.198-.16l-3.4-4.311a.611.611 0 0 1-.125-.39c0-.305.192-.535.575-.688.288-.122.579-.183.879-.183.54 0 .917.152 1.133.458l1.94 2.675 3.387-5.014c.288-.428.857-.642 1.708-.642.468 0 .912.092 1.331.276.588.229.882.58.882 1.054a.94.94 0 0 1-.198.551zM7.863 45.586a3.4 3.4 0 0 1-1.134.184c-.827 0-1.39-.215-1.69-.643L.614 38.845a.939.939 0 0 1-.197-.55c0-.474.293-.826.88-1.055.42-.184.864-.276 1.332-.276.824 0 1.388.215 1.687.646l4.446 6.28c.12.167.18.351.18.55 0 .52-.36.901-1.079 1.146zM29.357 39.9v-.574c0-.275-.168-.481-.504-.62a1.842 1.842 0 0 0-.756-.16h-5.521c-.312 0-.612-.045-.9-.137-.42-.138-.63-.352-.63-.642 0-.29.205-.504.612-.642.276-.107.57-.16.882-.16h6.889c.863 0 1.697.175 2.5.527 1.09.474 1.637 1.162 1.637 2.064v4.952c0 .428-.282.757-.846.986a3.272 3.272 0 0 1-2.518 0c-.563-.214-.845-.542-.845-.986v-2.27c0-.26-.168-.466-.504-.619a1.84 1.84 0 0 0-.756-.16h-3.111a1.84 1.84 0 0 0-.756.16c-.335.153-.503.36-.503.62v1.077c0 .26.168.466.503.62.24.106.492.16.756.16h1.529c.3 0 .605.053.917.16.42.153.63.375.63.665 0 .275-.21.497-.63.665-.312.107-.617.16-.917.16h-2.86a6.17 6.17 0 0 1-2.5-.527c-1.091-.474-1.637-1.162-1.637-2.064v-.687c0-.887.546-1.575 1.637-2.064a6.415 6.415 0 0 1 2.5-.505h5.702zm16.511 5.846h-4.496c-1.463 0-2.788-.282-3.975-.848-1.643-.795-2.465-1.98-2.465-3.554V38.18c0-.428.282-.757.846-.986a3.554 3.554 0 0 1 2.518 0c.563.23.845.558.845.986v3.164c0 1.024.426 1.773 1.277 2.247.624.337 1.397.504 2.32.504h3.148c.312 0 .611.054.9.161.42.153.63.375.63.665 0 .29-.217.512-.649.665-.3.107-.599.16-.899.16zm2.266-1.238c0 .428.282.757.846.986a3.553 3.553 0 0 0 2.518 0c.564-.23.845-.558.845-.986l-.018-5.961h2.968c.636 0 1.073-.031 1.313-.092.432-.107.648-.329.648-.665 0-.138-.018-.222-.055-.252-.635-.397-1.27-.596-1.906-.596H45.15c-1.307 0-1.96.282-1.96.848 0 .336.215.558.647.665.24.06.677.092 1.313.092h2.967l.018 5.961zm20.649-2.602c-.324.16-.678.24-1.061.24h-3.867c-.3 0-.606-.053-.918-.16-.42-.153-.63-.374-.63-.665 0-.29.21-.512.63-.665.312-.107.618-.16.918-.16h3.867c.3 0 .605.053.917.16.42.153.63.375.63.665 0 .23-.162.424-.486.585zm0 3.6c-.324.16-.678.24-1.061.24h-4.515c-1.475 0-2.806-.282-3.993-.848-1.643-.795-2.464-1.98-2.464-3.554 0-1.574.821-2.751 2.464-3.531 1.187-.566 2.518-.849 3.993-.849h4.497c.312 0 .617.054.917.161.42.153.63.374.63.665 0 .29-.21.512-.63.665-.312.107-.617.16-.917.16h-3.13c-.923 0-1.72.176-2.392.528-.923.474-1.385 1.215-1.385 2.224 0 .994.468 1.727 1.403 2.201.671.352 1.463.527 2.374.527h3.148c.3 0 .605.054.917.161.42.153.63.375.63.665 0 .23-.162.424-.486.585zm6.78-3.864c0-.275.21-.49.63-.642.3-.107.606-.168.918-.183h1.708c.264 0 .516-.054.756-.161.336-.137.503-.344.503-.62v-.916c0-.382-.422-.573-1.267-.573h-3.13c-.846 0-1.269.19-1.269.573v5.411c0 .428-.281.757-.845.986a3.466 3.466 0 0 1-1.259.23c-.432 0-.852-.077-1.259-.23-.563-.23-.845-.558-.845-.986v-4.975c0-.016.006-.077.018-.184.096-.84.665-1.475 1.709-1.903a5.946 5.946 0 0 1 2.41-.505h5.27c1.774 0 3.051.344 3.83 1.032.444.382.666.788.666 1.215v.689c0 .718-.401 1.33-1.205 1.834a4.864 4.864 0 0 1-1.205.504l1.87 1.261c.36.256.54.566.54.933 0 .435-.302.776-.908 1.02-.45.195-.888.294-1.316.294-.486 0-.89-.107-1.208-.324l-4.644-3.184c-.311-.168-.467-.367-.467-.596zm28.313-1.811v-.573c0-.275-.168-.482-.504-.62a1.835 1.835 0 0 0-.756-.16h-5.521c-.312 0-.612-.045-.9-.137-.42-.138-.63-.352-.63-.642 0-.29.205-.505.612-.642.276-.107.57-.16.882-.16h6.889c.863 0 1.696.175 2.5.526 1.09.474 1.636 1.162 1.636 2.064v4.953c0 .428-.281.757-.845.986a3.267 3.267 0 0 1-2.518 0c-.563-.214-.846-.543-.846-.986v-2.27c0-.26-.167-.466-.503-.62a1.835 1.835 0 0 0-.756-.16h-3.111c-.264 0-.516.054-.756.16-.336.154-.503.36-.503.62v1.078c0 .26.167.466.503.619.24.107.492.16.756.16h1.529c.3 0 .605.054.917.16.42.154.63.375.63.666 0 .275-.21.497-.63.665a2.82 2.82 0 0 1-.917.16h-2.86a6.174 6.174 0 0 1-2.5-.527c-1.092-.474-1.637-1.162-1.637-2.064V42.4c0-.886.545-1.574 1.636-2.063a6.418 6.418 0 0 1 2.5-.505h5.703zm42.026-3.165l-.174.23h-3.181c-.864 0-1.697.176-2.5.527-1.092.474-1.637 1.162-1.637 2.064v3.6c0 .902.545 1.59 1.637 2.064a6.17 6.17 0 0 0 2.5.527h5.773c.863 0 1.697-.176 2.5-.527 1.092-.49 1.637-1.177 1.637-2.064v-3.6c0-.886-.545-1.574-1.637-2.064a6.55 6.55 0 0 0-1.125-.37c-.042.069-.089.141-.14.22-.516.692-.85 1.197-1.323 1.845.01.045.016.09.016.14v3.99c0 .26-.168.466-.504.619-.24.107-.491.16-.755.16h-3.112c-.263 0-.515-.053-.755-.16-.336-.153-.503-.36-.503-.62v-3.989c0-.275.167-.482.503-.62.24-.106.492-.16.755-.16h.66l-.448.595c-.494.656-.202.81.903.798 1.101-.013 1.472-.066 2.037-.847l1.594-2.205c.58-.804.303-1.003-.291-1.007l-.987-.005c-.613-.003-1.1.34-1.443.859zm-23.249 3.555v2.843c-.012.902-.566 1.59-1.66 2.064a6.067 6.067 0 0 1-2.488.528h-4.887a6.194 6.194 0 0 1-2.506-.528c-1.094-.474-1.643-1.162-1.643-2.064v-4.952c0-.444.282-.772.846-.986a3.272 3.272 0 0 1 2.518 0c.563.214.845.542.845.986v5.113c0 .26.168.466.504.619.24.107.492.16.755.16h2.212c.264 0 .516-.053.756-.16.336-.153.504-.359.504-.62v-5.112c0-.444.284-.772.851-.986a3.342 3.342 0 0 1 2.542 0c.566.214.851.542.851.986v2.11zm5.882 4.219c0 .428.282.757.846.986a3.558 3.558 0 0 0 2.517 0c.564-.23.846-.558.846-.986l-.018-5.962h2.968c.635 0 1.073-.03 1.313-.091.431-.107.647-.329.647-.665 0-.138-.018-.222-.054-.253-.635-.397-1.27-.596-1.906-.596h-10.145c-1.307 0-1.96.283-1.96.849 0 .336.216.558.647.665.24.06.678.091 1.313.091h2.968l.018 5.962z" fill="#151515"/></g></svg>